<?xml version="1.0" encoding="utf-8"?>
<!-- Generator: Adobe Illustrator 19.1.0, SVG Export Plug-In . SVG Version: 6.00 Build 0)  -->
<!DOCTYPE svg PUBLIC "-//W3C//DTD SVG 1.1//EN" "http://www.w3.org/Graphics/SVG/1.1/DTD/svg11.dtd">
<svg version="1.1" id="Layer_1" xmlns="http://www.w3.org/2000/svg" xmlns:xlink="http://www.w3.org/1999/xlink" x="0px" y="0px"
	 viewBox="0 0 1648.1 1093.4" style="enable-background:new 0 0 1648.1 1093.4;" xml:space="preserve">
<style type="text/css">
	.st0{fill-rule:evenodd;clip-rule:evenodd;fill:#128CAB;}
	.st1{fill-rule:evenodd;clip-rule:evenodd;fill:#17869D;}
	.st2{fill-rule:evenodd;clip-rule:evenodd;fill:#107488;}
	.st3{fill:#FFFFFF;}
	.st4{fill-rule:evenodd;clip-rule:evenodd;fill:none;stroke:#FFFFFF;stroke-width:2;stroke-miterlimit:10;}
	.st5{fill:#128CAB;}
	.st6{fill:#17869D;}
	.st7{fill-rule:evenodd;clip-rule:evenodd;fill:none;stroke:#62B3CC;stroke-miterlimit:10;}
	.st8{fill:none;stroke:#62B3CC;stroke-miterlimit:10;}
	.st9{fill:none;stroke:#FFFFFF;stroke-width:2;stroke-miterlimit:10;}
	.st10{fill:#A7D6DD;}
	.st11{opacity:0.2;}
	.st12{fill:#CCCCCC;}
	.st13{fill:#808285;}
	.st14{fill:#6B428A;}
	.st15{fill:#9C80B9;}
	.st16{fill:none;stroke:#6B428A;stroke-width:1.1076;stroke-miterlimit:10;}
	.st17{fill:none;stroke:#6B428A;stroke-width:1.1076;stroke-miterlimit:10;stroke-dasharray:1.1101,1.1101;}
	.st18{fill:none;stroke:#6B428A;stroke-miterlimit:10;}
	.st19{fill:none;stroke:#6B428A;stroke-miterlimit:10;stroke-dasharray:1.0095,1.0095;}
	.st20{fill:none;stroke:#F8BD30;stroke-width:12.0543;stroke-miterlimit:10;}
	.st21{display:none;opacity:0.1;fill:url(#);}
	.st22{fill:none;stroke:#CCCCCC;stroke-width:1.5068;stroke-miterlimit:10;}
	.st23{fill:none;stroke:#CCCCCC;stroke-width:0.7534;stroke-miterlimit:10;}
	.st24{fill:#FFFFFF;stroke:#CCCCCC;stroke-width:1.5068;stroke-miterlimit:10;}
	.st25{opacity:0.2;fill:#BAB9B8;}
	.st26{opacity:0.4;}
	.st27{opacity:0.3;fill:url(#);}
	.st28{fill:none;stroke:#6B428A;stroke-width:7.5525;stroke-miterlimit:10;}
	.st29{opacity:0.9;fill:#9C80B9;}
	.st30{opacity:0.8;}
	.st31{opacity:0.1;fill:url(#);}
	.st32{fill:none;stroke:#CCCCCC;stroke-width:3.7714;stroke-miterlimit:10;}
	.st33{fill:none;stroke:#BAB9B8;stroke-width:1.6019;stroke-miterlimit:10;}
	.st34{opacity:0.3;fill:#BAB9B8;}
	.st35{fill:#BCBEC0;}
	.st36{fill:#BAB9B8;}
	.st37{fill:none;stroke:#BAB9B8;stroke-width:1.5105;stroke-miterlimit:10;}
	.st38{fill:#FFFFFF;stroke:#BAB9B8;stroke-width:3.021;stroke-miterlimit:10;}
	.st39{fill:none;stroke:#BAB9B8;stroke-width:3.021;stroke-miterlimit:10;}
	.st40{clip-path:url(#SVGID_1_);}
	.st41{fill:#FFFFFF;stroke:#BAB9B8;stroke-width:3.0093;stroke-miterlimit:10;}
	.st42{fill:none;stroke:#BAB9B8;stroke-width:1.3488;stroke-miterlimit:10;}
	.st43{opacity:0.5;fill:#BAB9B8;}
	.st44{clip-path:url(#SVGID_2_);}
	.st45{fill:none;stroke:#BAB9B8;stroke-width:0.3009;stroke-miterlimit:10;}
	.st46{opacity:0.4;fill:#C9C9C9;}
	.st47{fill:#FFFFFF;stroke:#BAB9B8;stroke-width:3.001;stroke-miterlimit:10;}
	.st48{fill:none;stroke:#BAB9B8;stroke-width:0.3001;stroke-miterlimit:10;}
	.st49{fill:#B9B9B8;}
	.st50{fill:none;stroke:#B9B9B7;stroke-width:1.2004;stroke-miterlimit:10;}
	.st51{opacity:0.1;fill:#6B428A;}
	.st52{fill:#FFFFFF;stroke:#CCCCCC;stroke-width:3.0991;stroke-miterlimit:10;}
	.st53{fill:none;stroke:#CCCCCC;stroke-width:0.8486;stroke-miterlimit:10;}
	.st54{fill:#FFFFFF;stroke:#CCCCCC;stroke-width:4;stroke-miterlimit:10;}
	.st55{fill:#FFFFFF;stroke:#CCCCCC;stroke-width:5;stroke-miterlimit:10;}
	.st56{fill:none;stroke:#CCCCCC;stroke-width:1.6973;stroke-miterlimit:10;}
	.st57{fill:#D93850;}
	.st58{fill:none;stroke:#6B428A;stroke-width:2.2657;stroke-miterlimit:10;}
	.st59{fill:#467697;stroke:#6B428A;stroke-width:2.2399;stroke-miterlimit:10;}
	.st60{fill:none;stroke:#6B428A;stroke-width:0.8194;stroke-miterlimit:10;}
	.st61{fill:none;stroke:#6B428A;stroke-width:0.5784;stroke-miterlimit:10;}
	.st62{fill:none;stroke:#6B428A;stroke-width:3.021;stroke-miterlimit:10;}
	.st63{opacity:0.4;fill:url(#);}
	.st64{fill:none;stroke:#128CAB;stroke-width:7.5525;stroke-miterlimit:10;}
	.st65{opacity:0.9;fill:#62B3CC;}
	.st66{clip-path:url(#SVGID_3_);}
	.st67{clip-path:url(#SVGID_5_);}
	.st68{opacity:0.1;fill:#128CAB;}
	.st69{fill:none;stroke:#128CAB;stroke-width:2.2657;stroke-miterlimit:10;}
	.st70{fill:#467697;stroke:#128CAB;stroke-width:2.2399;stroke-miterlimit:10;}
	.st71{fill:none;stroke:#128CAB;stroke-width:0.8194;stroke-miterlimit:10;}
	.st72{fill:none;stroke:#128CAB;stroke-width:0.5784;stroke-miterlimit:10;}
	.st73{fill:none;stroke:#128CAB;stroke-width:3.021;stroke-miterlimit:10;}
	.st74{opacity:0.5;fill:#CCCCCC;}
	.st75{opacity:0.5;fill:#6B428A;}
	.st76{opacity:0.5;fill:#9C80B9;}
	.st77{fill:none;stroke:#CCCCCC;stroke-width:3.0136;stroke-miterlimit:10;}
	.st78{fill:#FFFFFF;stroke:#BAB9B8;stroke-width:3.0136;stroke-miterlimit:10;}
	.st79{fill:none;stroke:#BAB9B8;stroke-width:0.8252;stroke-miterlimit:10;}
	.st80{fill:#FFFFFF;stroke:#BAB9B8;stroke-width:3.767;stroke-miterlimit:10;}
	.st81{fill:none;stroke:#BAB9B8;stroke-width:1.6505;stroke-miterlimit:10;}
	.st82{fill:#FFFFFF;stroke:#CCCCCC;stroke-width:8;stroke-miterlimit:10;}
	.st83{opacity:0.6;}
	.st84{fill:none;stroke:#F8BD30;stroke-width:12.0543;stroke-linecap:round;stroke-miterlimit:10;}
	.st85{fill:none;stroke:#CCCCCC;stroke-width:4.5203;stroke-miterlimit:10;}
	.st86{fill:#F8BD30;}
	.st87{fill:none;stroke:#F8BD30;stroke-width:12.0543;stroke-linecap:round;stroke-linejoin:round;stroke-miterlimit:10;}
	.st88{fill:none;stroke:#F8BD30;stroke-width:12.1703;stroke-miterlimit:10;}
	.st89{fill:none;stroke:#CCCCCC;stroke-width:1.5213;stroke-miterlimit:10;}
	.st90{fill:none;stroke:#CCCCCC;stroke-width:0.7606;stroke-miterlimit:10;}
	.st91{fill:#FFFFFF;stroke:#CCCCCC;stroke-width:1.5213;stroke-miterlimit:10;}
	.st92{opacity:0.5;fill:#107488;}
	.st93{opacity:0.5;fill:#128CAB;}
	.st94{fill:#107488;}
	.st95{fill:none;stroke:#CCCCCC;stroke-width:3.0426;stroke-miterlimit:10;}
	.st96{fill:#FFFFFF;stroke:#BAB9B8;stroke-width:3.0426;stroke-miterlimit:10;}
	.st97{fill:none;stroke:#BAB9B8;stroke-width:0.8332;stroke-miterlimit:10;}
	.st98{fill:#FFFFFF;stroke:#BAB9B8;stroke-width:3.8032;stroke-miterlimit:10;}
	.st99{fill:none;stroke:#BAB9B8;stroke-width:1.6664;stroke-miterlimit:10;}
	.st100{fill:none;stroke:#F8BD30;stroke-width:12.1703;stroke-linecap:round;stroke-miterlimit:10;}
	.st101{fill:none;stroke:#CCCCCC;stroke-width:4.5639;stroke-miterlimit:10;}
	.st102{fill:none;stroke:#F8BD30;stroke-width:12.1703;stroke-linecap:round;stroke-linejoin:round;stroke-miterlimit:10;}
	.st103{opacity:0.3;}
	.st104{fill:none;stroke:#9C80B9;stroke-width:6.3783;stroke-linecap:round;stroke-miterlimit:10;}
	.st105{fill:none;stroke:#9C80B9;stroke-width:6.3783;stroke-linecap:round;stroke-miterlimit:10;stroke-dasharray:6.3047,25.2187;}
	.st106{fill:none;stroke:#F8BD30;stroke-width:6.4739;stroke-linecap:round;stroke-miterlimit:10;}
	.st107{fill:none;stroke:#F8BD30;stroke-width:6.4739;stroke-linecap:round;stroke-miterlimit:10;stroke-dasharray:6.4958,25.9834;}
	.st108{fill:#414042;}
	
		.st109{fill:none;stroke:#CCCCCC;stroke-width:10.7899;stroke-linecap:round;stroke-miterlimit:10;stroke-dasharray:6.4739,25.8957;}
	.st110{fill:none;stroke:#E6E7E8;stroke-width:10.7899;stroke-linecap:round;stroke-miterlimit:10;}
	.st111{fill:#BBBDBF;}
	.st112{fill:#939598;}
	.st113{opacity:0.5;fill:#FFFFFF;}
	.st114{fill:#FFFFFF;stroke:#CCCCCC;stroke-width:7.8459;stroke-miterlimit:10;}
	.st115{fill:none;stroke:#CCCCCC;stroke-width:4.7075;stroke-miterlimit:10;}
	.st116{fill:#FFFFFF;stroke:#CCCCCC;stroke-width:4.7075;stroke-miterlimit:10;}
	.st117{fill:#467697;stroke:#CCCCCC;stroke-width:4.2896;stroke-miterlimit:10;}
	.st118{fill:none;stroke:#CCCCCC;stroke-width:1.5692;stroke-miterlimit:10;}
	.st119{fill:none;stroke:#CCCCCC;stroke-width:1.1076;stroke-miterlimit:10;}
	.st120{opacity:0.3;fill:#CCCCCC;}
	
		.st121{fill:none;stroke:#F8BD30;stroke-width:10.7899;stroke-linecap:round;stroke-miterlimit:10;stroke-dasharray:6.4739,25.8957;}
	.st122{fill:none;stroke:#F8BD30;stroke-width:10.7899;stroke-linecap:round;stroke-miterlimit:10;}
	.st123{fill:none;stroke:#CCCCCC;stroke-width:5.9068;stroke-miterlimit:10;}
	.st124{fill:none;stroke:#CCCCCC;stroke-width:2.624;stroke-miterlimit:10;}
	.st125{fill:none;stroke:#CCCCCC;stroke-width:1.654;stroke-miterlimit:10;}
	.st126{fill:#FFFFFF;stroke:#CCCCCC;stroke-width:8.8602;stroke-miterlimit:10;}
	.st127{fill:none;stroke:#CCCCCC;stroke-width:2.9534;stroke-linecap:round;stroke-linejoin:round;stroke-miterlimit:10;}
	.st128{fill:#FFFFFF;stroke:#CCCCCC;stroke-width:2.9534;stroke-linecap:round;stroke-linejoin:round;stroke-miterlimit:10;}
	.st129{fill:#FFFFFF;stroke:#CCCCCC;stroke-width:5.9068;stroke-linecap:round;stroke-linejoin:round;stroke-miterlimit:10;}
	.st130{fill:none;stroke:#CCCCCC;stroke-width:5.9421;stroke-miterlimit:10;}
	.st131{fill:none;stroke:#CCCCCC;stroke-width:2;stroke-miterlimit:10;}
	.st132{fill:#FFFFFF;stroke:#CCCCCC;stroke-width:2;stroke-miterlimit:10;}
	.st133{fill:none;stroke:#6B428A;stroke-miterlimit:10;stroke-dasharray:1.0138,1.0138;}
	.st134{fill:#D1D3D4;}
	.st135{fill:#E6E7E8;}
	.st136{fill:none;stroke:#9C80B9;stroke-width:2;stroke-miterlimit:10;}
	.st137{fill:none;stroke:#D1D3D4;stroke-miterlimit:10;}
	.st138{fill:none;stroke:#D1D3D4;stroke-miterlimit:10;stroke-dasharray:1.0095,1.0095;}
	.st139{fill:none;stroke:#D1D3D4;stroke-miterlimit:10;stroke-dasharray:1.0138,1.0138;}
	.st140{fill:none;stroke:#6B428A;stroke-miterlimit:10;stroke-dasharray:1.0006,1.0006;}
	.st141{fill:none;stroke:#6B428A;stroke-miterlimit:10;stroke-dasharray:1.0045,1.0045;}
	.st142{fill:none;stroke:#D1D3D4;stroke-miterlimit:10;stroke-dasharray:1.0025,1.0025;}
	.st143{fill:none;stroke:#D1D3D4;stroke-miterlimit:10;stroke-dasharray:1.017,1.017;}
	.st144{fill:none;stroke:#D1D3D4;stroke-width:1.1076;stroke-miterlimit:10;}
	.st145{fill:none;stroke:#D1D3D4;stroke-width:1.1076;stroke-miterlimit:10;stroke-dasharray:1.1101,1.1101;}
	.st146{fill:none;stroke:#128CAB;stroke-width:2;stroke-miterlimit:10;}
	.st147{fill:#FFFFFF;stroke:#CCCCCC;stroke-width:2.4962;stroke-miterlimit:10;}
	.st148{fill:none;stroke:#CCCCCC;stroke-width:0.6836;stroke-miterlimit:10;}
	.st149{fill:#FFFFFF;stroke:#CCCCCC;stroke-width:3;stroke-miterlimit:10;}
	.st150{fill:none;stroke:#CCCCCC;stroke-width:1.3671;stroke-miterlimit:10;}
	.st151{fill:none;stroke:#CCCCCC;stroke-width:1.1197;stroke-miterlimit:10;}
	.st152{fill:#E6E6E5;}
	.st153{fill:none;stroke:#CCCCCC;stroke-width:1.6109;stroke-miterlimit:10;}
</style>
<symbol  id="New_Symbol_2_2_" viewBox="-7.1 -36 14.2 72">
	<path class="st0" d="M-6.1-31.5c0,3.4,0,62.8,0,63.3c0.4,2.3,3.8,3.2,5.9,3.2c2.1,0,5.6-0.8,6.2-3l0.1-0.5v-63c0-0.2,0-0.3-0.1-0.5
		c-0.2-0.9-1-1.6-1.9-2.1C3-34.7,1.6-35,0.2-35h0l0,0l0,0c0,0-0.1,0-0.1,0c-1.3,0-2.7,0.3-3.8,0.8c-1,0.5-1.9,1.1-2.2,2.1l0,0l0,0
		C-6.1-31.9-6.1-31.7-6.1-31.5z"/>
	<path class="st1" d="M0,28.8V-35c0,0,5.4-1,6.1,3.5s0,63,0,63S3.9,27.9,0,28.8z"/>
	<g>
		<path class="st2" d="M0,28.3c-0.9,0-2.7,0.1-4.1,1c-0.6,0.3-1.6,1.1-1.6,2.2c0,1.1,1,1.8,1.6,2.2c1.5,0.9,3.2,1,4.2,1
			c0.9,0,2.7-0.1,4.2-1c0.6-0.3,1.6-1.1,1.6-2.2c0-1.1-1-1.8-1.6-2.2C2.7,28.4,0.9,28.3,0,28.3z"/>
		<path class="st3" d="M0,34.2c1.3,0,2.8-0.3,3.9-0.9c0.6-0.4,1.4-1,1.4-1.8c0-0.8-0.8-1.4-1.4-1.8c-1.1-0.7-2.6-0.9-3.9-0.9
			c-1.3,0-2.8,0.3-3.9,0.9c-0.6,0.4-1.4,1-1.4,1.8c0,0.8,0.7,1.4,1.4,1.8C-2.8,33.9-1.3,34.2,0,34.2 M0,35.2c-1,0-2.8-0.1-4.4-1.1
			c-1.2-0.7-1.9-1.6-1.9-2.6c0-1,0.7-1.9,1.9-2.6c1.6-0.9,3.4-1.1,4.4-1.1c1,0,2.8,0.1,4.4,1.1c1.2,0.7,1.9,1.6,1.9,2.6
			c0,1.4-1.2,2.2-1.9,2.6C2.8,35,1,35.2,0,35.2L0,35.2z"/>
	</g>
	<path class="st4" d="M-6.1-31.5c0,3.4,0,62.8,0,63.3c0.4,2.3,3.8,3.2,5.9,3.2c2.1,0,5.6-0.8,6.2-3l0.1-0.5v-63c0-0.2,0-0.3-0.1-0.5
		c-0.2-0.9-1-1.6-1.9-2.1C3-34.7,1.6-35,0.2-35h0l0,0l0,0c0,0-0.1,0-0.1,0c-1.3,0-2.7,0.3-3.8,0.8c-1,0.5-1.9,1.1-2.2,2.1l0,0l0,0
		C-6.1-31.9-6.1-31.7-6.1-31.5z"/>
</symbol>
<symbol  id="New_Symbol_3_1_" viewBox="-22.3 -17.6 44.6 35.3">
	<polygon class="st5" points="-5.8,16.5 21.3,1.6 21.3,-8.4 6,-16.5 -21.3,-1 -21.3,8.4 	"/>
	<polygon class="st6" points="6,-16.5 21.3,-8.4 21.3,1.6 6,-6.8 	"/>
	<polyline class="st7" points="-21.3,8.4 6,-6.8 21.3,1.6 	"/>
	<line class="st8" x1="6" y1="-16.5" x2="6" y2="-6.8"/>
	<polygon class="st9" points="-5.8,16.5 21.3,1.6 21.3,-8.4 6,-16.5 -21.3,-1 -21.3,8.4 	"/>
</symbol>
<symbol  id="New_Symbol_4_1_" viewBox="-45.2 -45.3 90.5 90.6">
	<polygon class="st5" points="-44.2,-17.1 -44.1,17.5 1.8,44.2 44.2,18.7 44.2,-17.4 0.6,-44.1 	"/>
	<polygon class="st6" points="44.2,-17.4 0.7,-44.1 0.7,-8.4 44.2,18.4 	"/>
	<polyline class="st8" points="44.2,18.7 0.6,-8.9 -44.2,17.6 	"/>
	<line class="st8" x1="0.7" y1="-44.4" x2="0.7" y2="-8.4"/>
	<g>
		<polygon class="st10" points="23.9,-3 21.3,-4.6 21.3,-11.1 23.9,-9.5 		"/>
		<polygon class="st10" points="26.9,-1.2 24.3,-2.8 24.3,-9.3 26.9,-7.7 		"/>
	</g>
	<g>
		<polygon class="st10" points="33.2,-3.8 35.8,-2.2 35.8,4.2 33.2,2.6 		"/>
		<polygon class="st10" points="36.1,4.4 36.1,-2 38.8,-0.4 38.8,6 		"/>
	</g>
	<polygon class="st6" points="-35.4,-15.4 -33,-16.8 -33,4.9 -35.4,6.3 	"/>
	<polygon class="st6" points="-20.3,-2.4 -22.7,-1 -22.7,-22.7 -20.3,-24.1 	"/>
	<polygon class="st6" points="-31.1,-17.8 -28.8,-19.2 -28.8,2.5 -31.1,3.9 	"/>
	<polygon class="st6" points="-26.9,-20.3 -24.6,-21.6 -24.6,0.1 -26.9,1.4 	"/>
	<polygon class="st6" points="-18.4,-25.7 -16,-27.1 -16,-5.4 -18.4,-4 	"/>
	<polygon class="st6" points="-14.1,-28.2 -11.8,-29.5 -11.8,-7.8 -14.1,-6.4 	"/>
	<polygon class="st6" points="-9.9,-30.6 -7.5,-31.9 -7.5,-10.2 -9.9,-8.9 	"/>
	<g>
		<polygon class="st10" points="12.1,-9.5 9.5,-11.1 9.5,-17.5 12.1,-15.9 		"/>
		<polygon class="st10" points="15.1,-7.6 12.5,-9.2 12.5,-15.7 15.1,-14.1 		"/>
	</g>
	<g>
		<polygon class="st10" points="24.1,-16.7 21.4,-18.3 21.4,-24.8 24.1,-23.2 		"/>
		<polygon class="st10" points="27,-14.9 24.4,-16.5 24.4,-23 27,-21.4 		"/>
	</g>
	<g>
		<polygon class="st10" points="33.3,-17.5 35.9,-15.9 35.9,-9.5 33.3,-11.1 		"/>
		<polygon class="st10" points="36.3,-9.3 36.3,-15.7 38.9,-14.1 38.9,-7.7 		"/>
	</g>
	<g>
		<polygon class="st10" points="12.3,-23.2 9.6,-24.7 9.6,-31.2 12.3,-29.6 		"/>
		<polygon class="st10" points="15.2,-21.3 12.6,-22.9 12.6,-29.4 15.2,-27.8 		"/>
	</g>
	<polygon class="st9" points="-44.2,-17.1 -44.1,17.5 1.8,44.2 44.2,18.7 44.2,-17.4 0.6,-44.1 	"/>
</symbol>
<path class="st20" d="M1166.2,602c-23.5,115.1-88.3,215.1-178.2,283.9"/>
<g>
	<g>
		<path class="st3" d="M834.2,1042.7c-7.7,0-14.7-1.7-20.2-4.9L516.3,866.4c-5.8-3.4-9-8-9-13c0-1.1-0.8-27.7-0.8-29.2
			c0-5.5,3.4-10.4,9.6-14l121.3-70c5.5-3.2,12.8-4.9,20.5-4.9c7.7,0,15,1.8,20.5,4.9l297.7,171.5c5.6,3.2,8.9,7.7,9.4,12.7l0,0.1
			l0.1,29.7c0,4.8-3.7,9.9-9.5,13.3l-121.4,70.2C848.9,1040.9,841.7,1042.7,834.2,1042.7L834.2,1042.7z"/>
		<path class="st12" d="M657.8,737.1c7.4,0,14.3,1.7,19.5,4.7L975,913.3c5.1,3,8,6.9,8.4,11.2l0.1,29.6c0,4.3-3.5,8.8-8.6,11.7
			L853.6,1036c-5.4,3.1-12.3,4.8-19.4,4.8c-7.1,0-13.9-1.5-19.3-4.6L517.2,864.7c-5.2-3-8.1-7.1-8.1-11.4c0,0-0.8-27.8-0.8-29.2
			c0-4.8,3.1-9.2,8.6-12.4l121.3-70C643.5,738.7,650.4,737.1,657.8,737.1 M657.8,733.3c-8,0-15.6,1.8-21.4,5.2l-121.3,70
			c-6.8,3.9-10.5,9.5-10.5,15.6c0,1.4,0.8,26.2,0.8,29.3c0,5.7,3.6,10.9,9.9,14.6L813,1039.5c5.8,3.4,13.1,5.1,21.2,5.1
			c7.8,0,15.4-1.9,21.3-5.3l121.4-70.3c6.5-3.7,10.5-9.5,10.5-14.9l-0.1-29.6l0-0.2l0-0.2c-0.5-5.6-4.2-10.6-10.3-14.1L679.2,738.5
			C673.4,735.1,665.8,733.3,657.8,733.3L657.8,733.3z"/>
	</g>
	<path class="st22" d="M833.2,1012.6L833.2,1012.6c-7.4,0-14.3-1.7-19.5-4.7L516,836.4c-5.5-3.2-8.5-7.6-8.5-12.3
		c0-4.8,3.1-9.2,8.6-12.4l121.3-70c5.2-3,12.2-4.7,19.6-4.7c7.4,0,14.3,1.7,19.5,4.7l297.7,171.5c5.5,3.2,8.5,7.6,8.5,12.3
		c0,4.8-3.1,9.2-8.6,12.4l-121.3,70C847.5,1011,840.5,1012.6,833.2,1012.6z"/>
	<path class="st23" d="M608.4,774.3c-1.2,0-2.4,0.3-3.2,0.7l-35.3,20.4c-0.7,0.4-0.9,0.7-0.9,0.9c0,0.1,0.2,0.5,0.8,0.9
		c0.8,0.5,2,0.7,3.2,0.7l0,0c1.2,0,2.4-0.3,3.3-0.8l35.3-20.4c0.7-0.4,0.8-0.7,0.8-0.9c0-0.2-0.3-0.5-0.8-0.9
		C610.8,774.5,609.6,774.3,608.4,774.3z"/>
	<path class="st23" d="M871.4,960.6c-2.1,5.2,3.1,10.5,11.6,11.8c8.5,1.3,17.1-1.9,19.2-7.1s-3.1-10.5-11.6-11.8
		C882.1,952.1,873.5,955.3,871.4,960.6z"/>
	<polygon class="st24" points="923.4,905.7 806.1,978.9 539.7,830.8 666,758.9 	"/>
	<path class="st25" d="M975,914.8c5.5,3.2,8.5,7.6,8.5,12.3c0,4.8-3.1,9.2-8.6,12.4l-121.3,70c-5.2,3-12.2,4.7-19.6,4.7
		c-7.4,0-14.3-1.7-19.5-4.7L516.8,838c-3.7-2.2-6.3-4.9-7.5-7.8c0.2,8.2,0.7,24.7,0.7,24.7c0,4.3,2.9,8.4,8.1,11.4l297.7,171.5
		c5.4,3.1,12.2,4.6,19.3,4.6c7.1,0,14-1.7,19.4-4.8l121.4-70.3c5.1-2.9,8.6-7.4,8.6-11.7l-0.1-29.6c-0.4-4.3-3.3-8.3-8.4-11.2"/>
</g>
<g>
	<g class="st26">
		<g>
			<path class="st12" d="M715,643.1l-123,72.3c-7.5,4.4-7.7,11.4-0.3,15.6l120.4,68.5c7.4,4.2,19.4,4,26.9-0.4l123-72.3
				c7.5-4.4,7.7-11.4,0.3-15.6L742,642.7C734.6,638.5,722.5,638.7,715,643.1z M714.3,759.8l-27.6-61.7l107.1,15L714.3,759.8z"/>
		</g>
	</g>
	<g>
		<g>
			<path class="st12" d="M729.1,639.7c4.7,0,9.4,1,12.9,3l120.4,68.5c7.4,4.2,7.2,11.2-0.3,15.6l-123,72.3c-3.9,2.3-9,3.4-14,3.4
				c-4.7,0-9.4-1-12.9-3L591.7,731c-7.4-4.2-7.2-11.2,0.3-15.6l123-72.3C718.9,640.8,724,639.7,729.1,639.7 M714.3,759.8l79.5-46.7
				l-107.1-15L714.3,759.8 M729.1,636.7c-5.8,0-11.3,1.4-15.6,3.9l-123,72.3c-4.7,2.7-7.2,6.5-7.2,10.7c0,4,2.5,7.6,7,10.1
				l120.4,68.5c3.9,2.2,9,3.4,14.4,3.4c5.8,0,11.3-1.4,15.6-3.9l123-72.3c4.7-2.7,7.2-6.5,7.2-10.7c0-4-2.5-7.6-7-10.1l-120.4-68.5
				C739.6,637.9,734.5,636.7,729.1,636.7L729.1,636.7z M715.7,755.5l-24-53.6l93.1,13L715.7,755.5L715.7,755.5z"/>
		</g>
	</g>
</g>
<g id="New_Symbol_8">
	<g id="New_Symbol_4">
	</g>
	<g id="New_Symbol_3">
	</g>
	<g id="New_Symbol_2">
	</g>
	<g id="New_Symbol_2_1_">
	</g>
</g>
<path class="st74" d="M1194.8,158.4c4.5,0.2,9.4,0.9,13.9,1.1c-1.6-7.2-2.3-14.7-1.9-22.6c0.3-60.5,51-109.4,112.5-109.6
	c46.1-0.1,84.8,27.4,101.9,66.2c14.2-9.2,31-13.9,48.8-14.2c24.8-0.4,47.3,10.2,63.5,26c0.5,0.4,0.5,0.4,1,0.8l0,0
	c8.6,8.3,15.2,18.5,19.4,30.2c2.6,8,4.8,15.6,5.4,24.4c17.4,4,32.5,13,45.1,24.7c18.7,17.9,30.6,43,30.6,71.1
	c-0.5,54.5-45.7,98.6-101.8,98.6l-340.6,0.1c-29.3,0.2-55.3-12.2-73-31.6c-16.7-17.4-27.1-41.2-26.1-67.3
	C1093.5,202.5,1139.2,158.8,1194.8,158.4z"/>
<g>
	<g>
		<path class="st3" d="M1066.2,568.9c-6.5,0-11.8-5.3-11.8-11.8V264.9c0-6.5,5.3-11.8,11.8-11.8h387.7c6.5,0,11.8,5.3,11.8,11.8
			v292.2c0,6.5-5.3,11.8-11.8,11.8H1066.2z"/>
		<path class="st12" d="M1453.9,256.9c4.4,0,8,3.6,8,8v292.2c0,4.4-3.6,8-8,8h-387.7c-4.4,0-8-3.6-8-8V264.9c0-4.4,3.6-8,8-8H1453.9
			 M1453.9,249.4h-387.7c-8.6,0-15.5,7-15.5,15.5v292.2c0,8.6,7,15.5,15.5,15.5h387.7c8.6,0,15.5-7,15.5-15.5V264.9
			C1469.4,256.3,1462.5,249.4,1453.9,249.4L1453.9,249.4z"/>
	</g>
	<polygon class="st75" points="1104.7,528.5 1092,506.6 1104.7,484.8 1129.9,484.8 1142.6,506.6 1129.9,528.5 	"/>
	<polygon class="st15" points="1287.5,394.4 1296.6,412.7 1316.8,415.6 1302.2,429.9 1305.6,450 1287.5,440.5 1269.4,450 
		1272.9,429.9 1258.3,415.6 1278.5,412.7 	"/>
	<rect x="1095.4" y="400.3" class="st76" width="43.8" height="43.8"/>
	<polygon class="st15" points="1092,367.7 1117.3,323.9 1142.6,367.7 	"/>
	<circle class="st14" cx="1287.5" cy="345.8" r="21.9"/>
	<line class="st77" x1="1058.2" y1="302.1" x2="1461.9" y2="302.1"/>
	<polygon class="st76" points="1313.5,500 1294.2,500 1294.2,480.6 1280.9,480.6 1280.9,500 1261.5,500 1261.5,513.3 1280.9,513.3 
		1280.9,532.6 1294.2,532.6 1294.2,513.3 1313.5,513.3 	"/>
	<g>
		<rect x="1158.8" y="332.1" class="st74" width="81.5" height="8.7"/>
		<rect x="1158.8" y="350.5" class="st74" width="61.1" height="8.7"/>
	</g>
	<g>
		<rect x="1158.8" y="406.4" class="st74" width="81.5" height="8.7"/>
		<rect x="1158.8" y="424.9" class="st74" width="61.1" height="8.7"/>
	</g>
	<g>
		<rect x="1158.8" y="490.7" class="st74" width="81.5" height="8.7"/>
		<rect x="1158.8" y="509.1" class="st74" width="61.1" height="8.7"/>
	</g>
	<g>
		<rect x="1333.6" y="332.1" class="st74" width="81.5" height="8.7"/>
		<rect x="1333.6" y="350.5" class="st74" width="61.1" height="8.7"/>
	</g>
	<g>
		<rect x="1333.6" y="406.4" class="st74" width="81.5" height="8.7"/>
		<rect x="1333.6" y="424.9" class="st74" width="61.1" height="8.7"/>
	</g>
	<g>
		<rect x="1333.6" y="490.7" class="st74" width="81.5" height="8.7"/>
		<rect x="1333.6" y="509.1" class="st74" width="61.1" height="8.7"/>
	</g>
</g>
<g>
	<g>
		<g>
			<path class="st78" d="M41.4,941c0.3,0.7,0.9,1.4,1.7,1.9l14.1,8.7l2.7-11.3l-1.2-0.8l1.2-5.2l-6.2-3.8c-1.8-1-4.3-1.5-6.8-1.1
				c-3.4,0.5-5.7,2.4-5.6,4.5C41.2,934.3,41.4,941,41.4,941z"/>
			<path class="st79" d="M43.1,936.9c-0.8-0.5-1.4-1.2-1.7-1.9c-1-2.4,1.4-4.9,5.4-5.5c2.5-0.4,5.1,0.1,6.8,1.1l6.2,3.8l-2.7,11.3
				L43.1,936.9z"/>
		</g>
		<g>
			<path class="st78" d="M28.6,950.3c0.3,0.7,0.9,1.4,1.7,1.9l14.1,8.7l2.7-11.3l-1.2-0.8l1.2-5.2l-6.2-3.8c-1.8-1-4.3-1.5-6.8-1.1
				c-3.4,0.5-5.7,2.4-5.6,4.5C28.4,943.7,28.6,950.3,28.6,950.3z"/>
			<path class="st79" d="M30.3,946.2c-0.8-0.5-1.4-1.2-1.7-1.9c-1-2.4,1.4-4.9,5.4-5.5c2.5-0.4,5.1,0.1,6.8,1.1l6.2,3.8L44.4,955
				L30.3,946.2z"/>
		</g>
		<polygon class="st80" points="38.8,963.1 38.8,948.6 47,931.7 157.5,867.1 266.6,936.4 275,954.4 275,969.5 163.3,1038.7 		"/>
		<polyline class="st81" points="47,931.7 163.3,1000 266.6,936.4 		"/>
		<polyline class="st81" points="38.8,948.6 163.3,1021.7 275,954.4 		"/>
		<path class="st81" d="M170,971.3c1.8,4.5-2.7,9-10,10.1c-7.3,1.1-14.7-1.6-16.5-6.1c-1.8-4.5,2.7-9,10-10.1
			C160.9,964.1,168.2,966.8,170,971.3z"/>
		<g>
			<path class="st78" d="M292.3,979.9c-0.3-0.8-1-1.6-1.9-2.2l-7.8-4.6c-2-1.9-1.9-5.4-1.9-5.4v-3.6c0-3.9-2.1-5.9-3.4-6.8
				c-0.2-0.1-8.2-5.8-8.2-5.8l-11.6,6.6v4.8c0,0,9,6.7,9.2,6.8c1.3,0.9,3.4,2.8,3.4,6.8v3.6c0,0-0.1,3.4,1.9,5.4l7.7,4.6
				c1.9,0.8,4.2,1.1,6.6,0.7c3.2-0.5,5.6-2.1,6.2-4C292.6,986.2,292.8,981.2,292.3,979.9z"/>
			<path class="st79" d="M292.1,979.5c1.1,2.7-1.4,5.1-5.8,5.8c-2.3,0.4-4.7,0.1-6.6-0.7l-4.1-2.3c-2-1.9-1.9-5.4-1.9-5.4v-3.6
				c0-3.9-2.1-5.9-3.4-6.8c-0.2-0.1-12.9-8-12.9-8"/>
		</g>
		<g>
			<path class="st78" d="M277.2,988.8c-0.3-0.8-1-1.6-1.9-2.2l-7.8-4.6c-2-1.9-1.9-5.4-1.9-5.4V973c0-3.9-2.1-5.9-3.4-6.8
				c-0.2-0.1-8.2-5.8-8.2-5.8l-11.6,6.6v4.8c0,0,9,6.7,9.2,6.8c1.3,0.9,3.4,2.8,3.4,6.8v3.6c0,0-0.1,3.4,1.9,5.4l7.7,4.6
				c1.9,0.8,4.2,1.1,6.6,0.7c3.2-0.5,5.6-2.1,6.2-4C277.5,995.1,277.7,990.1,277.2,988.8z"/>
			<path class="st79" d="M277,988.4c1.1,2.7-1.4,5.1-5.8,5.8c-2.3,0.4-4.7,0.1-6.6-0.7l-4.1-2.3c-2-1.9-1.9-5.4-1.9-5.4v-3.6
				c0-3.9-2.1-5.9-3.4-6.8c-0.2-0.1-12.9-8-12.9-8"/>
		</g>
		<g>
			<path class="st78" d="M262.6,997.4c-0.3-0.8-1-1.6-1.9-2.2l-7.8-4.6c-2-1.9-1.9-5.4-1.9-5.4v-3.6c0-3.9-2.1-5.9-3.4-6.8
				c-0.2-0.1-8.2-5.8-8.2-5.8l-11.6,6.6v4.8c0,0,9,6.7,9.2,6.8c1.3,0.9,3.4,2.8,3.4,6.8v3.6c0,0-0.1,3.4,1.9,5.4l7.7,4.6
				c1.9,0.8,4.2,1.1,6.6,0.7c3.2-0.5,5.6-2.1,6.2-4C262.9,1003.7,263.1,998.6,262.6,997.4z"/>
			<path class="st79" d="M262.4,997c1.1,2.7-1.4,5.1-5.8,5.8c-2.3,0.4-4.7,0.1-6.6-0.7l-4.1-2.3c-2-1.9-1.9-5.4-1.9-5.4v-3.6
				c0-3.9-2.1-5.9-3.4-6.8c-0.2-0.1-12.9-8-12.9-8"/>
		</g>
		<g>
			<path class="st78" d="M247.5,1006.3c-0.3-0.8-1-1.6-1.9-2.2l-7.8-4.6c-2-1.9-1.9-5.4-1.9-5.4v-3.6c0-3.9-2.1-5.9-3.4-6.8
				c-0.2-0.1-8.2-5.8-8.2-5.8l-11.6,6.6v4.8c0,0,9,6.7,9.2,6.8c1.3,0.9,3.4,2.8,3.4,6.8v3.6c0,0-0.1,3.4,1.9,5.4l7.7,4.6
				c1.9,0.8,4.2,1.1,6.6,0.7c3.2-0.5,5.6-2.1,6.2-4C247.8,1012.6,248,1007.5,247.5,1006.3z"/>
			<path class="st79" d="M247.3,1005.9c1.1,2.7-1.4,5.1-5.8,5.8c-2.3,0.4-4.7,0.1-6.6-0.7l-4.1-2.3c-2-1.9-1.9-5.4-1.9-5.4v-3.6
				c0-3.9-2.1-5.9-3.4-6.8c-0.2-0.1-12.9-8-12.9-8"/>
		</g>
		<g>
			<path class="st78" d="M232.4,1016c-0.3-0.8-1-1.6-1.9-2.2l-7.8-4.6c-2-1.9-1.9-5.4-1.9-5.4v-3.6c0-3.9-2.1-5.9-3.4-6.8
				c-0.2-0.1-8.2-5.8-8.2-5.8l-11.6,6.6v4.8c0,0,9,6.7,9.2,6.8c1.3,0.9,3.4,2.8,3.4,6.8v3.6c0,0-0.1,3.4,1.9,5.4l7.7,4.6
				c1.9,0.8,4.2,1.1,6.6,0.7c3.2-0.5,5.6-2.1,6.2-4C232.7,1022.3,232.9,1017.2,232.4,1016z"/>
			<path class="st79" d="M232.2,1015.6c1.1,2.7-1.4,5.1-5.8,5.8c-2.3,0.4-4.7,0.1-6.6-0.7l-4.1-2.3c-2-1.9-1.9-5.4-1.9-5.4v-3.6
				c0-3.9-2.1-5.9-3.4-6.8c-0.2-0.1-12.9-8-12.9-8"/>
		</g>
		<g>
			<path class="st78" d="M217.3,1024.9c-0.3-0.8-1-1.6-1.9-2.2l-7.8-4.6c-2-1.9-1.9-5.4-1.9-5.4v-3.6c0-3.9-2.1-5.9-3.4-6.8
				c-0.2-0.1-8.2-5.8-8.2-5.8l-11.6,6.6v4.8c0,0,9,6.7,9.2,6.8c1.3,0.9,3.4,2.8,3.4,6.8v3.6c0,0-0.1,3.4,1.9,5.4l7.7,4.6
				c1.9,0.8,4.2,1.1,6.6,0.7c3.2-0.5,5.6-2.1,6.2-4C217.6,1031.2,217.8,1026.1,217.3,1024.9z"/>
			<path class="st79" d="M217.1,1024.5c1.1,2.7-1.4,5.1-5.8,5.8c-2.3,0.4-4.7,0.1-6.6-0.7l-4.1-2.3c-2-1.9-1.9-5.4-1.9-5.4v-3.6
				c0-3.9-2.1-5.9-3.4-6.8c-0.2-0.1-12.9-8-12.9-8"/>
		</g>
		<g>
			<path class="st78" d="M201,1034.2c-0.3-0.8-1-1.6-1.9-2.2l-7.8-4.6c-2-1.9-1.9-5.4-1.9-5.4v-3.6c0-3.9-2.1-5.9-3.4-6.8
				c-0.2-0.1-8.2-5.8-8.2-5.8l-11.6,6.6v4.8c0,0,9,6.7,9.2,6.8c1.3,0.9,3.4,2.8,3.4,6.8v3.6c0,0-0.1,3.4,1.9,5.4l7.7,4.6
				c1.9,0.8,4.2,1.1,6.6,0.7c3.2-0.5,5.6-2.1,6.2-4C201.3,1040.5,201.5,1035.5,201,1034.2z"/>
			<path class="st79" d="M200.8,1033.8c1.1,2.7-1.4,5.1-5.8,5.8c-2.3,0.4-4.7,0.1-6.6-0.7l-4.1-2.3c-2-1.9-1.9-5.4-1.9-5.4v-3.6
				c0-3.9-2.1-5.9-3.4-6.8c-0.2-0.1-12.9-8-12.9-8"/>
		</g>
	</g>
</g>
<g>
	<path class="st12" d="M1185.5,764.6v-2.3c0-2.6,0.5-4.7,1.4-6.5c1-1.7,2.6-3.5,5-5.3c2.8-2.2,4.7-3.9,5.5-5.2
		c0.8-1.2,1.2-2.7,1.2-4.4c0-2-0.7-3.5-2-4.6c-1.3-1.1-3.3-1.6-5.8-1.6c-2.3,0-4.4,0.3-6.3,1c-1.9,0.6-3.8,1.4-5.7,2.3l-3-6.2
		c4.8-2.7,10-4,15.6-4c4.7,0,8.4,1.1,11.1,3.4c2.7,2.3,4.1,5.4,4.1,9.4c0,1.8-0.3,3.3-0.8,4.7c-0.5,1.4-1.3,2.7-2.4,3.9
		s-2.9,2.9-5.5,4.9c-2.2,1.7-3.7,3.1-4.5,4.3c-0.8,1.1-1.1,2.6-1.1,4.6v1.6H1185.5z M1184,775.9c0-3.6,1.8-5.3,5.3-5.3
		c1.7,0,3,0.5,3.9,1.4c0.9,0.9,1.4,2.2,1.4,3.9c0,1.7-0.5,3-1.4,4c-0.9,1-2.2,1.5-3.9,1.5c-1.7,0-3-0.5-3.9-1.4
		C1184.5,779,1184,777.6,1184,775.9z"/>
</g>
<g>
	<path class="st82" d="M351.8,747.4L351.8,747.4v-50.1c0,0,3.2-17.9-23-20.9h0.2c0,0,0.1-0.5,0.1-0.5c-0.2,0-0.8-0.3-1-0.3
		c-47-5.4-92.3-0.7-92.3-0.7v0.2c-30,1.9-28,22.2-28,22.2v50.4l0,0v50.1c0,0-0.8,19.7,25.4,22.7h0c0,0,0.1-0.4,0.1-0.4
		c0.2,0,0.2-0.2,0.3-0.2c0.5,0.1-0.8-0.1,1.2-0.1v28.8l29.1-26.7c34.1,1.2,60.9-1.8,60.9-1.8v-0.2c30-1.9,27-22.2,27-22.2V747.4z"/>
	<g>
		<g class="st83">
			<g>
				<path class="st12" d="M308.6,713.2h-55.4c-3.4,0-6.1,2.7-6.1,6.1v55.4c0,3.4,2.7,6.1,6.1,6.1h55.4c3.4,0,6.1-2.7,6.1-6.1v-55.4
					C314.7,715.9,312,713.2,308.6,713.2z M263,759.4l17.9-31l17.9,31H263z"/>
			</g>
		</g>
		<g>
			<g>
				<path class="st12" d="M308.6,713.2c3.4,0,6.1,2.7,6.1,6.1v55.4c0,3.4-2.7,6.1-6.1,6.1h-55.4c-3.4,0-6.1-2.7-6.1-6.1v-55.4
					c0-3.4,2.7-6.1,6.1-6.1H308.6 M263,759.4h35.8l-17.9-31L263,759.4 M308.6,711.7h-55.4c-4.2,0-7.6,3.4-7.6,7.6v55.4
					c0,4.2,3.4,7.6,7.6,7.6h55.4c4.2,0,7.6-3.4,7.6-7.6v-55.4C316.2,715.1,312.8,711.7,308.6,711.7L308.6,711.7z M265.6,757.9
					l15.3-26.5l15.3,26.5H265.6L265.6,757.9z"/>
			</g>
		</g>
	</g>
</g>
<g>
	<path class="st82" d="M791.8,150.7L791.8,150.7v-50.1c0,0-2-18.2,24.2-21.2h-0.2c0,0-0.1-0.3-0.1-0.3c0.2,0,0.2-0.2,0.4-0.2
		c47-5.4,91.7-0.6,91.7-0.6v0.2c31,1.9,29,22.2,29,22.2V151l0,0v50.1c0,0,1,20.3-25.2,23.3h0c0,0-0.1-0.8-0.1-0.8
		c-0.2,0-0.3-0.3-0.4-0.3c-0.5,0.1-0.3-0.3-1.3-0.2v28.8l-29.1-26.7c-34.1,1.2-60.9-1.8-60.9-1.8v-0.2c-31-1.9-28-22.2-28-22.2
		V150.7z"/>
	<polygon class="st15" points="834.5,175.9 864.8,123.4 895,175.9 	"/>
</g>
<polyline class="st84" points="701.7,488.1 725.8,515.3 749.4,488.1 "/>
<polygon class="st85" points="686.7,839.6 714.3,901.2 793.7,854.6 "/>
<g>
	<g>
		<polygon class="st14" points="688.3,546.8 688.3,590.6 715.9,652.2 795.3,605.6 795.3,561.8 		"/>
	</g>
	<g>
		<polygon class="st15" points="688.3,546.8 715.9,608.4 795.3,561.8 		"/>
	</g>
</g>
<path class="st86" d="M734.4,660.1v21.5l3.8-6.7c0.7-1.2,2.2-1.6,3.4-0.9c1.2,0.7,1.6,2.2,0.9,3.4l-8.1,14.1
	c-0.4,0.7-1.2,1.2-2.1,1.2c-0.9,0-1.7-0.4-2.2-1.1l-9.6-14.1c-0.3-0.4-0.4-0.9-0.4-1.4c0-0.8,0.4-1.6,1.1-2.1
	c1.1-0.8,2.7-0.5,3.5,0.7l4.7,6.9v-21.5c0-1.4,1.1-2.5,2.5-2.5S734.4,658.7,734.4,660.1z"/>
<line class="st84" x1="626.7" y1="984.1" x2="330.6" y2="984.1"/>
<polyline class="st84" points="598.9,1008 626.1,983.9 598.9,960.2 "/>
<circle class="st20" cx="1118.3" cy="351.5" r="49.4"/>
<path class="st84" d="M725.6,507.8c0-124.5,101-225.5,225.5-225.5c46.7,0,90.1,14.2,126.1,38.5"/>
<polyline class="st87" points="1185.9,626.2 1166.9,595.2 1138.9,617.9 "/>
</svg>
