<?xml version="1.0" encoding="utf-8"?>
<!-- Generator: Adobe Illustrator 19.1.0, SVG Export Plug-In . SVG Version: 6.00 Build 0)  -->
<!DOCTYPE svg PUBLIC "-//W3C//DTD SVG 1.1//EN" "http://www.w3.org/Graphics/SVG/1.1/DTD/svg11.dtd">
<svg version="1.1" id="Layer_1" xmlns="http://www.w3.org/2000/svg" xmlns:xlink="http://www.w3.org/1999/xlink" x="0px" y="0px"
	 viewBox="0 0 1661.4 515.2" style="enable-background:new 0 0 1661.4 515.2;" xml:space="preserve">
<style type="text/css">
	.st0{fill-rule:evenodd;clip-rule:evenodd;fill:#128CAB;}
	.st1{fill-rule:evenodd;clip-rule:evenodd;fill:#17869D;}
	.st2{fill-rule:evenodd;clip-rule:evenodd;fill:#107488;}
	.st3{fill:#FFFFFF;}
	.st4{fill-rule:evenodd;clip-rule:evenodd;fill:none;stroke:#FFFFFF;stroke-width:2;stroke-miterlimit:10;}
	.st5{fill:#128CAB;}
	.st6{fill:#17869D;}
	.st7{fill-rule:evenodd;clip-rule:evenodd;fill:none;stroke:#62B3CC;stroke-miterlimit:10;}
	.st8{fill:none;stroke:#62B3CC;stroke-miterlimit:10;}
	.st9{fill:none;stroke:#FFFFFF;stroke-width:2;stroke-miterlimit:10;}
	.st10{fill:#A7D6DD;}
	.st11{fill:none;}
	.st12{fill:#231F20;}
	.st13{fill:#2EB3C5;}
	.st14{opacity:0.2;}
	.st15{fill:#CCCCCC;}
	.st16{fill:#808285;}
	.st17{fill:#6B428A;}
	.st18{fill:#9C80B9;}
	.st19{fill:none;stroke:#6B428A;stroke-width:1.1076;stroke-miterlimit:10;}
	.st20{fill:none;stroke:#6B428A;stroke-width:1.1076;stroke-miterlimit:10;stroke-dasharray:1.1101,1.1101;}
	.st21{fill:none;stroke:#6B428A;stroke-miterlimit:10;}
	.st22{fill:none;stroke:#6B428A;stroke-miterlimit:10;stroke-dasharray:1.0095,1.0095;}
	.st23{fill:none;stroke:#F8BD30;stroke-width:12.0543;stroke-miterlimit:10;}
	.st24{display:none;opacity:0.1;fill:url(#SVGID_1_);}
	.st25{fill:none;stroke:#CCCCCC;stroke-width:1.5068;stroke-miterlimit:10;}
	.st26{fill:none;stroke:#CCCCCC;stroke-width:0.7534;stroke-miterlimit:10;}
	.st27{fill:#FFFFFF;stroke:#CCCCCC;stroke-width:1.5068;stroke-miterlimit:10;}
	.st28{opacity:0.2;fill:#BAB9B8;}
	.st29{opacity:0.4;}
	.st30{opacity:0.3;fill:url(#);}
	.st31{fill:none;stroke:#6B428A;stroke-width:7.5525;stroke-miterlimit:10;}
	.st32{opacity:0.9;fill:#9C80B9;}
	.st33{opacity:0.8;}
	.st34{opacity:0.1;fill:url(#SVGID_2_);}
	.st35{fill:none;stroke:#CCCCCC;stroke-width:3.7714;stroke-miterlimit:10;}
	.st36{fill:none;stroke:#BAB9B8;stroke-width:1.6019;stroke-miterlimit:10;}
	.st37{opacity:0.3;fill:#BAB9B8;}
	.st38{fill:#BCBEC0;}
	.st39{fill:#BAB9B8;}
	.st40{fill:none;stroke:#BAB9B8;stroke-width:1.5105;stroke-miterlimit:10;}
	.st41{fill:#FFFFFF;stroke:#BAB9B8;stroke-width:3.021;stroke-miterlimit:10;}
	.st42{fill:none;stroke:#BAB9B8;stroke-width:3.021;stroke-miterlimit:10;}
	.st43{clip-path:url(#SVGID_3_);}
	.st44{fill:#FFFFFF;stroke:#BAB9B8;stroke-width:3.0093;stroke-miterlimit:10;}
	.st45{fill:none;stroke:#BAB9B8;stroke-width:1.3488;stroke-miterlimit:10;}
	.st46{opacity:0.5;fill:#BAB9B8;}
	.st47{clip-path:url(#SVGID_5_);}
	.st48{fill:none;stroke:#BAB9B8;stroke-width:0.3009;stroke-miterlimit:10;}
	.st49{opacity:0.4;fill:#C9C9C9;}
	.st50{fill:#FFFFFF;stroke:#BAB9B8;stroke-width:3.001;stroke-miterlimit:10;}
	.st51{fill:none;stroke:#BAB9B8;stroke-width:0.3001;stroke-miterlimit:10;}
	.st52{fill:#B9B9B8;}
	.st53{fill:none;stroke:#B9B9B7;stroke-width:1.2004;stroke-miterlimit:10;}
	.st54{opacity:0.1;fill:url(#SVGID_7_);}
	.st55{opacity:0.1;fill:#6B428A;}
	.st56{opacity:0.1;fill:url(#SVGID_8_);}
	.st57{fill:#FFFFFF;stroke:#CCCCCC;stroke-width:3.0991;stroke-miterlimit:10;}
	.st58{fill:none;stroke:#CCCCCC;stroke-width:0.8486;stroke-miterlimit:10;}
	.st59{fill:#FFFFFF;stroke:#CCCCCC;stroke-width:4;stroke-miterlimit:10;}
	.st60{fill:#FFFFFF;stroke:#CCCCCC;stroke-width:5;stroke-miterlimit:10;}
	.st61{fill:none;stroke:#CCCCCC;stroke-width:1.6973;stroke-miterlimit:10;}
	.st62{fill:#D93850;}
	.st63{fill:none;stroke:#6B428A;stroke-width:2.2657;stroke-miterlimit:10;}
	.st64{fill:#467697;stroke:#6B428A;stroke-width:2.2399;stroke-miterlimit:10;}
	.st65{fill:none;stroke:#6B428A;stroke-width:0.8194;stroke-miterlimit:10;}
	.st66{fill:none;stroke:#6B428A;stroke-width:0.5784;stroke-miterlimit:10;}
	.st67{fill:none;stroke:#6B428A;stroke-width:3.021;stroke-miterlimit:10;}
	.st68{opacity:0.4;fill:url(#SVGID_9_);}
	.st69{fill:none;stroke:#128CAB;stroke-width:7.5525;stroke-miterlimit:10;}
	.st70{opacity:0.9;fill:#62B3CC;}
	.st71{opacity:0.1;fill:url(#SVGID_10_);}
	.st72{clip-path:url(#SVGID_12_);}
	.st73{clip-path:url(#SVGID_14_);}
	.st74{font-family:'OpenSans-Semibold';}
	.st75{font-size:36.2518px;}
	.st76{opacity:0.1;fill:url(#SVGID_15_);}
	.st77{opacity:0.1;fill:#128CAB;}
	.st78{opacity:0.1;fill:url(#SVGID_16_);}
	.st79{fill:none;stroke:#128CAB;stroke-width:2.2657;stroke-miterlimit:10;}
	.st80{fill:#467697;stroke:#128CAB;stroke-width:2.2399;stroke-miterlimit:10;}
	.st81{fill:none;stroke:#128CAB;stroke-width:0.8194;stroke-miterlimit:10;}
	.st82{fill:none;stroke:#128CAB;stroke-width:0.5784;stroke-miterlimit:10;}
	.st83{fill:none;stroke:#128CAB;stroke-width:3.021;stroke-miterlimit:10;}
	.st84{opacity:0.5;fill:#CCCCCC;}
	.st85{opacity:0.5;fill:#6B428A;}
	.st86{opacity:0.5;fill:#9C80B9;}
	.st87{fill:none;stroke:#CCCCCC;stroke-width:3.0136;stroke-miterlimit:10;}
	.st88{fill:#FFFFFF;stroke:#BAB9B8;stroke-width:3.0136;stroke-miterlimit:10;}
	.st89{fill:none;stroke:#BAB9B8;stroke-width:0.8252;stroke-miterlimit:10;}
	.st90{fill:#FFFFFF;stroke:#BAB9B8;stroke-width:3.767;stroke-miterlimit:10;}
	.st91{fill:none;stroke:#BAB9B8;stroke-width:1.6505;stroke-miterlimit:10;}
	.st92{fill:#FFFFFF;stroke:#CCCCCC;stroke-width:8;stroke-miterlimit:10;}
	.st93{opacity:0.6;}
	.st94{fill:none;stroke:#F8BD30;stroke-width:12.0543;stroke-linecap:round;stroke-miterlimit:10;}
	.st95{fill:none;stroke:#CCCCCC;stroke-width:4.5203;stroke-miterlimit:10;}
	.st96{fill:#F8BD30;}
	.st97{fill:none;stroke:#F8BD30;stroke-width:12.0543;stroke-linecap:round;stroke-linejoin:round;stroke-miterlimit:10;}
	.st98{fill:none;stroke:#F8BD30;stroke-width:12.1703;stroke-miterlimit:10;}
	.st99{fill:none;stroke:#CCCCCC;stroke-width:1.5213;stroke-miterlimit:10;}
	.st100{fill:none;stroke:#CCCCCC;stroke-width:0.7606;stroke-miterlimit:10;}
	.st101{fill:#FFFFFF;stroke:#CCCCCC;stroke-width:1.5213;stroke-miterlimit:10;}
	.st102{opacity:0.5;fill:#107488;}
	.st103{opacity:0.5;fill:#128CAB;}
	.st104{fill:#107488;}
	.st105{fill:none;stroke:#CCCCCC;stroke-width:3.0426;stroke-miterlimit:10;}
	.st106{fill:#FFFFFF;stroke:#BAB9B8;stroke-width:3.0426;stroke-miterlimit:10;}
	.st107{fill:none;stroke:#BAB9B8;stroke-width:0.8332;stroke-miterlimit:10;}
	.st108{fill:#FFFFFF;stroke:#BAB9B8;stroke-width:3.8032;stroke-miterlimit:10;}
	.st109{fill:none;stroke:#BAB9B8;stroke-width:1.6664;stroke-miterlimit:10;}
	.st110{fill:none;stroke:#F8BD30;stroke-width:12.1703;stroke-linecap:round;stroke-miterlimit:10;}
	.st111{fill:none;stroke:#CCCCCC;stroke-width:4.5639;stroke-miterlimit:10;}
	.st112{fill:none;stroke:#F8BD30;stroke-width:12.1703;stroke-linecap:round;stroke-linejoin:round;stroke-miterlimit:10;}
	.st113{opacity:0.3;}
	.st114{fill:none;stroke:#9C80B9;stroke-width:6.3783;stroke-linecap:round;stroke-miterlimit:10;}
	.st115{fill:none;stroke:#9C80B9;stroke-width:6.3783;stroke-linecap:round;stroke-miterlimit:10;stroke-dasharray:6.3047,25.2187;}
	.st116{fill:none;stroke:#F8BD30;stroke-width:6.4739;stroke-linecap:round;stroke-miterlimit:10;}
	.st117{fill:none;stroke:#F8BD30;stroke-width:6.4739;stroke-linecap:round;stroke-miterlimit:10;stroke-dasharray:6.4958,25.9834;}
	.st118{fill:#414042;}
	
		.st119{fill:none;stroke:#CCCCCC;stroke-width:10.7899;stroke-linecap:round;stroke-miterlimit:10;stroke-dasharray:6.4739,25.8957;}
	.st120{fill:none;stroke:#E6E7E8;stroke-width:10.7899;stroke-linecap:round;stroke-miterlimit:10;}
	.st121{fill:#BBBDBF;}
	.st122{fill:#939598;}
	.st123{opacity:0.5;fill:#FFFFFF;}
	.st124{fill:#FFFFFF;stroke:#CCCCCC;stroke-width:7.8459;stroke-miterlimit:10;}
	.st125{fill:none;stroke:#CCCCCC;stroke-width:4.7075;stroke-miterlimit:10;}
	.st126{fill:#FFFFFF;stroke:#CCCCCC;stroke-width:4.7075;stroke-miterlimit:10;}
	.st127{fill:#467697;stroke:#CCCCCC;stroke-width:4.2896;stroke-miterlimit:10;}
	.st128{fill:none;stroke:#CCCCCC;stroke-width:1.5692;stroke-miterlimit:10;}
	.st129{fill:none;stroke:#CCCCCC;stroke-width:1.1076;stroke-miterlimit:10;}
	.st130{opacity:0.3;fill:#CCCCCC;}
	
		.st131{fill:none;stroke:#F8BD30;stroke-width:10.7899;stroke-linecap:round;stroke-miterlimit:10;stroke-dasharray:6.4739,25.8957;}
	.st132{fill:none;stroke:#F8BD30;stroke-width:10.7899;stroke-linecap:round;stroke-miterlimit:10;}
	.st133{fill:none;stroke:#CCCCCC;stroke-width:5.9068;stroke-miterlimit:10;}
	.st134{fill:none;stroke:#CCCCCC;stroke-width:2.624;stroke-miterlimit:10;}
	.st135{fill:none;stroke:#CCCCCC;stroke-width:1.654;stroke-miterlimit:10;}
	.st136{fill:#FFFFFF;stroke:#CCCCCC;stroke-width:8.8602;stroke-miterlimit:10;}
	.st137{fill:none;stroke:#CCCCCC;stroke-width:2.9534;stroke-linecap:round;stroke-linejoin:round;stroke-miterlimit:10;}
	.st138{fill:#FFFFFF;stroke:#CCCCCC;stroke-width:2.9534;stroke-linecap:round;stroke-linejoin:round;stroke-miterlimit:10;}
	.st139{fill:#FFFFFF;stroke:#CCCCCC;stroke-width:5.9068;stroke-linecap:round;stroke-linejoin:round;stroke-miterlimit:10;}
	.st140{fill:none;stroke:#CCCCCC;stroke-width:5.9421;stroke-miterlimit:10;}
	.st141{fill:none;stroke:#CCCCCC;stroke-width:2;stroke-miterlimit:10;}
	.st142{fill:#FFFFFF;stroke:#CCCCCC;stroke-width:2;stroke-miterlimit:10;}
	.st143{fill:none;stroke:#6B428A;stroke-miterlimit:10;stroke-dasharray:1.0138,1.0138;}
	.st144{fill:#D1D3D4;}
	.st145{fill:#E6E7E8;}
	.st146{fill:none;stroke:#9C80B9;stroke-width:2;stroke-miterlimit:10;}
	.st147{fill:none;stroke:#D1D3D4;stroke-miterlimit:10;}
	.st148{fill:none;stroke:#D1D3D4;stroke-miterlimit:10;stroke-dasharray:1.0095,1.0095;}
	.st149{fill:none;stroke:#D1D3D4;stroke-miterlimit:10;stroke-dasharray:1.0138,1.0138;}
	.st150{fill:none;stroke:#6B428A;stroke-miterlimit:10;stroke-dasharray:1.0006,1.0006;}
	.st151{fill:none;stroke:#6B428A;stroke-miterlimit:10;stroke-dasharray:1.0045,1.0045;}
	.st152{fill:none;stroke:#D1D3D4;stroke-miterlimit:10;stroke-dasharray:1.0025,1.0025;}
	.st153{fill:none;stroke:#D1D3D4;stroke-miterlimit:10;stroke-dasharray:1.017,1.017;}
	.st154{fill:none;stroke:#D1D3D4;stroke-width:1.1076;stroke-miterlimit:10;}
	.st155{fill:none;stroke:#D1D3D4;stroke-width:1.1076;stroke-miterlimit:10;stroke-dasharray:1.1101,1.1101;}
	.st156{fill:none;stroke:#128CAB;stroke-width:2;stroke-miterlimit:10;}
	.st157{fill:#FFFFFF;stroke:#CCCCCC;stroke-width:2.4962;stroke-miterlimit:10;}
	.st158{fill:none;stroke:#CCCCCC;stroke-width:0.6836;stroke-miterlimit:10;}
	.st159{fill:#FFFFFF;stroke:#CCCCCC;stroke-width:3;stroke-miterlimit:10;}
	.st160{fill:none;stroke:#CCCCCC;stroke-width:1.3671;stroke-miterlimit:10;}
	.st161{fill:none;stroke:#CCCCCC;stroke-width:1.1197;stroke-miterlimit:10;}
	.st162{fill:#E6E6E5;}
	.st163{fill:none;stroke:#CCCCCC;stroke-width:1.6109;stroke-miterlimit:10;}
</style>
<symbol  id="New_Symbol_2_2_" viewBox="-7.1 -36 14.2 72">
	<path class="st0" d="M-6.1-31.5c0,3.4,0,62.8,0,63.3c0.4,2.3,3.8,3.2,5.9,3.2c2.1,0,5.6-0.8,6.2-3l0.1-0.5v-63c0-0.2,0-0.3-0.1-0.5
		c-0.2-0.9-1-1.6-1.9-2.1C3-34.7,1.6-35,0.2-35h0l0,0l0,0c0,0-0.1,0-0.1,0c-1.3,0-2.7,0.3-3.8,0.8c-1,0.5-1.9,1.1-2.2,2.1l0,0l0,0
		C-6.1-31.9-6.1-31.7-6.1-31.5z"/>
	<path class="st1" d="M0,28.8V-35c0,0,5.4-1,6.1,3.5s0,63,0,63S3.9,27.9,0,28.8z"/>
	<g>
		<path class="st2" d="M0,28.3c-0.9,0-2.7,0.1-4.1,1c-0.6,0.3-1.6,1.1-1.6,2.2c0,1.1,1,1.8,1.6,2.2c1.5,0.9,3.2,1,4.2,1
			c0.9,0,2.7-0.1,4.2-1c0.6-0.3,1.6-1.1,1.6-2.2c0-1.1-1-1.8-1.6-2.2C2.7,28.4,0.9,28.3,0,28.3z"/>
		<path class="st3" d="M0,34.2c1.3,0,2.8-0.3,3.9-0.9c0.6-0.4,1.4-1,1.4-1.8c0-0.8-0.8-1.4-1.4-1.8c-1.1-0.7-2.6-0.9-3.9-0.9
			c-1.3,0-2.8,0.3-3.9,0.9c-0.6,0.4-1.4,1-1.4,1.8c0,0.8,0.7,1.4,1.4,1.8C-2.8,33.9-1.3,34.2,0,34.2 M0,35.2c-1,0-2.8-0.1-4.4-1.1
			c-1.2-0.7-1.9-1.6-1.9-2.6c0-1,0.7-1.9,1.9-2.6c1.6-0.9,3.4-1.1,4.4-1.1c1,0,2.8,0.1,4.4,1.1c1.2,0.7,1.9,1.6,1.9,2.6
			c0,1.4-1.2,2.2-1.9,2.6C2.8,35,1,35.2,0,35.2L0,35.2z"/>
	</g>
	<path class="st4" d="M-6.1-31.5c0,3.4,0,62.8,0,63.3c0.4,2.3,3.8,3.2,5.9,3.2c2.1,0,5.6-0.8,6.2-3l0.1-0.5v-63c0-0.2,0-0.3-0.1-0.5
		c-0.2-0.9-1-1.6-1.9-2.1C3-34.7,1.6-35,0.2-35h0l0,0l0,0c0,0-0.1,0-0.1,0c-1.3,0-2.7,0.3-3.8,0.8c-1,0.5-1.9,1.1-2.2,2.1l0,0l0,0
		C-6.1-31.9-6.1-31.7-6.1-31.5z"/>
</symbol>
<symbol  id="New_Symbol_3_1_" viewBox="-22.3 -17.6 44.6 35.3">
	<polygon class="st5" points="-5.8,16.5 21.3,1.6 21.3,-8.4 6,-16.5 -21.3,-1 -21.3,8.4 	"/>
	<polygon class="st6" points="6,-16.5 21.3,-8.4 21.3,1.6 6,-6.8 	"/>
	<polyline class="st7" points="-21.3,8.4 6,-6.8 21.3,1.6 	"/>
	<line class="st8" x1="6" y1="-16.5" x2="6" y2="-6.8"/>
	<polygon class="st9" points="-5.8,16.5 21.3,1.6 21.3,-8.4 6,-16.5 -21.3,-1 -21.3,8.4 	"/>
</symbol>
<symbol  id="New_Symbol_4_1_" viewBox="-45.2 -45.3 90.5 90.6">
	<polygon class="st5" points="-44.2,-17.1 -44.1,17.5 1.8,44.2 44.2,18.7 44.2,-17.4 0.6,-44.1 	"/>
	<polygon class="st6" points="44.2,-17.4 0.7,-44.1 0.7,-8.4 44.2,18.4 	"/>
	<polyline class="st8" points="44.2,18.7 0.6,-8.9 -44.2,17.6 	"/>
	<line class="st8" x1="0.7" y1="-44.4" x2="0.7" y2="-8.4"/>
	<g>
		<polygon class="st10" points="23.9,-3 21.3,-4.6 21.3,-11.1 23.9,-9.5 		"/>
		<polygon class="st10" points="26.9,-1.2 24.3,-2.8 24.3,-9.3 26.9,-7.7 		"/>
	</g>
	<g>
		<polygon class="st10" points="33.2,-3.8 35.8,-2.2 35.8,4.2 33.2,2.6 		"/>
		<polygon class="st10" points="36.1,4.4 36.1,-2 38.8,-0.4 38.8,6 		"/>
	</g>
	<polygon class="st6" points="-35.4,-15.4 -33,-16.8 -33,4.9 -35.4,6.3 	"/>
	<polygon class="st6" points="-20.3,-2.4 -22.7,-1 -22.7,-22.7 -20.3,-24.1 	"/>
	<polygon class="st6" points="-31.1,-17.8 -28.8,-19.2 -28.8,2.5 -31.1,3.9 	"/>
	<polygon class="st6" points="-26.9,-20.3 -24.6,-21.6 -24.6,0.1 -26.9,1.4 	"/>
	<polygon class="st6" points="-18.4,-25.7 -16,-27.1 -16,-5.4 -18.4,-4 	"/>
	<polygon class="st6" points="-14.1,-28.2 -11.8,-29.5 -11.8,-7.8 -14.1,-6.4 	"/>
	<polygon class="st6" points="-9.9,-30.6 -7.5,-31.9 -7.5,-10.2 -9.9,-8.9 	"/>
	<g>
		<polygon class="st10" points="12.1,-9.5 9.5,-11.1 9.5,-17.5 12.1,-15.9 		"/>
		<polygon class="st10" points="15.1,-7.6 12.5,-9.2 12.5,-15.7 15.1,-14.1 		"/>
	</g>
	<g>
		<polygon class="st10" points="24.1,-16.7 21.4,-18.3 21.4,-24.8 24.1,-23.2 		"/>
		<polygon class="st10" points="27,-14.9 24.4,-16.5 24.4,-23 27,-21.4 		"/>
	</g>
	<g>
		<polygon class="st10" points="33.3,-17.5 35.9,-15.9 35.9,-9.5 33.3,-11.1 		"/>
		<polygon class="st10" points="36.3,-9.3 36.3,-15.7 38.9,-14.1 38.9,-7.7 		"/>
	</g>
	<g>
		<polygon class="st10" points="12.3,-23.2 9.6,-24.7 9.6,-31.2 12.3,-29.6 		"/>
		<polygon class="st10" points="15.2,-21.3 12.6,-22.9 12.6,-29.4 15.2,-27.8 		"/>
	</g>
	<polygon class="st9" points="-44.2,-17.1 -44.1,17.5 1.8,44.2 44.2,18.7 44.2,-17.4 0.6,-44.1 	"/>
</symbol>
<pattern  x="-1076.5" y="-18.3" width="26.8" height="16.1" patternUnits="userSpaceOnUse" id="New_Pattern_3" viewBox="27 -32.4 26.8 16.1" style="overflow:visible;">
	<g>
		<polygon class="st11" points="27,-32.4 53.8,-32.4 53.8,-16.3 27,-16.3 		"/>
		<path class="st12" d="M67.3,0L67.3,0L53.6-8.4l0.1-0.1l13.5-7.9l0.1,0l13.5,8l-0.1,0.1L67.3,0z M54-8.4l13.3,8.2l13.2-8.2
			l-13.2-7.8L54-8.4z"/>
		<path class="st12" d="M40.5,0L40.5,0L26.8-8.4L27-8.5l13.5-7.9l0.1,0l13.5,8l-0.1,0.1L40.5,0z M27.2-8.4l13.3,8.2l13.2-8.2
			l-13.2-7.8L27.2-8.4z"/>
		<path class="st12" d="M13.7,0L13.7,0L0-8.4l0.1-0.1l13.5-7.9l0.1,0l13.5,8l-0.1,0.1L13.7,0z M0.4-8.4l13.3,8.2l13.2-8.2l-13.2-7.8
			L0.4-8.4z"/>
		<path class="st12" d="M67.3-16.1L67.3-16.1l-13.7-8.4l0.1-0.1l13.5-7.9l0.1,0l13.5,8l-0.1,0.1L67.3-16.1z M54-24.6l13.3,8.2
			l13.2-8.2l-13.2-7.8L54-24.6z"/>
		<path class="st12" d="M40.5-16.1L40.5-16.1l-13.7-8.4l0.1-0.1l13.5-7.9l0.1,0l13.5,8l-0.1,0.1L40.5-16.1z M27.2-24.6l13.3,8.2
			l13.2-8.2l-13.2-7.8L27.2-24.6z"/>
		<path class="st12" d="M13.7-16.1L13.7-16.1L0-24.6l0.1-0.1l13.5-7.9l0.1,0l13.5,8l-0.1,0.1L13.7-16.1z M0.4-24.6l13.3,8.2
			l13.2-8.2l-13.2-7.8L0.4-24.6z"/>
		<path class="st12" d="M67.3-32.3L67.3-32.3l-13.7-8.4l0.1-0.1l13.5-7.9l0.1,0l13.5,8l-0.1,0.1L67.3-32.3z M54-40.7l13.3,8.2
			l13.2-8.2l-13.2-7.8L54-40.7z"/>
		<path class="st12" d="M40.5-32.3L40.5-32.3l-13.7-8.4l0.1-0.1l13.5-7.9l0.1,0l13.5,8l-0.1,0.1L40.5-32.3z M27.2-40.7l13.3,8.2
			l13.2-8.2l-13.2-7.8L27.2-40.7z"/>
		<path class="st12" d="M13.7-32.3L13.7-32.3L0-40.7l0.1-0.1l13.5-7.9l0.1,0l13.5,8l-0.1,0.1L13.7-32.3z M0.4-40.7l13.3,8.2
			l13.2-8.2l-13.2-7.8L0.4-40.7z"/>
	</g>
</pattern>
<pattern  x="-1076.5" y="-18.3" width="26.8" height="16.1" patternUnits="userSpaceOnUse" id="New_Pattern_Swatch_2" viewBox="27 -32.4 26.8 16.1" style="overflow:visible;">
	<g>
		<polygon class="st11" points="27,-32.4 53.8,-32.4 53.8,-16.3 27,-16.3 		"/>
		<path class="st13" d="M67.3,0L67.3,0L53.6-8.4l0.1-0.1l13.5-7.9l0.1,0l13.5,8l-0.1,0.1L67.3,0z M54-8.4l13.3,8.2l13.2-8.2
			l-13.2-7.8L54-8.4z"/>
		<path class="st13" d="M40.5,0L40.5,0L26.8-8.4L27-8.5l13.5-7.9l0.1,0l13.5,8l-0.1,0.1L40.5,0z M27.2-8.4l13.3,8.2l13.2-8.2
			l-13.2-7.8L27.2-8.4z"/>
		<path class="st13" d="M13.7,0L13.7,0L0-8.4l0.1-0.1l13.5-7.9l0.1,0l13.5,8l-0.1,0.1L13.7,0z M0.4-8.4l13.3,8.2l13.2-8.2l-13.2-7.8
			L0.4-8.4z"/>
		<path class="st13" d="M67.3-16.1L67.3-16.1l-13.7-8.4l0.1-0.1l13.5-7.9l0.1,0l13.5,8l-0.1,0.1L67.3-16.1z M54-24.6l13.3,8.2
			l13.2-8.2l-13.2-7.8L54-24.6z"/>
		<path class="st13" d="M40.5-16.1L40.5-16.1l-13.7-8.4l0.1-0.1l13.5-7.9l0.1,0l13.5,8l-0.1,0.1L40.5-16.1z M27.2-24.6l13.3,8.2
			l13.2-8.2l-13.2-7.8L27.2-24.6z"/>
		<path class="st13" d="M13.7-16.1L13.7-16.1L0-24.6l0.1-0.1l13.5-7.9l0.1,0l13.5,8l-0.1,0.1L13.7-16.1z M0.4-24.6l13.3,8.2
			l13.2-8.2l-13.2-7.8L0.4-24.6z"/>
		<path class="st13" d="M67.3-32.3L67.3-32.3l-13.7-8.4l0.1-0.1l13.5-7.9l0.1,0l13.5,8l-0.1,0.1L67.3-32.3z M54-40.7l13.3,8.2
			l13.2-8.2l-13.2-7.8L54-40.7z"/>
		<path class="st13" d="M40.5-32.3L40.5-32.3l-13.7-8.4l0.1-0.1l13.5-7.9l0.1,0l13.5,8l-0.1,0.1L40.5-32.3z M27.2-40.7l13.3,8.2
			l13.2-8.2l-13.2-7.8L27.2-40.7z"/>
		<path class="st13" d="M13.7-32.3L13.7-32.3L0-40.7l0.1-0.1l13.5-7.9l0.1,0l13.5,8l-0.1,0.1L13.7-32.3z M0.4-40.7l13.3,8.2
			l13.2-8.2l-13.2-7.8L0.4-40.7z"/>
	</g>
</pattern>
<g id="New_Symbol_8">
	<g id="New_Symbol_4">
	</g>
	<g id="New_Symbol_3">
	</g>
	<g id="New_Symbol_2">
	</g>
	<g id="New_Symbol_2_1_">
	</g>
</g>
<g>
	<g>
		<path class="st5" d="M1228.1,262.5c24.1,60.3-35.9,121.3-134.1,136.1s-197.4-21.9-221.5-82.2s35.9-121.3,134.1-136.1
			C1104.8,165.4,1204,202.2,1228.1,262.5z"/>
		<path class="st3" d="M1228.1,262.5c24.1,60.3-35.9,121.3-134.1,136.1s-197.4-21.9-221.5-82.2s35.9-121.3,134.1-136.1
			C1104.8,165.4,1204,202.2,1228.1,262.5z"/>
		<pattern  id="SVGID_1_" xlink:href="#New_Pattern_Swatch_2" patternTransform="matrix(0.8323 0 0 0.8323 -1042.6726 -1222.8606)">
		</pattern>
		<path style="opacity:0.4;fill:url(#SVGID_1_);" d="M1228.1,262.5c24.1,60.3-35.9,121.3-134.1,136.1s-197.4-21.9-221.5-82.2
			s35.9-121.3,134.1-136.1C1104.8,165.4,1204,202.2,1228.1,262.5z"/>
		<path class="st69" d="M1228.1,262.5c24.1,60.3-35.9,121.3-134.1,136.1s-197.4-21.9-221.5-82.2s35.9-121.3,134.1-136.1
			C1104.8,165.4,1204,202.2,1228.1,262.5z"/>
	</g>
	<path class="st70" d="M390.9,478.4h28.5l-8.8,5.1c-1.6,0.9-2.1,2.9-1.2,4.5c0.9,1.6,2.9,2.1,4.5,1.2l18.7-10.8
		c1-0.6,1.6-1.6,1.6-2.7c0-1.1-0.5-2.2-1.4-2.9L414,460.2c-0.6-0.4-1.2-0.6-1.9-0.6c-1.1,0-2.1,0.5-2.7,1.4c-1,1.5-0.6,3.6,0.9,4.6
		l9.1,6.2h-28.5c-1.8,0-3.3,1.5-3.3,3.3S389,478.4,390.9,478.4z"/>
	<g class="st33">
		<g>
			<pattern  id="SVGID_2_" xlink:href="#New_Pattern_3" patternTransform="matrix(0.8323 0 0 0.8323 -1057.6989 -1221.6191)">
			</pattern>
			<path class="st34" d="M373.2,261.2c24.1,60.3-35.9,121.3-134.1,136.1c-98.2,14.9-197.4-21.9-221.5-82.2S53.5,193.8,151.8,179
				C250,164.1,349.1,200.9,373.2,261.2z"/>
			<path class="st35" d="M373.2,261.2c24.1,60.3-35.9,121.3-134.1,136.1c-98.2,14.9-197.4-21.9-221.5-82.2S53.5,193.8,151.8,179
				C250,164.1,349.1,200.9,373.2,261.2z"/>
		</g>
		<path class="st36" d="M213.7,94.2c2.1-0.4,4.3,1.6,4.7,4.4c0.5,2.8-0.9,5.3-3,5.7"/>
		<g>
			<g>
				<polygon class="st3" points="113.2,257.3 113.5,162.7 197.1,114.2 274.5,160.6 274.5,257.9 211.9,296.2 177.3,295.9 				"/>
			</g>
			<polygon class="st37" points="277,257.3 211.9,299.3 211.9,202.7 277,160.7 			"/>
			<g>
				<polygon class="st38" points="197.4,137.6 200,139.2 164.3,160.5 161.7,158.9 				"/>
				<polygon class="st38" points="178.6,169.5 176,167.8 211.7,146.5 214.4,148.2 				"/>
				<polygon class="st38" points="202.2,140.5 204.8,142.2 169.1,163.5 166.4,161.8 				"/>
				<polygon class="st38" points="206.9,143.5 209.6,145.2 173.9,166.5 171.2,164.8 				"/>
				<polygon class="st38" points="217,149.3 219.6,150.9 183.9,172.2 181.3,170.6 				"/>
				<polygon class="st38" points="221.8,152.3 224.4,153.9 188.7,175.2 186.1,173.6 				"/>
				<polygon class="st38" points="226.6,155.2 229.2,156.9 193.5,178.2 190.8,176.5 				"/>
			</g>
			<g>
				<path class="st39" d="M197.1,114.2l77.4,46.4v97.3l-62.6,38.4l-34.6-0.3l-64.1-38.7l0.2-94.5L197.1,114.2 M197.2,108.9l-2.3,1.3
					l-83.7,48.5l-2.3,1.3l0,2.6l-0.2,94.5l0,2.6l2.2,1.3l64.1,38.7l1.1,0.6l1.2,0l34.6,0.3l1.3,0l1.1-0.7l62.6-38.4l2.2-1.3v-2.5
					v-97.3V158l-2.2-1.3l-77.4-46.4L197.2,108.9L197.2,108.9z"/>
			</g>
			<polyline class="st40" points="277,160.7 211.9,202.3 177.3,202 113.2,163.4 			"/>
			<line class="st40" x1="211.9" y1="202.3" x2="211.9" y2="296.2"/>
			<line class="st40" x1="177.3" y1="202" x2="177.3" y2="295.9"/>
			<g>
				<polygon class="st41" points="224.4,217.8 224.4,275.2 267.1,249.3 267.1,191.7 				"/>
				<polygon class="st39" points="257.4,197.6 257.1,243.7 224.1,263.8 224.4,217.8 				"/>
				<line class="st40" x1="267.1" y1="249.3" x2="254.1" y2="241.9"/>
			</g>
			<g>
				<polygon class="st3" points="166.1,214.3 166.1,271.7 123.4,245.9 123.4,188.3 				"/>
				<polygon class="st37" points="166.1,214.3 166.1,271.7 123.4,245.9 123.4,188.3 				"/>
				<polygon class="st39" points="133.1,194.2 133.4,240.3 166.4,260.4 166.1,214.3 				"/>
				<line class="st40" x1="123.4" y1="245.9" x2="136.5" y2="238.5"/>
				<polygon class="st42" points="166.1,214.3 166.1,271.7 123.4,245.9 123.4,188.3 				"/>
				<g>
					<defs>
						<polygon id="SVGID_11_" points="166.1,214.3 166.1,275.2 33.2,353.7 -20.3,313.5 123.4,224.9 123.4,188.3 						"/>
					</defs>
					<clipPath id="SVGID_3_">
						<use xlink:href="#SVGID_11_"  style="overflow:visible;"/>
					</clipPath>
					<g class="st43">
						<g>
							<path class="st3" d="M70.6,325.5c-1.5,0-2.8-0.5-3.8-1.5l-34.7-20.8l-0.1-0.1c-2.3-2-2.8-5.9-1.5-10c1.2-3.6,3.6-6.8,6.5-8.7
								l92.9-56c1.7-1.2,3.5-1.9,5.2-1.9l0.1,0c1.2,0,2.3,0.4,3.2,1l34.2,20.5c3.2,1.6,4.2,6,2.6,10.8c-1.4,4.1-4.3,7.6-7.6,9.3
								l-92.2,55.6c-1.6,1-3.3,1.6-4.9,1.6L70.6,325.5z"/>
							<path class="st39" d="M135.3,228.1C135.3,228.1,135.3,228.1,135.3,228.1c1,0,1.9,0.3,2.5,0.8l34.3,20.6
								c2.4,1.2,3.3,4.8,1.9,9c-1.3,3.8-4,7-6.9,8.4l-92.2,55.6c-1.4,0.9-2.8,1.4-4.1,1.4c0,0-0.1,0-0.1,0c-1.2,0-2.2-0.5-2.9-1.2
								L33,302c-1.8-1.6-2.2-4.8-1-8.4c1.1-3.4,3.4-6.3,5.9-7.9l92.9-56C132.3,228.7,133.8,228.1,135.3,228.1 M135.3,225.1
								L135.3,225.1c-2,0-4.1,0.7-6.1,2.1l-92.8,55.9l0,0l0,0c-3.2,2-5.8,5.6-7.1,9.5c-1.6,4.7-0.9,9.2,1.9,11.6l0.2,0.2l0.2,0.1
								l34.4,20.6c1.3,1.1,2.9,1.8,4.7,1.8l0.1,0c1.9,0,3.8-0.6,5.7-1.9l92.1-55.6c3.7-1.9,6.8-5.7,8.3-10.1
								c1.9-5.6,0.5-10.6-3.3-12.6l-34.1-20.5c-1.2-0.8-2.6-1.2-4-1.3L135.3,225.1L135.3,225.1z"/>
						</g>
						<path class="st40" d="M170.1,249.1c-1.3,0-2.6,0.5-3.9,1.3c0,0-93.1,56.1-93.4,56.3c-2.5,1.6-4.8,4.5-6,7.9
							c-1.7,5.2,0,9.4,3.8,9.5c0,0,0.1,0,0.1,0c1.1,0,2.3-0.3,3.4-1l93.4-56.3c2.7-1.5,5.2-4.6,6.4-8.2
							C175.7,253.4,174,249.1,170.1,249.1C170.2,249.1,170.1,249.1,170.1,249.1L170.1,249.1z"/>
						<path class="st39" d="M170.1,252.1L170.1,252.1c0.6,0,0.8,0.2,1,0.5c0.5,0.7,0.8,2.5,0,5c-0.9,2.7-2.9,5.3-5,6.5l0,0l0,0
							l-93.4,56.3c-0.7,0.4-1.3,0.6-1.9,0.6h0c-0.6,0-0.8-0.2-1-0.5c-0.5-0.7-0.8-2.5,0-5c0.9-2.6,2.7-5,4.7-6.3
							c0.9-0.5,92.7-55.9,93.4-56.3C168.7,252.4,169.5,252.1,170.1,252.1"/>
						<path class="st3" d="M77,309.8c-1.6,0-3.6,1.7-4.3,4c-0.7,2.2,0,4,1.6,4.1c1.6,0,3.6-1.7,4.3-4S78.6,309.9,77,309.8z
							 M76.9,313.9c-0.3,1-1.1,1.7-1.8,1.7c-0.7,0-1-0.8-0.7-1.7c0.3-1,1.1-1.7,1.8-1.7C76.9,312.1,77.2,312.9,76.9,313.9z"/>
						<path class="st3" d="M99.3,296.2c-1.6,0-3.6,1.7-4.3,4c-0.7,2.2,0,4,1.6,4.1s3.6-1.7,4.3-4
							C101.6,298.1,100.9,296.3,99.3,296.2z M99.2,300.3c-0.3,1-1.1,1.7-1.8,1.7c-0.7,0-1-0.8-0.7-1.7c0.3-1,1.1-1.7,1.8-1.7
							C99.2,298.5,99.5,299.3,99.2,300.3z"/>
						<path class="st3" d="M121.6,282.5c-1.6,0-3.6,1.7-4.3,4c-0.7,2.2,0,4,1.6,4.1s3.6-1.7,4.3-4
							C123.9,284.4,123.2,282.6,121.6,282.5z M121.5,286.6c-0.3,1-1.1,1.7-1.8,1.7c-0.7,0-1-0.8-0.7-1.7c0.3-1,1.1-1.7,1.8-1.7
							C121.5,284.8,121.8,285.6,121.5,286.6z"/>
						<path class="st3" d="M143.9,269.1c-1.6,0-3.6,1.7-4.3,4c-0.7,2.2,0,4,1.6,4.1s3.6-1.7,4.3-4S145.5,269.1,143.9,269.1z
							 M143.8,273.1c-0.3,1-1.1,1.7-1.8,1.7c-0.7,0-1-0.8-0.7-1.7c0.3-1,1.1-1.7,1.8-1.7C143.8,271.4,144.2,272.2,143.8,273.1z"/>
						<path class="st3" d="M166.2,255.6c-1.6,0-3.6,1.7-4.3,4c-0.7,2.2,0,4,1.6,4.1s3.6-1.7,4.3-4
							C168.6,257.5,167.8,255.6,166.2,255.6z M166.1,259.6c-0.3,1-1.1,1.7-1.8,1.7c-0.7,0-1-0.8-0.7-1.7c0.3-1,1.1-1.7,1.8-1.7
							C166.1,257.9,166.5,258.7,166.1,259.6z"/>
					</g>
				</g>
			</g>
			<g>
				<g>
					<path class="st3" d="M240.2,136.5v-0.9c0-0.2,0-1.1,0-2.3c0.1-6.5,0.4-26.4,0-36c0-0.4-0.1-0.7-0.1-0.9c-1.5,0-4.7,1.2-6.9,2.6
						c-0.1,0.1-0.2,0.1-0.3,0.2l-10.6,5.7c-7.1,3.8-6.4,10.8-6.3,11.1c0,0.2,0,0.5,0,0.7v11.6c0,2.9-2.4,5.3-5.3,5.3
						s-5.3-2.4-5.3-5.3V117c-0.2-2.6-0.6-14.7,11.9-21.4l10.5-5.6c1.5-0.9,7-4,12.4-4c1.9,0,3.7,0.4,5.2,1.2
						c2.3,1.2,5.2,3.9,5.4,9.7c0.4,10.1,0.1,33.3,0,40.9c0,1.2,0,2,0,2.4l0,2.6L240.2,136.5z"/>
					<path class="st39" d="M240.2,87.5c1.6,0,3.1,0.3,4.5,1c2,1,4.4,3.4,4.6,8.5c0.5,11.5,0,40.5,0,43.2l-7.6-4.5
						c0-1.5,0.5-27,0-38.4c-0.1-1.3-0.3-2-0.6-2.1c-0.2-0.1-0.6-0.2-0.9-0.2c-1.9,0-5.4,1.3-7.8,2.8c-0.1,0-0.1,0.1-0.2,0.1
						l-10.6,5.7c-8.2,4.4-7.1,12.6-7.1,12.6c0,0.2,0,0.3,0,0.5v11.6c0,2.1-1.7,3.8-3.8,3.8s-3.8-1.7-3.8-3.8V117
						c-0.2-2.1-0.8-13.7,11.1-20l10.5-5.6C230,90.4,235.2,87.5,240.2,87.5 M240.2,84.4c-5.5,0-11,2.9-13.2,4.3l-10.4,5.6
						c-13.2,7.1-12.9,19.9-12.7,22.8v11.2c0,3.7,3,6.8,6.8,6.8s6.8-3,6.8-6.8v-11.6c0-0.3,0-0.6-0.1-0.9c0-0.2-0.6-6.2,5.5-9.6
						l10.6-5.7c0.1-0.1,0.3-0.1,0.4-0.2c1.6-1,3.4-1.7,4.7-2.1c0.4,9.8,0.1,28.7,0,35.1c0,1.3,0,2.1,0,2.3v1.7l1.5,0.9l7.6,4.5
						l4.5,2.7l0-5.3c0-0.4,0-1.2,0-2.3c0.1-7.7,0.4-30.9,0-41c-0.3-6.9-4-9.9-6.2-11C244.4,84.9,242.4,84.4,240.2,84.4L240.2,84.4z"
						/>
				</g>
				<g>
					<path class="st3" d="M255,145.4v-0.9c0-0.2,0-1.1,0-2.3c0.1-6.5,0.4-26.4,0-36c0-0.4-0.1-0.7-0.1-0.9c-1.5,0-4.7,1.2-6.9,2.6
						c-0.1,0.1-0.2,0.1-0.3,0.2l-10.6,5.7c-7.1,3.8-6.4,10.8-6.3,11.1c0,0.2,0,0.5,0,0.7v11.6c0,2.9-2.4,5.3-5.3,5.3
						s-5.3-2.4-5.3-5.3v-11.3c-0.2-2.6-0.6-14.7,11.9-21.4l10.5-5.6c1.5-0.9,7-4,12.4-4c1.9,0,3.7,0.4,5.2,1.2
						c2.3,1.2,5.2,3.9,5.4,9.7c0.4,10.1,0.1,33.4,0,41c0,1.1,0,1.9,0,2.3l0,2.6L255,145.4z"/>
					<path class="st39" d="M255,96.3c1.6,0,3.1,0.3,4.5,1c2,1,4.4,3.4,4.6,8.5c0.5,11.5,0,40.5,0,43.2l-7.6-4.5c0-1.5,0.5-27,0-38.4
						c-0.1-1.3-0.3-2-0.6-2.1c-0.2-0.1-0.6-0.2-0.9-0.2c-1.9,0-5.4,1.3-7.8,2.8c-0.1,0-0.1,0.1-0.2,0.1l-10.6,5.7
						c-8.2,4.4-7.1,12.6-7.1,12.6c0,0.2,0,0.3,0,0.5v11.6c0,2.1-1.7,3.8-3.8,3.8s-3.8-1.7-3.8-3.8v-11.4c-0.2-2.1-0.8-13.7,11.1-20
						l10.5-5.6C244.8,99.3,250,96.3,255,96.3 M255,93.3c-5.5,0-11,2.9-13.2,4.3l-10.4,5.6c-13.2,7.1-12.9,19.9-12.7,22.8v11.2
						c0,3.7,3,6.8,6.8,6.8s6.8-3,6.8-6.8v-11.6c0-0.3,0-0.6-0.1-0.9c0-0.2-0.6-6.2,5.5-9.6l10.6-5.7c0.1-0.1,0.3-0.1,0.4-0.2
						c1.6-1,3.4-1.7,4.7-2.1c0.4,9.8,0.1,28.7,0,35.1c0,1.3,0,2.1,0,2.3v1.7l1.5,0.9l7.6,4.5l4.5,2.7l0-5.3c0-0.4,0-1.2,0-2.3
						c0.1-7.7,0.4-30.9,0-41c-0.3-6.9-4-9.9-6.2-11C259.1,93.8,257.2,93.3,255,93.3L255,93.3z"/>
				</g>
			</g>
			<path class="st36" d="M230.3,126.2c0,1.9-2.1,3.4-4.8,3.4c-2.6,0-4.8-1.5-4.8-3.4"/>
			<path class="st36" d="M215.7,118.4c0,1.9-2.1,3.4-4.8,3.4s-4.8-1.5-4.8-3.4"/>
			<path class="st36" d="M265.5,122.3c0,1.9-2.1,3.4-4.8,3.4c-2.6,0-4.8-1.5-4.8-3.4"/>
			<path class="st36" d="M251,114.5c0,1.9-2.1,3.4-4.8,3.4s-4.8-1.5-4.8-3.4"/>
			<path class="st36" d="M232.3,105.2c2.1-0.4,4.3,1.6,4.7,4.4c0.5,2.8-0.9,5.3-3,5.7"/>
			<g>
				<polygon class="st44" points="91.5,227.3 91.5,256.3 117.8,272.3 144.8,256.5 144.8,234 159.3,225.3 144.8,226.3 118.1,212.2 
					107.6,197.6 79.6,212.6 				"/>
				<polyline class="st45" points="144.6,226.8 117.4,242 91.5,227.3 118.1,212.2 117.5,272.3 				"/>
				<polyline class="st45" points="118.5,242.3 131.2,240.7 157.7,225.5 				"/>
				<polygon class="st37" points="144.8,234 144.8,256.5 117.8,272.3 118.5,242.3 131.2,240.7 				"/>
				<polygon class="st46" points="118.1,212.2 118.5,242.3 91.5,227.9 				"/>
				<polygon class="st37" points="118.2,242.3 117.8,212.2 144.8,226.6 				"/>
			</g>
			<g>
				<polygon class="st3" points="224.4,217.8 224.4,275.2 267.1,249.3 267.1,191.7 				"/>
				<polygon class="st37" points="224.4,217.8 224.4,275.2 267.1,249.3 267.1,191.7 				"/>
				<polygon class="st39" points="257.4,197.6 257.1,243.7 224.1,263.8 224.4,217.8 				"/>
				<line class="st40" x1="267.1" y1="249.3" x2="254.1" y2="241.9"/>
				<polygon class="st42" points="224.4,217.8 224.4,275.2 267.1,249.3 267.1,191.7 				"/>
				<g>
					<defs>
						<polygon id="SVGID_13_" points="224.4,217.8 224.4,278.6 357.4,357.1 410.8,316.9 267.1,228.4 267.1,191.7 						"/>
					</defs>
					<clipPath id="SVGID_5_">
						<use xlink:href="#SVGID_13_"  style="overflow:visible;"/>
					</clipPath>
					<g class="st47">
						<g>
							<path class="st3" d="M319.8,328.9c-1.6,0-3.3-0.6-4.9-1.7l-92.1-55.6c-3.3-1.7-6.2-5.2-7.6-9.3c-1.6-4.8-0.6-9.2,2.6-10.8
								l34.2-20.5c0.9-0.7,2-1,3.2-1l0.1,0c1.7,0,3.5,0.6,5.2,1.9l92.9,56c2.9,1.9,5.4,5.1,6.6,8.7c1.4,4.1,0.8,8-1.5,10l-0.1,0.1
								l-34.7,20.8c-1,1-2.3,1.5-3.8,1.5L319.8,328.9z"/>
							<path class="st39" d="M255.3,231.5c1.4,0,3,0.6,4.4,1.6l92.9,56c2.5,1.6,4.8,4.5,5.9,7.9c1.2,3.7,0.7,6.9-1,8.4l-34.7,20.8
								c-0.7,0.7-1.7,1.2-2.9,1.2c0,0-0.1,0-0.1,0c-1.3,0-2.8-0.5-4.1-1.4l-92.2-55.6c-2.9-1.4-5.6-4.7-6.9-8.4
								c-1.4-4.2-0.5-7.8,1.9-9l34.3-20.6C253.5,231.8,254.3,231.6,255.3,231.5C255.3,231.5,255.3,231.5,255.3,231.5 M255.3,228.5
								l-0.1,0c-1.5,0-2.9,0.5-4,1.3L217,250.3c-3.8,2-5.1,7.1-3.3,12.6c1.5,4.4,4.6,8.3,8.3,10.1l92.1,55.6
								c1.9,1.2,3.9,1.9,5.7,1.9l0.1,0c1.8,0,3.4-0.6,4.7-1.8l34.4-20.6l0.2-0.1l0.2-0.2c2.7-2.5,3.5-6.9,1.9-11.6
								c-1.3-3.9-4-7.4-7.1-9.5l0,0l0,0l-92.8-55.9C259.4,229.3,257.3,228.5,255.3,228.5L255.3,228.5z"/>
						</g>
						<path class="st40" d="M220.4,252.5C220.4,252.5,220.4,252.5,220.4,252.5c-3.9,0.1-5.6,4.3-3.9,9.5c1.2,3.6,3.7,6.7,6.4,8.2
							l93.4,56.3c1.1,0.6,2.3,1,3.4,1c0,0,0.1,0,0.1,0c3.8-0.1,5.5-4.3,3.8-9.5c-1.1-3.4-3.4-6.3-6-7.9
							c-0.3-0.2-93.4-56.3-93.4-56.3C223.1,252.9,221.7,252.5,220.4,252.5L220.4,252.5z"/>
						<path class="st39" d="M220.4,255.5c0.6,0,1.5,0.3,2.3,0.8c0.7,0.4,92.5,55.8,93.4,56.3c2,1.3,3.8,3.7,4.7,6.3
							c0.8,2.5,0.5,4.3,0,5c-0.2,0.2-0.4,0.5-1,0.5h0c-0.6,0-1.2-0.2-1.9-0.6l-93.4-56.3l0,0l0,0c-2.1-1.2-4.1-3.8-5-6.5
							c-0.8-2.5-0.5-4.3,0-5C219.6,255.7,219.8,255.5,220.4,255.5L220.4,255.5"/>
						<path class="st3" d="M312,317.3c0.7,2.2,2.7,4,4.3,4c1.6,0,2.4-1.8,1.6-4.1c-0.7-2.2-2.7-4-4.3-4
							C312,313.3,311.2,315.1,312,317.3z M314.3,315.6c0.7,0,1.5,0.8,1.8,1.7c0.3,1,0,1.7-0.7,1.7c-0.7,0-1.5-0.8-1.8-1.7
							C313.3,316.3,313.6,315.6,314.3,315.6z"/>
						<path class="st3" d="M289.7,303.7c0.7,2.2,2.7,4,4.3,4c1.6,0,2.4-1.8,1.6-4.1c-0.7-2.2-2.7-4-4.3-4
							C289.6,299.7,288.9,301.5,289.7,303.7z M292,301.9c0.7,0,1.5,0.8,1.8,1.7c0.3,1,0,1.7-0.7,1.7c-0.7,0-1.5-0.8-1.8-1.7
							C291,302.7,291.3,302,292,301.9z"/>
						<path class="st3" d="M267.4,290c0.7,2.2,2.7,4,4.3,4c1.6,0,2.4-1.8,1.6-4.1c-0.7-2.2-2.7-4-4.3-4
							C267.3,286,266.6,287.8,267.4,290z M269.7,288.2c0.7,0,1.5,0.8,1.8,1.7c0.3,1,0,1.7-0.7,1.7c-0.7,0-1.5-0.8-1.8-1.7
							C268.7,289,269,288.2,269.7,288.2z"/>
						<path class="st3" d="M245,276.6c0.7,2.2,2.7,4,4.3,4s2.4-1.8,1.6-4.1c-0.7-2.2-2.7-4-4.3-4C245,272.6,244.3,274.4,245,276.6z
							 M247.4,274.8c0.7,0,1.5,0.8,1.8,1.7c0.3,1,0,1.7-0.7,1.7c-0.7,0-1.5-0.8-1.8-1.7C246.4,275.6,246.7,274.8,247.4,274.8z"/>
						<path class="st3" d="M222.7,263.1c0.7,2.2,2.7,4,4.3,4s2.4-1.8,1.6-4.1c-0.7-2.2-2.7-4-4.3-4
							C222.7,259.1,222,260.9,222.7,263.1z M225.1,261.3c0.7,0,1.5,0.8,1.8,1.7c0.3,1,0,1.7-0.7,1.7c-0.7,0-1.5-0.8-1.8-1.7
							C224.1,262.1,224.4,261.3,225.1,261.3z"/>
					</g>
				</g>
			</g>
			<g>
				<polygon class="st44" points="299.6,261.6 299.6,229.2 272.9,213.8 246.3,230.4 246.3,261.4 272.6,277.4 				"/>
				<polyline class="st48" points="299.6,229.2 272.9,245.6 246.3,230.4 				"/>
				<line class="st48" x1="272.9" y1="245.6" x2="272.9" y2="277.4"/>
				<polyline class="st49" points="287.8,223.1 261,239.6 260.9,256.8 254.9,253.3 254.9,236.5 281.1,219.3 				"/>
			</g>
			<g>
				<g>
					<polygon class="st50" points="345.4,285.6 345.4,253.3 318.9,237.6 292.3,253.8 292.3,284.7 318.5,301 					"/>
					<polyline class="st51" points="345.4,253.3 318.9,269.3 292.3,253.8 					"/>
					<line class="st51" x1="318.9" y1="269.3" x2="318.9" y2="301"/>
					<polyline class="st49" points="333.6,247.1 307,263.1 306.8,280.3 300.9,276.7 300.9,260 327,243.2 					"/>
				</g>
				<g>
					<g>
						<path class="st3" d="M287.5,355.2c-1.4,0-2.5-0.8-3-1.3c-0.3-0.3-0.9-1-0.9-1.7l0.9-0.1l-0.9,0l0-0.6h0l0.1-1.8
							c-0.3-0.3-0.5-0.6-0.6-1l-0.1-0.3l7.8-18.9l-0.7-14.4l-8.3-22.7c-2-5.5-0.5-8.9,0.4-10.2c0-0.1,0-0.1,0-0.2c0-0.3,0-0.4,0-0.6
							l0-0.3c0-0.4,0.1-0.9,0.5-1.3l-0.1-0.4c-0.8-0.5-3.1-2.6-3.7-3.5c-2.1-2.8-2.7-6.4-1.5-9c0.8-1.8,2.7-3.9,7.3-4.3
							c0.3,0,0.7,0,1,0c1.9,0,3.3,0.4,3.4,0.4c1.8,0.4,2.6,1.3,2.9,2.1c0.4,0.9,0.3,2-0.2,3l1.5,7.2c0.8,3.5-0.6,4.7-1.9,5.1
							c0,0-0.1,0-0.1,0c0.5,0.3,0.8,0.6,1.1,1l0.8,1l2.1,0.8c0.2,0.1,0.3,0.1,0.4,0.2c0.2,0.1,0.4,0.1,0.6,0.2
							c0.7,0.3,1.7,0.8,2.8,1.3c2.1,1,4.7,2.3,6.3,3c0.3,0.1,0.6,0.2,1,0.2c0.4,0,0.8-0.1,1.1-0.3l6.9-3.2c0.2-0.2,0.5-0.3,0.8-0.4
							c0-0.4,0-1.1,0-1.5c0-0.8,0-1,0.2-1.3c0.8-1.1,2.1-1.4,2.8-1.5c0.2,0,0.3-0.1,0.4-0.1c0.2-0.1,0.3-0.1,0.5-0.1
							c0.5,0,0.9,0.2,1.2,0.7c0.2,0.3,0.3,0.8,0.3,1.2c0,0,0.1-0.1,0.1-0.1c0.9-0.8,1.7-1,2.2-1c1.5,0,2.6,1.3,2.6,2.4
							c0.1,1.3-1.3,4.8-4.1,5.7c-0.8,0.2-1.6,0.5-2.6,0.7c0,0,0,0.4,0,0.4l-0.3,0.2c-0.3,0.2-6.5,4.9-11.5,6
							c0.8,0.5,1.8,1.3,3.1,2.2l1.9,1.4l-2.3,0.3c0,0-2.7,0.3-4.8,0.5l3.4,10.2c0.2,0.4,0.1,1-0.1,1.7l4.3,16l2,14.9
							c0,0.1,0.1,0.2,0.1,0.3c0.3,0.2,0.6,0.5,0.7,0.9c0.1,0,0.2,0,0.2,0c0.2,0,0.4,0,0.6,0c2,0,3.3,0.7,3.5,2.1c0,0.1,0.1,0.6,0,1
							l0,0.3c0,0.1,0,0.4-0.2,0.6c-0.3,0.6-0.9,1-1.4,1.2c-0.1,0-2,1.3-3.4,1.6c-0.3,0.1-0.6,0.1-0.8,0.2c-0.6,0.2-1.1,0.3-1.7,0.3
							c-0.3,0-0.5,0-0.8-0.1c-0.1,0-0.2-0.1-0.4-0.1l-0.7,0c0,0-0.1,0.7-0.1,0.9l-0.1,0.6l-2.8,0.9l-0.1,0c-0.2,0-0.4,0.1-0.6,0.1
							c-1.5,0-2.6-0.9-3-1.5c-0.5-0.5-1-1.4-0.9-2l0.9,0l-0.9-0.1l0.1-0.6l0,0l0.1-1.1c-0.1-0.1-0.2-0.2-0.2-0.4l0-0.1l-1.5-16.6
							l-0.2-0.5l-0.2,1.2l-5,12.7c0.4-0.1,0.8-0.1,1.1-0.1c2.1,0,2.8,1.1,2.9,1.7c0,0.1,0.2,0.6,0.1,1l0,0c0,0.1,0,0.1,0,0.2l0,0.1
							c0,0.1,0,0.4-0.1,0.6c-0.3,0.7-0.8,1.1-1.2,1.4c-0.1,0.1-1.8,1.5-3.2,2c-0.3,0.1-0.6,0.2-0.8,0.3c-0.7,0.3-1.4,0.5-2,0.5
							c-0.2,0-0.3,0-0.4,0c-0.1,0-0.2,0-0.4-0.1l-0.7,0c0,0.1,0,0.4,0,0.4c0,0.2,0,0.3,0,0.4l0,0.6l-0.5,0.3l-2.2,1l-0.1,0
							C288.2,355.1,287.8,355.2,287.5,355.2z"/>
						<path class="st39" d="M285.7,263.4c1.8,0,3.2,0.4,3.2,0.4c2.6,0.5,3,2.4,2,4.1l1.6,7.5c0.7,3-0.4,3.8-1.3,4.1
							c-0.5,0.2-1,0.2-1.6,0.3l0.2,0.9c0.9,0.3,1.5,0.7,1.9,1.2l0.9,1.2l2.3,0.9c0.1,0.1,0.3,0.1,0.4,0.2c0.2,0.1,0.4,0.1,0.6,0.2
							c2,0.9,6.6,3.3,9.1,4.3c0.4,0.2,0.9,0.3,1.3,0.3c0.5,0,1.1-0.1,1.5-0.4l7-3.2c0.2-0.1,0.4-0.3,0.7-0.3c0.1,0,0.1,0,0.2,0
							c0.4-0.5,0.2-3,0.3-3.1c0.7-1.1,2.2-1.1,2.8-1.3c0.1,0,0.1,0,0.2,0c0.6,0,0.8,1.1,0.3,2.4c1.1,0,1.3-0.2,2-0.8
							c0.6-0.5,1.1-0.7,1.5-0.7c1,0,1.7,0.9,1.7,1.5c0,0.9-1.1,4.1-3.4,4.8c-1.1,0.3-2.3,0.6-3.2,0.9c0,0.4,0,0.7,0,0.7
							s-7.9,6-12.7,6c-0.3,0-0.6,0-0.9-0.1c0.2,0,5.2,3.7,5.2,3.7s-3.9,0.4-6,0.7l3.8,11.3c0.1,0.3,0.1,0.8-0.2,1.3l4.4,16.3
							l2.1,14.9c0,0,0,0,0,0c0,0,0.2,0.7,0.5,0.8c0.3,0.1,0.4,0.5,0.4,0.9c0.5,0.1,1,0.2,1,0.2c0.2,0,0.4,0,0.7,0
							c1.2,0,2.5,0.3,2.6,1.3c0,0,0.1,0.5,0,0.7c0,0,0,0,0,0c0,0,0,0,0,0c0,0,0,0,0,0c-0.1,0.3,0,0.3-0.1,0.4
							c-0.2,0.5-0.7,0.8-1.1,1c0,0-1.8,1.2-3.1,1.5c-0.3,0.1-0.5,0.1-0.8,0.2c-0.6,0.2-1.1,0.3-1.5,0.3c-0.2,0-0.4,0-0.6-0.1
							c0,0-0.2-0.1-0.4-0.1c-0.3,0-0.6,0-0.9-0.1c0,0,0,0-0.1,0c-0.2,0-0.5,0.1-0.6,0.2c-0.1,0.2-0.2,0.5-0.2,0.8
							c0,0.2,0,0.5-0.1,0.7l-2.2,0.7c-0.2,0-0.3,0-0.5,0c-1.9,0-3.1-1.9-3-2.5l0-0.1l0,0l0,0l0.1-0.6c0,0,0,0,0,0l0.2-1.6
							c-0.2-0.1-0.3-0.2-0.3-0.3l-1.5-16.6l-1.3-3.9l-0.8,4.6l-5.4,13.8c0.6,0,1.1,0.1,1.1,0.1c0.4-0.1,0.9-0.1,1.3-0.1
							c1,0,1.8,0.3,2.1,1c0,0,0.1,0.4,0.1,0.7c0,0,0,0,0,0c0,0,0,0,0,0c0,0,0,0,0,0.1c0,0.3,0,0.3-0.1,0.4c-0.2,0.5-0.6,0.8-1,1.1
							c0,0-1.7,1.4-2.9,1.8c-0.3,0.1-0.5,0.2-0.7,0.2c-0.8,0.3-1.4,0.4-1.7,0.4c-0.1,0-0.2,0-0.3,0c0,0-0.2,0-0.5-0.1
							c-0.3,0-0.6,0-0.9,0c-0.2,0-0.5,0.1-0.6,0.2c-0.1,0.2-0.1,0.5-0.1,0.9c0,0,0,0,0,0.1c0,0.2,0,0.4,0,0.5l0,0c0,0,0,0.1,0,0.1
							l-2.1,0.9c-0.3,0.1-0.5,0.1-0.8,0.1c-1.7,0-3-1.6-3-2.1l0-0.1l0,0l0,0l0-0.6c0,0,0,0,0,0l0.1-2.3c-0.4-0.3-0.6-0.6-0.6-0.8
							l7.8-18.8l-0.7-14.7l0,0l-8.4-22.8c-2.1-5.8-0.1-8.9,0.6-9.8c0,0,0,0,0,0c0,0-0.1,0-0.1-0.3c0-0.5,0-0.5,0-0.9
							c0-0.4,0.1-0.6,0.6-0.7l-0.3-1.5c-0.1,0-0.2-0.1-0.3-0.1c-0.4-0.2-2.9-2.4-3.5-3.3c-3.2-4.4-3-11.2,5.2-11.9
							C285.1,263.4,285.4,263.4,285.7,263.4 M309.7,350.5C309.7,350.5,309.7,350.5,309.7,350.5C309.7,350.5,309.7,350.5,309.7,350.5
							C309.7,350.5,309.7,350.5,309.7,350.5C309.7,350.5,309.7,350.5,309.7,350.5 M285.7,261.6L285.7,261.6c-0.4,0-0.7,0-1.1,0
							c-5.3,0.4-7.3,3.2-8.1,4.8c-1.3,2.9-0.7,6.8,1.6,9.9c0.5,0.7,2.3,2.4,3.4,3.3c-0.2,0.4-0.3,0.8-0.3,1.3l0,0.3
							c0,0.2,0,0.2,0,0.5c-1.1,1.7-2.4,5.2-0.4,10.8l8.3,22.6l0.7,14l-7.6,18.5l-0.2,0.6l0.2,0.6c0.1,0.4,0.3,0.8,0.5,1.1l0,1.5l0,0
							l0,0.6l0,0l0,0l0,0l0,0.1l0,0c0,1,0.7,1.8,1.2,2.3c0.6,0.6,1.8,1.6,3.6,1.6c0.4,0,0.9-0.1,1.3-0.2l0.1,0l0.1-0.1l2.1-0.9
							l1-0.5l0-0.1l0,0l0-1l0,0l0.1,0c0.2,0,0.3,0,0.5,0c0.7,0,1.5-0.2,2.4-0.5c0.2-0.1,0.4-0.1,0.7-0.2c1.5-0.5,3.2-1.9,3.5-2.1
							c0.5-0.4,1.1-0.9,1.5-1.7c0.1-0.3,0.2-0.6,0.2-1l0,0c0-0.1,0-0.2,0-0.3c0-0.5-0.1-0.9-0.2-1.2c-0.2-0.7-0.9-2.2-3.5-2.3
							l3.4-8.8l1.1,12.9l0,0.2l0,0.2c0,0.1,0.1,0.2,0.1,0.3l-0.1,0.8l0,0l-0.1,0.6l0,0.3l0,0c0,1.1,0.8,2.1,1.1,2.6
							c1,1.1,2.3,1.8,3.7,1.8c0.3,0,0.5,0,0.8-0.1l0.1,0l0.1,0l2.2-0.7l1.1-0.4l0.1-1.1l0,0l0.1,0c0.3,0.1,0.7,0.1,1,0.1
							c0.6,0,1.2-0.1,1.9-0.3c0.2,0,0.5-0.1,0.7-0.2c1.5-0.4,3.3-1.5,3.7-1.7c0.5-0.3,1.2-0.7,1.7-1.5c0.2-0.3,0.3-0.6,0.3-0.9
							l0-0.1l0-0.2c0.1-0.5,0-1-0.1-1.3c-0.1-0.7-0.8-2.8-4.4-2.8c-0.1,0-0.2,0-0.3,0c-0.1-0.2-0.3-0.4-0.5-0.6l-2-14.6l0-0.1l0-0.1
							l-4.3-15.7c0.2-0.7,0.2-1.4,0-2l-3.1-9.1c1.9-0.2,3.7-0.4,3.7-0.4l4.6-0.5l-3.7-2.7c-0.6-0.4-1.1-0.8-1.6-1.1
							c4.6-1.6,9.3-5.1,10-5.6l0.6-0.5l0-0.2c0.7-0.2,1.4-0.4,2-0.6c3.2-1,4.8-4.8,4.7-6.6c-0.1-1.5-1.5-3.3-3.5-3.3
							c-0.5,0-1.1,0.1-1.7,0.4c0-0.1-0.1-0.1-0.1-0.2c-0.4-0.7-1.1-1.1-1.9-1.1c-0.3,0-0.5,0-0.8,0.1c-0.1,0-0.2,0-0.3,0.1
							c-0.8,0.2-2.4,0.5-3.4,1.9c-0.4,0.5-0.4,1-0.4,1.8c0,0.2,0,0.5,0,0.8c-0.1,0.1-0.2,0.1-0.4,0.2l-6.8,3.2l0,0l0,0
							c-0.2,0.1-0.4,0.2-0.7,0.2c-0.2,0-0.4,0-0.6-0.1c-1.6-0.7-4.2-2-6.3-3c-1.1-0.5-2.1-1-2.8-1.3c-0.2-0.1-0.5-0.2-0.7-0.2
							c-0.1-0.1-0.2-0.1-0.3-0.2l-0.1,0l-0.1,0l-1.8-0.7l-0.6-0.8c-0.1-0.1-0.1-0.2-0.2-0.2c1-0.8,2-2.4,1.3-5.6l-1.5-6.8
							c0.5-1.2,0.6-2.4,0.1-3.5c-0.3-0.8-1.2-2.1-3.6-2.6C288.9,262,287.5,261.6,285.7,261.6L285.7,261.6z"/>
					</g>
					<path class="st52" d="M299.1,346.7c-0.3-1.1-2-1.2-3.4-0.9c0,0-0.5,0-1.1-0.1l-0.3,0.8c0,0-3.5,3.4-7.2,3.2
						c-1.4-0.1-2.1-0.3-2.6-0.6l-0.1,2.3c0,0,0,0,0,0l0,0.6l0,0l0,0l0,0.1c0,0.6,1.6,2.6,3.8,2l2.1-0.9c0,0,0-0.1,0-0.1l0,0
						c0-0.2,0-0.4,0-0.5c0,0,0,0,0-0.1c0-0.3,0-0.7,0.1-0.9c0.1-0.1,0.4-0.2,0.6-0.2c0.3,0,0.6,0,0.9,0c0.3,0,0.5,0.1,0.5,0.1
						c0.4,0,1,0,2-0.4c0.2-0.1,0.5-0.1,0.7-0.2c1.3-0.4,2.9-1.8,2.9-1.8c0.4-0.3,0.8-0.6,1-1.1c0.1,0,0-0.1,0.1-0.4c0,0,0,0,0-0.1
						c0,0,0,0,0,0c0,0,0,0,0,0C299.3,347.2,299.1,346.7,299.1,346.7z"/>
					<path class="st52" d="M318.8,346.6c-0.2-1.2-1.9-1.4-3.3-1.3c0,0-0.5-0.1-1-0.2c0,0.1,0,0.2,0,0.3c-0.1,0.6-3.1,3.1-7.1,3.6
						c-1,0.1-2.7-0.4-3.4-0.8l-0.2,1.6c0,0,0,0,0,0l-0.1,0.6l0,0l0,0l0,0.1c-0.1,0.6,1.3,2.8,3.5,2.4l2.2-0.7c0-0.2,0-0.5,0.1-0.7
						c0-0.3,0.1-0.6,0.2-0.8c0.1-0.1,0.4-0.2,0.6-0.2c0.3,0,0.6,0,0.9,0.1c0.3,0.1,0.4,0.1,0.4,0.1c0.4,0.1,1,0.1,2.1-0.2
						c0.2,0,0.5-0.1,0.8-0.2c1.3-0.3,3.1-1.5,3.1-1.5c0.4-0.3,0.9-0.5,1.1-1c0.1,0,0-0.1,0.1-0.4c0,0,0,0,0,0c0,0,0,0,0,0
						c0,0,0,0,0,0C318.9,347,318.8,346.6,318.8,346.6z"/>
					<path class="st53" d="M300.6,294l6.7,16.8c0.3,0.7-0.3,2.3-2.4,3.5c-1.1,0.6-2.9,2.1-5.8,2.2c-1.2,0.1-7.6-0.3-8.2-1.8"/>
					<path class="st53" d="M292.3,281.2c-0.8-1-3.2-1-5.6-1.1c0,0-1.9-0.1-2.8,0c-0.7,0.1-0.9,0.3-0.8,0.7"/>
					<path class="st53" d="M283.1,281.8c0,0.4,0.2,0.3,0.2,0.3s3.7-0.4,6.9,0.3c2.3,0.5,8.3,2.2,8.3,2.2"/>
					<path class="st52" d="M288.8,263.8c0,0-1.9-0.5-4.1-0.3c-8.2,0.6-8.4,7.5-5.2,11.9c0.6,0.9,3.2,3.1,3.5,3.3
						c0.7,0.4,2,0.3,2,0.3c1.2-0.1,2.8-0.7,2.9-2.8l-0.1-1.8c0-0.6,0.1-1.1,0.2-1.5c0-0.1-0.1-0.3-0.1-0.5c0-0.8,0.4-1.2,0.6-1.4
						c0.1-0.3,0.2-0.6,0.4-0.6c0,0,0.5-0.2,0.4,0.6c-0.1,0.5-0.1,0.8,0,1.1c0.1,0.2,0.1,0.4,0.2,0.7c0,0.1,0.1,0.2,0.1,0.3
						c0,0.1,0.1,0.2,0.2,0.3c0.5,0.5,0.8-0.2,0.7-0.6l-0.2-1.1c-0.2-1.2-0.1-2.9,0.4-3.7C291.9,266.2,291.4,264.4,288.8,263.8z"/>
					<path class="st53" d="M318.3,289.7c0-0.7-10.6,5.4-12.2,5.4c-2.9,0-14.8-3.9-14.8-3.9"/>
					<path class="st51" d="M311.9,285.5c0.2-0.2,3.5-0.6,4.2-0.3c0.4,0.2,1,1.1,1.2,1.6c0.6,1.5,0.5,2.5,0.5,2.5"/>
					<line class="st53" x1="301.4" y1="329" x2="298.4" y2="318.9"/>
				</g>
			</g>
			<g>
				<polygon class="st44" points="45,255.4 45,284.4 71.3,300.5 98.3,284.6 98.3,262.1 112.8,253.5 98.3,254.5 71.6,240.3 
					61.1,225.7 33.1,240.8 				"/>
				<polyline class="st45" points="98.1,254.9 70.8,270.1 45,255.4 71.6,240.3 71,300.5 				"/>
				<polyline class="st45" points="72,270.4 84.7,268.8 111.1,253.6 				"/>
				<polygon class="st37" points="98.3,262.1 98.3,284.6 71.3,300.5 72,270.4 84.7,268.8 				"/>
				<polygon class="st46" points="71.6,240.3 72,270.4 45,256 				"/>
				<polygon class="st37" points="71.7,270.4 71.3,240.3 98.3,254.7 				"/>
			</g>
			<g>
				<polygon class="st44" points="224.7,353.4 224.7,321 198,305.7 171.4,322.3 171.4,353.3 197.7,369.3 				"/>
				<polyline class="st48" points="224.7,321 198,337.5 171.4,322.3 				"/>
				<line class="st48" x1="198" y1="337.5" x2="198" y2="369.3"/>
				<polyline class="st49" points="212.8,315 186.1,331.5 186,348.7 180,345.2 180,328.4 206.2,311.2 				"/>
			</g>
			<g>
				<polygon class="st44" points="252.4,370.6 252.4,338.2 225.8,322.9 199.1,339.5 199.1,370.4 225.4,386.4 				"/>
				<polyline class="st48" points="252.4,338.2 225.8,354.6 199.1,339.5 				"/>
				<line class="st48" x1="225.8" y1="354.6" x2="225.8" y2="386.4"/>
				<polyline class="st49" points="240.6,332.2 213.9,348.6 213.7,365.8 207.8,362.3 207.8,345.6 233.9,328.3 				"/>
			</g>
			<g>
				<polygon class="st44" points="239.8,330.9 239.8,298.5 213.2,283.2 186.5,299.8 186.5,330.8 212.8,346.8 				"/>
				<polyline class="st48" points="239.8,298.5 213.2,315 186.5,299.8 				"/>
				<line class="st48" x1="213.2" y1="315" x2="213.2" y2="346.8"/>
				<polyline class="st49" points="228,292.5 201.3,308.9 201.1,326.2 195.2,322.6 195.2,305.9 221.3,288.6 				"/>
			</g>
		</g>
	</g>
	<rect x="22.7" y="458.7" class="st11" width="342.3" height="115.7"/>
	<text transform="matrix(1.0138 0 0 1 79.102 486.2174)" class="st5 st74 st75">Manufacture</text>
	<rect x="464.4" y="458.7" class="st11" width="342.3" height="115.7"/>
	<text transform="matrix(1.0138 0 0 1 548.5815 486.2174)" class="st5 st74 st75">Power On</text>
	<g class="st33">
		<g>
			<pattern  id="SVGID_7_" xlink:href="#New_Pattern_3" patternTransform="matrix(0.8323 0 0 0.8323 -1034.6165 -1223.2174)">
			</pattern>
			<path class="st54" d="M812.7,258.8c24.1,60.3-35.9,121.3-134.1,136.1S481.2,373,457.1,312.7C433,252.4,493,191.4,591.3,176.5
				C689.5,161.7,788.6,198.5,812.7,258.8z"/>
			<path class="st35" d="M812.7,258.8c24.1,60.3-35.9,121.3-134.1,136.1S481.2,373,457.1,312.7C433,252.4,493,191.4,591.3,176.5
				C689.5,161.7,788.6,198.5,812.7,258.8z"/>
		</g>
		<g>
			<path class="st3" d="M640.3,347.5c-1.8,0-3.6,0-5.4-0.1c-66-1.8-119.8-35.7-119.8-75.5v-6.2c0-38.8,50.3-69.3,114.4-69.3
				c1.8,0,3.6,0,5.4,0.1c66,1.8,119.8,35.7,119.8,75.5v6.2c0,18.9-11.9,36.5-33.6,49.4C699.7,340.5,671,347.5,640.3,347.5
				C640.3,347.5,640.3,347.5,640.3,347.5z"/>
			<path class="st39" d="M629.5,197.9c1.8,0,3.6,0,5.4,0.1c65.3,1.8,118.3,34.9,118.3,74c0,1,0,5.2,0,6.2
				c0,38.1-50.1,67.7-112.9,67.7c-1.8,0-3.6,0-5.4-0.1c-65.3-1.8-118.3-34.9-118.3-74c0-1,0-5.2,0-6.2
				C516.6,227.6,566.7,197.9,629.5,197.9 M629.5,194.9c-65,0-115.9,31.1-115.9,70.8v6.2c0,20,12.8,39,36.1,53.6
				c22.8,14.3,53,22.6,85.2,23.5c1.8,0,3.7,0.1,5.5,0.1c65,0,115.9-31.1,115.9-70.8V272c0-20-12.8-39-36.1-53.6
				c-22.8-14.3-53-22.6-85.2-23.5C633.2,194.9,631.4,194.9,629.5,194.9L629.5,194.9z"/>
		</g>
		<path class="st37" d="M634.9,339.7c-65.3-1.8-118.3-34.9-118.3-74c0,1,0,5.2,0,6.2c0,39.1,53,72.3,118.3,74s118.3-28.5,118.3-67.7
			c0-1,0-5.2,0-6.2C753.2,311.2,700.3,341.5,634.9,339.7z"/>
		<g>
			<g>
				<path class="st3" d="M637.6,319.4c-1.3,0-2.6,0-3.9-0.1c-23.1-0.6-44.8-6.6-61.2-16.8c-16.7-10.5-26-24.2-26-38.6v-23.7
					c0-28.5,36.6-50.9,83.3-50.9c1.3,0,2.6,0,3.9,0.1c23.1,0.6,44.8,6.6,61.2,16.8c16.7,10.5,26,24.2,26,38.6v23.7
					C720.9,297.1,684.3,319.4,637.6,319.4z"/>
				<path class="st39" d="M629.9,191.6c1.3,0,2.6,0,3.9,0.1c46.9,1.3,84.9,25,84.9,53.2v23.7c0,27.3-36,48.6-81.1,48.6
					c-1.3,0-2.6,0-3.9-0.1c-46.9-1.3-84.9-25-84.9-53.2v-23.7C548.8,212.9,584.8,191.6,629.9,191.6 M629.9,187.1v4.5V187.1
					c-22.7,0-43.9,5.2-59.8,14.7c-16.7,10-25.8,23.6-25.8,38.5V264c0,15.2,9.6,29.6,27,40.5c16.7,10.5,38.8,16.6,62.3,17.2
					c1.3,0,2.7,0.1,4,0.1c22.7,0,43.9-5.2,59.8-14.7c16.7-10,25.8-23.6,25.8-38.5v-23.7c0-15.2-9.6-29.6-27-40.5
					c-16.7-10.5-38.8-16.6-62.3-17.2C632.5,187.1,631.2,187.1,629.9,187.1L629.9,187.1z"/>
			</g>
			<path class="st37" d="M721.1,277.9c0,0-21.6,38.3-77.6,39.2c-53.5,0.8-91.8-24.6-93.3-43.8s-1.4-28.1-1.4-28.1s15,47.6,84.9,48.3
				c63.9,0.7,82.5-33.8,84.9-43.8L721.1,277.9z"/>
		</g>
		<g>
			<path class="st15" d="M634.9,262.9c-10.2,0-19.8-2.4-27-6.7c-14.9-8.9-14.9-23.4,0-32.3c2.4-1.4,6.2-1.4,8.5,0
				c2.4,1.4,2.4,3.7,0,5.1c-10.2,6.1-10.2,16,0,22c4.9,2.9,11.5,4.6,18.4,4.6c7,0,13.5-1.6,18.4-4.6c4.9-2.9,7.6-6.9,7.6-11
				c0-4.2-2.7-8.1-7.6-11c-2.4-1.4-2.4-3.7,0-5.1c2.4-1.4,6.2-1.4,8.5,0c7.2,4.3,11.2,10,11.2,16.1c0,6.1-4,11.8-11.2,16.1
				C654.7,260.5,645.1,262.9,634.9,262.9z"/>
			<path class="st15" d="M634.9,243.7c-3.3,0-6-1.6-6-3.6v-24.2c0-2,2.7-3.6,6-3.6c3.3,0,6,1.6,6,3.6v24.2
				C641,242.1,638.3,243.7,634.9,243.7z"/>
		</g>
	</g>
	<rect x="877.4" y="458.7" class="st11" width="342.3" height="115.7"/>
	<text transform="matrix(1.0138 0 0 1 971.6587 486.2174)" class="st5 st74 st75">First Use</text>
	<path class="st70" d="M813.8,478.4h28.5l-8.8,5.1c-1.6,0.9-2.1,2.9-1.2,4.5c0.9,1.6,2.9,2.1,4.5,1.2l18.7-10.8
		c1-0.6,1.6-1.6,1.6-2.7c0-1.1-0.5-2.2-1.4-2.9l-18.7-12.7c-0.6-0.4-1.2-0.6-1.9-0.6c-1.1,0-2.1,0.5-2.7,1.4c-1,1.5-0.6,3.6,0.9,4.6
		l9.1,6.2h-28.5c-1.8,0-3.3,1.5-3.3,3.3S812,478.4,813.8,478.4z"/>
	<g>
		<rect x="1305.1" y="458.7" class="st11" width="342.3" height="115.7"/>
		<text transform="matrix(1.0138 0 0 1 1370.4146 486.2174)" class="st5 st74 st75">Regular Use</text>
	</g>
	<path class="st77" d="M935.8,252.8c-3.1,0.4-27.5-1.5-17.6,10.1s27.2,7.2,27.9,21.8c0.8,14.6,21.1,28.8,32.1,30
		c11,1.2-5.6,36.9,44.2,30.4c49.8-6.5,83.6-11.4,89.9-28.5c6.3-17.1,31.6-54.4-13.7-48.6s-71.5-16.3-88.2-2.3
		c-16.7,14.1-22.2,19.5-28.5,12.6S954.5,250.3,935.8,252.8z"/>
	<path class="st70" d="M1236.7,478.4h28.5l-8.8,5.1c-1.6,0.9-2.1,2.9-1.2,4.5c0.9,1.6,2.9,2.1,4.5,1.2l18.7-10.8
		c1-0.6,1.6-1.6,1.6-2.7c0-1.1-0.5-2.2-1.4-2.9l-18.7-12.7c-0.6-0.4-1.2-0.6-1.9-0.6c-1.1,0-2.1,0.5-2.7,1.4c-1,1.5-0.6,3.6,0.9,4.6
		l9.1,6.2h-28.5c-1.8,0-3.3,1.5-3.3,3.3S1234.9,478.4,1236.7,478.4z"/>
	<g class="st33">
		<g>
			<pattern  id="SVGID_8_" xlink:href="#New_Pattern_3" patternTransform="matrix(0.8323 0 0 0.8323 -1040.1891 -1214.7006)">
			</pattern>
			<path class="st56" d="M1647.3,251.3c24.1,60.3-35.9,121.3-134.1,136.1s-197.4-21.9-221.5-82.2s35.9-121.3,134.1-136.1
				C1524,154.2,1623.2,191,1647.3,251.3z"/>
			<path class="st35" d="M1647.3,251.3c24.1,60.3-35.9,121.3-134.1,136.1s-197.4-21.9-221.5-82.2s35.9-121.3,134.1-136.1
				C1524,154.2,1623.2,191,1647.3,251.3z"/>
		</g>
		<g>
			<g>
				<g>
					<g>
						<path class="st57" d="M1347.8,253.7c0.3,0.8,0.9,1.4,1.7,2l14.5,9l2.7-11.6l-1.3-0.8l1.3-5.4l-6.4-3.9c-1.8-1.1-4.4-1.5-7-1.2
							c-3.5,0.5-5.8,2.5-5.8,4.6C1347.6,246.8,1347.8,253.7,1347.8,253.7z"/>
						<path class="st58" d="M1349.5,249.5c-0.8-0.5-1.4-1.2-1.7-2c-1-2.5,1.5-5,5.5-5.6c2.6-0.4,5.2,0.1,7,1.2l6.4,3.9l-2.7,11.6
							L1349.5,249.5z"/>
					</g>
					<g>
						<path class="st59" d="M1334.7,263.2c0.3,0.8,0.9,1.4,1.7,2l14.5,9l2.7-11.6l-1.3-0.8l1.3-5.4l-6.4-3.9c-1.8-1.1-4.4-1.5-7-1.2
							c-3.5,0.5-5.8,2.5-5.8,4.6C1334.5,256.4,1334.7,263.2,1334.7,263.2z"/>
						<path class="st58" d="M1336.4,259.1c-0.8-0.5-1.4-1.2-1.7-2c-1-2.5,1.5-5,5.5-5.6c2.6-0.4,5.2,0.1,7,1.2l6.4,3.9l-2.7,11.6
							L1336.4,259.1z"/>
					</g>
					<polygon class="st60" points="1345.2,276.4 1345.2,261.4 1353.6,244.1 1467.2,177.7 1579.4,248.9 1588.1,267.4 1588.1,283 
						1473.2,354.2 					"/>
					<polyline class="st61" points="1353.6,244.1 1473.2,314.3 1579.4,248.9 					"/>
					<polyline class="st61" points="1345.2,261.4 1473.2,336.6 1588.1,267.4 					"/>
					<path class="st61" d="M1480.1,284.8c1.8,4.6-2.8,9.3-10.3,10.4s-15.1-1.7-17-6.3s2.8-9.3,10.3-10.4
						C1470.7,277.4,1478.3,280.2,1480.1,284.8z"/>
					<g>
						<path class="st59" d="M1605.8,293.7c-0.3-0.9-1-1.6-2-2.3l-8-4.8c-2-2-2-5.5-2-5.5v-3.7c0-4-2.2-6.1-3.5-7
							c-0.2-0.1-8.5-5.9-8.5-5.9l-12,6.8v5c0,0,9.3,6.9,9.5,7c1.3,0.9,3.5,2.9,3.5,7v3.7c0,0-0.1,3.5,2,5.5l8,4.7
							c1.9,0.8,4.3,1.1,6.7,0.7c3.3-0.5,5.7-2.1,6.3-4.1C1606.1,300.2,1606.4,295,1605.8,293.7z"/>
						<path class="st58" d="M1605.6,293.3c1.1,2.8-1.4,5.2-6,5.9c-2.4,0.4-4.8,0.1-6.7-0.7l-4.2-2.3c-2-2-2-5.5-2-5.5v-3.7
							c0-4-2.2-6.1-3.5-7c-0.2-0.1-13.2-8.2-13.2-8.2"/>
					</g>
					<g>
						<path class="st59" d="M1590.3,302.8c-0.3-0.9-1-1.6-2-2.3l-8-4.8c-2-2-2-5.5-2-5.5v-3.7c0-4-2.2-6.1-3.5-7
							c-0.2-0.1-8.5-5.9-8.5-5.9l-12,6.8v5c0,0,9.3,6.9,9.5,7c1.3,0.9,3.5,2.9,3.5,7v3.7c0,0-0.1,3.5,2,5.5l8,4.7
							c1.9,0.8,4.3,1.1,6.7,0.7c3.3-0.5,5.7-2.1,6.3-4.1C1590.6,309.3,1590.8,304.1,1590.3,302.8z"/>
						<path class="st58" d="M1590.1,302.4c1.1,2.8-1.4,5.2-6,5.9c-2.4,0.4-4.8,0.1-6.7-0.7l-4.2-2.3c-2-2-2-5.5-2-5.5v-3.7
							c0-4-2.2-6.1-3.5-7c-0.2-0.1-13.2-8.2-13.2-8.2"/>
					</g>
					<g>
						<path class="st59" d="M1575.3,311.6c-0.3-0.9-1-1.6-2-2.3l-8-4.8c-2-2-2-5.5-2-5.5v-3.7c0-4-2.2-6.1-3.5-7
							c-0.2-0.1-8.5-5.9-8.5-5.9l-12,6.8v5c0,0,9.3,6.9,9.5,7c1.3,0.9,3.5,2.9,3.5,7v3.7c0,0-0.1,3.5,2,5.5l8,4.7
							c1.9,0.8,4.3,1.1,6.7,0.7c3.3-0.5,5.7-2.1,6.3-4.1C1575.6,318.1,1575.8,312.9,1575.3,311.6z"/>
						<path class="st58" d="M1575.1,311.2c1.1,2.8-1.4,5.2-6,5.9c-2.4,0.4-4.8,0.1-6.7-0.7l-4.2-2.3c-2-2-2-5.5-2-5.5v-3.7
							c0-4-2.2-6.1-3.5-7c-0.2-0.1-13.2-8.2-13.2-8.2"/>
					</g>
					<g>
						<path class="st59" d="M1559.8,320.8c-0.3-0.9-1-1.6-2-2.3l-8-4.8c-2-2-2-5.5-2-5.5v-3.7c0-4-2.2-6.1-3.5-7
							c-0.2-0.1-8.5-5.9-8.5-5.9l-12,6.8v5c0,0,9.3,6.9,9.5,7c1.3,0.9,3.5,2.9,3.5,7v3.7c0,0-0.1,3.5,2,5.5l8,4.7
							c1.9,0.8,4.3,1.1,6.7,0.7c3.3-0.5,5.7-2.1,6.3-4.1C1560.1,327.3,1560.3,322.1,1559.8,320.8z"/>
						<path class="st58" d="M1559.6,320.4c1.1,2.8-1.4,5.2-6,5.9c-2.4,0.4-4.8,0.1-6.7-0.7l-4.2-2.3c-2-2-2-5.5-2-5.5V314
							c0-4-2.2-6.1-3.5-7c-0.2-0.1-13.2-8.2-13.2-8.2"/>
					</g>
					<g>
						<path class="st59" d="M1544.2,330.8c-0.3-0.9-1-1.6-2-2.3l-8-4.8c-2-2-2-5.5-2-5.5v-3.7c0-4-2.2-6.1-3.5-7
							c-0.2-0.1-8.5-5.9-8.5-5.9l-12,6.8v5c0,0,9.3,6.9,9.5,7c1.3,0.9,3.5,2.9,3.5,7v3.7c0,0-0.1,3.5,2,5.5l8,4.7
							c1.9,0.8,4.3,1.1,6.7,0.7c3.3-0.5,5.7-2.1,6.3-4.1C1544.5,337.3,1544.7,332.1,1544.2,330.8z"/>
						<path class="st58" d="M1544,330.4c1.1,2.8-1.4,5.2-6,5.9c-2.4,0.4-4.8,0.1-6.7-0.7l-4.2-2.3c-2-2-2-5.5-2-5.5V324
							c0-4-2.2-6.1-3.5-7c-0.2-0.1-13.2-8.2-13.2-8.2"/>
					</g>
					<g>
						<path class="st59" d="M1528.7,339.9c-0.3-0.9-1-1.6-2-2.3l-8-4.8c-2-2-2-5.5-2-5.5v-3.7c0-4-2.2-6.1-3.5-7
							c-0.2-0.1-8.5-5.9-8.5-5.9l-12,6.8v5c0,0,9.3,6.9,9.5,7c1.3,0.9,3.5,2.9,3.5,7v3.7c0,0-0.1,3.5,2,5.5l8,4.7
							c1.9,0.8,4.3,1.1,6.7,0.7c3.3-0.5,5.7-2.1,6.3-4.1C1529,346.4,1529.2,341.2,1528.7,339.9z"/>
						<path class="st58" d="M1528.5,339.5c1.1,2.8-1.4,5.2-6,5.9c-2.4,0.4-4.8,0.1-6.7-0.7l-4.2-2.3c-2-2-2-5.5-2-5.5v-3.7
							c0-4-2.2-6.1-3.5-7c-0.2-0.1-13.2-8.2-13.2-8.2"/>
					</g>
					<g>
						<path class="st59" d="M1511.9,349.5c-0.3-0.9-1-1.6-2-2.3l-8-4.8c-2-2-2-5.5-2-5.5v-3.7c0-4-2.2-6.1-3.5-7
							c-0.2-0.1-8.5-5.9-8.5-5.9l-12,6.8v5c0,0,9.3,6.9,9.5,7c1.3,0.9,3.5,2.9,3.5,7v3.7c0,0-0.1,3.5,2,5.5l8,4.7
							c1.9,0.8,4.3,1.1,6.7,0.7c3.3-0.5,5.7-2.1,6.3-4.1C1512.2,356,1512.4,350.8,1511.9,349.5z"/>
						<path class="st58" d="M1511.7,349.1c1.1,2.8-1.4,5.2-6,5.9c-2.4,0.4-4.8,0.1-6.7-0.7l-4.2-2.3c-2-2-2-5.5-2-5.5v-3.7
							c0-4-2.2-6.1-3.5-7c-0.2-0.1-13.2-8.2-13.2-8.2"/>
					</g>
				</g>
			</g>
			<g>
				<path class="st62" d="M1406.4,237.9L1406.4,237.9c-0.1,0-0.1-0.1-0.2-0.1L1406.4,237.9z"/>
				<path class="st15" d="M1438.3,240.5l-3-4.4l-5.9-8.8l-2.9,1.4l6.3,9.3c0.2,0.3,0.4,0.5,0.6,0.5l0,0l5.4,2.3l0,0
					C1438.7,240.9,1438.5,240.7,1438.3,240.5z"/>
				<path class="st15" d="M1467.3,134.8c0,0-0.1,0-0.1-0.1c-0.7-0.4-1.7-0.4-2.8,0.2l-60.9,30.5c-2.3,1.1-4.1,4.1-4.1,6.7v59.9
					c0,1.3,0.5,2.3,1.3,2.7l0,0l5.3,2.9c-0.7-0.5-1.1-1.4-1.1-2.6v-1.2v-58.7c0-2.5,1.9-5.6,4.1-6.7l59.6-29.8l1.3-0.7
					c1.1-0.6,2.1-0.6,2.9-0.1l0,0L1467.3,134.8C1467.3,134.8,1467.3,134.8,1467.3,134.8z"/>
				<path class="st52" d="M1472.7,137.8c-0.7-0.4-1.8-0.4-2.9,0.1l-1.3,0.7l-59.6,29.8c-2.3,1.1-4.1,4.1-4.1,6.7v58.7v1.2
					c0,1.2,0.4,2.1,1.1,2.6c0.1,0.1,0.2,0.1,0.3,0.2c0.1,0,0.1,0.1,0.2,0.1c0.7,0.3,1.6,0.2,2.5-0.3l17.6-8.8l2.9-1.4l5.9,8.8l3,4.4
					c0.2,0.2,0.3,0.4,0.5,0.5c0.5,0.2,0.9,0,1.2-0.7l9.3-22.9l20.5-10.3c2.3-1.1,4.1-4.1,4.1-6.7v-59.9
					C1473.9,139.2,1473.5,138.3,1472.7,137.8z"/>
				<path class="st3" d="M1457.3,160.9l-35.4,17.7c-2.2,1.1-4,3.8-4,6v28.5c0,2.2,1.8,3.1,4,2l35.4-17.7c2.2-1.1,4-3.8,4-6v-28.5
					C1461.3,160.7,1459.5,159.8,1457.3,160.9z M1421.9,213.1v-2V213.1z M1454.6,166.3l-15,24.8l-14.9-9.8L1454.6,166.3z
					 M1457.3,193.4l-35.4,17.7l0-25.6l16.2,10.7c0.4,0.3,0.9,0.2,1.5-0.1l0,0c0.6-0.3,1.1-0.8,1.5-1.5l16.2-26.7V193.4z"/>
			</g>
			<g>
				<g>
					<path class="st62" d="M1531.9,242.4L1531.9,242.4c0,0,0.1,0,0.1-0.1L1531.9,242.4z"/>
					<path class="st52" d="M1512,244l1.9-2.8l3.7-5.5l1.8,0.9l-3.9,5.8c-0.1,0.2-0.3,0.3-0.4,0.3l0,0l-3.3,1.5l0,0
						C1511.8,244.2,1511.9,244.1,1512,244z"/>
					<path class="st52" d="M1494,178.1C1494,178.1,1494,178.1,1494,178.1c0.5-0.3,1.1-0.3,1.8,0.1l38,19c1.4,0.7,2.6,2.6,2.6,4.2
						v37.4c0,0.8-0.3,1.4-0.8,1.7l0,0l-3.3,1.8c0.4-0.3,0.7-0.9,0.7-1.6v-0.7v-36.6c0-1.6-1.2-3.5-2.6-4.2l-37.1-18.6l-0.8-0.4
						c-0.7-0.3-1.3-0.4-1.8-0.1l0,0L1494,178.1C1493.9,178.1,1494,178.1,1494,178.1z"/>
					<path class="st15" d="M1490.6,180c0.5-0.3,1.1-0.3,1.8,0.1l0.8,0.4l37.1,18.6c1.4,0.7,2.6,2.6,2.6,4.2v36.6v0.7
						c0,0.8-0.3,1.3-0.7,1.6c-0.1,0-0.1,0.1-0.2,0.1c0,0-0.1,0-0.1,0c-0.4,0.2-1,0.1-1.6-0.2l-11-5.5l-1.8-0.9l-3.7,5.5l-1.9,2.8
						c-0.1,0.1-0.2,0.2-0.3,0.3c-0.3,0.1-0.6,0-0.8-0.4l-5.8-14.3l-12.8-6.4c-1.4-0.7-2.6-2.6-2.6-4.2v-37.4
						C1489.8,180.9,1490.1,180.3,1490.6,180z"/>
				</g>
				<g>
					<g>
						<path class="st3" d="M1506.5,213.6c-0.7-0.3-1.2-1.1-1.4-2l0,0l-2.9-15l-3.4-1.6c-0.8-0.4-1.5-1.5-1.5-2.6l0,0
							c0-1,0.7-1.6,1.5-1.2l0,0l4.6,2.1c0.7,0.3,1.2,1.1,1.4,2l0,0l0.4,2.2l15.1,7c0.4,0.2,0.8,0.6,1.1,1.2l0,0
							c0.3,0.5,0.4,1.2,0.3,1.7l0,0l-1.6,10.9c-0.1,0.9-0.8,1.3-1.5,0.9l0,0L1506.5,213.6L1506.5,213.6z"/>
					</g>
					<g>
						<path class="st3" d="M1507.8,220.1c0,1.6-1.1,2.4-2.4,1.8c-1.3-0.6-2.3-2.4-2.2-4c0-1.6,1.1-2.4,2.4-1.8
							C1506.9,216.8,1507.9,218.5,1507.8,220.1z"/>
						<path class="st3" d="M1514.9,223.4c0,1.6-1.1,2.4-2.4,1.8c-1.3-0.6-2.3-2.4-2.2-4c0-1.6,1.1-2.4,2.4-1.8
							S1515,221.8,1514.9,223.4z"/>
					</g>
				</g>
			</g>
			<g>
				<g>
					<g>
						<path class="st62" d="M1405.8,130.6L1405.8,130.6c0,0-0.1,0-0.1-0.1L1405.8,130.6z"/>
						<path class="st15" d="M1425.7,132.2l-1.9-2.8l-3.7-5.5l-1.8,0.9l3.9,5.8c0.1,0.2,0.3,0.3,0.4,0.3l0,0l3.3,1.5l0,0
							C1425.9,132.5,1425.8,132.4,1425.7,132.2z"/>
						<path class="st15" d="M1443.8,66.3C1443.7,66.3,1443.7,66.3,1443.8,66.3c-0.5-0.3-1.1-0.3-1.8,0.1l-38,19
							c-1.4,0.7-2.6,2.6-2.6,4.2v37.4c0,0.8,0.3,1.4,0.8,1.7l0,0l3.3,1.8c-0.4-0.3-0.7-0.9-0.7-1.6v-0.7V91.4c0-1.6,1.2-3.5,2.6-4.2
							l37.1-18.6l0.8-0.4c0.7-0.3,1.3-0.4,1.8-0.1l0,0L1443.8,66.3C1443.8,66.3,1443.8,66.3,1443.8,66.3z"/>
						<path class="st52" d="M1447.1,68.2c-0.5-0.3-1.1-0.3-1.8,0.1l-0.8,0.4l-37.1,18.6c-1.4,0.7-2.6,2.6-2.6,4.2v36.6v0.7
							c0,0.8,0.3,1.3,0.7,1.6c0.1,0,0.1,0.1,0.2,0.1c0,0,0.1,0,0.1,0c0.4,0.2,1,0.1,1.6-0.2l11-5.5l1.8-0.9l3.7,5.5l1.9,2.8
							c0.1,0.1,0.2,0.2,0.3,0.3c0.3,0.1,0.6,0,0.8-0.4l5.8-14.3l12.8-6.4c1.4-0.7,2.6-2.6,2.6-4.2V69.9
							C1447.9,69.1,1447.6,68.5,1447.1,68.2z"/>
					</g>
				</g>
				<g>
					<g>
						<path class="st3" d="M1435.9,103l0.3-8.7c0.2-6.1-3.3-9.2-7.8-7l0,0c-4.5,2.2-8.3,9-8.5,15.1l0,0l-0.3,8.7l-2.7,1.3l0.3-8.7
							c0.2-8.1,5.3-17.1,11.3-20l0,0c6-3,10.7,1.2,10.4,9.3l0,0l-0.3,8.7L1435.9,103L1435.9,103z"/>
					</g>
					<g>
						<g>
							<g>
								<path class="st3" d="M1423.9,111.6c0,1-0.7,2.1-1.4,2.5l-0.2,0.1c-0.7,0.4-1.3-0.2-1.3-1.2l0.2-7.5c0-1,0.7-2.1,1.4-2.5
									l0.2-0.1c0.7-0.4,1.3,0.2,1.3,1.2L1423.9,111.6z"/>
							</g>
						</g>
						<g>
							<g>
								<path class="st3" d="M1434.3,106.5c0,1-0.7,2.1-1.4,2.5l-0.2,0.1c-0.7,0.4-1.3-0.2-1.3-1.2l0.2-7.5c0-1,0.7-2.1,1.4-2.5
									l0.2-0.1c0.7-0.4,1.3,0.2,1.3,1.2L1434.3,106.5z"/>
							</g>
						</g>
					</g>
				</g>
			</g>
			<g>
				<g>
					<g>
						<path class="st62" d="M1491.6,72.4L1491.6,72.4c0,0,0.1,0,0.1-0.1L1491.6,72.4z"/>
						<path class="st52" d="M1471.6,74l1.9-2.8l3.7-5.5l1.8,0.9l-3.9,5.8c-0.1,0.2-0.3,0.3-0.4,0.3l0,0l-3.3,1.5l0,0
							C1471.4,74.3,1471.5,74.2,1471.6,74z"/>
						<path class="st52" d="M1453.6,8.1C1453.6,8.1,1453.6,8.1,1453.6,8.1c0.5-0.3,1.1-0.3,1.8,0.1l38,19c1.4,0.7,2.6,2.6,2.6,4.2
							v37.4c0,0.8-0.3,1.4-0.8,1.7l0,0l-3.3,1.8c0.4-0.3,0.7-0.9,0.7-1.6v-0.7V33.3c0-1.6-1.2-3.5-2.6-4.2l-37.1-18.6l-0.8-0.4
							c-0.7-0.3-1.3-0.4-1.8-0.1l0,0L1453.6,8.1C1453.6,8.1,1453.6,8.1,1453.6,8.1z"/>
						<path class="st15" d="M1450.2,10c0.5-0.3,1.1-0.3,1.8,0.1l0.8,0.4l37.1,18.6c1.4,0.7,2.6,2.6,2.6,4.2v36.6v0.7
							c0,0.8-0.3,1.3-0.7,1.6c-0.1,0-0.1,0.1-0.2,0.1c0,0-0.1,0-0.1,0c-0.4,0.2-1,0.1-1.6-0.2l-11-5.5l-1.8-0.9l-3.7,5.5l-1.9,2.8
							c-0.1,0.1-0.2,0.2-0.3,0.3c-0.3,0.1-0.6,0-0.8-0.4l-5.8-14.3l-12.8-6.4c-1.4-0.7-2.6-2.6-2.6-4.2V11.7
							C1449.4,10.9,1449.7,10.3,1450.2,10z"/>
					</g>
				</g>
				<path class="st3" d="M1480.3,55.6c-0.1-2.1-1.3-4.5-2.9-6.1l0.2,0.1l-0.2-6.9c-0.1-3.8-2.4-8-5.4-10.8c0.3-0.4,0.4-0.9,0.4-1.6
					c-0.1-2-1.6-4.4-3.4-5.4c-1.8-0.9-3.3-0.1-3.2,2c0,0.7,0.2,1.4,0.5,2.1c-3-0.4-5.1,1.7-5,5.4l0.2,6.9l0.2,0.1
					c-1.6-0.1-2.7,1.1-2.7,3.2l7.4,3.8c0,0.1,0,0.3,0,0.4c0.1,2,1.6,4.4,3.4,5.4c1.8,0.9,3.3,0.1,3.2-2c0-0.1,0-0.3-0.1-0.5
					L1480.3,55.6z M1467.3,27.7c0-1.1,0.7-1.5,1.7-1c1,0.5,1.8,1.8,1.8,2.8c0,0.6-0.2,0.9-0.5,1.1c-0.3-0.2-0.6-0.4-1-0.6l-0.5-0.3
					c-0.3-0.2-0.6-0.3-1-0.4C1467.5,28.8,1467.3,28.2,1467.3,27.7z"/>
			</g>
			<g>
				<g>
					<path class="st62" d="M1571.5,178.4L1571.5,178.4c0.1,0,0.1-0.1,0.2-0.1L1571.5,178.4z"/>
					<path class="st52" d="M1539.5,181l3-4.4l5.9-8.8l2.9,1.4l-6.3,9.3c-0.2,0.3-0.4,0.5-0.6,0.5l0,0l-5.4,2.3l0,0
						C1539.2,181.4,1539.3,181.2,1539.5,181z"/>
					<path class="st52" d="M1510.6,75.3c0,0,0.1,0,0.1-0.1c0.7-0.4,1.7-0.4,2.8,0.2l60.9,30.5c2.3,1.1,4.1,4.1,4.1,6.7v59.9
						c0,1.3-0.5,2.3-1.3,2.7l0,0l-5.3,2.9c0.7-0.5,1.1-1.4,1.1-2.6v-1.2v-58.7c0-2.5-1.9-5.6-4.1-6.7l-59.6-29.8l-1.3-0.7
						c-1.1-0.6-2.1-0.6-2.9-0.1l0,0L1510.6,75.3C1510.6,75.3,1510.6,75.3,1510.6,75.3z"/>
					<path class="st15" d="M1505.1,78.3c0.7-0.4,1.8-0.4,2.9,0.1l1.3,0.7l59.6,29.8c2.3,1.1,4.1,4.1,4.1,6.7v58.7v1.2
						c0,1.2-0.4,2.1-1.1,2.6c-0.1,0.1-0.2,0.1-0.3,0.2c-0.1,0-0.1,0.1-0.2,0.1c-0.7,0.3-1.6,0.2-2.5-0.3l-17.6-8.8l-2.9-1.4
						l-5.9,8.8l-3,4.4c-0.2,0.2-0.3,0.4-0.5,0.5c-0.5,0.2-0.9,0-1.2-0.7l-9.3-22.9l-20.5-10.3c-2.3-1.1-4.1-4.1-4.1-6.7V81
						C1503.9,79.7,1504.4,78.8,1505.1,78.3z"/>
				</g>
				<g>
					<g>
						<g>
							<path class="st3" d="M1526,131.7c-1.3-0.6-2-2-1.5-2.9l1.4-3.2c0.4-1,1.7-0.8,2.8,0.4l0.3,0.3c1.1,1.2,2.7,1.7,3.6,1.3
								l3.3-1.9c0.9-0.5,2.2,0.2,3,1.6l0.5,0.9c0.8,1.4,2,1.9,2.6,1.2l3.5-3.9c0.7-0.7,1.7-0.2,2.2,1.2l1.3,3.4
								c0.5,1.4,1.4,3.8,1.8,5.2l0.1,0.4c0.5,1.4,0.9,3.6,0.9,4.9v1.7c0,1.3-1,1.8-2.3,1.2L1526,131.7z"/>
						</g>
						<g>
							<path class="st3" d="M1534.2,118.1c0,1.8-1.5,2.5-3.3,1.6c-1.8-0.9-3.3-3.1-3.3-4.9c0-1.8,1.5-2.5,3.3-1.6
								C1532.8,114.1,1534.2,116.3,1534.2,118.1z"/>
						</g>
					</g>
					<g>
						<g>
							<path class="st3" d="M1517,135.6c-1.3-0.6-2.3-2.2-2.3-3.5v-30.9c0-1.3,0-2.8,0-3.5c0-0.6,1-0.6,2.3,0l41.5,20.7
								c1.3,0.6,2.3,2.2,2.3,3.5v33.2c0,1.3-1,1.8-2.3,1.2L1517,135.6z M1519.4,129.8c0,1.3,1,2.8,2.3,3.5l32.2,16.1
								c1.3,0.6,2.3,0.1,2.3-1.2v-23.9c0-1.3-1-2.8-2.3-3.5l-32.2-16.1c-1.3-0.6-2.3-0.1-2.3,1.2V129.8z"/>
						</g>
					</g>
				</g>
			</g>
		</g>
	</g>
	<g>
		<g>
			<g>
				<path class="st3" d="M1067.3,329.5c-24.7,0-46.1-10.5-52.1-25.5c-1.1-2.7-1.6-5.6-1.6-8.5l0-0.3l0.1-0.3
					c0.4-1.5,0.7-2.6,0.9-3.4c1-2.9,2.1-15.6,3.1-34.4c-4.3,8.5-8.3,14.9-11.8,19.1c-2.1,5.2-6.2,7.7-12.4,7.7c0,0,0,0,0,0
					c-1.7,0-3.7-0.2-5.8-0.6c-16.6-3.1-26.6-33.9-32.6-52.3c-1.1-3.4-2.1-6.4-2.8-8.3c-2.3-6-4.6-11.1-6.3-14.5
					c-0.3-0.2-0.6-0.5-0.8-0.8c-2.8-3.3-5.7-6.5-8.2-9.2c-6.7-7.4-9.7-10.8-9.7-13.7c0-2.1,0.9-10.1,1.6-16.7l-7.5-17.7
					c-0.4-1-0.5-2.1-0.1-3.2l1.8-4.7c0-0.1,0.1-0.2,0.1-0.4l0.1-0.2c0-0.1,0.1-0.2,0.2-0.3c0.1-0.1,0.1-0.1,0.1-0.2
					c0.1-0.1,0.2-0.3,0.3-0.4c0.1-0.1,0.1-0.1,0.2-0.2c0.1-0.1,0.3-0.3,0.4-0.4c0,0,0.1-0.1,0.2-0.1c0.3-0.2,0.5-0.3,0.8-0.4l30-11
					c0.5-0.2,1-0.3,1.5-0.3c1.8,0,3.5,1.1,4.2,2.8l23.8,56.5c0.1,0.3,0.2,0.5,0.3,0.8l0,0.1l0,0.2c0,0.1,0,0.3,0,0.5
					c0,0.1,0,0.2,0,0.3c0,0.1,0,0.3,0,0.5c0,0.1,0,0.2-0.1,0.3c0,0.1,0,0.2-0.1,0.3l0,0.1l-2.2-0.7l2.1,0.8l-1.6,4.2
					c-0.3,1.4-1.3,2.5-2.6,3l-11.8,4.3c1.6,2.1,3.7,4.8,6.1,8.2c1.7,2.3,4.2,5.3,7.1,8.8c4.1-12.1,16-45.9,22.1-52.7
					c5.8-6.4,12.3-13.7,34-22.3c1.8-1,5.8-3,8.7-4.1c0-0.4,0-0.8,0.2-1.2c0-0.1,0.1-0.2,0.1-0.3v-2.3l0-0.1c0-0.1,0.5-6.3-1.2-13.6
					c-1.5,0.3-2.6,0.5-3.6,0.5c-3.3,0-4.9-1.7-7-3.8c-0.8-0.8-1.6-1.7-2.7-2.7c-6.3-5.8-15.1-29.9-14.5-37.6c0.3-3.8,0-4.3-0.8-5.5
					c-0.6-0.9-1.3-2.1-2.1-4.3c-1.4-3.9-1.2-13.2-0.6-21c-1.6-0.8-2.6-2.2-2.7-2.4l-0.4-0.5l-0.1-6.2c-0.3-0.7-0.4-1.8,0-3.2
					c1.4-5.4,9.9-11.6,25.1-18.4c7-3.2,14-4.8,20.5-4.8c14.9,0,23.6,8.2,25.5,10.1c8.5,3.9,9.2,4.8,11.3,12.2
					c0.8,2.9,1.9,6.9,4.2,12.8c6.4,16.6-0.9,37.2-4.7,48.3c-0.9,2.4-1.6,4.5-1.8,5.5c-0.4,2.2-1.3,3.8-2.7,4.9
					c2.6,14.1,4.9,22.2,6.3,24.6c1.3-0.1,2.5-0.1,3.7-0.1c11.5,0,20.6,2.7,28.6,8.6c4.2,3.1,7.9,14.9,10.3,24.2
					c2.9,11.4,4.8,23.6,5,31.1c0.2,8.1,0.4,11.5,0.5,13.3c0.1,2.3,0.1,2.4-0.2,5.1l-0.3,1.9l0,0.1c0,0.2-1,4.9-6.7,8.9
					c0.8,6.1,1.6,13.3,1.6,16.1c0,2.7-1.6,6-4.3,8.8c-2.1,2.1-5.8,5-11.8,6.8c0,0.1,0,0.1,0.1,0.2c0.6,2.2,1.2,4.4,1.8,6.6
					c1.2,5.2,0.3,8.5-0.7,11.9c-0.8,2.8-1.8,5.9-1.8,11.1c0,2.3,0.1,5.4,0.3,9.2l0,0.1c0,15.7-17,29.3-41.2,33
					C1075.9,329.1,1071.6,329.5,1067.3,329.5z"/>
				<path class="st5" d="M1057.4,15.2c15.7,0,24.1,9.7,24.1,9.7c12.2,5.6,7.1,4.1,14.8,24c7.7,19.9-5.6,46.9-6.6,52.6
					c-0.4,2.4-1.4,3.4-3,4.2c1.3,7.3,4.8,25.1,7.6,28c0,0,0.1,0.1,0.1,0.1c1.6-0.1,3.2-0.1,4.8-0.1c9.1,0,18.4,1.7,27.3,8.2
					c6.3,4.6,14,38.8,14.3,53.5c0.4,19.3,1,12.3,0,19.9c0,0-0.9,4.5-6.9,8.3c0.8,5.9,1.8,14.3,1.8,17.2c0,3.6-4.3,11.1-16.7,14.1
					c0.8,3,1.7,6,2.4,9c2,8.7-2.6,10.7-2.6,22.4c0,2.5,0.1,5.8,0.3,9.4c0,14.2-15.8,27.2-39.3,30.7c-4.2,0.6-8.3,0.9-12.4,0.9
					c-23.2,0-44.2-9.7-50-24.1c-1-2.6-1.5-5.1-1.5-7.7c0.3-1.3,0.6-2.4,0.9-3.2c1.6-4.7,2.9-28.4,3.4-39.5c-1.5-0.1-2.7-0.4-2.7-0.4
					c-4.6,9.5-9.3,17.6-13.6,22.6c-1.5,3.8-4.2,6.6-10.4,6.6c-1.6,0-3.4-0.2-5.4-0.6c-18.4-3.4-29.1-47.1-33.7-59.2
					c-2.4-6.2-4.8-11.5-6.6-15.2c-0.3-0.2-0.6-0.4-0.9-0.8c-8.8-10.4-17.3-18.4-17.3-21.4c0-2.2,1.1-11.9,1.7-17l-7.7-18.3
					c-0.2-0.5-0.2-1.1-0.1-1.6l1.8-4.7c0-0.1,0.1-0.2,0.1-0.2l0-0.1c0,0,0-0.1,0.1-0.1c0,0,0.1-0.1,0.1-0.1c0-0.1,0.1-0.1,0.1-0.2
					c0,0,0.1-0.1,0.1-0.1c0.1-0.1,0.1-0.1,0.2-0.2c0,0,0.1-0.1,0.1-0.1c0.1-0.1,0.2-0.1,0.3-0.2l30-11c0.2-0.1,0.4-0.1,0.7-0.1
					c0.9,0,1.7,0.6,2.1,1.5l23.8,56.5c0.1,0.1,0.1,0.3,0.1,0.4c0,0,0,0.1,0,0.1c0,0.1,0,0.2,0,0.3c0,0.1,0,0.1,0,0.2
					c0,0.1,0,0.2,0,0.2c0,0.1,0,0.1,0,0.2c0,0.1,0,0.1,0,0.2l0,0.1c0,0,0,0,0,0.1l-1.7,4.3c-0.1,0.7-0.6,1.2-1.2,1.5l-14.7,5.4
					c0,0,0,0.1,0,0.1c1.3,1.6,3.7,4.7,8,10.5c2.2,3,5.8,7.2,9.8,12c0,0,16.1-48,23-55.7c5.8-6.4,12.1-13.4,33.3-21.7
					c2-1.1,7.7-3.9,10.3-4.7c1-0.4-1-1.8,0-2.1v-3.1c0,0,0.7-7.8-1.8-16.5c-0.2,0.1-0.5,0.1-0.7,0.2c-2,0.5-3.4,0.8-4.5,0.8
					c-3.3,0-4-2.1-8.2-5.9c-5.6-5.1-14.3-28.6-13.8-35.7c0.5-7.1-1-5.1-3.1-10.7c-1.5-4-0.8-15.8-0.3-22c-0.1,0-0.2,0-0.3,0
					c-1.7,0-2.9-1.9-2.9-1.9l-0.1-6c0,0-4.5-6.3,23.8-19.1C1045.2,16.5,1051.7,15.2,1057.4,15.2 M1057.4,10.7
					c-6.9,0-14.1,1.7-21.5,5c-16.1,7.3-24.7,13.8-26.4,19.9c-0.5,1.7-0.3,3.1,0,4.2l0.1,5.2l0,1.3l0.7,1.1c0.2,0.4,1,1.5,2.3,2.4
					c-0.7,10.3-0.4,17.2,0.8,20.6c0.9,2.5,1.8,3.9,2.4,4.8c0.5,0.8,0.6,1,0.4,4.1c-0.6,8.3,8.4,33.2,15.2,39.4
					c1.1,1,1.9,1.8,2.6,2.6c2.2,2.2,4.4,4.5,8.6,4.5c0.6,0,1.2,0,1.9-0.1c1.1,5.9,0.7,10.7,0.7,10.7l0,0.2l0,0.2v1.7
					c-0.1,0.1-0.1,0.3-0.1,0.4c-2.8,1.2-6.1,2.8-7.6,3.7c-22,8.7-28.8,16.2-34.7,22.8c-5.8,6.5-16.2,34.8-21.3,49.6
					c-1.8-2.1-3.3-4-4.4-5.6c-1.6-2.2-3-4.1-4.3-5.8l8.9-3.3c2-0.7,3.4-2.4,4-4.4l1.6-4l0-0.1l0,0l0-0.1l0-0.1l0-0.1
					c0.1-0.2,0.1-0.4,0.1-0.6c0-0.1,0.1-0.3,0.1-0.5c0-0.3,0.1-0.6,0.1-0.7c0-0.2,0-0.3,0-0.5c0-0.3,0-0.6-0.1-0.7
					c0-0.2,0-0.3-0.1-0.5c-0.1-0.4-0.2-0.8-0.4-1.2l-23.8-56.5c-1.1-2.6-3.6-4.2-6.3-4.2c-0.8,0-1.5,0.1-2.2,0.4l-30,11
					c-0.4,0.1-0.8,0.3-1.2,0.6c-0.1,0.1-0.3,0.2-0.4,0.3c-0.2,0.1-0.4,0.3-0.6,0.5c-0.1,0.1-0.2,0.2-0.3,0.3
					c-0.2,0.2-0.3,0.4-0.5,0.6c-0.1,0.1-0.1,0.2-0.2,0.3c-0.1,0.1-0.2,0.2-0.2,0.4l-0.1,0.2l-0.1,0.2c-0.1,0.1-0.1,0.3-0.2,0.4
					l-1.8,4.6l0,0.1l0,0.1c-0.5,1.5-0.4,3.2,0.2,4.8l7.2,17.2c-1,9.1-1.6,14.6-1.6,16.4c0,3.7,3,7.1,10.3,15.2
					c2.5,2.7,5.3,5.9,8.1,9.2c0.2,0.3,0.5,0.5,0.7,0.7c1.6,3.3,3.8,8.2,6,13.9c0.7,1.9,1.7,4.8,2.8,8.2
					c6.1,18.9,16.4,50.5,34.3,53.8c2.3,0.4,4.4,0.6,6.2,0.6c7,0,11.8-2.9,14.3-8.7c2.2-2.7,4.6-6.2,7.1-10.4
					c-0.9,14.9-1.8,22.1-2.4,23.8c-0.3,0.9-0.6,2.1-1,3.6l-0.1,0.5l0,0.5c0,3.2,0.6,6.4,1.8,9.4c6.3,15.9,28.6,26.9,54.2,26.9
					c4.4,0,8.8-0.3,13.1-1c25.4-3.8,43.1-18.3,43.1-35.2v-0.1l0-0.1c-0.2-3.8-0.3-6.9-0.3-9.1c0-4.8,0.8-7.7,1.7-10.4
					c1.1-3.6,2.1-7.2,0.8-13.1c-0.4-1.6-0.8-3.3-1.3-4.9c11.4-4.2,15.7-12.2,15.7-17.1c0-2.2-0.5-7.3-1.5-15.1
					c5.3-4.3,6.3-8.9,6.5-9.5l0-0.1l0-0.1c0.1-0.7,0.2-1.3,0.3-1.9c0.4-2.8,0.4-3.1,0.3-5.5c-0.1-1.8-0.3-5.2-0.5-13.2
					c-0.1-7.6-2.1-20-5-31.6c-5.3-21.3-9.7-24.5-11.1-25.5c-8.4-6.2-18-9.1-29.9-9.1c-0.7,0-1.5,0-2.3,0c-1.2-3.1-3.1-10.3-5.2-21.5
					c1.3-1.4,2.1-3.1,2.5-5.3c0.1-0.8,0.9-3,1.7-5.2c4-11.3,11.4-32.4,4.7-49.8c-2.3-5.9-3.4-9.8-4.2-12.6c-2.3-8-3.5-9.4-12.2-13.5
					C1081.5,18.6,1072.4,10.7,1057.4,10.7L1057.4,10.7z"/>
			</g>
			<path class="st79" d="M1121.6,261.1c-3.3-13,0.5-17.8,1.6-26.5c1-8.7-1.5-17.2,0.6-27.4c0.9-4.7,4.8-16.7,7.2-29.3"/>
			<g>
				<path class="st5" d="M1040.3,37.5c24.5,0,45.4,22.7,42.1,47.7c-1.1,8.2-3.4,14.3-6.4,19c4-1.1,7.4-1.9,9-1.9
					c0.5,0,0.9,0.1,1,0.2c0,0,4.6,27.6,8.2,31.1c2.9,2.9-7.1,13-28.4,13c-4.8,0-10.2-0.5-16.1-1.7v-8.2c0,0,0.7-7.8-1.8-16.5
					c-0.2,0.1-0.5,0.1-0.7,0.2c-2,0.5-3.4,0.8-4.5,0.8c-3.3,0-4-2.1-8.2-5.9c-5.6-5.1-14.3-28.6-13.8-35.7c0.5-7.1-1-5.1-3.1-10.7
					c-2-5.6,0-26,0-26h2.6C1026.9,39.1,1033.7,37.5,1040.3,37.5 M1040.3,34.5v3V34.5c-7.2,0-14.2,1.8-20.9,5.3h-1.8h-2.7l-0.3,2.7
					c-0.4,3.5-2,21.4,0.2,27.4c0.8,2.3,1.6,3.6,2.2,4.5c0.7,1.1,0.9,1.4,0.7,5c-0.6,7.8,8.3,32.3,14.8,38.2c1.1,1,1.9,1.9,2.7,2.6
					c2.1,2.2,3.9,4,7.6,4c0.9,0,1.9-0.1,3.1-0.3c1.5,6.9,1,12.5,1,12.6l0,0.1v0.1v8.2v2.5l2.4,0.5c5.8,1.2,11.4,1.8,16.7,1.8
					c17,0,28.9-6.4,31.4-12.4c0.9-2.1,0.5-4.3-0.9-5.7c-1.8-2.1-5.2-16.9-7.3-29.5l-0.1-0.8l-0.5-0.6c-1.1-1.3-2.8-1.3-3.3-1.3
					c-0.6,0-1.5,0.1-3.2,0.4c1.8-4.2,3-8.9,3.6-14.1c1.6-12.5-2.4-25.4-11.1-35.3C1065.5,40.2,1053.1,34.5,1040.3,34.5L1040.3,34.5z
					"/>
			</g>
			<path class="st80" d="M954.6,135.4c1.1-0.4,2.3,0.2,2.8,1.3"/>
			<g>
				<g>
					<path class="st3" d="M949.5,208.4c-1.4,0-2.7-0.9-3.3-2.2l-23.8-56.5c-0.3-0.8-0.4-1.6-0.1-2.4l2-5.2l0-0.1
						c0.4-0.7,1-1.2,1.7-1.5l30-11c0.3-0.1,0.7-0.2,1.1-0.2c1.4,0,2.7,0.9,3.3,2.2l23.8,56.5c0.3,0.8,0.4,1.6,0.1,2.4l-1.7,4.4
						c-0.2,1.1-1,1.9-2,2.3l-30,11C950.2,208.3,949.9,208.4,949.5,208.4z"/>
					<path class="st5" d="M957.1,130.6c0.9,0,1.7,0.6,2.1,1.5l23.8,56.5c0.2,0.5,0.2,1.1,0.1,1.5l-1.7,4.5c-0.1,0.7-0.6,1.2-1.2,1.5
						l-30,11c-0.2,0.1-0.4,0.1-0.7,0.1c-0.9,0-1.7-0.6-2.1-1.5l-23.8-56.5c-0.2-0.5-0.2-1.1-0.1-1.6l1.9-5c0.2-0.4,0.6-0.7,1-0.9
						l30-11C956.6,130.6,956.9,130.6,957.1,130.6 M957.1,128.1L957.1,128.1c-0.5,0-1,0.1-1.5,0.3l-30,11c-1,0.4-1.8,1.1-2.3,2.1
						l-0.1,0.1l-0.1,0.1l-1.9,5l0,0.1l0,0.1c-0.4,1.1-0.3,2.2,0.1,3.3l23.8,56.5c0.7,1.8,2.5,3,4.4,3c0.5,0,1-0.1,1.5-0.3l30-11
						c1.4-0.5,2.4-1.6,2.7-3.1l1.7-4.3l0-0.1l0-0.1c0.3-1.1,0.3-2.2-0.2-3.2l-23.8-56.5C960.7,129.3,959,128.1,957.1,128.1
						L957.1,128.1z"/>
				</g>
				<path class="st81" d="M982,191.3l-30,11c-1.1,0.4-2.3-0.2-2.8-1.3l-23.8-56.5c-0.5-1.1,0-2.4,1.1-2.8l30-11
					c1.1-0.4,2.3,0.2,2.8,1.3l23.8,56.5C983.5,189.7,983,190.9,982,191.3z"/>
				<path class="st82" d="M974.1,182.2l-23.6,8.6c-0.7,0.3-1.6-0.2-2-0.9L931.7,150c-0.3-0.8,0-1.7,0.8-1.9l23.6-8.6
					c0.7-0.3,1.6,0.2,2,0.9l16.8,39.9C975.2,181,974.9,181.9,974.1,182.2z"/>
				<circle class="st82" cx="964.4" cy="191.4" r="3.9"/>
			</g>
			<path class="st5" d="M1029.9,55c0,0,2,5.1,0,12.2c-2,7.1-2.2,13.8,0.5,18.4c2.6,4.6,5.2,0,5.2,0s-4.7-16.8,2.2-14.3
				c7,2.6,13.6,12.8,7,21.4c0,0,5.6,14.3,11.2,16.3c5.6,2,11.2,3.6,19.9,0c8.7-3.6,12.8-2,13.8-7.7c1-5.6,14.3-32.7,6.6-52.6
				c-7.7-19.9-2.6-18.4-14.8-24c0,0-15.4-17.9-43.7-5.1c-28.3,12.8-23.8,19.1-23.8,19.1l-0.3,8.1c0,0,9-1.6,12.1,0.4
				C1028.9,49.4,1029.9,55,1029.9,55z"/>
			<path class="st83" d="M1041.6,216.3c-5.1,16.8-17.9,36.1-17.9,36.1c-3.1,0.9-6.3,0-6.3,0c-35.9-0.1-34.3-33.8-34.3-33.8"/>
			<path class="st83" d="M1142.3,217.4c0,0-3.5,6.9-18.9,10"/>
			<path class="st3" d="M978.2,218c-4.3-5.8-11.4-14.8-12.7-16.4c0.6-3.9-0.7-11.8-2.9-17.4c-2.4-6.1-5.4-21.1-8.8-19.7
				c-3.4,1.4-5.4,3.7-4.4,13.9c1,10.2-6.5,8.3-6.5,8.3l-4.8-2.5c0,0-6.6-2.8-6.5-1.5s9.3,16.3,12.3,19.8c3,3.5,2.6,0.9,6,8.7
				c3.3,7.8,22.2,11.3,22.2,11.3L978.2,218z"/>
			<path class="st83" d="M978.4,215.2c-4.3-5.8-11.6-12.1-12.9-13.7c0.6-3.9-0.7-11.8-2.9-17.4c-2.4-6.1-5.4-21.1-8.8-19.7
				c-3.4,1.4-5.4,3.7-4.4,13.9c1,10.2-6.5,8.3-6.5,8.3l-7-4.6"/>
		</g>
		<path class="st77" d="M1132.9,184.4c0,0,1.2,5.1,0,18s-1.8,19.8-1.8,19.8l-2.4,5.2c0,0,2.4,19.1-3,21.1l-4.2,4.4c0,0-1-3.8,0-9.2
			c1-5.3,2-9.3,1.9-13.4s-0.4-14.6,0-18.9s6.5-27.9,6.9-30C1130.7,179.3,1132.4,174.4,1132.9,184.4z"/>
		<path class="st77" d="M983.2,227.5c0,0-0.6,29.2,31.8,30l2.5-5c0,0-10.7,1.4-18.2-4C991.8,243.1,988,239.7,983.2,227.5z"/>
		<path class="st77" d="M1041.6,280.6c-4.8-3.1-5.4-7.7-5.4-9.3c0.1-3,0.3-5.9,0.9-8.4c0.9-3.5,1.2-8.5,1.2-13.6
			c4.6-7.2,12.2-19.9,10.7-23.9c-2-5.7-3.4-11.8-7-6.2c-3.6,5.6-5,8.7-5,8.7s-5.7,8.7-8.4,16.3c-2.7,7.6-8.6,8.5-8.6,8.5
			s-1.1,19.4-1.8,28.3c-0.7,8.9-6.6,11.4-4.6,23.4c1.9,12,23.5,16.7,23.5,16.7s-0.6-8.9-0.6-15.9l0,0l0,0c0-2.8,0.2-5.4,0.5-7
			c0-0.1,0-0.2,0-0.2c0.7-1.9,2-3.9,4.5-5.3C1048.6,288.9,1047.6,284.4,1041.6,280.6z"/>
	</g>
</g>
</svg>
