<?xml version="1.0" encoding="utf-8"?>
<!-- Generator: Adobe Illustrator 19.1.0, SVG Export Plug-In . SVG Version: 6.00 Build 0)  -->
<!DOCTYPE svg PUBLIC "-//W3C//DTD SVG 1.1//EN" "http://www.w3.org/Graphics/SVG/1.1/DTD/svg11.dtd">
<svg version="1.1" id="Layer_1" xmlns="http://www.w3.org/2000/svg" xmlns:xlink="http://www.w3.org/1999/xlink" x="0px" y="0px"
	 viewBox="0 0 1620 576.9" style="enable-background:new 0 0 1620 576.9;" xml:space="preserve">
<style type="text/css">
	.st0{fill-rule:evenodd;clip-rule:evenodd;fill:#128CAB;}
	.st1{fill-rule:evenodd;clip-rule:evenodd;fill:#17869D;}
	.st2{fill-rule:evenodd;clip-rule:evenodd;fill:#107488;}
	.st3{fill:#FFFFFF;}
	.st4{fill-rule:evenodd;clip-rule:evenodd;fill:none;stroke:#FFFFFF;stroke-width:2;stroke-miterlimit:10;}
	.st5{fill:#128CAB;}
	.st6{fill:#17869D;}
	.st7{fill-rule:evenodd;clip-rule:evenodd;fill:none;stroke:#62B3CC;stroke-miterlimit:10;}
	.st8{fill:none;stroke:#62B3CC;stroke-miterlimit:10;}
	.st9{fill:none;stroke:#FFFFFF;stroke-width:2;stroke-miterlimit:10;}
	.st10{fill:#A7D6DD;}
	.st11{opacity:0.2;}
	.st12{fill:#CCCCCC;}
	.st13{fill:none;}
	.st14{fill:#808285;}
	.st15{font-family:'OpenSans-Semibold';}
	.st16{font-size:24px;}
	.st17{fill:#6B428A;}
	.st18{fill:#9C80B9;}
	.st19{fill:none;stroke:#6B428A;stroke-width:1.1076;stroke-miterlimit:10;}
	.st20{fill:none;stroke:#6B428A;stroke-width:1.1076;stroke-miterlimit:10;stroke-dasharray:1.1101,1.1101;}
	.st21{fill:none;stroke:#6B428A;stroke-miterlimit:10;}
	.st22{fill:none;stroke:#6B428A;stroke-miterlimit:10;stroke-dasharray:1.0095,1.0095;}
	.st23{fill:none;stroke:#F8BD30;stroke-width:12.0543;stroke-miterlimit:10;}
	.st24{display:none;opacity:0.1;fill:url(#);}
	.st25{fill:none;stroke:#CCCCCC;stroke-width:1.5068;stroke-miterlimit:10;}
	.st26{fill:none;stroke:#CCCCCC;stroke-width:0.7534;stroke-miterlimit:10;}
	.st27{fill:#FFFFFF;stroke:#CCCCCC;stroke-width:1.5068;stroke-miterlimit:10;}
	.st28{opacity:0.2;fill:#BAB9B8;}
	.st29{opacity:0.4;}
	.st30{opacity:0.3;fill:url(#);}
	.st31{fill:none;stroke:#6B428A;stroke-width:7.5525;stroke-miterlimit:10;}
	.st32{opacity:0.9;fill:#9C80B9;}
	.st33{opacity:0.8;}
	.st34{opacity:0.1;fill:url(#);}
	.st35{fill:none;stroke:#CCCCCC;stroke-width:3.7714;stroke-miterlimit:10;}
	.st36{fill:none;stroke:#BAB9B8;stroke-width:1.6019;stroke-miterlimit:10;}
	.st37{opacity:0.3;fill:#BAB9B8;}
	.st38{fill:#BCBEC0;}
	.st39{fill:#BAB9B8;}
	.st40{fill:none;stroke:#BAB9B8;stroke-width:1.5105;stroke-miterlimit:10;}
	.st41{fill:#FFFFFF;stroke:#BAB9B8;stroke-width:3.021;stroke-miterlimit:10;}
	.st42{fill:none;stroke:#BAB9B8;stroke-width:3.021;stroke-miterlimit:10;}
	.st43{clip-path:url(#SVGID_1_);}
	.st44{fill:#FFFFFF;stroke:#BAB9B8;stroke-width:3.0093;stroke-miterlimit:10;}
	.st45{fill:none;stroke:#BAB9B8;stroke-width:1.3488;stroke-miterlimit:10;}
	.st46{opacity:0.5;fill:#BAB9B8;}
	.st47{clip-path:url(#SVGID_2_);}
	.st48{fill:none;stroke:#BAB9B8;stroke-width:0.3009;stroke-miterlimit:10;}
	.st49{opacity:0.4;fill:#C9C9C9;}
	.st50{fill:#FFFFFF;stroke:#BAB9B8;stroke-width:3.001;stroke-miterlimit:10;}
	.st51{fill:none;stroke:#BAB9B8;stroke-width:0.3001;stroke-miterlimit:10;}
	.st52{fill:#B9B9B8;}
	.st53{fill:none;stroke:#B9B9B7;stroke-width:1.2004;stroke-miterlimit:10;}
	.st54{opacity:0.1;fill:#6B428A;}
	.st55{fill:#FFFFFF;stroke:#CCCCCC;stroke-width:3.0991;stroke-miterlimit:10;}
	.st56{fill:none;stroke:#CCCCCC;stroke-width:0.8486;stroke-miterlimit:10;}
	.st57{fill:#FFFFFF;stroke:#CCCCCC;stroke-width:4;stroke-miterlimit:10;}
	.st58{fill:#FFFFFF;stroke:#CCCCCC;stroke-width:5;stroke-miterlimit:10;}
	.st59{fill:none;stroke:#CCCCCC;stroke-width:1.6973;stroke-miterlimit:10;}
	.st60{fill:#D93850;}
	.st61{fill:none;stroke:#6B428A;stroke-width:2.2657;stroke-miterlimit:10;}
	.st62{fill:#467697;stroke:#6B428A;stroke-width:2.2399;stroke-miterlimit:10;}
	.st63{fill:none;stroke:#6B428A;stroke-width:0.8194;stroke-miterlimit:10;}
	.st64{fill:none;stroke:#6B428A;stroke-width:0.5784;stroke-miterlimit:10;}
	.st65{fill:none;stroke:#6B428A;stroke-width:3.021;stroke-miterlimit:10;}
	.st66{opacity:0.4;fill:url(#);}
	.st67{fill:none;stroke:#128CAB;stroke-width:7.5525;stroke-miterlimit:10;}
	.st68{opacity:0.9;fill:#62B3CC;}
	.st69{clip-path:url(#SVGID_3_);}
	.st70{clip-path:url(#SVGID_5_);}
	.st71{opacity:0.1;fill:#128CAB;}
	.st72{fill:none;stroke:#128CAB;stroke-width:2.2657;stroke-miterlimit:10;}
	.st73{fill:#467697;stroke:#128CAB;stroke-width:2.2399;stroke-miterlimit:10;}
	.st74{fill:none;stroke:#128CAB;stroke-width:0.8194;stroke-miterlimit:10;}
	.st75{fill:none;stroke:#128CAB;stroke-width:0.5784;stroke-miterlimit:10;}
	.st76{fill:none;stroke:#128CAB;stroke-width:3.021;stroke-miterlimit:10;}
	.st77{opacity:0.5;fill:#CCCCCC;}
	.st78{opacity:0.5;fill:#6B428A;}
	.st79{opacity:0.5;fill:#9C80B9;}
	.st80{fill:none;stroke:#CCCCCC;stroke-width:3.0136;stroke-miterlimit:10;}
	.st81{fill:#FFFFFF;stroke:#BAB9B8;stroke-width:3.0136;stroke-miterlimit:10;}
	.st82{fill:none;stroke:#BAB9B8;stroke-width:0.8252;stroke-miterlimit:10;}
	.st83{fill:#FFFFFF;stroke:#BAB9B8;stroke-width:3.767;stroke-miterlimit:10;}
	.st84{fill:none;stroke:#BAB9B8;stroke-width:1.6505;stroke-miterlimit:10;}
	.st85{fill:#FFFFFF;stroke:#CCCCCC;stroke-width:8;stroke-miterlimit:10;}
	.st86{opacity:0.6;}
	.st87{fill:none;stroke:#F8BD30;stroke-width:12.0543;stroke-linecap:round;stroke-miterlimit:10;}
	.st88{fill:none;stroke:#CCCCCC;stroke-width:4.5203;stroke-miterlimit:10;}
	.st89{fill:#F8BD30;}
	.st90{fill:none;stroke:#F8BD30;stroke-width:12.0543;stroke-linecap:round;stroke-linejoin:round;stroke-miterlimit:10;}
	.st91{fill:none;stroke:#F8BD30;stroke-width:12.1703;stroke-miterlimit:10;}
	.st92{fill:none;stroke:#CCCCCC;stroke-width:1.5213;stroke-miterlimit:10;}
	.st93{fill:none;stroke:#CCCCCC;stroke-width:0.7606;stroke-miterlimit:10;}
	.st94{fill:#FFFFFF;stroke:#CCCCCC;stroke-width:1.5213;stroke-miterlimit:10;}
	.st95{opacity:0.5;fill:#107488;}
	.st96{opacity:0.5;fill:#128CAB;}
	.st97{fill:#107488;}
	.st98{fill:none;stroke:#CCCCCC;stroke-width:3.0426;stroke-miterlimit:10;}
	.st99{fill:#FFFFFF;stroke:#BAB9B8;stroke-width:3.0426;stroke-miterlimit:10;}
	.st100{fill:none;stroke:#BAB9B8;stroke-width:0.8332;stroke-miterlimit:10;}
	.st101{fill:#FFFFFF;stroke:#BAB9B8;stroke-width:3.8032;stroke-miterlimit:10;}
	.st102{fill:none;stroke:#BAB9B8;stroke-width:1.6664;stroke-miterlimit:10;}
	.st103{fill:none;stroke:#F8BD30;stroke-width:12.1703;stroke-linecap:round;stroke-miterlimit:10;}
	.st104{fill:none;stroke:#CCCCCC;stroke-width:4.5639;stroke-miterlimit:10;}
	.st105{fill:none;stroke:#F8BD30;stroke-width:12.1703;stroke-linecap:round;stroke-linejoin:round;stroke-miterlimit:10;}
	.st106{opacity:0.3;}
	.st107{fill:none;stroke:#9C80B9;stroke-width:6.3783;stroke-linecap:round;stroke-miterlimit:10;}
	.st108{fill:none;stroke:#9C80B9;stroke-width:6.3783;stroke-linecap:round;stroke-miterlimit:10;stroke-dasharray:6.3047,25.2187;}
	.st109{fill:none;stroke:#F8BD30;stroke-width:6.4739;stroke-linecap:round;stroke-miterlimit:10;}
	.st110{fill:none;stroke:#F8BD30;stroke-width:6.4739;stroke-linecap:round;stroke-miterlimit:10;stroke-dasharray:6.4958,25.9834;}
	.st111{fill:#414042;}
	
		.st112{fill:none;stroke:#CCCCCC;stroke-width:10.7899;stroke-linecap:round;stroke-miterlimit:10;stroke-dasharray:6.4739,25.8957;}
	.st113{fill:none;stroke:#E6E7E8;stroke-width:10.7899;stroke-linecap:round;stroke-miterlimit:10;}
	.st114{fill:#BBBDBF;}
	.st115{fill:#939598;}
	.st116{opacity:0.5;fill:#FFFFFF;}
	.st117{fill:#FFFFFF;stroke:#CCCCCC;stroke-width:7.8459;stroke-miterlimit:10;}
	.st118{fill:none;stroke:#CCCCCC;stroke-width:4.7075;stroke-miterlimit:10;}
	.st119{fill:#FFFFFF;stroke:#CCCCCC;stroke-width:4.7075;stroke-miterlimit:10;}
	.st120{fill:#467697;stroke:#CCCCCC;stroke-width:4.2896;stroke-miterlimit:10;}
	.st121{fill:none;stroke:#CCCCCC;stroke-width:1.5692;stroke-miterlimit:10;}
	.st122{fill:none;stroke:#CCCCCC;stroke-width:1.1076;stroke-miterlimit:10;}
	.st123{opacity:0.3;fill:#CCCCCC;}
	
		.st124{fill:none;stroke:#F8BD30;stroke-width:10.7899;stroke-linecap:round;stroke-miterlimit:10;stroke-dasharray:6.4739,25.8957;}
	.st125{fill:none;stroke:#F8BD30;stroke-width:10.7899;stroke-linecap:round;stroke-miterlimit:10;}
	.st126{fill:none;stroke:#CCCCCC;stroke-width:5.9068;stroke-miterlimit:10;}
	.st127{fill:none;stroke:#CCCCCC;stroke-width:2.624;stroke-miterlimit:10;}
	.st128{fill:none;stroke:#CCCCCC;stroke-width:1.654;stroke-miterlimit:10;}
	.st129{fill:#FFFFFF;stroke:#CCCCCC;stroke-width:8.8602;stroke-miterlimit:10;}
	.st130{fill:none;stroke:#CCCCCC;stroke-width:2.9534;stroke-linecap:round;stroke-linejoin:round;stroke-miterlimit:10;}
	.st131{fill:#FFFFFF;stroke:#CCCCCC;stroke-width:2.9534;stroke-linecap:round;stroke-linejoin:round;stroke-miterlimit:10;}
	.st132{fill:#FFFFFF;stroke:#CCCCCC;stroke-width:5.9068;stroke-linecap:round;stroke-linejoin:round;stroke-miterlimit:10;}
	.st133{fill:none;stroke:#CCCCCC;stroke-width:5.9421;stroke-miterlimit:10;}
	.st134{fill:none;stroke:#CCCCCC;stroke-width:2;stroke-miterlimit:10;}
	.st135{fill:#FFFFFF;stroke:#CCCCCC;stroke-width:2;stroke-miterlimit:10;}
	.st136{fill:none;stroke:#6B428A;stroke-miterlimit:10;stroke-dasharray:1.0138,1.0138;}
	.st137{fill:#D1D3D4;}
	.st138{fill:#E6E7E8;}
	.st139{fill:none;stroke:#9C80B9;stroke-width:2;stroke-miterlimit:10;}
	.st140{fill:none;stroke:#D1D3D4;stroke-miterlimit:10;}
	.st141{fill:none;stroke:#D1D3D4;stroke-miterlimit:10;stroke-dasharray:1.0095,1.0095;}
	.st142{fill:none;stroke:#D1D3D4;stroke-miterlimit:10;stroke-dasharray:1.0138,1.0138;}
	.st143{fill:none;stroke:#6B428A;stroke-miterlimit:10;stroke-dasharray:1.0006,1.0006;}
	.st144{fill:none;stroke:#6B428A;stroke-miterlimit:10;stroke-dasharray:1.0045,1.0045;}
	.st145{fill:none;stroke:#D1D3D4;stroke-miterlimit:10;stroke-dasharray:1.0025,1.0025;}
	.st146{fill:none;stroke:#D1D3D4;stroke-miterlimit:10;stroke-dasharray:1.017,1.017;}
	.st147{fill:none;stroke:#D1D3D4;stroke-width:1.1076;stroke-miterlimit:10;}
	.st148{fill:none;stroke:#D1D3D4;stroke-width:1.1076;stroke-miterlimit:10;stroke-dasharray:1.1101,1.1101;}
	.st149{font-size:25.2483px;}
	.st150{font-family:'OpenSans';}
	.st151{font-size:15.5374px;}
	.st152{fill:none;stroke:#128CAB;stroke-width:2;stroke-miterlimit:10;}
	.st153{fill:#FFFFFF;stroke:#CCCCCC;stroke-width:2.4962;stroke-miterlimit:10;}
	.st154{fill:none;stroke:#CCCCCC;stroke-width:0.6836;stroke-miterlimit:10;}
	.st155{fill:#FFFFFF;stroke:#CCCCCC;stroke-width:3;stroke-miterlimit:10;}
	.st156{fill:none;stroke:#CCCCCC;stroke-width:1.3671;stroke-miterlimit:10;}
	.st157{fill:none;stroke:#CCCCCC;stroke-width:1.1197;stroke-miterlimit:10;}
	.st158{fill:#E6E6E5;}
	.st159{fill:none;stroke:#CCCCCC;stroke-width:1.6109;stroke-miterlimit:10;}
</style>
<symbol  id="New_Symbol_2_2_" viewBox="-7.1 -36 14.2 72">
	<path class="st0" d="M-6.1-31.5c0,3.4,0,62.8,0,63.3c0.4,2.3,3.8,3.2,5.9,3.2c2.1,0,5.6-0.8,6.2-3l0.1-0.5v-63c0-0.2,0-0.3-0.1-0.5
		c-0.2-0.9-1-1.6-1.9-2.1C3-34.7,1.6-35,0.2-35h0l0,0l0,0c0,0-0.1,0-0.1,0c-1.3,0-2.7,0.3-3.8,0.8c-1,0.5-1.9,1.1-2.2,2.1l0,0l0,0
		C-6.1-31.9-6.1-31.7-6.1-31.5z"/>
	<path class="st1" d="M0,28.8V-35c0,0,5.4-1,6.1,3.5s0,63,0,63S3.9,27.9,0,28.8z"/>
	<g>
		<path class="st2" d="M0,28.3c-0.9,0-2.7,0.1-4.1,1c-0.6,0.3-1.6,1.1-1.6,2.2c0,1.1,1,1.8,1.6,2.2c1.5,0.9,3.2,1,4.2,1
			c0.9,0,2.7-0.1,4.2-1c0.6-0.3,1.6-1.1,1.6-2.2c0-1.1-1-1.8-1.6-2.2C2.7,28.4,0.9,28.3,0,28.3z"/>
		<path class="st3" d="M0,34.2c1.3,0,2.8-0.3,3.9-0.9c0.6-0.4,1.4-1,1.4-1.8c0-0.8-0.8-1.4-1.4-1.8c-1.1-0.7-2.6-0.9-3.9-0.9
			c-1.3,0-2.8,0.3-3.9,0.9c-0.6,0.4-1.4,1-1.4,1.8c0,0.8,0.7,1.4,1.4,1.8C-2.8,33.9-1.3,34.2,0,34.2 M0,35.2c-1,0-2.8-0.1-4.4-1.1
			c-1.2-0.7-1.9-1.6-1.9-2.6c0-1,0.7-1.9,1.9-2.6c1.6-0.9,3.4-1.1,4.4-1.1c1,0,2.8,0.1,4.4,1.1c1.2,0.7,1.9,1.6,1.9,2.6
			c0,1.4-1.2,2.2-1.9,2.6C2.8,35,1,35.2,0,35.2L0,35.2z"/>
	</g>
	<path class="st4" d="M-6.1-31.5c0,3.4,0,62.8,0,63.3c0.4,2.3,3.8,3.2,5.9,3.2c2.1,0,5.6-0.8,6.2-3l0.1-0.5v-63c0-0.2,0-0.3-0.1-0.5
		c-0.2-0.9-1-1.6-1.9-2.1C3-34.7,1.6-35,0.2-35h0l0,0l0,0c0,0-0.1,0-0.1,0c-1.3,0-2.7,0.3-3.8,0.8c-1,0.5-1.9,1.1-2.2,2.1l0,0l0,0
		C-6.1-31.9-6.1-31.7-6.1-31.5z"/>
</symbol>
<symbol  id="New_Symbol_3_1_" viewBox="-22.3 -17.6 44.6 35.3">
	<polygon class="st5" points="-5.8,16.5 21.3,1.6 21.3,-8.4 6,-16.5 -21.3,-1 -21.3,8.4 	"/>
	<polygon class="st6" points="6,-16.5 21.3,-8.4 21.3,1.6 6,-6.8 	"/>
	<polyline class="st7" points="-21.3,8.4 6,-6.8 21.3,1.6 	"/>
	<line class="st8" x1="6" y1="-16.5" x2="6" y2="-6.8"/>
	<polygon class="st9" points="-5.8,16.5 21.3,1.6 21.3,-8.4 6,-16.5 -21.3,-1 -21.3,8.4 	"/>
</symbol>
<symbol  id="New_Symbol_4_1_" viewBox="-45.2 -45.3 90.5 90.6">
	<polygon class="st5" points="-44.2,-17.1 -44.1,17.5 1.8,44.2 44.2,18.7 44.2,-17.4 0.6,-44.1 	"/>
	<polygon class="st6" points="44.2,-17.4 0.7,-44.1 0.7,-8.4 44.2,18.4 	"/>
	<polyline class="st8" points="44.2,18.7 0.6,-8.9 -44.2,17.6 	"/>
	<line class="st8" x1="0.7" y1="-44.4" x2="0.7" y2="-8.4"/>
	<g>
		<polygon class="st10" points="23.9,-3 21.3,-4.6 21.3,-11.1 23.9,-9.5 		"/>
		<polygon class="st10" points="26.9,-1.2 24.3,-2.8 24.3,-9.3 26.9,-7.7 		"/>
	</g>
	<g>
		<polygon class="st10" points="33.2,-3.8 35.8,-2.2 35.8,4.2 33.2,2.6 		"/>
		<polygon class="st10" points="36.1,4.4 36.1,-2 38.8,-0.4 38.8,6 		"/>
	</g>
	<polygon class="st6" points="-35.4,-15.4 -33,-16.8 -33,4.9 -35.4,6.3 	"/>
	<polygon class="st6" points="-20.3,-2.4 -22.7,-1 -22.7,-22.7 -20.3,-24.1 	"/>
	<polygon class="st6" points="-31.1,-17.8 -28.8,-19.2 -28.8,2.5 -31.1,3.9 	"/>
	<polygon class="st6" points="-26.9,-20.3 -24.6,-21.6 -24.6,0.1 -26.9,1.4 	"/>
	<polygon class="st6" points="-18.4,-25.7 -16,-27.1 -16,-5.4 -18.4,-4 	"/>
	<polygon class="st6" points="-14.1,-28.2 -11.8,-29.5 -11.8,-7.8 -14.1,-6.4 	"/>
	<polygon class="st6" points="-9.9,-30.6 -7.5,-31.9 -7.5,-10.2 -9.9,-8.9 	"/>
	<g>
		<polygon class="st10" points="12.1,-9.5 9.5,-11.1 9.5,-17.5 12.1,-15.9 		"/>
		<polygon class="st10" points="15.1,-7.6 12.5,-9.2 12.5,-15.7 15.1,-14.1 		"/>
	</g>
	<g>
		<polygon class="st10" points="24.1,-16.7 21.4,-18.3 21.4,-24.8 24.1,-23.2 		"/>
		<polygon class="st10" points="27,-14.9 24.4,-16.5 24.4,-23 27,-21.4 		"/>
	</g>
	<g>
		<polygon class="st10" points="33.3,-17.5 35.9,-15.9 35.9,-9.5 33.3,-11.1 		"/>
		<polygon class="st10" points="36.3,-9.3 36.3,-15.7 38.9,-14.1 38.9,-7.7 		"/>
	</g>
	<g>
		<polygon class="st10" points="12.3,-23.2 9.6,-24.7 9.6,-31.2 12.3,-29.6 		"/>
		<polygon class="st10" points="15.2,-21.3 12.6,-22.9 12.6,-29.4 15.2,-27.8 		"/>
	</g>
	<polygon class="st9" points="-44.2,-17.1 -44.1,17.5 1.8,44.2 44.2,18.7 44.2,-17.4 0.6,-44.1 	"/>
</symbol>
<g class="st11">
	<path class="st12" d="M895,112.7c0,0,4.5-21.6-26.4-25.2c0,0-1.3-0.2-1.5-0.2c-55.4-6.3-82.6-0.9-82.6-0.9l0,0
		c-35.5,2.2-33.8,26.3-33.8,26.3v73.3c0,0,0,24.4,30.9,28h0c0,0-0.7,0,1.1,0.1V246l34.6-31.5c40.2,1.4,45.7-2.1,45.7-2.1v-0.2
		c35.5-2.2,32-26.1,32-26.1V112.7z"/>
</g>
<rect x="751.8" y="159.9" class="st13" width="140.7" height="36.4"/>
<text transform="matrix(1 0 0 1 769.1418 178.1568)" class="st14 st15 st16">Intent #1 </text>
<g>
	<polygon class="st3" points="812,143 812,129.3 798.2,129.3 798.2,117.8 812,117.8 812,104.1 823.4,104.1 823.4,117.8 837.2,117.8 
		837.2,129.3 823.4,129.3 823.4,143 	"/>
	<path class="st12" d="M822.4,105.1v13.7h13.7v9.5h-13.7V142H813v-13.7h-13.7v-9.5H813v-13.7H822.4 M824.4,103.1h-2H813h-2v2v11.7
		h-11.7h-2v2v9.5v2h2H811V142v2h2h9.5h2v-2v-11.7h11.7h2v-2v-9.5v-2h-2h-11.7v-11.7V103.1L824.4,103.1z"/>
</g>
<g id="New_Symbol_8">
	<g id="New_Symbol_4">
	</g>
	<g id="New_Symbol_3">
	</g>
	<g id="New_Symbol_2">
	</g>
	<g id="New_Symbol_2_1_">
	</g>
</g>
<g>
	<g>
		<path class="st97" d="M1496,322.8c0-7.9-10.7-14.4-24-14.4c-13.3,0-24,6.4-24,14.4c0,3,0,13.4,0,16.4c0,7.9,10.7,14.4,24,14.4
			c13.3,0,24-6.4,24-14.4C1496,336.2,1496,325.9,1496,322.8z"/>
	</g>
	<g>
		<ellipse class="st5" cx="1472" cy="322.8" rx="24" ry="14.4"/>
	</g>
</g>
<g>
	<g>
		<g>
			<line class="st19" x1="1448.7" y1="277" x2="1448.7" y2="277.6"/>
			<line class="st20" x1="1448.7" y1="278.7" x2="1448.7" y2="338.1"/>
			<line class="st19" x1="1448.7" y1="338.6" x2="1448.7" y2="339.2"/>
		</g>
	</g>
	<g>
		<g>
			<line class="st21" x1="1495.3" y1="286.1" x2="1495.3" y2="286.6"/>
			<line class="st22" x1="1495.3" y1="287.6" x2="1495.3" y2="335.5"/>
			<line class="st21" x1="1495.3" y1="336" x2="1495.3" y2="336.5"/>
		</g>
	</g>
</g>
<g>
	<g>
		<g>
			<path class="st97" d="M1172.5,329.8l-0.5-15.6l-8.5-5.3l-11.8,7.9l-12.3-7.7l-8.2,5.4l0.5,15.6v20.7l8.5,5.3l11.8-7.9l12.3,7.7
				l8.2-5.4V329.8z"/>
		</g>
	</g>
	<g>
		<polygon class="st5" points="1172.5,329.8 1160.2,322.1 1172,314.2 1163.5,308.8 1151.7,316.7 1139.3,309 1131.2,314.5 
			1143.5,322.2 1131.7,330.1 1140.2,335.4 1152,327.5 1164.3,335.2 		"/>
	</g>
</g>
<rect x="765.8" y="442.6" class="st13" width="140.7" height="50.3"/>
<text transform="matrix(1 0 0 1 771.687 461.8297)" class="st3 st15 st149">Confirmed </text>
<line class="st133" x1="51.8" y1="271.5" x2="1500.4" y2="271.5"/>
<g>
	<g id="Upp67m.tif_22_">
		<g>
			<path class="st114" d="M184.8,62.7c-0.5,0.5-0.9,0.9-1.4,1.4c-2.4-2.3-5.2-3.5-8.5-3.5c-3.3,0-6.1,1.2-8.5,3.5
				c-0.5-0.5-0.9-0.9-1.4-1.4c0,0,0,0,0,0c0,0,0,0,0.1-0.1c0.7-0.7,1.5-1.3,2.3-1.9c2.1-1.3,4.4-2.1,6.9-2.2c0.9,0,1.8,0,2.7,0.1
				c0.7,0.1,1.4,0.3,2,0.5c2,0.6,3.8,1.7,5.4,3.1C184.6,62.5,184.7,62.6,184.8,62.7C184.8,62.7,184.8,62.7,184.8,62.7z"/>
			<path class="st114" d="M174.8,74.2c-0.1,0-0.3-0.1-0.4-0.1c-0.6-0.2-0.9-0.6-1-1.3c-0.1-0.8,0.4-1.5,1.1-1.7
				c0.9-0.3,1.8,0.2,2,1.1c0.2,0.9-0.4,1.8-1.3,1.9c0,0,0,0,0,0C175,74.2,174.9,74.2,174.8,74.2z"/>
			<path class="st114" d="M169.2,66.9c-0.5-0.5-0.9-0.9-1.4-1.4c3.7-3.8,10.1-4.1,14.2,0c-0.5,0.5-0.9,0.9-1.4,1.4
				c-1.6-1.5-3.5-2.4-5.7-2.4C172.7,64.5,170.8,65.3,169.2,66.9z"/>
			<path class="st114" d="M179.3,68.3c-0.5,0.5-0.9,0.9-1.4,1.4c-0.8-0.8-1.8-1.2-2.9-1.2c-1.1,0-2.1,0.4-2.9,1.2
				c-0.5-0.5-0.9-0.9-1.4-1.4C172.9,65.9,176.9,65.9,179.3,68.3z"/>
		</g>
	</g>
	<rect x="52.4" y="60.6" class="st13" width="92.9" height="19.4"/>
	<text transform="matrix(1 0 0 1 52.4306 72.3964)" class="st115 st150 st151">Phone</text>
	<g>
		<g class="st11">
			<path class="st12" d="M190.2,112.7c0,0,4.5-21.6-26.4-25.2c0,0-1.3-0.2-1.5-0.2c-55.4-6.3-82.6-0.9-82.6-0.9l0,0
				c-35.5,2.2-33.8,26.3-33.8,26.3v73.3c0,0,0,24.4,30.9,28h0c0,0-0.7,0,1.1,0.1V246l34.6-31.5c40.2,1.4,45.7-2.1,45.7-2.1v-0.2
				c35.5-2.2,32-26.1,32-26.1V112.7z"/>
		</g>
		<g>
			<path class="st134" d="M189.3,112.7c0,0,4.5-21.6-26.4-25.2c0,0-1.3-0.2-1.5-0.2C106,81,78.8,86.4,78.8,86.4l0,0
				C43.2,88.7,45,112.7,45,112.7v73.3c0,0,0,24.4,30.9,28h0c0,0-0.7,0,1.1,0.1V246l34.6-31.5c40.2,1.4,45.7-2.1,45.7-2.1v-0.2
				c35.5-2.2,32-26.1,32-26.1V112.7z"/>
		</g>
		<rect x="46.9" y="159.9" class="st13" width="140.7" height="36.4"/>
		<text transform="matrix(1 0 0 1 64.2858 178.1568)" class="st14 st15 st16">Intent #1 </text>
		<polygon class="st135" points="97.1,142.2 117.2,107.4 137.3,142.2 		"/>
	</g>
	<g>
		<path class="st3" d="M75.3,290.5c-14.6,0-26-7.3-26-16.6c0-9.3,11.4-16.6,26-16.6s26,7.3,26,16.6
			C101.4,283.2,89.9,290.5,75.3,290.5z"/>
		<path class="st12" d="M75.3,259.8c13,0,23.5,6.3,23.5,14.1c0,7.8-10.5,14.1-23.5,14.1c-13,0-23.5-6.3-23.5-14.1
			C51.8,266.1,62.3,259.8,75.3,259.8 M75.3,254.8c-16,0-28.5,8.4-28.5,19.1c0,10.7,12.5,19.1,28.5,19.1s28.5-8.4,28.5-19.1
			C103.9,263.2,91.3,254.8,75.3,254.8L75.3,254.8z"/>
	</g>
</g>
<g>
	<g>
		<polygon class="st97" points="613.6,306.7 613.6,326.9 626.4,355.4 663.1,333.9 663.1,313.6 		"/>
	</g>
	<g>
		<polygon class="st5" points="613.6,306.7 626.4,335.2 663.1,313.6 		"/>
	</g>
</g>
<g>
	<g>
		<line class="st21" x1="663" y1="264" x2="663" y2="264.5"/>
		<line class="st22" x1="663" y1="265.5" x2="663" y2="313.5"/>
		<line class="st21" x1="663" y1="314" x2="663" y2="314.5"/>
	</g>
</g>
<g>
	<g>
		<line class="st21" x1="613.5" y1="257.4" x2="613.5" y2="257.9"/>
		<line class="st136" x1="613.5" y1="258.9" x2="613.5" y2="307.1"/>
		<line class="st21" x1="613.5" y1="307.6" x2="613.5" y2="308.1"/>
	</g>
</g>
<g>
	<g>
		<line class="st21" x1="627" y1="285.6" x2="627" y2="286.1"/>
		<line class="st22" x1="627" y1="287.1" x2="627" y2="335.1"/>
		<line class="st21" x1="627" y1="335.6" x2="627" y2="336.1"/>
	</g>
</g>
<g>
	<g>
		<polygon class="st137" points="613.5,189.7 613.5,210 626.3,238.5 663,216.9 663,196.7 		"/>
	</g>
	<g>
		<polygon class="st138" points="613.5,189.7 626.3,218.2 663,196.7 		"/>
	</g>
</g>
<g>
	<path class="st3" d="M634.3,298.5c-22.8,0-40.6-11.1-40.6-25.4s17.9-25.4,40.6-25.4c22.8,0,40.6,11.1,40.6,25.4
		S657.1,298.5,634.3,298.5z"/>
	<path class="st12" d="M634.3,250.2c21.1,0,38.1,10.2,38.1,22.9c0,12.6-17.1,22.9-38.1,22.9c-21.1,0-38.1-10.2-38.1-22.9
		C596.1,260.5,613.2,250.2,634.3,250.2 M634.3,245.2c-24.2,0-43.1,12.2-43.1,27.9s19,27.9,43.1,27.9c24.2,0,43.1-12.2,43.1-27.9
		S658.5,245.2,634.3,245.2L634.3,245.2z"/>
</g>
<g class="st29">
	<path class="st5" d="M748.4,508.1c0,0,4.5,21.6-26.4,25.2c0,0-1.3,0.2-1.5,0.2c-55.4,6.3-82.6,0.9-82.6,0.9l0,0
		c-35.5-2.2-33.8-26.3-33.8-26.3v-73.3c0,0,0-24.4,30.9-28h0c0,0-0.7,0,1.1-0.1v-31.9l34.6,31.5c40.2-1.4,45.7,2.1,45.7,2.1v0.2
		c35.5,2.2,32,26.1,32,26.1V508.1z"/>
</g>
<path class="st3" d="M714.4,460l-5.6-5.6c3.3-4.4,3.3-10.5,0-14.9l5.6-5.6c0.7-0.7,0.7-1.9,0-2.6s-1.9-0.7-2.6,0l-5.6,5.6
	c-4.4-3.3-10.5-3.3-14.9,0l-5.6-5.6c-0.7-0.7-1.9-0.7-2.6,0c-0.7,0.7-0.7,1.9,0,2.6l5.6,5.6c-3.3,4.4-3.3,10.5,0,14.9l-5.6,5.6
	c-0.7,0.7-0.7,1.9,0,2.6c0.7,0.7,1.9,0.7,2.6,0l5.6-5.6c4.4,3.3,10.5,3.3,14.9,0l5.6,5.6c0.7,0.7,1.9,0.7,2.6,0
	S715.1,460.7,714.4,460z M706.2,451.8l-4.8-4.8l4.8-4.8C708.1,445.1,708.1,448.9,706.2,451.8z M703.6,439.6l-4.8,4.8l-4.8-4.8
	C696.8,437.7,700.7,437.7,703.6,439.6z M691.3,442.2l4.8,4.8l-4.8,4.8C689.4,448.9,689.4,445.1,691.3,442.2z M693.9,454.4l4.8-4.8
	l4.8,4.8C700.7,456.3,696.8,456.3,693.9,454.4z"/>
<g>
	<path class="st152" d="M747.5,508.1c0,0,4.5,21.6-26.4,25.2c0,0-1.3,0.2-1.5,0.2c-55.4,6.3-82.6,0.9-82.6,0.9l0,0
		c-35.5-2.2-33.8-26.3-33.8-26.3v-73.3c0,0,0-24.4,30.9-28h0c0,0-0.7,0,1.1-0.1v-31.9l34.6,31.5c40.2-1.4,45.7,2.1,45.7,2.1v0.2
		c35.5,2.2,32,26.1,32,26.1V508.1z"/>
</g>
<rect x="604.1" y="481.5" class="st13" width="140.7" height="36.4"/>
<text transform="matrix(1 0 0 1 645.0886 499.7217)" class="st97 st15 st16">Coda </text>
<polygon class="st5" points="635.4,463.7 655.5,428.9 675.6,463.7 "/>
<g>
	<polygon class="st3" points="614.7,261.3 661,267.8 626.6,288 	"/>
	<g>
		<path class="st12" d="M615.8,262.2l43,6L626.9,287L615.8,262.2 M613.5,260.4l12.8,28.5l36.7-21.6L613.5,260.4L613.5,260.4z"/>
	</g>
</g>
<g>
	<g>
		<line class="st140" x1="663" y1="216.9" x2="663" y2="217.4"/>
		<line class="st141" x1="663" y1="218.4" x2="663" y2="266.4"/>
		<line class="st140" x1="663" y1="266.9" x2="663" y2="267.4"/>
	</g>
</g>
<g>
	<g>
		<line class="st140" x1="613.5" y1="210.3" x2="613.5" y2="210.8"/>
		<line class="st142" x1="613.5" y1="211.8" x2="613.5" y2="260"/>
		<line class="st140" x1="613.5" y1="260.5" x2="613.5" y2="261"/>
	</g>
</g>
<g>
	<g>
		<line class="st140" x1="627" y1="238.5" x2="627" y2="239"/>
		<line class="st141" x1="627" y1="240" x2="627" y2="288"/>
		<line class="st140" x1="627" y1="288.5" x2="627" y2="289"/>
	</g>
</g>
<g>
	<g id="Upp67m.tif_21_">
		<g>
			<path class="st114" d="M376.4,62.7c-0.5,0.5-0.9,0.9-1.4,1.4c-2.4-2.3-5.2-3.5-8.5-3.5c-3.3,0-6.1,1.2-8.5,3.5
				c-0.5-0.5-0.9-0.9-1.4-1.4c0,0,0,0,0,0c0,0,0,0,0.1-0.1c0.7-0.7,1.5-1.3,2.3-1.9c2.1-1.3,4.4-2.1,6.9-2.2c0.9,0,1.8,0,2.7,0.1
				c0.7,0.1,1.4,0.3,2,0.5c2,0.6,3.8,1.7,5.4,3.1C376.2,62.5,376.3,62.6,376.4,62.7C376.4,62.7,376.4,62.7,376.4,62.7z"/>
			<path class="st114" d="M366.4,74.2c-0.1,0-0.3-0.1-0.4-0.1c-0.6-0.2-0.9-0.6-1-1.3c-0.1-0.8,0.4-1.5,1.1-1.7
				c0.9-0.3,1.8,0.2,2,1.1c0.2,0.9-0.4,1.8-1.3,1.9c0,0,0,0,0,0C366.6,74.2,366.5,74.2,366.4,74.2z"/>
			<path class="st114" d="M360.8,66.9c-0.5-0.5-0.9-0.9-1.4-1.4c3.7-3.8,10.1-4.1,14.2,0c-0.5,0.5-0.9,0.9-1.4,1.4
				c-1.6-1.5-3.5-2.4-5.7-2.4C364.3,64.5,362.4,65.3,360.8,66.9z"/>
			<path class="st114" d="M370.8,68.3c-0.5,0.5-0.9,0.9-1.4,1.4c-0.8-0.8-1.8-1.2-2.9-1.2c-1.1,0-2.1,0.4-2.9,1.2
				c-0.5-0.5-0.9-0.9-1.4-1.4C364.5,65.9,368.5,65.9,370.8,68.3z"/>
		</g>
	</g>
	<rect x="244" y="60.6" class="st13" width="92.9" height="19.4"/>
	<text transform="matrix(1 0 0 1 244.0063 72.3964)" class="st115 st150 st151">Phone</text>
	<g>
		<g class="st11">
			<path class="st12" d="M381.8,112.7c0,0,4.5-21.6-26.4-25.2c0,0-1.3-0.2-1.5-0.2c-55.4-6.3-82.6-0.9-82.6-0.9l0,0
				c-35.5,2.2-33.8,26.3-33.8,26.3v73.3c0,0,0,24.4,30.9,28h0c0,0-0.7,0,1.1,0.1V246l34.6-31.5c40.2,1.4,45.7-2.1,45.7-2.1v-0.2
				c35.5-2.2,32-26.1,32-26.1V112.7z"/>
		</g>
		<g>
			<path class="st134" d="M380.8,112.7c0,0,4.5-21.6-26.4-25.2c0,0-1.3-0.2-1.5-0.2c-55.4-6.3-82.6-0.9-82.6-0.9l0,0
				c-35.5,2.2-33.8,26.3-33.8,26.3v73.3c0,0,0,24.4,30.9,28h0c0,0-0.7,0,1.1,0.1V246l34.6-31.5c40.2,1.4,45.7-2.1,45.7-2.1v-0.2
				c35.5-2.2,32-26.1,32-26.1V112.7z"/>
		</g>
		<rect x="238.5" y="159.9" class="st13" width="140.7" height="36.4"/>
		<text transform="matrix(1 0 0 1 255.8613 178.1568)" class="st14 st15 st16">Intent #2 </text>
		<polygon class="st135" points="288.7,142.2 308.8,107.4 328.9,142.2 		"/>
	</g>
	<g>
		<path class="st3" d="M266.9,290.5c-14.6,0-26-7.3-26-16.6c0-9.3,11.4-16.6,26-16.6c14.6,0,26,7.3,26,16.6
			C292.9,283.2,281.5,290.5,266.9,290.5z"/>
		<path class="st12" d="M266.9,259.8c13,0,23.5,6.3,23.5,14.1c0,7.8-10.5,14.1-23.5,14.1c-13,0-23.5-6.3-23.5-14.1
			C243.3,266.1,253.9,259.8,266.9,259.8 M266.9,254.8c-16,0-28.5,8.4-28.5,19.1c0,10.7,12.5,19.1,28.5,19.1s28.5-8.4,28.5-19.1
			C295.4,263.2,282.9,254.8,266.9,254.8L266.9,254.8z"/>
	</g>
</g>
<g>
	<g id="Upp67m.tif_20_">
		<g>
			<path class="st114" d="M561.4,62.7c-0.5,0.5-0.9,0.9-1.4,1.4c-2.4-2.3-5.2-3.5-8.5-3.5c-3.3,0-6.1,1.2-8.5,3.5
				c-0.5-0.5-0.9-0.9-1.4-1.4c0,0,0,0,0,0c0,0,0,0,0.1-0.1c0.7-0.7,1.5-1.3,2.3-1.9c2.1-1.3,4.4-2.1,6.9-2.2c0.9,0,1.8,0,2.7,0.1
				c0.7,0.1,1.4,0.3,2,0.5c2,0.6,3.8,1.7,5.4,3.1C561.2,62.5,561.3,62.6,561.4,62.7C561.4,62.7,561.4,62.7,561.4,62.7z"/>
			<path class="st114" d="M551.4,74.2c-0.1,0-0.3-0.1-0.4-0.1c-0.6-0.2-0.9-0.6-1-1.3c-0.1-0.8,0.4-1.5,1.1-1.7
				c0.9-0.3,1.8,0.2,2,1.1c0.2,0.9-0.4,1.8-1.3,1.9c0,0,0,0,0,0C551.6,74.2,551.5,74.2,551.4,74.2z"/>
			<path class="st114" d="M545.8,66.9c-0.5-0.5-0.9-0.9-1.4-1.4c3.7-3.8,10.1-4.1,14.2,0c-0.5,0.5-0.9,0.9-1.4,1.4
				c-1.6-1.5-3.5-2.4-5.7-2.4C549.3,64.5,547.4,65.3,545.8,66.9z"/>
			<path class="st114" d="M555.9,68.3c-0.5,0.5-0.9,0.9-1.4,1.4c-0.8-0.8-1.8-1.2-2.9-1.2c-1.1,0-2.1,0.4-2.9,1.2
				c-0.5-0.5-0.9-0.9-1.4-1.4C549.5,65.9,553.5,65.9,555.9,68.3z"/>
		</g>
	</g>
	<rect x="429" y="60.6" class="st13" width="92.9" height="19.4"/>
	<text transform="matrix(1 0 0 1 429.0432 72.3964)" class="st115 st150 st151">Phone</text>
	<g>
		<g class="st11">
			<path class="st12" d="M566.8,112.7c0,0,4.5-21.6-26.4-25.2c0,0-1.3-0.2-1.5-0.2c-55.4-6.3-82.6-0.9-82.6-0.9l0,0
				c-35.5,2.2-33.8,26.3-33.8,26.3v73.3c0,0,0,24.4,30.9,28h0c0,0-0.7,0,1.1,0.1V246l34.6-31.5c40.2,1.4,45.7-2.1,45.7-2.1v-0.2
				c35.5-2.2,32-26.1,32-26.1V112.7z"/>
		</g>
		<g>
			<path class="st134" d="M565.9,112.7c0,0,4.5-21.6-26.4-25.2c0,0-1.3-0.2-1.5-0.2c-55.4-6.3-82.6-0.9-82.6-0.9l0,0
				c-35.5,2.2-33.8,26.3-33.8,26.3v73.3c0,0,0,24.4,30.9,28h0c0,0-0.7,0,1.1,0.1V246l34.6-31.5c40.2,1.4,45.7-2.1,45.7-2.1v-0.2
				c35.5-2.2,32-26.1,32-26.1V112.7z"/>
		</g>
		<rect x="423.5" y="159.9" class="st13" width="140.7" height="36.4"/>
		<text transform="matrix(1 0 0 1 440.8984 178.1568)" class="st14 st15 st16">Intent #3 </text>
		<polygon class="st135" points="473.8,142.2 493.9,107.4 514,142.2 		"/>
	</g>
	<g>
		<path class="st3" d="M451.9,290.5c-14.6,0-26-7.3-26-16.6c0-9.3,11.4-16.6,26-16.6s26,7.3,26,16.6
			C478,283.2,466.5,290.5,451.9,290.5z"/>
		<path class="st12" d="M451.9,259.8c13,0,23.5,6.3,23.5,14.1c0,7.8-10.5,14.1-23.5,14.1c-13,0-23.5-6.3-23.5-14.1
			C428.4,266.1,438.9,259.8,451.9,259.8 M451.9,254.8c-16,0-28.5,8.4-28.5,19.1c0,10.7,12.5,19.1,28.5,19.1s28.5-8.4,28.5-19.1
			C480.5,263.2,467.9,254.8,451.9,254.8L451.9,254.8z"/>
	</g>
</g>
<g id="Upp67m.tif_19_">
	<g>
		<path class="st114" d="M889.7,62.7c-0.5,0.5-0.9,0.9-1.4,1.4c-2.4-2.3-5.2-3.5-8.5-3.5c-3.3,0-6.1,1.2-8.5,3.5
			c-0.5-0.5-0.9-0.9-1.4-1.4c0,0,0,0,0,0c0,0,0,0,0.1-0.1c0.7-0.7,1.5-1.3,2.3-1.9c2.1-1.3,4.4-2.1,6.9-2.2c0.9,0,1.8,0,2.7,0.1
			c0.7,0.1,1.4,0.3,2,0.5c2,0.6,3.8,1.7,5.4,3.1C889.4,62.5,889.6,62.6,889.7,62.7C889.7,62.7,889.7,62.7,889.7,62.7z"/>
		<path class="st114" d="M879.6,74.2c-0.1,0-0.3-0.1-0.4-0.1c-0.6-0.2-0.9-0.6-1-1.3c-0.1-0.8,0.4-1.5,1.1-1.7
			c0.9-0.3,1.8,0.2,2,1.1c0.2,0.9-0.4,1.8-1.3,1.9c0,0,0,0,0,0C879.9,74.2,879.8,74.2,879.6,74.2z"/>
		<path class="st114" d="M874.1,66.9c-0.5-0.5-0.9-0.9-1.4-1.4c3.7-3.8,10.1-4.1,14.2,0c-0.5,0.5-0.9,0.9-1.4,1.4
			c-1.6-1.5-3.5-2.4-5.7-2.4C877.6,64.5,875.7,65.3,874.1,66.9z"/>
		<path class="st114" d="M884.1,68.3c-0.5,0.5-0.9,0.9-1.4,1.4c-0.8-0.8-1.8-1.2-2.9-1.2c-1.1,0-2.1,0.4-2.9,1.2
			c-0.5-0.5-0.9-0.9-1.4-1.4C877.8,65.9,881.8,65.9,884.1,68.3z"/>
	</g>
</g>
<rect x="757.3" y="60.6" class="st13" width="92.9" height="19.4"/>
<text transform="matrix(1 0 0 1 757.2868 72.3964)" class="st115 st150 st151">Phone</text>
<g>
	<path class="st134" d="M894.1,112.7c0,0,4.5-21.6-26.4-25.2c0,0-1.3-0.2-1.5-0.2c-55.4-6.3-82.6-0.9-82.6-0.9l0,0
		c-35.5,2.2-33.8,26.3-33.8,26.3v73.3c0,0,0,24.4,30.9,28h0c0,0-0.7,0,1.1,0.1V246l34.6-31.5c40.2,1.4,45.7-2.1,45.7-2.1v-0.2
		c35.5-2.2,32-26.1,32-26.1V112.7z"/>
</g>
<g>
	<path class="st3" d="M780.2,290.5c-14.6,0-26-7.3-26-16.6c0-9.3,11.4-16.6,26-16.6c14.6,0,26,7.3,26,16.6
		C806.2,283.2,794.8,290.5,780.2,290.5z"/>
	<path class="st12" d="M780.2,259.8c13,0,23.5,6.3,23.5,14.1c0,7.8-10.5,14.1-23.5,14.1c-13,0-23.5-6.3-23.5-14.1
		C756.6,266.1,767.2,259.8,780.2,259.8 M780.2,254.8c-16,0-28.5,8.4-28.5,19.1c0,10.7,12.5,19.1,28.5,19.1s28.5-8.4,28.5-19.1
		C808.7,263.2,796.2,254.8,780.2,254.8L780.2,254.8z"/>
</g>
<g id="Upp67m.tif_18_">
	<g>
		<path class="st114" d="M1081.3,62.7c-0.5,0.5-0.9,0.9-1.4,1.4c-2.4-2.3-5.2-3.5-8.5-3.5s-6.1,1.2-8.5,3.5
			c-0.5-0.5-0.9-0.9-1.4-1.4c0,0,0,0,0,0c0,0,0,0,0.1-0.1c0.7-0.7,1.5-1.3,2.3-1.9c2.1-1.3,4.4-2.1,6.9-2.2c0.9,0,1.8,0,2.7,0.1
			c0.7,0.1,1.4,0.3,2,0.5c2,0.6,3.8,1.7,5.4,3.1C1081,62.5,1081.1,62.6,1081.3,62.7C1081.3,62.7,1081.3,62.7,1081.3,62.7z"/>
		<path class="st114" d="M1071.2,74.2c-0.1,0-0.3-0.1-0.4-0.1c-0.6-0.2-0.9-0.6-1-1.3c-0.1-0.8,0.4-1.5,1.1-1.7
			c0.9-0.3,1.8,0.2,2,1.1c0.2,0.9-0.4,1.8-1.3,1.9c0,0,0,0,0,0C1071.4,74.2,1071.3,74.2,1071.2,74.2z"/>
		<path class="st114" d="M1065.7,66.9c-0.5-0.5-0.9-0.9-1.4-1.4c3.7-3.8,10.1-4.1,14.2,0c-0.5,0.5-0.9,0.9-1.4,1.4
			c-1.6-1.5-3.5-2.4-5.7-2.4C1069.2,64.5,1067.3,65.3,1065.7,66.9z"/>
		<path class="st114" d="M1075.7,68.3c-0.5,0.5-0.9,0.9-1.4,1.4c-0.8-0.8-1.8-1.2-2.9-1.2c-1.1,0-2.1,0.4-2.9,1.2
			c-0.5-0.5-0.9-0.9-1.4-1.4C1069.3,65.9,1073.3,65.9,1075.7,68.3z"/>
	</g>
</g>
<rect x="948.9" y="60.6" class="st13" width="92.9" height="19.4"/>
<text transform="matrix(1 0 0 1 948.8627 72.3964)" class="st115 st150 st151">Phone</text>
<g class="st11">
	<path class="st12" d="M1086.6,112.7c0,0,4.5-21.6-26.4-25.2c0,0-1.3-0.2-1.5-0.2c-55.4-6.3-82.6-0.9-82.6-0.9l0,0
		c-35.5,2.2-33.8,26.3-33.8,26.3v73.3c0,0,0,24.4,30.9,28h0c0,0-0.7,0,1.1,0.1V246l34.6-31.5c40.2,1.4,45.7-2.1,45.7-2.1v-0.2
		c35.5-2.2,32-26.1,32-26.1V112.7z"/>
</g>
<g>
	<path class="st134" d="M1085.7,112.7c0,0,4.5-21.6-26.4-25.2c0,0-1.3-0.2-1.5-0.2c-55.4-6.3-82.6-0.9-82.6-0.9l0,0
		c-35.5,2.2-33.8,26.3-33.8,26.3v73.3c0,0,0,24.4,30.9,28h0c0,0-0.7,0,1.1,0.1V246l34.6-31.5c40.2,1.4,45.7-2.1,45.7-2.1v-0.2
		c35.5-2.2,32-26.1,32-26.1V112.7z"/>
</g>
<rect x="943.3" y="159.9" class="st13" width="140.7" height="36.4"/>
<text transform="matrix(1 0 0 1 960.7177 178.1568)" class="st14 st15 st16">Intent #2 </text>
<g>
	<path class="st3" d="M971.7,290.5c-14.6,0-26-7.3-26-16.6c0-9.3,11.4-16.6,26-16.6s26,7.3,26,16.6
		C997.8,283.2,986.4,290.5,971.7,290.5z"/>
	<path class="st12" d="M971.7,259.8c13,0,23.5,6.3,23.5,14.1c0,7.8-10.5,14.1-23.5,14.1c-13,0-23.5-6.3-23.5-14.1
		C948.2,266.1,958.7,259.8,971.7,259.8 M971.7,254.8c-16,0-28.5,8.4-28.5,19.1c0,10.7,12.5,19.1,28.5,19.1s28.5-8.4,28.5-19.1
		C1000.3,263.2,987.8,254.8,971.7,254.8L971.7,254.8z"/>
</g>
<g>
	<g>
		<line class="st21" x1="1171" y1="265.8" x2="1171" y2="266.3"/>
		<line class="st143" x1="1171" y1="267.3" x2="1171" y2="328.8"/>
		<line class="st21" x1="1171" y1="329.3" x2="1171" y2="329.8"/>
	</g>
</g>
<g>
	<g>
		<line class="st21" x1="1132.5" y1="262.5" x2="1132.5" y2="263"/>
		<line class="st144" x1="1132.5" y1="264" x2="1132.5" y2="329.8"/>
		<line class="st21" x1="1132.5" y1="330.3" x2="1132.5" y2="330.8"/>
	</g>
</g>
<g>
	<g>
		<line class="st21" x1="1151.8" y1="275.8" x2="1151.8" y2="276.3"/>
		<line class="st22" x1="1151.8" y1="277.3" x2="1151.8" y2="325.2"/>
		<line class="st21" x1="1151.8" y1="325.7" x2="1151.8" y2="326.2"/>
	</g>
</g>
<g>
	<path class="st3" d="M1151.4,299.9c-22.8,0-40.6-11.1-40.6-25.4s17.9-25.4,40.6-25.4s40.6,11.1,40.6,25.4
		S1174.2,299.9,1151.4,299.9z"/>
	<path class="st12" d="M1151.4,251.7c21.1,0,38.1,10.2,38.1,22.9c0,12.6-17.1,22.9-38.1,22.9c-21.1,0-38.1-10.2-38.1-22.9
		C1113.2,261.9,1130.3,251.7,1151.4,251.7 M1151.4,246.7c-24.2,0-43.1,12.2-43.1,27.9s19,27.9,43.1,27.9c24.2,0,43.1-12.2,43.1-27.9
		S1175.6,246.7,1151.4,246.7L1151.4,246.7z"/>
</g>
<g class="st29">
	<path class="st5" d="M1265.5,509.5c0,0,4.5,21.6-26.4,25.2c0,0-1.3,0.2-1.5,0.2c-55.4,6.3-82.6,0.9-82.6,0.9l0,0
		c-35.5-2.2-33.8-26.3-33.8-26.3v-73.3c0,0,0-24.4,30.9-28h0c0,0-0.7,0,1.1-0.1v-31.9l34.6,31.5c40.2-1.4,45.7,2.1,45.7,2.1v0.2
		c35.5,2.2,32,26.1,32,26.1V509.5z"/>
</g>
<path class="st3" d="M1231.5,461.5l-5.6-5.6c3.3-4.4,3.3-10.5,0-14.9l5.6-5.6c0.7-0.7,0.7-1.9,0-2.6s-1.9-0.7-2.6,0l-5.6,5.6
	c-4.4-3.3-10.5-3.3-14.9,0l-5.6-5.6c-0.7-0.7-1.9-0.7-2.6,0s-0.7,1.9,0,2.6l5.6,5.6c-3.3,4.4-3.3,10.5,0,14.9l-5.6,5.6
	c-0.7,0.7-0.7,1.9,0,2.6s1.9,0.7,2.6,0l5.6-5.6c4.4,3.3,10.5,3.3,14.9,0l5.6,5.6c0.7,0.7,1.9,0.7,2.6,0S1232.2,462.2,1231.5,461.5z
	 M1223.3,453.3l-4.8-4.8l4.8-4.8C1225.2,446.5,1225.2,450.3,1223.3,453.3z M1220.7,441l-4.8,4.8l-4.8-4.8
	C1213.9,439.1,1217.8,439.1,1220.7,441z M1208.4,443.6l4.8,4.8l-4.8,4.8C1206.5,450.3,1206.5,446.5,1208.4,443.6z M1211,455.8
	l4.8-4.8l4.8,4.8C1217.8,457.8,1213.9,457.8,1211,455.8z"/>
<g>
	<path class="st152" d="M1264.6,509.5c0,0,4.5,21.6-26.4,25.2c0,0-1.3,0.2-1.5,0.2c-55.4,6.3-82.6,0.9-82.6,0.9l0,0
		c-35.5-2.2-33.8-26.3-33.8-26.3v-73.3c0,0,0-24.4,30.9-28h0c0,0-0.7,0,1.1-0.1v-31.9l34.6,31.5c40.2-1.4,45.7,2.1,45.7,2.1v0.2
		c35.5,2.2,32,26.1,32,26.1V509.5z"/>
</g>
<rect x="1121.2" y="482.9" class="st13" width="140.7" height="36.4"/>
<text transform="matrix(1 0 0 1 1162.2003 501.1482)" class="st97 st15 st16">Coda </text>
<g>
	<g>
		<line class="st140" x1="1171.5" y1="219.4" x2="1171.5" y2="219.9"/>
		<line class="st145" x1="1171.5" y1="220.9" x2="1171.5" y2="280.6"/>
		<line class="st140" x1="1171.5" y1="281.1" x2="1171.5" y2="281.6"/>
	</g>
</g>
<g>
	<g>
		<line class="st140" x1="1132.5" y1="224.9" x2="1132.5" y2="225.4"/>
		<line class="st146" x1="1132.5" y1="226.4" x2="1132.5" y2="280.8"/>
		<line class="st140" x1="1132.5" y1="281.3" x2="1132.5" y2="281.8"/>
	</g>
</g>
<g>
	<g id="Upp67m.tif_17_">
		<g>
			<path class="st114" d="M1405,62.7c-0.5,0.5-0.9,0.9-1.4,1.4c-2.4-2.3-5.2-3.5-8.5-3.5c-3.3,0-6.1,1.2-8.5,3.5
				c-0.5-0.5-0.9-0.9-1.4-1.4c0,0,0,0,0,0c0,0,0,0,0.1-0.1c0.7-0.7,1.5-1.3,2.3-1.9c2.1-1.3,4.4-2.1,6.9-2.2c0.9,0,1.8,0,2.7,0.1
				c0.7,0.1,1.4,0.3,2,0.5c2,0.6,3.8,1.7,5.4,3.1C1404.8,62.5,1404.9,62.6,1405,62.7C1405,62.7,1405,62.7,1405,62.7z"/>
			<path class="st114" d="M1395,74.2c-0.1,0-0.3-0.1-0.4-0.1c-0.6-0.2-0.9-0.6-1-1.3c-0.1-0.8,0.4-1.5,1.1-1.7
				c0.9-0.3,1.8,0.2,2,1.1c0.2,0.9-0.4,1.8-1.3,1.9c0,0,0,0,0,0C1395.2,74.2,1395.1,74.2,1395,74.2z"/>
			<path class="st114" d="M1389.4,66.9c-0.5-0.5-0.9-0.9-1.4-1.4c3.7-3.8,10.1-4.1,14.2,0c-0.5,0.5-0.9,0.9-1.4,1.4
				c-1.6-1.5-3.5-2.4-5.7-2.4C1392.9,64.5,1391,65.3,1389.4,66.9z"/>
			<path class="st114" d="M1399.4,68.3c-0.5,0.5-0.9,0.9-1.4,1.4c-0.8-0.8-1.8-1.2-2.9-1.2c-1.1,0-2.1,0.4-2.9,1.2
				c-0.5-0.5-0.9-0.9-1.4-1.4C1393.1,65.9,1397.1,65.9,1399.4,68.3z"/>
		</g>
	</g>
	<rect x="1272.6" y="60.6" class="st13" width="92.9" height="19.4"/>
	<text transform="matrix(1 0 0 1 1272.6132 72.3964)" class="st115 st150 st151">Phone</text>
	<g>
		<g class="st11">
			<path class="st12" d="M1410.4,112.7c0,0,4.5-21.6-26.4-25.2c0,0-1.3-0.2-1.5-0.2c-55.4-6.3-82.6-0.9-82.6-0.9l0,0
				c-35.5,2.2-33.8,26.3-33.8,26.3v73.3c0,0,0,24.4,30.9,28h0c0,0-0.7,0,1.1,0.1V246l34.6-31.5c40.2,1.4,45.7-2.1,45.7-2.1v-0.2
				c35.5-2.2,32-26.1,32-26.1V112.7z"/>
		</g>
		<g>
			<path class="st134" d="M1409.5,112.7c0,0,4.5-21.6-26.4-25.2c0,0-1.3-0.2-1.5-0.2c-55.4-6.3-82.6-0.9-82.6-0.9l0,0
				c-35.5,2.2-33.8,26.3-33.8,26.3v73.3c0,0,0,24.4,30.9,28h0c0,0-0.7,0,1.1,0.1V246l34.6-31.5c40.2,1.4,45.7-2.1,45.7-2.1v-0.2
				c35.5-2.2,32-26.1,32-26.1V112.7z"/>
		</g>
		<rect x="1267.1" y="159.9" class="st13" width="140.7" height="36.4"/>
		<text transform="matrix(1 0 0 1 1284.4681 178.1568)" class="st14 st15 st16">Intent #1 </text>
	</g>
	<g>
		<path class="st3" d="M1295.5,290.5c-14.6,0-26-7.3-26-16.6c0-9.3,11.4-16.6,26-16.6c14.6,0,26,7.3,26,16.6
			C1321.5,283.2,1310.1,290.5,1295.5,290.5z"/>
		<path class="st12" d="M1295.5,259.8c13,0,23.5,6.3,23.5,14.1c0,7.8-10.5,14.1-23.5,14.1c-13,0-23.5-6.3-23.5-14.1
			C1272,266.1,1282.5,259.8,1295.5,259.8 M1295.5,254.8c-16,0-28.5,8.4-28.5,19.1c0,10.7,12.5,19.1,28.5,19.1s28.5-8.4,28.5-19.1
			C1324,263.2,1311.5,254.8,1295.5,254.8L1295.5,254.8z"/>
	</g>
</g>
<g>
	<path class="st3" d="M1471.5,299.9c-22.8,0-40.6-11.1-40.6-25.4c0-14.2,17.9-25.4,40.6-25.4s40.6,11.1,40.6,25.4
		C1512.2,288.7,1494.3,299.9,1471.5,299.9z"/>
	<path class="st12" d="M1471.5,251.7c21.1,0,38.1,10.2,38.1,22.9s-17.1,22.9-38.1,22.9c-21.1,0-38.1-10.2-38.1-22.9
		S1450.4,251.7,1471.5,251.7 M1471.5,246.7c-24.2,0-43.1,12.2-43.1,27.9s19,27.9,43.1,27.9c24.2,0,43.1-12.2,43.1-27.9
		S1495.7,246.7,1471.5,246.7L1471.5,246.7z"/>
</g>
<g class="st29">
	<path class="st5" d="M1585.6,509.5c0,0,4.5,21.6-26.4,25.2c0,0-1.3,0.2-1.5,0.2c-55.4,6.3-82.6,0.9-82.6,0.9l0,0
		c-35.5-2.2-33.8-26.3-33.8-26.3v-73.3c0,0,0-24.4,30.9-28h0c0,0-0.7,0,1.1-0.1v-31.9l34.6,31.5c40.2-1.4,45.7,2.1,45.7,2.1v0.2
		c35.5,2.2,32,26.1,32,26.1V509.5z"/>
</g>
<path class="st3" d="M1551.6,461.5l-5.6-5.6c3.3-4.4,3.3-10.5,0-14.9l5.6-5.6c0.7-0.7,0.7-1.9,0-2.6c-0.7-0.7-1.9-0.7-2.6,0
	l-5.6,5.6c-4.4-3.3-10.5-3.3-14.9,0l-5.6-5.6c-0.7-0.7-1.9-0.7-2.6,0c-0.7,0.7-0.7,1.9,0,2.6l5.6,5.6c-3.3,4.4-3.3,10.5,0,14.9
	l-5.6,5.6c-0.7,0.7-0.7,1.9,0,2.6c0.7,0.7,1.9,0.7,2.6,0l5.6-5.6c4.4,3.3,10.5,3.3,14.9,0l5.6,5.6c0.7,0.7,1.9,0.7,2.6,0
	C1552.3,463.3,1552.3,462.2,1551.6,461.5z M1543.4,453.3l-4.8-4.8l4.8-4.8C1545.3,446.5,1545.3,450.3,1543.4,453.3z M1540.8,441
	l-4.8,4.8l-4.8-4.8C1534.1,439.1,1537.9,439.1,1540.8,441z M1528.6,443.6l4.8,4.8l-4.8,4.8C1526.6,450.3,1526.6,446.5,1528.6,443.6z
	 M1531.1,455.8l4.8-4.8l4.8,4.8C1537.9,457.8,1534.1,457.8,1531.1,455.8z"/>
<g>
	<path class="st152" d="M1584.7,509.5c0,0,4.5,21.6-26.4,25.2c0,0-1.3,0.2-1.5,0.2c-55.4,6.3-82.6,0.9-82.6,0.9l0,0
		c-35.5-2.2-33.8-26.3-33.8-26.3v-73.3c0,0,0-24.4,30.9-28h0c0,0-0.7,0,1.1-0.1v-31.9l34.6,31.5c40.2-1.4,45.7,2.1,45.7,2.1v0.2
		c35.5,2.2,32,26.1,32,26.1V509.5z"/>
</g>
<rect x="1441.3" y="482.9" class="st13" width="140.7" height="36.4"/>
<text transform="matrix(1 0 0 1 1482.3217 501.1482)" class="st97 st15 st16">Coda </text>
<g>
	<polygon class="st3" points="1008.8,143 1008.8,129.3 995.1,129.3 995.1,117.8 1008.8,117.8 1008.8,104.1 1020.3,104.1 
		1020.3,117.8 1034.1,117.8 1034.1,129.3 1020.3,129.3 1020.3,143 	"/>
	<path class="st12" d="M1019.3,105.1v13.7h13.7v9.5h-13.7V142h-9.5v-13.7h-13.7v-9.5h13.7v-13.7H1019.3 M1021.3,103.1h-2h-9.5h-2v2
		v11.7h-11.7h-2v2v9.5v2h2h11.7V142v2h2h9.5h2v-2v-11.7h11.7h2v-2v-9.5v-2h-2h-11.7v-11.7V103.1L1021.3,103.1z"/>
</g>
<g>
	<polygon class="st3" points="1130.4,281.9 1142.2,274 1129.9,266.3 1139.3,260 1151.6,267.7 1163.5,259.8 1173.3,266 1161.5,273.8 
		1173.8,281.6 1164.3,287.9 1152,280.1 1140.2,288 	"/>
	<g>
		<path class="st12" d="M1163.5,260.6l8.5,5.3l-11.8,7.9l12.3,7.7l-8.2,5.4l-12.3-7.7l-11.8,7.9l-8.5-5.3l11.8-7.9l-12.3-7.7
			l8.2-5.4l12.3,7.7L1163.5,260.6 M1163.5,259l-0.8,0.5l-11.1,7.4l-11.6-7.2l-0.8-0.5l-0.8,0.5l-8.2,5.4l-1.8,1.2l1.8,1.1l10.5,6.6
			l-10,6.7l-1.8,1.2l1.8,1.1l8.5,5.3l0.8,0.5l0.8-0.5l11.1-7.4l11.6,7.2l0.8,0.5l0.8-0.5l8.2-5.4l1.8-1.2l-1.8-1.1l-10.5-6.6l10-6.7
			l1.8-1.2l-1.8-1.1l-8.5-5.3L1163.5,259L1163.5,259z"/>
	</g>
</g>
<g>
	<g>
		<g>
			<path class="st137" d="M1172.5,212.1l-0.5-15.6l-8.5-5.3l-11.8,7.9l-12.3-7.7l-8.2,5.4l0.5,15.6v20.7l8.5,5.3l11.8-7.9l12.3,7.7
				l8.2-5.4V212.1z"/>
		</g>
	</g>
	<g>
		<polygon class="st138" points="1172.5,212.1 1160.2,204.4 1172,196.5 1163.5,191.1 1151.7,199 1139.3,191.3 1131.2,196.7 
			1143.5,204.5 1131.7,212.4 1140.2,217.7 1152,209.8 1164.3,217.5 		"/>
	</g>
</g>
<g>
	<g>
		<line class="st140" x1="1151.8" y1="228.7" x2="1151.8" y2="229.2"/>
		<line class="st141" x1="1151.8" y1="230.2" x2="1151.8" y2="278.1"/>
		<line class="st140" x1="1151.8" y1="278.6" x2="1151.8" y2="279.1"/>
	</g>
</g>
<g>
	<polygon class="st5" points="1191,443.7 1177.2,443.7 1177.2,430 1167.8,430 1167.8,443.7 1154,443.7 1154,453.2 1167.8,453.2 
		1167.8,466.9 1177.2,466.9 1177.2,453.2 1191,453.2 	"/>
</g>
<circle class="st135" cx="1336.3" cy="125.8" r="17.4"/>
<circle class="st5" cx="1492.7" cy="449.6" r="17.4"/>
<g>
	<path class="st3" d="M1471.5,288.7c-13.4,0-24.2-6.6-24.2-14.8c0-8.2,10.9-14.8,24.2-14.8s24.2,6.6,24.2,14.8
		C1495.8,282.1,1484.9,288.7,1471.5,288.7z"/>
	<g>
		<path class="st12" d="M1471.5,259.8c13,0,23.5,6.3,23.5,14.1c0,7.8-10.5,14.1-23.5,14.1c-13,0-23.5-6.3-23.5-14.1
			C1448,266.1,1458.5,259.8,1471.5,259.8 M1471.5,258.4c-14,0-24.9,6.8-24.9,15.5s11,15.5,24.9,15.5s24.9-6.8,24.9-15.5
			S1485.5,258.4,1471.5,258.4L1471.5,258.4z"/>
	</g>
</g>
<g>
	<g>
		<path class="st137" d="M1496,202.5c0-7.9-10.7-14.4-24-14.4c-13.3,0-24,6.4-24,14.4c0,3,0,13.4,0,16.4c0,7.9,10.7,14.4,24,14.4
			c13.3,0,24-6.4,24-14.4C1496,215.9,1496,205.6,1496,202.5z"/>
	</g>
	<g>
		<ellipse class="st138" cx="1472" cy="202.5" rx="24" ry="14.4"/>
	</g>
</g>
<g>
	<g>
		<g>
			<line class="st147" x1="1448.5" y1="211.7" x2="1448.5" y2="212.3"/>
			<line class="st148" x1="1448.5" y1="213.4" x2="1448.5" y2="272.8"/>
			<line class="st147" x1="1448.5" y1="273.4" x2="1448.5" y2="273.9"/>
		</g>
	</g>
	<g>
		<g>
			<line class="st140" x1="1495.1" y1="220.8" x2="1495.1" y2="221.3"/>
			<line class="st141" x1="1495.1" y1="222.3" x2="1495.1" y2="270.2"/>
			<line class="st140" x1="1495.1" y1="270.7" x2="1495.1" y2="271.2"/>
		</g>
	</g>
</g>
</svg>
