<?xml version="1.0" encoding="utf-8"?>
<!-- Generator: Adobe Illustrator 19.1.0, SVG Export Plug-In . SVG Version: 6.00 Build 0)  -->
<!DOCTYPE svg PUBLIC "-//W3C//DTD SVG 1.1//EN" "http://www.w3.org/Graphics/SVG/1.1/DTD/svg11.dtd">
<svg version="1.1" id="Layer_1" xmlns="http://www.w3.org/2000/svg" xmlns:xlink="http://www.w3.org/1999/xlink" x="0px" y="0px"
	 viewBox="0 0 1665.6 1277.3" style="enable-background:new 0 0 1665.6 1277.3;" xml:space="preserve">
<style type="text/css">
	.st0{fill-rule:evenodd;clip-rule:evenodd;fill:#128CAB;}
	.st1{fill-rule:evenodd;clip-rule:evenodd;fill:#17869D;}
	.st2{fill-rule:evenodd;clip-rule:evenodd;fill:#107488;}
	.st3{fill:#FFFFFF;}
	.st4{fill-rule:evenodd;clip-rule:evenodd;fill:none;stroke:#FFFFFF;stroke-width:2;stroke-miterlimit:10;}
	.st5{fill:#128CAB;}
	.st6{fill:#17869D;}
	.st7{fill-rule:evenodd;clip-rule:evenodd;fill:none;stroke:#62B3CC;stroke-miterlimit:10;}
	.st8{fill:none;stroke:#62B3CC;stroke-miterlimit:10;}
	.st9{fill:none;stroke:#FFFFFF;stroke-width:2;stroke-miterlimit:10;}
	.st10{fill:#A7D6DD;}
	.st11{fill:none;}
	.st12{fill:#231F20;}
	.st13{opacity:0.2;}
	.st14{fill:#CCCCCC;}
	.st15{fill:#808285;}
	.st16{fill:#6B428A;}
	.st17{fill:#9C80B9;}
	.st18{fill:none;stroke:#6B428A;stroke-width:1.1076;stroke-miterlimit:10;}
	.st19{fill:none;stroke:#6B428A;stroke-width:1.1076;stroke-miterlimit:10;stroke-dasharray:1.1101,1.1101;}
	.st20{fill:none;stroke:#6B428A;stroke-miterlimit:10;}
	.st21{fill:none;stroke:#6B428A;stroke-miterlimit:10;stroke-dasharray:1.0095,1.0095;}
	.st22{fill:none;stroke:#F8BD30;stroke-width:12.0543;stroke-miterlimit:10;}
	.st23{display:none;opacity:0.1;fill:url(#SVGID_1_);}
	.st24{fill:none;stroke:#CCCCCC;stroke-width:1.5068;stroke-miterlimit:10;}
	.st25{fill:none;stroke:#CCCCCC;stroke-width:0.7534;stroke-miterlimit:10;}
	.st26{fill:#FFFFFF;stroke:#CCCCCC;stroke-width:1.5068;stroke-miterlimit:10;}
	.st27{opacity:0.2;fill:#BAB9B8;}
	.st28{opacity:0.4;}
	.st29{opacity:0.3;fill:url(#);}
	.st30{fill:none;stroke:#6B428A;stroke-width:7.5525;stroke-miterlimit:10;}
	.st31{opacity:0.9;fill:#9C80B9;}
	.st32{opacity:0.8;}
	.st33{opacity:0.1;fill:url(#SVGID_2_);}
	.st34{fill:none;stroke:#CCCCCC;stroke-width:3.7714;stroke-miterlimit:10;}
	.st35{fill:none;stroke:#BAB9B8;stroke-width:1.6019;stroke-miterlimit:10;}
	.st36{opacity:0.3;fill:#BAB9B8;}
	.st37{fill:#BCBEC0;}
	.st38{fill:#BAB9B8;}
	.st39{fill:none;stroke:#BAB9B8;stroke-width:1.5105;stroke-miterlimit:10;}
	.st40{fill:#FFFFFF;stroke:#BAB9B8;stroke-width:3.021;stroke-miterlimit:10;}
	.st41{fill:none;stroke:#BAB9B8;stroke-width:3.021;stroke-miterlimit:10;}
	.st42{clip-path:url(#SVGID_3_);}
	.st43{fill:#FFFFFF;stroke:#BAB9B8;stroke-width:3.0093;stroke-miterlimit:10;}
	.st44{fill:none;stroke:#BAB9B8;stroke-width:1.3488;stroke-miterlimit:10;}
	.st45{opacity:0.5;fill:#BAB9B8;}
	.st46{clip-path:url(#SVGID_5_);}
	.st47{fill:none;stroke:#BAB9B8;stroke-width:0.3009;stroke-miterlimit:10;}
	.st48{opacity:0.4;fill:#C9C9C9;}
	.st49{fill:#FFFFFF;stroke:#BAB9B8;stroke-width:3.001;stroke-miterlimit:10;}
	.st50{fill:none;stroke:#BAB9B8;stroke-width:0.3001;stroke-miterlimit:10;}
	.st51{fill:#B9B9B8;}
	.st52{fill:none;stroke:#B9B9B7;stroke-width:1.2004;stroke-miterlimit:10;}
	.st53{opacity:0.1;fill:url(#SVGID_7_);}
	.st54{opacity:0.1;fill:#6B428A;}
	.st55{opacity:0.1;fill:url(#SVGID_8_);}
	.st56{fill:#FFFFFF;stroke:#CCCCCC;stroke-width:3.0991;stroke-miterlimit:10;}
	.st57{fill:none;stroke:#CCCCCC;stroke-width:0.8486;stroke-miterlimit:10;}
	.st58{fill:#FFFFFF;stroke:#CCCCCC;stroke-width:4;stroke-miterlimit:10;}
	.st59{fill:#FFFFFF;stroke:#CCCCCC;stroke-width:5;stroke-miterlimit:10;}
	.st60{fill:none;stroke:#CCCCCC;stroke-width:1.6973;stroke-miterlimit:10;}
	.st61{fill:#D93850;}
	.st62{fill:none;stroke:#6B428A;stroke-width:2.2657;stroke-miterlimit:10;}
	.st63{fill:#467697;stroke:#6B428A;stroke-width:2.2399;stroke-miterlimit:10;}
	.st64{fill:none;stroke:#6B428A;stroke-width:0.8194;stroke-miterlimit:10;}
	.st65{fill:none;stroke:#6B428A;stroke-width:0.5784;stroke-miterlimit:10;}
	.st66{fill:none;stroke:#6B428A;stroke-width:3.021;stroke-miterlimit:10;}
	.st67{opacity:0.4;fill:url(#);}
	.st68{fill:none;stroke:#128CAB;stroke-width:7.5525;stroke-miterlimit:10;}
	.st69{opacity:0.9;fill:#62B3CC;}
	.st70{opacity:0.1;fill:url(#SVGID_9_);}
	.st71{clip-path:url(#SVGID_10_);}
	.st72{clip-path:url(#SVGID_12_);}
	.st73{opacity:0.1;fill:url(#SVGID_14_);}
	.st74{opacity:0.1;fill:#128CAB;}
	.st75{opacity:0.1;fill:url(#SVGID_15_);}
	.st76{fill:none;stroke:#128CAB;stroke-width:2.2657;stroke-miterlimit:10;}
	.st77{fill:#467697;stroke:#128CAB;stroke-width:2.2399;stroke-miterlimit:10;}
	.st78{fill:none;stroke:#128CAB;stroke-width:0.8194;stroke-miterlimit:10;}
	.st79{fill:none;stroke:#128CAB;stroke-width:0.5784;stroke-miterlimit:10;}
	.st80{fill:none;stroke:#128CAB;stroke-width:3.021;stroke-miterlimit:10;}
	.st81{opacity:0.5;fill:#CCCCCC;}
	.st82{opacity:0.5;fill:#6B428A;}
	.st83{opacity:0.5;fill:#9C80B9;}
	.st84{fill:none;stroke:#CCCCCC;stroke-width:3.0136;stroke-miterlimit:10;}
	.st85{fill:#FFFFFF;stroke:#BAB9B8;stroke-width:3.0136;stroke-miterlimit:10;}
	.st86{fill:none;stroke:#BAB9B8;stroke-width:0.8252;stroke-miterlimit:10;}
	.st87{fill:#FFFFFF;stroke:#BAB9B8;stroke-width:3.767;stroke-miterlimit:10;}
	.st88{fill:none;stroke:#BAB9B8;stroke-width:1.6505;stroke-miterlimit:10;}
	.st89{fill:#FFFFFF;stroke:#CCCCCC;stroke-width:8;stroke-miterlimit:10;}
	.st90{opacity:0.6;}
	.st91{fill:none;stroke:#F8BD30;stroke-width:12.0543;stroke-linecap:round;stroke-miterlimit:10;}
	.st92{fill:none;stroke:#CCCCCC;stroke-width:4.5203;stroke-miterlimit:10;}
	.st93{fill:#F8BD30;}
	.st94{fill:none;stroke:#F8BD30;stroke-width:12.0543;stroke-linecap:round;stroke-linejoin:round;stroke-miterlimit:10;}
	.st95{fill:none;stroke:#F8BD30;stroke-width:12.1703;stroke-miterlimit:10;}
	.st96{fill:none;stroke:#CCCCCC;stroke-width:1.5213;stroke-miterlimit:10;}
	.st97{fill:none;stroke:#CCCCCC;stroke-width:0.7606;stroke-miterlimit:10;}
	.st98{fill:#FFFFFF;stroke:#CCCCCC;stroke-width:1.5213;stroke-miterlimit:10;}
	.st99{opacity:0.5;fill:#107488;}
	.st100{opacity:0.5;fill:#128CAB;}
	.st101{fill:#107488;}
	.st102{fill:none;stroke:#CCCCCC;stroke-width:3.0426;stroke-miterlimit:10;}
	.st103{fill:#FFFFFF;stroke:#BAB9B8;stroke-width:3.0426;stroke-miterlimit:10;}
	.st104{fill:none;stroke:#BAB9B8;stroke-width:0.8332;stroke-miterlimit:10;}
	.st105{fill:#FFFFFF;stroke:#BAB9B8;stroke-width:3.8032;stroke-miterlimit:10;}
	.st106{fill:none;stroke:#BAB9B8;stroke-width:1.6664;stroke-miterlimit:10;}
	.st107{fill:none;stroke:#F8BD30;stroke-width:12.1703;stroke-linecap:round;stroke-miterlimit:10;}
	.st108{fill:none;stroke:#CCCCCC;stroke-width:4.5639;stroke-miterlimit:10;}
	.st109{fill:none;stroke:#F8BD30;stroke-width:12.1703;stroke-linecap:round;stroke-linejoin:round;stroke-miterlimit:10;}
	.st110{opacity:0.3;}
	.st111{fill:none;stroke:#9C80B9;stroke-width:6.3783;stroke-linecap:round;stroke-miterlimit:10;}
	.st112{fill:none;stroke:#9C80B9;stroke-width:6.3783;stroke-linecap:round;stroke-miterlimit:10;stroke-dasharray:6.3047,25.2187;}
	.st113{fill:none;stroke:#F8BD30;stroke-width:6.4739;stroke-linecap:round;stroke-miterlimit:10;}
	.st114{fill:none;stroke:#F8BD30;stroke-width:6.4739;stroke-linecap:round;stroke-miterlimit:10;stroke-dasharray:6.4958,25.9834;}
	.st115{fill:#414042;}
	.st116{font-family:'OpenSans-Semibold';}
	.st117{font-size:51.7913px;}
	
		.st118{fill:none;stroke:#CCCCCC;stroke-width:10.7899;stroke-linecap:round;stroke-miterlimit:10;stroke-dasharray:6.4739,25.8957;}
	.st119{fill:none;stroke:#E6E7E8;stroke-width:10.7899;stroke-linecap:round;stroke-miterlimit:10;}
	.st120{font-family:'OpenSans';}
	.st121{font-size:34.5275px;}
	.st122{fill:#BBBDBF;}
	.st123{fill:#939598;}
	.st124{font-size:15.5374px;}
	.st125{font-size:25.2483px;}
	.st126{opacity:0.5;fill:#FFFFFF;}
	.st127{fill:#FFFFFF;stroke:#CCCCCC;stroke-width:7.8459;stroke-miterlimit:10;}
	.st128{fill:none;stroke:#CCCCCC;stroke-width:4.7075;stroke-miterlimit:10;}
	.st129{fill:#FFFFFF;stroke:#CCCCCC;stroke-width:4.7075;stroke-miterlimit:10;}
	.st130{fill:#467697;stroke:#CCCCCC;stroke-width:4.2896;stroke-miterlimit:10;}
	.st131{fill:none;stroke:#CCCCCC;stroke-width:1.5692;stroke-miterlimit:10;}
	.st132{fill:none;stroke:#CCCCCC;stroke-width:1.1076;stroke-miterlimit:10;}
	.st133{opacity:0.3;fill:#CCCCCC;}
	
		.st134{fill:none;stroke:#F8BD30;stroke-width:10.7899;stroke-linecap:round;stroke-miterlimit:10;stroke-dasharray:6.4739,25.8957;}
	.st135{fill:none;stroke:#F8BD30;stroke-width:10.7899;stroke-linecap:round;stroke-miterlimit:10;}
	.st136{fill:none;stroke:#CCCCCC;stroke-width:5.9068;stroke-miterlimit:10;}
	.st137{fill:none;stroke:#CCCCCC;stroke-width:2.624;stroke-miterlimit:10;}
	.st138{fill:none;stroke:#CCCCCC;stroke-width:1.654;stroke-miterlimit:10;}
	.st139{fill:#FFFFFF;stroke:#CCCCCC;stroke-width:8.8602;stroke-miterlimit:10;}
	.st140{fill:none;stroke:#CCCCCC;stroke-width:2.9534;stroke-linecap:round;stroke-linejoin:round;stroke-miterlimit:10;}
	.st141{fill:#FFFFFF;stroke:#CCCCCC;stroke-width:2.9534;stroke-linecap:round;stroke-linejoin:round;stroke-miterlimit:10;}
	.st142{fill:#FFFFFF;stroke:#CCCCCC;stroke-width:5.9068;stroke-linecap:round;stroke-linejoin:round;stroke-miterlimit:10;}
	.st143{fill:none;stroke:#CCCCCC;stroke-width:5.9421;stroke-miterlimit:10;}
	.st144{fill:none;stroke:#CCCCCC;stroke-width:2;stroke-miterlimit:10;}
	.st145{fill:#FFFFFF;stroke:#CCCCCC;stroke-width:2;stroke-miterlimit:10;}
	.st146{fill:none;stroke:#6B428A;stroke-miterlimit:10;stroke-dasharray:1.0138,1.0138;}
	.st147{fill:#D1D3D4;}
	.st148{fill:#E6E7E8;}
	.st149{fill:none;stroke:#9C80B9;stroke-width:2;stroke-miterlimit:10;}
	.st150{fill:none;stroke:#D1D3D4;stroke-miterlimit:10;}
	.st151{fill:none;stroke:#D1D3D4;stroke-miterlimit:10;stroke-dasharray:1.0095,1.0095;}
	.st152{fill:none;stroke:#D1D3D4;stroke-miterlimit:10;stroke-dasharray:1.0138,1.0138;}
	.st153{fill:none;stroke:#6B428A;stroke-miterlimit:10;stroke-dasharray:1.0006,1.0006;}
	.st154{fill:none;stroke:#6B428A;stroke-miterlimit:10;stroke-dasharray:1.0045,1.0045;}
	.st155{fill:none;stroke:#D1D3D4;stroke-miterlimit:10;stroke-dasharray:1.0025,1.0025;}
	.st156{fill:none;stroke:#D1D3D4;stroke-miterlimit:10;stroke-dasharray:1.017,1.017;}
	.st157{fill:none;stroke:#D1D3D4;stroke-width:1.1076;stroke-miterlimit:10;}
	.st158{fill:none;stroke:#D1D3D4;stroke-width:1.1076;stroke-miterlimit:10;stroke-dasharray:1.1101,1.1101;}
	.st159{fill:none;stroke:#128CAB;stroke-width:2;stroke-miterlimit:10;}
	.st160{fill:#FFFFFF;stroke:#CCCCCC;stroke-width:2.4962;stroke-miterlimit:10;}
	.st161{fill:none;stroke:#CCCCCC;stroke-width:0.6836;stroke-miterlimit:10;}
	.st162{fill:#FFFFFF;stroke:#CCCCCC;stroke-width:3;stroke-miterlimit:10;}
	.st163{fill:none;stroke:#CCCCCC;stroke-width:1.3671;stroke-miterlimit:10;}
	.st164{fill:none;stroke:#CCCCCC;stroke-width:1.1197;stroke-miterlimit:10;}
	.st165{fill:#E6E6E5;}
	.st166{fill:none;stroke:#CCCCCC;stroke-width:1.6109;stroke-miterlimit:10;}
</style>
<symbol  id="New_Symbol_2_2_" viewBox="-7.1 -36 14.2 72">
	<path class="st0" d="M-6.1-31.5c0,3.4,0,62.8,0,63.3c0.4,2.3,3.8,3.2,5.9,3.2c2.1,0,5.6-0.8,6.2-3l0.1-0.5v-63c0-0.2,0-0.3-0.1-0.5
		c-0.2-0.9-1-1.6-1.9-2.1C3-34.7,1.6-35,0.2-35h0l0,0l0,0c0,0-0.1,0-0.1,0c-1.3,0-2.7,0.3-3.8,0.8c-1,0.5-1.9,1.1-2.2,2.1l0,0l0,0
		C-6.1-31.9-6.1-31.7-6.1-31.5z"/>
	<path class="st1" d="M0,28.8V-35c0,0,5.4-1,6.1,3.5s0,63,0,63S3.9,27.9,0,28.8z"/>
	<g>
		<path class="st2" d="M0,28.3c-0.9,0-2.7,0.1-4.1,1c-0.6,0.3-1.6,1.1-1.6,2.2c0,1.1,1,1.8,1.6,2.2c1.5,0.9,3.2,1,4.2,1
			c0.9,0,2.7-0.1,4.2-1c0.6-0.3,1.6-1.1,1.6-2.2c0-1.1-1-1.8-1.6-2.2C2.7,28.4,0.9,28.3,0,28.3z"/>
		<path class="st3" d="M0,34.2c1.3,0,2.8-0.3,3.9-0.9c0.6-0.4,1.4-1,1.4-1.8c0-0.8-0.8-1.4-1.4-1.8c-1.1-0.7-2.6-0.9-3.9-0.9
			c-1.3,0-2.8,0.3-3.9,0.9c-0.6,0.4-1.4,1-1.4,1.8c0,0.8,0.7,1.4,1.4,1.8C-2.8,33.9-1.3,34.2,0,34.2 M0,35.2c-1,0-2.8-0.1-4.4-1.1
			c-1.2-0.7-1.9-1.6-1.9-2.6c0-1,0.7-1.9,1.9-2.6c1.6-0.9,3.4-1.1,4.4-1.1c1,0,2.8,0.1,4.4,1.1c1.2,0.7,1.9,1.6,1.9,2.6
			c0,1.4-1.2,2.2-1.9,2.6C2.8,35,1,35.2,0,35.2L0,35.2z"/>
	</g>
	<path class="st4" d="M-6.1-31.5c0,3.4,0,62.8,0,63.3c0.4,2.3,3.8,3.2,5.9,3.2c2.1,0,5.6-0.8,6.2-3l0.1-0.5v-63c0-0.2,0-0.3-0.1-0.5
		c-0.2-0.9-1-1.6-1.9-2.1C3-34.7,1.6-35,0.2-35h0l0,0l0,0c0,0-0.1,0-0.1,0c-1.3,0-2.7,0.3-3.8,0.8c-1,0.5-1.9,1.1-2.2,2.1l0,0l0,0
		C-6.1-31.9-6.1-31.7-6.1-31.5z"/>
</symbol>
<symbol  id="New_Symbol_3_1_" viewBox="-22.3 -17.6 44.6 35.3">
	<polygon class="st5" points="-5.8,16.5 21.3,1.6 21.3,-8.4 6,-16.5 -21.3,-1 -21.3,8.4 	"/>
	<polygon class="st6" points="6,-16.5 21.3,-8.4 21.3,1.6 6,-6.8 	"/>
	<polyline class="st7" points="-21.3,8.4 6,-6.8 21.3,1.6 	"/>
	<line class="st8" x1="6" y1="-16.5" x2="6" y2="-6.8"/>
	<polygon class="st9" points="-5.8,16.5 21.3,1.6 21.3,-8.4 6,-16.5 -21.3,-1 -21.3,8.4 	"/>
</symbol>
<symbol  id="New_Symbol_4_1_" viewBox="-45.2 -45.3 90.5 90.6">
	<polygon class="st5" points="-44.2,-17.1 -44.1,17.5 1.8,44.2 44.2,18.7 44.2,-17.4 0.6,-44.1 	"/>
	<polygon class="st6" points="44.2,-17.4 0.7,-44.1 0.7,-8.4 44.2,18.4 	"/>
	<polyline class="st8" points="44.2,18.7 0.6,-8.9 -44.2,17.6 	"/>
	<line class="st8" x1="0.7" y1="-44.4" x2="0.7" y2="-8.4"/>
	<g>
		<polygon class="st10" points="23.9,-3 21.3,-4.6 21.3,-11.1 23.9,-9.5 		"/>
		<polygon class="st10" points="26.9,-1.2 24.3,-2.8 24.3,-9.3 26.9,-7.7 		"/>
	</g>
	<g>
		<polygon class="st10" points="33.2,-3.8 35.8,-2.2 35.8,4.2 33.2,2.6 		"/>
		<polygon class="st10" points="36.1,4.4 36.1,-2 38.8,-0.4 38.8,6 		"/>
	</g>
	<polygon class="st6" points="-35.4,-15.4 -33,-16.8 -33,4.9 -35.4,6.3 	"/>
	<polygon class="st6" points="-20.3,-2.4 -22.7,-1 -22.7,-22.7 -20.3,-24.1 	"/>
	<polygon class="st6" points="-31.1,-17.8 -28.8,-19.2 -28.8,2.5 -31.1,3.9 	"/>
	<polygon class="st6" points="-26.9,-20.3 -24.6,-21.6 -24.6,0.1 -26.9,1.4 	"/>
	<polygon class="st6" points="-18.4,-25.7 -16,-27.1 -16,-5.4 -18.4,-4 	"/>
	<polygon class="st6" points="-14.1,-28.2 -11.8,-29.5 -11.8,-7.8 -14.1,-6.4 	"/>
	<polygon class="st6" points="-9.9,-30.6 -7.5,-31.9 -7.5,-10.2 -9.9,-8.9 	"/>
	<g>
		<polygon class="st10" points="12.1,-9.5 9.5,-11.1 9.5,-17.5 12.1,-15.9 		"/>
		<polygon class="st10" points="15.1,-7.6 12.5,-9.2 12.5,-15.7 15.1,-14.1 		"/>
	</g>
	<g>
		<polygon class="st10" points="24.1,-16.7 21.4,-18.3 21.4,-24.8 24.1,-23.2 		"/>
		<polygon class="st10" points="27,-14.9 24.4,-16.5 24.4,-23 27,-21.4 		"/>
	</g>
	<g>
		<polygon class="st10" points="33.3,-17.5 35.9,-15.9 35.9,-9.5 33.3,-11.1 		"/>
		<polygon class="st10" points="36.3,-9.3 36.3,-15.7 38.9,-14.1 38.9,-7.7 		"/>
	</g>
	<g>
		<polygon class="st10" points="12.3,-23.2 9.6,-24.7 9.6,-31.2 12.3,-29.6 		"/>
		<polygon class="st10" points="15.2,-21.3 12.6,-22.9 12.6,-29.4 15.2,-27.8 		"/>
	</g>
	<polygon class="st9" points="-44.2,-17.1 -44.1,17.5 1.8,44.2 44.2,18.7 44.2,-17.4 0.6,-44.1 	"/>
</symbol>
<pattern  x="617.1" y="-670.8" width="26.8" height="16.1" patternUnits="userSpaceOnUse" id="New_Pattern_3" viewBox="27 -32.4 26.8 16.1" style="overflow:visible;">
	<g>
		<polygon class="st11" points="27,-32.4 53.8,-32.4 53.8,-16.3 27,-16.3 		"/>
		<path class="st12" d="M67.3,0L67.3,0L53.6-8.4l0.1-0.1l13.5-7.9l0.1,0l13.5,8l-0.1,0.1L67.3,0z M54-8.4l13.3,8.2l13.2-8.2
			l-13.2-7.8L54-8.4z"/>
		<path class="st12" d="M40.5,0L40.5,0L26.8-8.4L27-8.5l13.5-7.9l0.1,0l13.5,8l-0.1,0.1L40.5,0z M27.2-8.4l13.3,8.2l13.2-8.2
			l-13.2-7.8L27.2-8.4z"/>
		<path class="st12" d="M13.7,0L13.7,0L0-8.4l0.1-0.1l13.5-7.9l0.1,0l13.5,8l-0.1,0.1L13.7,0z M0.4-8.4l13.3,8.2l13.2-8.2l-13.2-7.8
			L0.4-8.4z"/>
		<path class="st12" d="M67.3-16.1L67.3-16.1l-13.7-8.4l0.1-0.1l13.5-7.9l0.1,0l13.5,8l-0.1,0.1L67.3-16.1z M54-24.6l13.3,8.2
			l13.2-8.2l-13.2-7.8L54-24.6z"/>
		<path class="st12" d="M40.5-16.1L40.5-16.1l-13.7-8.4l0.1-0.1l13.5-7.9l0.1,0l13.5,8l-0.1,0.1L40.5-16.1z M27.2-24.6l13.3,8.2
			l13.2-8.2l-13.2-7.8L27.2-24.6z"/>
		<path class="st12" d="M13.7-16.1L13.7-16.1L0-24.6l0.1-0.1l13.5-7.9l0.1,0l13.5,8l-0.1,0.1L13.7-16.1z M0.4-24.6l13.3,8.2
			l13.2-8.2l-13.2-7.8L0.4-24.6z"/>
		<path class="st12" d="M67.3-32.3L67.3-32.3l-13.7-8.4l0.1-0.1l13.5-7.9l0.1,0l13.5,8l-0.1,0.1L67.3-32.3z M54-40.7l13.3,8.2
			l13.2-8.2l-13.2-7.8L54-40.7z"/>
		<path class="st12" d="M40.5-32.3L40.5-32.3l-13.7-8.4l0.1-0.1l13.5-7.9l0.1,0l13.5,8l-0.1,0.1L40.5-32.3z M27.2-40.7l13.3,8.2
			l13.2-8.2l-13.2-7.8L27.2-40.7z"/>
		<path class="st12" d="M13.7-32.3L13.7-32.3L0-40.7l0.1-0.1l13.5-7.9l0.1,0l13.5,8l-0.1,0.1L13.7-32.3z M0.4-40.7l13.3,8.2
			l13.2-8.2l-13.2-7.8L0.4-40.7z"/>
	</g>
</pattern>
<pattern  id="SVGID_1_" xlink:href="#New_Pattern_3" patternTransform="matrix(1.0069 0 0 1 30.6133 0)">
</pattern>
<rect x="681.2" y="-23.8" class="st23" width="1100.9" height="641"/>
<g id="New_Symbol_8">
	<g id="New_Symbol_4">
	</g>
	<g id="New_Symbol_3">
	</g>
	<g id="New_Symbol_2">
	</g>
	<g id="New_Symbol_2_1_">
	</g>
</g>
<g class="st110">
	<g>
		<line class="st111" x1="560.3" y1="240.6" x2="560.3" y2="243.8"/>
		<line class="st112" x1="560.3" y1="269" x2="560.3" y2="1139"/>
		<line class="st111" x1="560.3" y1="1151.6" x2="560.3" y2="1154.8"/>
	</g>
</g>
<g class="st110">
	<g>
		<line class="st113" x1="1174.2" y1="240.6" x2="1174.2" y2="243.8"/>
		<line class="st114" x1="1174.2" y1="269.8" x2="1174.2" y2="1166.2"/>
		<line class="st113" x1="1174.2" y1="1179.2" x2="1174.2" y2="1182.5"/>
	</g>
</g>
<rect x="306.7" y="98.9" class="st11" width="489" height="58.8"/>
<text transform="matrix(1.0138 0 0 1 459.4598 138.2825)" class="st115 st116 st117">Phone</text>
<rect x="934" y="86.3" class="st11" width="489" height="47.8"/>
<text transform="matrix(1.0138 0 0 1 1088.976 125.6632)" class="st115 st116 st117">Device</text>
<g>
	<g>
		<path class="st17" d="M472.5,197.3c-0.3,0.2-0.6,0.3-0.9,0.5c-2.5,1.5-4.9,3.1-7.4,4.6c-0.9,0.6-0.8,0.5-1.6,0
			c-5-3-10.6-5.6-16.8-7.8c-5.5-1.9-11.2-3.3-17.2-4.4c-3.4-0.6-6.8-1-10.3-1.3c-1.8-0.2-3.7-0.2-5.6-0.3c-2.2-0.1-4.4-0.2-6.6-0.1
			c-2.6,0.1-5.3,0.2-7.9,0.4c-4.6,0.3-9.1,0.9-13.5,1.8c-9.2,1.8-17.7,4.5-25.2,8.2c-2.2,1.1-4.3,2.3-6.4,3.5
			c-0.9,0.5-0.7,0.6-1.7,0c-2.5-1.5-4.9-3.1-7.4-4.6c-0.3-0.2-0.6-0.3-0.9-0.5c0-0.1,0-0.2,0-0.3c0.3-0.2,0.7-0.4,1-0.6
			c5.4-3.3,11.4-6.1,17.9-8.4c6.2-2.2,12.8-4,19.7-5.3c6.5-1.2,13.2-2,20-2.2c0.2,0,0.4-0.1,0.6-0.1c3.6,0,7.2,0,10.8,0
			c0.1,0,0.3,0.1,0.4,0.1c1.7,0.1,3.4,0.2,5.1,0.3c2.5,0.2,5,0.4,7.5,0.7c4.2,0.5,8.3,1.2,12.3,2.1c6.6,1.5,12.9,3.4,18.8,5.8
			c3.4,1.4,6.7,2.9,9.7,4.5c1.8,1,3.6,2,5.3,3C472.5,197.1,472.5,197.2,472.5,197.3z"/>
		<path class="st17" d="M406.2,243.7c-1.2-0.3-2.4-0.5-3.4-0.9c-2.9-1-4.6-2.6-5-4.6c-0.5-2.5,0.9-4.6,4.2-6.1
			c3.5-1.7,8.9-1.6,12.4,0.1c2,1,3.3,2.2,3.8,3.7c0.8,2.5-0.3,4.6-3.2,6.3c-1.3,0.7-2.8,1.2-4.5,1.5c-0.2,0-0.3,0.1-0.5,0.1
			C408.6,243.7,407.4,243.7,406.2,243.7z"/>
		<path class="st17" d="M454.4,208.4c-0.1,0.1-0.2,0.2-0.4,0.3c-2.7,1.7-5.5,3.4-8.2,5.1c-0.5,0.3-0.5,0.3-1.1,0
			c-1.5-0.8-3-1.7-4.5-2.4c-4.9-2.4-10.3-4.1-16.1-5.3c-3.4-0.7-6.8-1.2-10.4-1.3c-1.7-0.1-3.4-0.2-5-0.2c-2.1,0-4.1,0.1-6.2,0.2
			c-3.3,0.2-6.6,0.6-9.8,1.2c-7.1,1.3-13.4,3.5-19,6.5c-0.9,0.5-1.7,1-2.5,1.4c-0.5,0.3-0.6,0.3-1.1,0c-2.7-1.7-5.5-3.4-8.2-5.1
			c-0.4-0.2-0.3-0.4,0-0.6c2.3-1.4,4.7-2.7,7.3-3.9c5.8-2.6,12.1-4.6,18.9-6c3.7-0.7,7.5-1.3,11.4-1.6c3.3-0.3,6.6-0.4,10-0.4
			c5.8,0.1,11.4,0.6,16.9,1.6c9.2,1.7,17.4,4.5,24.7,8.4c1,0.6,2,1.1,3,1.7C454.1,208.2,454.2,208.3,454.4,208.4z"/>
		<path class="st17" d="M407.9,212.3c6,0.1,11.8,0.9,17.2,2.5c4,1.2,7.4,2.7,10.6,4.6c0.5,0.3,0.5,0.3,0,0.6
			c-2.7,1.7-5.5,3.4-8.2,5.1c-0.4,0.2-0.6,0.2-1,0c-0.9-0.5-1.8-1-2.7-1.4c-3.1-1.5-6.6-2.5-10.5-3c-3.4-0.4-6.7-0.5-10.1-0.1
			c-4.6,0.5-8.7,1.7-12.4,3.5c-0.5,0.2-1,0.5-1.4,0.8c-0.8,0.5-0.7,0.5-1.5,0c-2-1.2-4-2.5-5.9-3.7c-0.7-0.4-1.3-0.8-2-1.2
			c-0.5-0.3-0.5-0.4,0-0.7c2.7-1.6,5.6-2.9,8.8-4c4.1-1.3,8.4-2.3,13-2.7C403.9,212.5,405.9,212.4,407.9,212.3z"/>
	</g>
</g>
<g>
	<path class="st93" d="M1333.5,203.3c2.6,6.4-3.8,12.9-14.3,14.5c-10.5,1.6-21-2.3-23.6-8.8c-2.6-6.4,3.8-12.9,14.3-14.5
		C1320.4,192.9,1331,196.8,1333.5,203.3z"/>
	<g>
		<path class="st93" d="M1324.3,167.4l-0.7-0.4c-0.1-0.1-0.2-0.1-0.3-0.2c-0.1-0.1-0.2-0.2-0.3-0.2l-0.7-0.4
			c-0.1-0.1-0.2-0.1-0.3-0.2c-0.1-0.1-0.2-0.2-0.3-0.2l-0.7-0.4c-0.1-0.1-0.2-0.1-0.3-0.2c-0.1-0.1-0.2-0.2-0.3-0.2l-0.7-0.4
			c-0.1-0.1-0.2-0.1-0.3-0.2c-0.1-0.1-0.2-0.2-0.3-0.2l-0.7-0.4c-0.1-0.1-0.2-0.1-0.3-0.2c-0.1-0.1-0.2-0.2-0.3-0.2l-0.7-0.4
			c-0.1-0.1-0.2-0.1-0.3-0.2c-0.1-0.1-0.2-0.2-0.3-0.2l-0.7-0.4c-0.1-0.1-0.2-0.1-0.3-0.2c-0.1-0.1-0.2-0.2-0.3-0.2l-0.6-0.4
			l-0.1-0.1c-1-0.7-2.4-0.6-3.4,0.1c-0.1,0-0.2,0.1-0.2,0.1l-0.7,0.4c-0.1,0.1-0.2,0.1-0.3,0.2c-0.1,0.1-0.2,0.1-0.3,0.2l-0.7,0.4
			c-0.1,0.1-0.2,0.1-0.3,0.2c-0.1,0.1-0.2,0.1-0.3,0.2l-0.7,0.4c-0.1,0.1-0.2,0.1-0.3,0.2c-0.1,0.1-0.2,0.1-0.3,0.2l-0.7,0.4
			c-0.1,0.1-0.2,0.1-0.3,0.2c-0.1,0.1-0.2,0.1-0.3,0.2l-0.7,0.4c-0.1,0.1-0.2,0.1-0.3,0.2c-0.1,0.1-0.2,0.1-0.3,0.2l-0.7,0.4
			c-0.1,0.1-0.2,0.1-0.3,0.2c-0.1,0.1-0.2,0.1-0.3,0.2l-0.7,0.4c-0.1,0.1-0.2,0.1-0.3,0.2c-0.1,0.1-0.2,0.1-0.3,0.2l-0.7,0.4
			c-0.7,0.4-1.2,1.1-1.3,1.8c-0.2,0.8-0.1,1.6,0.3,2.2c0.5,0.9,1.5,1.4,2.5,1.4c0.5,0,1.1-0.1,1.5-0.4l0.7-0.4
			c0.1-0.1,0.2-0.1,0.3-0.2c0.1-0.1,0.2-0.1,0.3-0.2l0.7-0.4c0.1-0.1,0.2-0.1,0.3-0.2c0.1-0.1,0.2-0.1,0.3-0.2l0.7-0.4
			c0.1-0.1,0.2-0.1,0.3-0.2c0.1-0.1,0.2-0.1,0.3-0.2l0.7-0.4c0.1-0.1,0.2-0.1,0.3-0.2c0.1-0.1,0.2-0.1,0.3-0.2l0.5-0.3v0.1
			c0,0.1,0,0.3,0,0.4c0,0.1,0,0.3,0,0.4v0.8c0,0.1,0,0.3,0,0.4c0,0.1,0,0.3,0,0.4v0.8c0,0.1,0,0.3,0,0.4c0,0.1,0,0.3,0,0.4v0.8
			c0,0.1,0,0.3,0,0.4c0,0.1,0,0.3,0,0.4v0.8c0,0.1,0,0.3,0,0.4c0,0.1,0,0.3,0,0.4v0.8c0,0.1,0,0.3,0,0.4c0,0.1,0,0.3,0,0.4v0.8
			c0,0.1,0,0.3,0,0.4c0,0.1,0,0.3,0,0.4v0.8c0,0.1,0,0.3,0,0.4c0,0.1,0,0.3,0,0.4v0.8c0,0.1,0,0.3,0,0.4c0,0.1,0,0.3,0,0.4v0.8
			c0,0.1,0,0.3,0,0.4c0,0.1,0,0.3,0,0.4v0.7c0,1.6,1.3,3,3,3c1.6,0,3-1.3,3-3v-0.7c0-0.1,0-0.3,0-0.4c0-0.1,0-0.3,0-0.4v-0.8
			c0-0.1,0-0.3,0-0.4c0-0.1,0-0.3,0-0.4v-0.8c0-0.1,0-0.3,0-0.4c0-0.1,0-0.3,0-0.4v-0.8c0-0.1,0-0.3,0-0.4c0-0.1,0-0.3,0-0.4v-0.8
			c0-0.1,0-0.3,0-0.4c0-0.1,0-0.3,0-0.4v-0.8c0-0.1,0-0.3,0-0.4c0-0.1,0-0.3,0-0.4v-0.8c0-0.1,0-0.3,0-0.4c0-0.1,0-0.3,0-0.4v-0.8
			c0-0.1,0-0.3,0-0.4c0-0.1,0-0.3,0-0.4v-0.8c0-0.1,0-0.3,0-0.4c0-0.1,0-0.3,0-0.4v-0.8c0-0.1,0-0.3,0-0.4c0-0.1,0-0.3,0-0.4v-0.1
			l0.3,0.2c0.1,0.1,0.2,0.1,0.3,0.2c0.1,0.1,0.2,0.1,0.3,0.2l0.7,0.4c0.1,0.1,0.2,0.1,0.3,0.2c0.1,0.1,0.2,0.2,0.3,0.2l0.7,0.4
			c0.1,0.1,0.2,0.1,0.3,0.2c0.1,0.1,0.2,0.1,0.3,0.2l0.7,0.4c0.1,0.1,0.2,0.1,0.3,0.2c0.1,0.1,0.2,0.2,0.3,0.2l0.7,0.4
			c0.5,0.3,1,0.4,1.5,0.4c1,0,2-0.6,2.6-1.5C1326.1,170,1325.7,168.2,1324.3,167.4z"/>
		<path class="st93" d="M1277.5,203.2h-22.4l6.9-4c1.2-0.7,1.7-2.3,0.9-3.5c-0.7-1.2-2.3-1.7-3.5-1l-14.7,8.5
			c-0.8,0.4-1.3,1.3-1.3,2.1c0,0.9,0.4,1.7,1.1,2.2l14.7,10c0.4,0.3,1,0.4,1.5,0.4c0.8,0,1.6-0.4,2.1-1.1c0.8-1.2,0.5-2.8-0.7-3.6
			l-7.1-4.9h22.4c1.4,0,2.6-1.2,2.6-2.6S1278.9,203.2,1277.5,203.2z"/>
		<path class="st93" d="M1290.4,187.1c-0.2-0.8-0.7-1.5-1.4-1.9l-11.4-6.6l4.2-0.5c1.7,0,3-1.4,3-3c0-1-0.4-1.8-1.2-2.2
			c-0.6-0.3-1.3-0.4-1.9-0.4c-15.9,0.7-15.9,0.7-16.3,0.9c-0.1,0-0.2,0.1-0.3,0.2c0,0,0,0-0.1,0c-0.1,0.1-0.2,0.2-0.3,0.3
			c-0.1,0.1-0.2,0.3-0.3,0.4c0,0,0,0.1-0.1,0.1c-0.1,0.1-0.1,0.3-0.2,0.3c0,0.1-0.1,0.2-0.1,0.2c-0.1,0.2-0.1,0.4-0.1,0.6
			c0,0.2,0,0.2,0.9,10.6c0.1,1.7,1.4,2.9,2.9,2.9c0.1,0,0.2,0,0.2,0c1.7-0.1,2.9-1.6,2.8-3.3l-0.3-4l15.2,8.9c0.5,0.3,1,0.4,1.6,0.4
			c1.1,0,2.1-0.6,2.6-1.5C1290.5,188.7,1290.6,187.9,1290.4,187.1z"/>
		<path class="st93" d="M1347.7,204.3h22.4l-6.9-4c-1.2-0.7-1.7-2.3-1-3.5c0.7-1.2,2.3-1.7,3.5-1l14.7,8.5c0.8,0.4,1.3,1.3,1.3,2.1
			c0,0.9-0.4,1.7-1.1,2.2l-14.7,10c-0.4,0.3-1,0.4-1.5,0.4c-0.8,0-1.6-0.4-2.1-1.1c-0.8-1.2-0.5-2.8,0.7-3.6l7.1-4.9h-22.4
			c-1.4,0-2.6-1.2-2.6-2.6C1345.1,205.4,1346.3,204.3,1347.7,204.3z"/>
		<path class="st93" d="M1334.8,188.2c0.2-0.8,0.7-1.5,1.4-1.9l11.4-6.6l-4.2-0.5c-1.7,0-3-1.4-3-3c0-1,0.4-1.8,1.2-2.2
			c0.6-0.3,1.3-0.4,1.9-0.4c15.9,0.7,15.9,0.7,16.3,0.9c0.1,0,0.2,0.1,0.3,0.2c0,0,0,0,0.1,0c0.1,0.1,0.2,0.2,0.3,0.3
			c0.1,0.1,0.2,0.3,0.3,0.4c0,0,0,0.1,0.1,0.1c0.1,0.1,0.1,0.3,0.2,0.3c0,0.1,0.1,0.2,0.1,0.2c0.1,0.2,0.1,0.4,0.1,0.6
			c0,0.2,0,0.2-0.9,10.6c-0.1,1.7-1.4,2.9-2.9,2.9c-0.1,0-0.2,0-0.2,0c-1.7-0.1-2.9-1.6-2.8-3.3l0.3-4l-15.2,8.9
			c-0.5,0.3-1,0.4-1.6,0.4c-1.1,0-2.1-0.6-2.6-1.5C1334.7,189.8,1334.6,189,1334.8,188.2z"/>
	</g>
	<g>
		<path class="st93" d="M1300.9,245.9l0.7,0.4c0.1,0.1,0.2,0.1,0.3,0.2c0.1,0.1,0.2,0.2,0.3,0.2l0.7,0.4c0.1,0.1,0.2,0.1,0.3,0.2
			c0.1,0.1,0.2,0.2,0.3,0.2l0.7,0.4c0.1,0.1,0.2,0.1,0.3,0.2c0.1,0.1,0.2,0.2,0.3,0.2l0.7,0.4c0.1,0.1,0.2,0.1,0.3,0.2
			c0.1,0.1,0.2,0.2,0.3,0.2l0.7,0.4c0.1,0.1,0.2,0.1,0.3,0.2c0.1,0.1,0.2,0.2,0.3,0.2l0.7,0.4c0.1,0.1,0.2,0.1,0.3,0.2
			c0.1,0.1,0.2,0.2,0.3,0.2l0.7,0.4c0.1,0.1,0.2,0.1,0.3,0.2c0.1,0.1,0.2,0.2,0.3,0.2l0.6,0.4l0.1,0.1c1,0.7,2.4,0.6,3.4-0.1
			c0.1,0,0.2-0.1,0.2-0.1l0.7-0.4c0.1-0.1,0.2-0.1,0.3-0.2c0.1-0.1,0.2-0.1,0.3-0.2l0.7-0.4c0.1-0.1,0.2-0.1,0.3-0.2
			c0.1-0.1,0.2-0.1,0.3-0.2l0.7-0.4c0.1-0.1,0.2-0.1,0.3-0.2c0.1-0.1,0.2-0.1,0.3-0.2l0.7-0.4c0.1-0.1,0.2-0.1,0.3-0.2
			c0.1-0.1,0.2-0.1,0.3-0.2l0.7-0.4c0.1-0.1,0.2-0.1,0.3-0.2c0.1-0.1,0.2-0.1,0.3-0.2l0.7-0.4c0.1-0.1,0.2-0.1,0.3-0.2
			c0.1-0.1,0.2-0.1,0.3-0.2l0.7-0.4c0.1-0.1,0.2-0.1,0.3-0.2c0.1-0.1,0.2-0.1,0.3-0.2l0.7-0.4c0.7-0.4,1.2-1.1,1.3-1.8
			c0.2-0.8,0.1-1.6-0.3-2.2c-0.5-0.9-1.5-1.4-2.5-1.4c-0.5,0-1.1,0.1-1.5,0.4l-0.7,0.4c-0.1,0.1-0.2,0.1-0.3,0.2
			c-0.1,0.1-0.2,0.1-0.3,0.2l-0.7,0.4c-0.1,0.1-0.2,0.1-0.3,0.2c-0.1,0.1-0.2,0.1-0.3,0.2l-0.7,0.4c-0.1,0.1-0.2,0.1-0.3,0.2
			c-0.1,0.1-0.2,0.1-0.3,0.2l-0.7,0.4c-0.1,0.1-0.2,0.1-0.3,0.2c-0.1,0.1-0.2,0.1-0.3,0.2l-0.5,0.3V244c0-0.1,0-0.3,0-0.4
			c0-0.1,0-0.3,0-0.4v-0.8c0-0.1,0-0.3,0-0.4c0-0.1,0-0.3,0-0.4V241c0-0.1,0-0.3,0-0.4c0-0.1,0-0.3,0-0.4v-0.8c0-0.1,0-0.3,0-0.4
			c0-0.1,0-0.3,0-0.4v-0.8c0-0.1,0-0.3,0-0.4c0-0.1,0-0.3,0-0.4v-0.8c0-0.1,0-0.3,0-0.4c0-0.1,0-0.3,0-0.4v-0.8c0-0.1,0-0.3,0-0.4
			c0-0.1,0-0.3,0-0.4v-0.8c0-0.1,0-0.3,0-0.4c0-0.1,0-0.3,0-0.4v-0.8c0-0.1,0-0.3,0-0.4c0-0.1,0-0.3,0-0.4v-0.8c0-0.1,0-0.3,0-0.4
			c0-0.1,0-0.3,0-0.4v-0.7c0-1.6-1.3-3-3-3c-1.6,0-3,1.3-3,3v0.7c0,0.1,0,0.3,0,0.4c0,0.1,0,0.3,0,0.4v0.8c0,0.1,0,0.3,0,0.4
			c0,0.1,0,0.3,0,0.4v0.8c0,0.1,0,0.3,0,0.4c0,0.1,0,0.3,0,0.4v0.8c0,0.1,0,0.3,0,0.4c0,0.1,0,0.3,0,0.4v0.8c0,0.1,0,0.3,0,0.4
			c0,0.1,0,0.3,0,0.4v0.8c0,0.1,0,0.3,0,0.4c0,0.1,0,0.3,0,0.4v0.8c0,0.1,0,0.3,0,0.4c0,0.1,0,0.3,0,0.4v0.8c0,0.1,0,0.3,0,0.4
			c0,0.1,0,0.3,0,0.4v0.8c0,0.1,0,0.3,0,0.4c0,0.1,0,0.3,0,0.4v0.8c0,0.1,0,0.3,0,0.4c0,0.1,0,0.3,0,0.4v0.1l-0.3-0.2
			c-0.1-0.1-0.2-0.1-0.3-0.2c-0.1-0.1-0.2-0.1-0.3-0.2l-0.7-0.4c-0.1-0.1-0.2-0.1-0.3-0.2c-0.1-0.1-0.2-0.2-0.3-0.2l-0.7-0.4
			c-0.1-0.1-0.2-0.1-0.3-0.2c-0.1-0.1-0.2-0.1-0.3-0.2l-0.7-0.4c-0.1-0.1-0.2-0.1-0.3-0.2c-0.1-0.1-0.2-0.2-0.3-0.2l-0.7-0.4
			c-0.5-0.3-1-0.4-1.5-0.4c-1,0-2,0.6-2.6,1.5C1299.1,243.3,1299.5,245.1,1300.9,245.9z"/>
		<path class="st93" d="M1334.8,226.2c0.2,0.8,0.7,1.5,1.4,1.9l11.4,6.6l-4.2,0.5c-1.7,0-3,1.4-3,3c0,1,0.4,1.8,1.2,2.2
			c0.6,0.3,1.3,0.4,1.9,0.4c15.9-0.7,15.9-0.7,16.3-0.9c0.1,0,0.2-0.1,0.3-0.2c0,0,0,0,0.1,0c0.1-0.1,0.2-0.2,0.3-0.3
			c0.1-0.1,0.2-0.3,0.3-0.4c0,0,0-0.1,0.1-0.1c0.1-0.1,0.1-0.3,0.2-0.3c0-0.1,0.1-0.2,0.1-0.2c0.1-0.2,0.1-0.4,0.1-0.6
			c0-0.2,0-0.2-0.9-10.6c-0.1-1.7-1.4-2.9-2.9-2.9c-0.1,0-0.2,0-0.2,0c-1.7,0.1-2.9,1.6-2.8,3.3l0.3,4l-15.2-8.9
			c-0.5-0.3-1-0.4-1.6-0.4c-1.1,0-2.1,0.6-2.6,1.5C1334.7,224.6,1334.6,225.4,1334.8,226.2z"/>
		<path class="st93" d="M1290.4,225.1c-0.2,0.8-0.7,1.5-1.4,1.9l-11.4,6.6l4.2,0.5c1.7,0,3,1.4,3,3c0,1-0.4,1.8-1.2,2.2
			c-0.6,0.3-1.3,0.4-1.9,0.4c-15.9-0.7-15.9-0.7-16.3-0.9c-0.1,0-0.2-0.1-0.3-0.2c0,0,0,0-0.1,0c-0.1-0.1-0.2-0.2-0.3-0.3
			c-0.1-0.1-0.2-0.3-0.3-0.4c0,0,0-0.1-0.1-0.1c-0.1-0.1-0.1-0.3-0.2-0.3c0-0.1-0.1-0.2-0.1-0.2c-0.1-0.2-0.1-0.4-0.1-0.6
			c0-0.2,0-0.2,0.9-10.6c0.1-1.7,1.4-2.9,2.9-2.9c0.1,0,0.2,0,0.2,0c1.7,0.1,2.9,1.6,2.8,3.3l-0.3,4l15.2-8.9c0.5-0.3,1-0.4,1.6-0.4
			c1.1,0,2.1,0.6,2.6,1.5C1290.5,223.5,1290.6,224.3,1290.4,225.1z"/>
	</g>
</g>
<line class="st118" x1="635.3" y1="216.4" x2="1107" y2="216.4"/>
<ellipse class="st119" cx="559.9" cy="213.9" rx="44.5" ry="26.7"/>
<ellipse class="st119" cx="1174.2" cy="213.9" rx="44.5" ry="26.7"/>
<g>
	<rect x="647.2" y="157.2" class="st11" width="465.8" height="38.8"/>
	<text transform="matrix(1.0138 0 0 1 803.785 183.4866)" class="st15 st120 st121">Advertise</text>
</g>
<polyline class="st119" points="559.9,1152.7 559.9,820.7 1174.2,820.7 1174.2,668.3 241.6,670.5 241.6,520.2 1174.2,508.6 
	1174.3,376.8 559.9,376.8 559.9,242.2 "/>
<g>
	<g id="Upp67m.tif_7_">
		<g>
			<path class="st122" d="M487.6,440.9c-0.5,0.5-0.9,0.9-1.4,1.4c-2.4-2.3-5.2-3.5-8.5-3.5c-3.3,0-6.1,1.2-8.5,3.5
				c-0.5-0.5-0.9-0.9-1.4-1.4c0,0,0,0,0,0c0,0,0,0,0.1-0.1c0.7-0.7,1.5-1.3,2.3-1.9c2.1-1.3,4.4-2.1,6.9-2.2c0.9,0,1.8,0,2.7,0.1
				c0.7,0.1,1.4,0.3,2,0.5c2,0.6,3.8,1.7,5.4,3.1C487.4,440.7,487.5,440.8,487.6,440.9C487.6,440.9,487.6,440.9,487.6,440.9z"/>
			<path class="st122" d="M477.6,452.4c-0.1,0-0.3-0.1-0.4-0.1c-0.6-0.2-0.9-0.6-1-1.3c-0.1-0.8,0.4-1.5,1.1-1.7
				c0.9-0.3,1.8,0.2,2,1.1c0.2,0.9-0.4,1.8-1.3,1.9c0,0,0,0,0,0C477.8,452.4,477.7,452.4,477.6,452.4z"/>
			<path class="st122" d="M472,445.1c-0.5-0.5-0.9-0.9-1.4-1.4c3.7-3.8,10.1-4.1,14.2,0c-0.5,0.5-0.9,0.9-1.4,1.4
				c-1.6-1.5-3.5-2.4-5.7-2.4C475.5,442.7,473.6,443.5,472,445.1z"/>
			<path class="st122" d="M482.1,446.5c-0.5,0.5-0.9,0.9-1.4,1.4c-0.8-0.8-1.8-1.2-2.9-1.2c-1.1,0-2.1,0.4-2.9,1.2
				c-0.5-0.5-0.9-0.9-1.4-1.4C475.7,444.1,479.7,444,482.1,446.5z"/>
		</g>
	</g>
	<rect x="334.5" y="438.8" class="st11" width="92.9" height="19.4"/>
	<text transform="matrix(1 0 0 1 334.4579 450.567)" class="st123 st120 st124">Phone</text>
	<g>
		<path class="st17" d="M322,484.1c0,0-4.5-21.6,26.4-25.2c0,0,1.3-0.2,1.5-0.2c55.4-6.3,108.9-0.9,108.9-0.9l0,0
			c35.5,2.2,33.8,26.3,33.8,26.3v45.6c0,0,0,24.4-30.9,28h0c0,0,0.7,0-1.1,0.1v31.9l-34.6-31.5c-40.2,1.4-72.1-2.1-72.1-2.1v-0.2
			c-35.5-2.2-32-26.1-32-26.1V484.1z"/>
	</g>
	<rect x="338" y="497.4" class="st11" width="140.7" height="36"/>
	<text transform="matrix(1 0 0 1 353.3153 516.5387)" class="st3 st116 st125">Edit this? </text>
</g>
<g>
	<g id="Upp67m.tif_8_">
		<g>
			<path class="st122" d="M956.3,595.3c-0.5,0.5-0.9,0.9-1.4,1.4c-2.4-2.3-5.2-3.5-8.5-3.5c-3.3,0-6.1,1.2-8.5,3.5
				c-0.5-0.5-0.9-0.9-1.4-1.4c0,0,0,0,0,0c0,0,0,0,0.1-0.1c0.7-0.7,1.5-1.3,2.3-1.9c2.1-1.3,4.4-2.1,6.9-2.2c0.9,0,1.8,0,2.7,0.1
				c0.7,0.1,1.4,0.3,2,0.5c2,0.6,3.8,1.7,5.4,3.1C956.1,595.1,956.2,595.2,956.3,595.3C956.3,595.3,956.3,595.3,956.3,595.3z"/>
			<path class="st122" d="M946.3,606.8c-0.1,0-0.3-0.1-0.4-0.1c-0.6-0.2-0.9-0.6-1-1.3c-0.1-0.8,0.4-1.5,1.1-1.7
				c0.9-0.3,1.8,0.2,2,1.1c0.2,0.9-0.4,1.8-1.3,1.9c0,0,0,0,0,0C946.5,606.8,946.4,606.8,946.3,606.8z"/>
			<path class="st122" d="M940.7,599.5c-0.5-0.5-0.9-0.9-1.4-1.4c3.7-3.8,10.1-4.1,14.2,0c-0.5,0.5-0.9,0.9-1.4,1.4
				c-1.6-1.5-3.5-2.4-5.7-2.4C944.2,597.1,942.3,597.9,940.7,599.5z"/>
			<path class="st122" d="M950.7,600.9c-0.5,0.5-0.9,0.9-1.4,1.4c-0.8-0.8-1.8-1.2-2.9-1.2c-1.1,0-2.1,0.4-2.9,1.2
				c-0.5-0.5-0.9-0.9-1.4-1.4C944.4,598.5,948.4,598.4,950.7,600.9z"/>
		</g>
	</g>
	<rect x="656.6" y="593.2" class="st11" width="92.9" height="19.4"/>
	<text transform="matrix(1 0 0 1 656.606 604.969)" class="st123 st120 st124">Phone</text>
	<g>
		<path class="st17" d="M967.7,638.2c0,0,4.5-21.6-26.4-25.2c0,0-1.3-0.2-1.5-0.2c-55.4-6.3-262.1-0.9-262.1-0.9l0,0
			c-35.5,2.2-33.8,26.3-33.8,26.3v49.6c0,0,0,24.4,30.9,28h0c0,0-0.7,0,1.1,0.1v31.9l34.6-31.5c40.2,1.4,225.2-2.1,225.2-2.1v-0.2
			c35.5-2.2,32-26.1,32-26.1V638.2z"/>
	</g>
	<rect x="660.1" y="638.7" class="st11" width="231.6" height="79.7"/>
	<text transform="matrix(1 0 0 1 691.1583 657.8419)"><tspan x="0" y="0" class="st3 st116 st125">OK, here’s the </tspan><tspan x="-26.2" y="27.2" class="st3 st116 st125">new configuration </tspan></text>
	<path class="st126" d="M931.1,643.9c0.5,0.5,0.5,1.4,0,2l-19.5,19.5c-3,3-3,8,0,11.1c3,3,8,3,11.1,0l2-2l7.4-7.4l10.7-10.7
		c1.9-1.9,1.9-5,0-7s-5-1.9-7,0l-7.3,7.3l-10.8,10.8l-1.4,1.4c-0.9,0.9-0.9,2.3,0,3.2s2.3,0.9,3.2,0l18.8-18.8c0.5-0.5,1.4-0.5,2,0
		c0.5,0.5,0.5,1.4,0,2L921.5,674c-2,2-5.2,2-7.1,0c-2-2-2-5.2,0-7.1l1.4-1.4l10.8-10.8l7.3-7.3c3-3,7.9-3,10.9,0s3,7.9,0,10.9
		L934.1,669l-7.4,7.4l-2,2c-4.1,4.1-10.9,4.1-15,0c-4.1-4.1-4.1-10.9,0-15l19.5-19.5C929.7,643.4,930.6,643.4,931.1,643.9z"/>
</g>
<g>
	<g>
		<g>
			
				<rect x="11.5" y="620" transform="matrix(-0.9912 0.1321 -0.1321 -0.9912 112.6021 1233.9651)" class="st3" width="7.8" height="1.4"/>
			<path class="st14" d="M15.3,620c0.1,0.4,0.1,0.9,0.2,1.4C15.4,621,15.4,620.6,15.3,620 M23.1,619l-15.6,2.1l0.1,0.7l0.1,0.7
				l15.6-2.1L23.1,619L23.1,619z"/>
		</g>
		<g>
			<path class="st3" d="M14.3,626.6c-0.8-0.3-2.2-1.2-2.5-3.3l7.8-1c0.2,1.9-0.6,3-1.3,3.6l-1.8,1.5L14.3,626.6z"/>
			<path class="st14" d="M15.7,622.8c0,0.1,0,0.2,0,0.2S15.7,622.9,15.7,622.8 M23.4,621.7l-15.6,2.1l0,0.2l2.3,17.1l11.4-13
				C22.7,626.9,23.8,624.8,23.4,621.7L23.4,621.7z"/>
		</g>
		<g>
			
				<rect x="11.6" y="621.4" transform="matrix(-0.9913 0.1319 -0.1319 -0.9913 113.0742 1236.6947)" class="st3" width="7.8" height="1.4"/>
			<path class="st14" d="M15.5,621.4c0.1,0.6,0.1,1.1,0.2,1.4C15.6,622.6,15.6,622.1,15.5,621.4 M23.3,620.4l-15.6,2.1l0.2,1.4
				l15.6-2.1l-0.1-0.9L23.3,620.4L23.3,620.4z"/>
		</g>
		<g>
			<path class="st3" d="M15.3,620c0-0.2-0.1-0.5-0.1-0.7C15.2,619.6,15.3,619.8,15.3,620z"/>
			<path class="st14" d="M15.2,619.4c0,0.1,0,0.2,0,0.2C15.2,619.5,15.2,619.4,15.2,619.4 M15.2,619.6c0,0.1,0,0.3,0.1,0.4
				C15.3,619.9,15.3,619.7,15.2,619.6"/>
		</g>
		<g>
			<polygon class="st3" points="11.2,619.3 19,618.2 11.2,619.4 			"/>
			<path class="st14" d="M15.1,618.8C15.1,618.8,15.1,618.8,15.1,618.8C15.1,618.8,15.1,618.8,15.1,618.8"/>
		</g>
		<g>
			
				<rect x="11.2" y="618.8" transform="matrix(-0.9913 0.1316 -0.1316 -0.9913 111.648 1230.8007)" class="st3" width="7.8" height="0.6"/>
			<path class="st14" d="M15.1,618.8c0,0.1,0,0.3,0.1,0.6C15.2,619.2,15.2,619,15.1,618.8 M22.9,617.8l-15.6,2.1l0,0.2l0.1,0.4
				l15.6-2.1l0-0.1L22.9,617.8L22.9,617.8z"/>
		</g>
		<g>
			<path class="st3" d="M136,1138.9c-6.4,0-12.2-0.7-17.5-1.9l-1.7-0.4c-15.2-3.7-21.5-6.1-18.5-26.1c0,0-1-1.2-1-1.2l0-1.4
				c0-0.2,0.1-15.1,0.2-34.2c-2.5,1.4-5.3,2.8-8.4,4.2c-8.2,3.7-13.9,8.1-19.9,12.7c-3.7,2.8-7.5,5.7-12,8.6
				c-3.5,2.3-7.9,3.4-13,3.4c0,0,0,0,0,0c-11.5,0-26.4-6.6-28.9-12.9c-2.5-6.2-1.6-19.5,2.2-32.7c-3.4-10,0.2-34.8,5.6-68.2
				c2.4-14.9,4.6-28.9,5-36.6c0.9-21.5,2.2-44.7,5.4-68.7c3-22.8,8.3-56.7,9.1-61.8c-0.6-3-2.9-15.9-5.9-34.5
				c-1.8-11.2-0.3-15.4,1.7-20.7c0.3-1,0.7-1.9,1.1-3c-1.8-1.6-3-3.3-3.6-5.1l-0.3-0.8l0.1-0.8c0-0.3,3.2-34.5,3.2-48.9
				c0-6.3-1.1-10-2.2-13.6c-1.3-4.4-2.6-8.6-0.9-15.5c0.6-2.6,1.3-5.1,2-7.6c-14.6-4.8-20.1-14.6-20.1-20.4c0-2.8,0.7-9.4,1.9-19.7
				c-6.8-5.1-8.1-10.8-8.3-11.5l0-0.1c0,0-0.2-1.8-0.3-2.5c-0.5-3.4-0.5-3.6-0.3-6.6c0.1-2.3,0.4-6.6,0.6-16.7
				c0.3-16,9.3-62.8,19.6-70.4c10.3-7.5,21.9-11.1,36.6-11.1c1.3,0,2.6,0,4,0.1c1.6-3.4,4.3-13.3,7.4-29.4c-1.7-1.5-2.8-3.6-3.3-6.4
				c-0.2-1.1-1.1-3.7-2.2-6.7c-4.9-14-14.1-40.1-6-61.4c2.9-7.4,4.3-12.4,5.3-16c2.7-9.6,3.9-11,14.6-15.9
				c2.7-2.8,13.8-12.9,32.6-12.9c8.4,0,17.2,2.1,26.2,6.1c19.4,8.8,30.3,16.8,32.2,23.9c0.5,1.9,0.3,3.5,0,4.5l-0.1,7.9l-0.6,0.9
				c-0.3,0.4-1.4,2-3.2,3.1c0.9,13.3,0.6,22.1-0.9,26.1c-1.1,2.9-2.1,4.5-2.8,5.6c-0.8,1.3-1.1,1.8-0.8,6.2
				c0.7,9.8-10.5,40.7-18.6,48.1c-1.4,1.2-2.4,2.3-3.4,3.3c-2.7,2.7-5,5.1-9.6,5.1c-1.1,0-2.3-0.1-3.7-0.4
				c-1.8,8.5-1.2,15.6-1.2,15.7l0,0.2l0,2.7c0,0.1,0.1,0.2,0.1,0.2c0.2,0.4,0.2,0.8,0.3,1.2c3.7,1.6,8.4,3.9,10.3,5
				c27.4,10.8,35.7,20.1,43.1,28.2c7.4,8.2,21.8,48.4,27.4,64.7c3.1-3.7,5.8-7,7.7-9.5c2.7-3.6,5-6.7,6.8-9.1l-13.5-4.9
				c-2-0.7-3.4-2.4-3.9-4.4l-2.1-5.4l0-0.1c-0.1-0.2-0.1-0.4-0.2-0.6c0-0.1-0.1-0.3-0.1-0.4c0-0.2-0.1-0.5-0.1-0.7
				c0-0.2,0-0.4,0-0.5c0-0.2,0-0.5,0.1-0.7c0-0.2,0-0.3,0.1-0.5c0.1-0.4,0.2-0.8,0.4-1.2l29.9-71c1.1-2.5,3.6-4.2,6.3-4.2
				c0.8,0,1.5,0.1,2.2,0.4l37.7,13.8c0.4,0.1,0.8,0.3,1.2,0.6l0.2,0.1l0.2,0.2c0.2,0.1,0.4,0.3,0.6,0.5c0.1,0.1,0.2,0.2,0.3,0.3
				c0.2,0.2,0.3,0.4,0.5,0.6c0.1,0.1,0.1,0.2,0.2,0.3c0.1,0.1,0.2,0.2,0.2,0.4l0.1,0.2l0.1,0.2c0.1,0.2,0.1,0.3,0.2,0.5l2.3,5.9
				l0,0.1c0.5,1.5,0.4,3.2-0.2,4.7l-9.3,22c0.9,8.2,2,18.1,2,20.8c0,3.9-3.8,8.3-12.5,17.9c-3.1,3.5-6.7,7.4-10.2,11.6
				c-0.3,0.4-0.6,0.7-1,1c-2,4.2-4.9,10.6-7.8,18c-0.9,2.5-2.1,6.1-3.5,10.4c-7.6,23.3-20.2,62.4-41.7,66.4
				c-2.7,0.5-5.3,0.8-7.5,0.8c-8.2,0-13.6-3.3-16.5-10.2c-3.9-4.6-8.1-11.2-12.6-19.7c1.1,20.6,2.4,34.8,3.5,38
				c2.3,6.4,9.3,45.5,6.5,52c-0.1,0.3-0.3,0.7-0.4,1c-0.8,2.2-2,5.6-6.6,8.5c4,13.4,5.6,35.7,6.8,55.9c1,16.3,0.5,38.6,0,62.2
				c-0.5,24.2-1,49.3-0.1,71.2c1.3,30.3-1.4,62-3.2,83c-0.8,9.3-1.4,16.7-1.4,20.8c0,2,0.3,3.5,0.6,5.2c0.1,0.4,0.1,0.7,0.2,1.1
				c31.7,2.6,37.8,7,39.6,11.1c4,9,4.6,17.3,1.9,23.9c-2.5,6.1-7.7,10.7-15.5,13.7C184.9,1130.6,158.7,1138.9,136,1138.9z
				 M93.3,1041.5c1.6,0.2,3,0.6,4.4,1c0.1-26-0.1-42.8-0.4-49.9c-0.2-3.7-0.4-8-0.7-12.5c-0.5-7.5-0.8-14.2-1-20.3
				c-0.5,16.5-3.4,60.7-3.9,67.9C93.2,1031.5,93.8,1036.2,93.3,1041.5z M97.5,917.5c-0.5,7.3-0.9,14.8-1.2,21.2
				c0.6-4.2,1.6-7.5,3.1-9.8C99,926.7,98.3,922.5,97.5,917.5z"/>
			<path class="st14" d="M119.7,367.4c7.1,0,15.3,1.6,24.6,5.8c35.5,16,29.8,24,29.8,24l-0.1,7.6c0,0-1.5,2.4-3.7,2.4
				c-0.1,0-0.3,0-0.4,0c0.6,7.8,1.4,22.6-0.4,27.7c-2.6,7.1-4.5,4.5-3.8,13.5c0.6,9-10.3,38.5-17.3,44.9c-5.2,4.8-6.2,7.4-10.3,7.4
				c-1.4,0-3.2-0.3-5.7-1c-0.3-0.1-0.6-0.1-0.9-0.2c-3.2,10.9-2.3,20.7-2.3,20.7v3.8h0c1.3,0.4-1.3,2.2,0,2.6
				c3.3,1.1,10.5,4.6,13,5.9c26.6,10.5,34.6,19.3,41.8,27.3c8.7,9.6,28.8,69.9,28.8,69.9c5-5.9,9.5-11.2,12.3-15
				c5.4-7.3,8.4-11.1,10-13.2c0-0.1,0-0.1,0-0.2l-18.4-6.7c-0.8-0.3-1.4-1-1.5-1.9l-2.1-5.4c0,0,0-0.1,0-0.1l0-0.1
				c0-0.1,0-0.1,0-0.2c0-0.1,0-0.1,0-0.2c0-0.1,0-0.2,0-0.3c0-0.1,0-0.1,0-0.2c0-0.1,0-0.2,0-0.3c0-0.1,0-0.1,0-0.2
				c0-0.2,0.1-0.3,0.2-0.5l29.9-71c0.5-1.1,1.6-1.8,2.7-1.8c0.3,0,0.6,0,0.8,0.1l37.7,13.8c0.2,0.1,0.3,0.1,0.4,0.2
				c0,0,0.1,0.1,0.1,0.1c0.1,0.1,0.2,0.1,0.2,0.2c0,0,0.1,0.1,0.1,0.1c0.1,0.1,0.1,0.1,0.2,0.2c0,0.1,0.1,0.1,0.1,0.2
				c0,0,0,0.1,0.1,0.1l0,0.1c0,0.1,0.1,0.2,0.1,0.3l2.3,5.9c0.2,0.6,0.2,1.3-0.1,2l-9.7,22.9c0.7,6.4,2.1,18.6,2.1,21.4
				c0,3.8-10.8,13.9-21.8,26.9c-0.4,0.4-0.7,0.7-1.1,1c-2.2,4.6-5.3,11.3-8.3,19.1c-5.8,15.1-19.2,70.1-42.3,74.4
				c-2.6,0.5-4.8,0.7-6.8,0.7c-7.8,0-11.2-3.5-13.1-8.3c-5.4-6.3-11.3-16.5-17.1-28.4c0,0-1.4,0.4-3.4,0.5
				c0.6,13.9,2.2,43.7,4.3,49.6c2.7,7.7,8.6,44.7,6.6,49.1c-1.1,2.5-1.4,6.2-8.1,9.1c4.5,11.9,6.3,34.9,7.7,58
				c1.9,32.5-1.9,89.7,0,133.3c1.8,43.6-4.6,89.9-4.6,103.6c0,4.1,1,6.7,1.1,10c13,0.9,37.1,3.3,39.6,9c3.8,8.5,8.1,24.8-11.4,32.3
				c-20.8,8.1-45,15-65.5,15c-5.9,0-11.4-0.6-16.5-1.8c-15.9-3.9-20.4-4.2-16.9-24.2c-1-0.7-1.3-1.1-1.3-1.1s0.2-19,0.3-41.9
				c-3,3-7.8,5.5-14,8.3c-13.6,6.2-20.5,13.9-32.4,21.6c-3.1,2-6.9,2.8-10.9,2.8c-11.2,0-23.6-6.5-25.3-10.5c-2-5-1.4-18,2.7-31.4
				c0-0.1-0.1-0.2-0.1-0.2c-6.2-13.7,9.5-82,10.4-104.3c1.1-24.7,2.4-46.3,5.3-68.4c3.3-24.9,9.2-62.4,9.2-62.4s-2.6-13.7-6-35.1
				c-2.2-13.7,0.9-15.5,3.4-24.5c-2.4-1.6-3.9-3.2-4.5-4.8c0,0,3.2-34.5,3.2-49.3s-5.8-17.3-3.2-28.2c0.9-3.7,2-7.5,3-11.2
				c-15.6-3.8-21-13.2-21-17.7c0-3.6,1.3-14.1,2.2-21.6c-7.5-4.7-8.6-10.4-8.6-10.4c-1.3-9.6-0.5-0.7,0-25
				c0.4-18.6,10.1-61.5,17.9-67.3c11.1-8.1,22.8-10.3,34.2-10.3c2,0,4,0.1,6,0.2c0,0,0.1-0.1,0.1-0.1c3.5-3.5,7.9-25.9,9.6-35.1
				c-2-0.9-3.3-2.3-3.8-5.3c-1.3-7.1-17.9-41-8.3-66c9.6-25,3.2-23.1,18.6-30.1C89.5,379.6,100,367.4,119.7,367.4 M101.6,1049.2
				c0.1-23.7,0-47.7-0.4-56.8c-0.9-20.5-4.7-55.6,2.3-62.4c0,0-5.8-33.6-7.3-43.2c-2.4,15.1-4.5,60.3-4.5,68.9c0,12-4,72.6-4,72.6
				c2.3,5.2,2,11.6,1.1,16.8C93.6,1045.2,98.6,1046.2,101.6,1049.2 M119.7,359.5c-19.1,0-31,9.8-34.9,13.5
				c-11.2,5.2-13.2,7.6-16.1,18.2c-1,3.5-2.4,8.4-5.2,15.7c-8.7,22.6,0.8,49.6,5.9,64.1c0.8,2.4,1.9,5.3,2,6.1
				c0.5,2.8,1.5,5.1,3,6.9C72,497,70,504.5,68.7,508.2c-0.5,0-0.9,0-1.4,0c-15.5,0-27.9,3.8-38.9,11.8c-1.9,1.4-7.9,5.8-14.8,33.3
				C10,568,7.5,583.8,7.3,593.5c-0.2,10-0.4,14.3-0.6,16.6c-0.2,3.2-0.2,3.7,0.3,7.4c0.1,0.6,0.2,1.4,0.3,2.3l0,0.3l0.1,0.3
				c0.3,1.3,1.7,6.9,8,12.4c-1.7,13.8-1.7,16.9-1.7,18c0,7.9,6.6,17.4,19.3,22.8c-0.4,1.4-0.8,2.9-1.1,4.4c-1.8,7.9-0.3,13,1,17.5
				c1,3.5,2,6.8,2,12.5c0,14.2-3.1,48.2-3.2,48.6l-0.2,1.6l0.5,1.6c0.6,1.7,1.5,3.3,2.8,4.8c-0.1,0.2-0.1,0.4-0.2,0.6
				c-2.3,6.3-3.7,11.3-1.9,22.7c2.8,17.5,5,30,5.8,33.9c-1.1,6.9-6.1,39.2-9,61.2c-3.2,24.2-4.5,47.5-5.4,69.1
				c-0.3,7.5-2.6,21.4-4.9,36.2c-5.6,34.7-8.9,57.5-5.8,68.9c-3.2,11.8-4.9,26.3-1.7,34.1c3.5,8.7,20.4,15.4,32.5,15.4
				c5.8,0,10.9-1.4,15.1-4.1c4.7-3,8.6-6,12.3-8.8c6.1-4.7,11.4-8.7,19.1-12.2c1-0.4,1.9-0.9,2.9-1.3c-0.1,15.9-0.2,27.5-0.2,27.7
				l0,2.9l0.8,1c-1.2,8.5-0.8,14.9,3.1,19.9c4.1,5.3,10.5,6.8,18.6,8.8l1.7,0.4c5.5,1.4,11.7,2,18.4,2c18.7,0,41.7-5.2,68.3-15.5
				c8.8-3.4,14.7-8.7,17.7-15.8c3.2-7.6,2.5-17-1.9-27c-2.4-5.4-8.6-8.5-21.6-10.8c-5-0.9-11.1-1.7-18.2-2.3
				c-0.1-0.9-0.2-1.7-0.2-2.7c0-3.9,0.6-11.2,1.4-20.5c1.8-21.1,4.5-52.9,3.2-83.4c-0.9-21.7-0.4-46.8,0.1-70.9
				c0.5-23.7,0.9-46.1-0.1-62.5c-1.4-23.9-3-41.9-6.2-54.1c3.7-3.2,5-6.6,5.7-8.7c0.1-0.3,0.2-0.6,0.3-0.8c0.9-1.9,2.3-5.2-1-27.6
				c-1.4-10-3.7-22.3-5.4-27.3c-0.5-1.4-1.4-7.4-2.3-20.8c1.5,2.2,2.9,4.1,4.3,5.9c3.5,7.9,10.4,12,19.8,12c2.5,0,5.2-0.3,8.2-0.8
				c11-2,20.7-11.6,29.5-29.3c6.7-13.3,11.6-28.6,15.2-39.7c1.4-4.2,2.6-7.9,3.5-10.2c2.6-6.9,5.3-12.9,7.3-17
				c0.3-0.3,0.5-0.5,0.8-0.8c3.5-4.1,7-8,10.1-11.5c9-9.9,13.5-14.9,13.5-20.5c0-0.9,0-3.4-1.9-20.2l8.9-21c1-2.4,1.1-5.1,0.3-7.5
				l-0.1-0.2l-0.1-0.2l-2.2-5.8c-0.1-0.2-0.2-0.4-0.2-0.6l-0.1-0.4l-0.2-0.4c-0.2-0.3-0.3-0.5-0.4-0.7c-0.1-0.1-0.2-0.3-0.3-0.4
				c-0.2-0.3-0.5-0.7-0.8-1c-0.2-0.2-0.4-0.4-0.5-0.6c-0.3-0.3-0.6-0.5-1-0.8c-0.2-0.1-0.4-0.3-0.7-0.5c-0.6-0.4-1.2-0.7-1.9-0.9
				l-37.7-13.8c-1.1-0.4-2.3-0.6-3.5-0.6c-4.3,0-8.2,2.6-9.9,6.6l-29.9,71c-0.3,0.6-0.5,1.2-0.6,1.9c-0.1,0.3-0.1,0.6-0.1,0.8
				c0,0.1,0,0.3-0.1,0.5c-8.7-22-12.8-28.1-15.2-30.8c-7.6-8.5-16.2-18-44.3-29.2c-1.7-0.9-5.1-2.6-8.4-4.1l0-1.2v-0.4l0-0.3
				c0,0-0.4-4.8,0.5-11c0.2,0,0.4,0,0.5,0c6.3,0,9.5-3.4,12.4-6.3c0.9-0.9,1.9-2,3.2-3.1c5.7-5.2,11-17.6,13.6-24.5
				c2.1-5.4,6.8-19,6.3-26.7c-0.2-2.1-0.1-3-0.1-3.4c0.1-0.1,0.2-0.3,0.3-0.4c0.8-1.2,2-3.1,3.2-6.4c0.6-1.7,2.4-6.5,1.2-25.6
				c1-0.9,1.8-1.9,2.5-2.9l1.2-1.9l0-2.2l0.1-6.3c0.5-1.9,0.5-4-0.1-6.1c-2.3-8.5-13.2-16.9-34.3-26.4
				C138.1,361.7,128.7,359.5,119.7,359.5L119.7,359.5z M215.8,613.9c-1.5-4.2-3.2-9-5.1-14.1c1,0.9,2.1,1.6,3.4,2.1l8.5,3.1
				c-1.1,1.5-2.4,3.2-3.7,5C218,611.1,216.9,612.5,215.8,613.9L215.8,613.9z"/>
		</g>
	</g>
	<path class="st128" d="M39,676.2c4.1-16.3-0.7-22.4-2-33.3c-1.3-10.9,1.8-21.6-0.7-34.4c-1.2-6-6.1-21-9.1-36.8"/>
	<path class="st129" d="M170.7,715.5c2.7,7.7,8.6,44.7,6.6,49.1c-2,4.5,0.6,13.2-37.9,13.9c-38.5,0.6-96.2-9.9-100-21.4"/>
	<path class="st129" d="M73.4,516.1c4.5-4.5,10.3-39.1,10.3-39.1c0.8-0.9,5.9,0.2,12.6,2.1c-3.8-5.9-6.8-13.6-8.1-23.9
		c-5.1-39.7,38.5-75,78.2-53.2h3.2c0,0,2.6,25.6,0,32.7s-4.5,4.5-3.8,13.5c0.6,9-10.3,38.5-17.3,44.9c-7.1,6.4-6.4,9-16,6.4
		c-0.3-0.1-0.6-0.1-0.9-0.2c-3.2,10.9-2.3,20.7-2.3,20.7v10.3C88.9,538.6,69,520.6,73.4,516.1z"/>
	<path class="st130" d="M248.8,518.4c-1.3-0.5-2.9,0.3-3.5,1.7"/>
	<g>
		<g>
			<path class="st3" d="M255.3,610.8c-0.6,0-1.1-0.1-1.7-0.3l-37.7-13.8c-1.5-0.6-2.6-1.8-3-3.4l-2.2-5.5l0-0.1
				c-0.4-1.2-0.3-2.4,0.2-3.6l29.9-71c0.8-2,2.8-3.3,4.8-3.3c0.6,0,1.1,0.1,1.7,0.3l37.7,13.8c1.1,0.4,2,1.2,2.6,2.2l0.1,0.1
				l2.5,6.6c0.4,1.2,0.3,2.5-0.2,3.6l-29.9,71C259.3,609.5,257.3,610.8,255.3,610.8C255.3,610.8,255.3,610.8,255.3,610.8z"/>
			<path class="st14" d="M245.7,512.3c0.3,0,0.6,0,0.8,0.1l37.7,13.8c0.6,0.2,1,0.6,1.3,1.1l2.4,6.3c0.2,0.6,0.2,1.3-0.1,2l-29.9,71
				c-0.5,1.1-1.6,1.8-2.7,1.8c-0.3,0-0.6,0-0.8-0.1l-37.7-13.8c-0.8-0.3-1.4-1-1.5-1.9l-2.2-5.6c-0.2-0.6-0.2-1.3,0.1-1.9l29.9-71
				C243.5,513,244.6,512.3,245.7,512.3 M245.7,507.6c-3,0-5.8,1.9-7,4.7l-29.9,71c-0.7,1.7-0.8,3.5-0.2,5.2l0,0.1l0.1,0.1l2.1,5.3
				c0.6,2.3,2.2,4.1,4.4,4.9l37.7,13.8c0.8,0.3,1.6,0.4,2.5,0.4c3,0,5.8-1.9,7-4.7l29.9-71c0.7-1.7,0.8-3.6,0.2-5.3l0-0.1l0-0.1
				l-2.4-6.3l-0.1-0.3l-0.1-0.2c-0.8-1.6-2.2-2.8-3.8-3.4L248.2,508C247.4,507.8,246.6,507.6,245.7,507.6L245.7,507.6z"/>
		</g>
		<path class="st131" d="M214.5,588.6l37.7,13.8c1.3,0.5,2.9-0.3,3.5-1.7l29.9-71c0.6-1.4,0-3-1.3-3.5l-37.7-13.8
			c-1.3-0.5-2.9,0.3-3.5,1.7l-29.9,71C212.5,586.5,213.1,588.1,214.5,588.6z"/>
		<path class="st132" d="M224.3,577.1L254,588c0.9,0.3,2.1-0.2,2.5-1.2l21.1-50.1c0.4-1,0-2.1-0.9-2.4L247,523.4
			c-0.9-0.3-2.1,0.2-2.5,1.2l-21.1,50.1C222.9,575.7,223.4,576.8,224.3,577.1z"/>
		<circle class="st132" cx="236.5" cy="588.8" r="4.9"/>
	</g>
	<path class="st14" d="M154.2,417.4c0,0-2.6,6.4,0,15.4s2.7,17.3-0.6,23.1c-3.3,5.8-6.5,0-6.5,0s5.9-21.2-2.8-17.9
		s-17.1,16-8.7,26.9c0,0-7.1,17.9-14.1,20.5c-7.1,2.6-14.1,4.5-25,0c-10.9-4.5-16-2.6-17.3-9.6c-1.3-7.1-17.9-41-8.3-66
		c9.6-25,3.2-23.1,18.6-30.1c0,0,19.4-22.4,54.9-6.4s29.8,24,29.8,24l0.3,10.2c0,0-11.3-2.1-15.2,0.5
		C155.5,410.3,154.2,417.4,154.2,417.4z"/>
	<path class="st128" d="M139.5,620c6.4,21.2,22.4,45.4,22.4,45.4c3.8,1.2,7.9,0,7.9,0c45.1-0.1,43.1-42.4,43.1-42.4"/>
	<path class="st133" d="M98.5,938.8c0,0,2.6-23.2,0-36c-2.6-12.8-13-48.1-10.7-72.1"/>
	<path class="st128" d="M18.2,1045.1c0,9.5,3.1,22.3,18.5,24.4c35,4.7,54.5-24.8,55.3-29.9"/>
	<path class="st128" d="M99.6,1106.4c2.5,1.8,5.4,4.8,26.5,10.6c23.6,6.5,42.4-14.4,46.3-21.3c2.9-5,3.8-13.6,2.1-21.5"/>
	<line class="st127" x1="98.8" y1="1045.1" x2="98.8" y2="1075.3"/>
	<path class="st128" d="M36.7,634C17.4,630.1,13,621.4,13,621.4"/>
	<path class="st3" d="M219.2,622.1c5.4-7.3,14.3-18.6,15.9-20.6c-0.7-4.9,0.9-14.8,3.7-21.9c3-7.7,6.8-26.5,11.1-24.8
		c4.3,1.7,6.8,4.7,5.6,17.5c-1.3,12.8,8.1,10.4,8.1,10.4l6-3.2c0,0,8.3-3.5,8.2-1.9c-0.2,1.5-11.7,20.5-15.5,24.9
		c-3.8,4.4-3.3,1.1-7.5,10.9c-4.2,9.8-27.9,14.2-27.9,14.2L219.2,622.1z"/>
	<path class="st128" d="M218.9,618.7c5.4-7.3,14.6-15.2,16.3-17.2c-0.7-4.9,0.9-14.8,3.7-21.9c3-7.7,6.8-26.5,11.1-24.8
		c4.3,1.7,6.8,4.7,5.6,17.5c-1.3,12.8,8.1,10.4,8.1,10.4l8.8-5.8"/>
</g>
<g>
	<rect x="890.1" y="753.5" class="st11" width="92.9" height="19.4"/>
	<text transform="matrix(1 0 0 1 890.11 765.2848)" class="st123 st120 st124">Device</text>
	<g>
		<path class="st93" d="M877.7,798.8c0,0-4.5-21.6,26.4-25.2c0,0,1.3-0.2,1.5-0.2c55.4-6.3,161.4-0.9,161.4-0.9l0,0
			c35.5,2.2,33.8,26.3,33.8,26.3v45.6c0,0,0,24.4-30.9,28h0c0,0,0.7,0-1.1,0.1v31.9l-34.6-31.5c-40.2,1.4-124.5-2.1-124.5-2.1v-0.2
			c-35.5-2.2-32-26.1-32-26.1V798.8z"/>
	</g>
	<rect x="883" y="797.7" class="st11" width="210.8" height="50.3"/>
	<text transform="matrix(1 0 0 1 909.4991 816.901)"><tspan x="0" y="0" class="st3 st116 st125">Great, I’ll use </tspan><tspan x="-15.9" y="29.1" class="st3 st116 st125">them from now</tspan></text>
	<g>
		<path class="st122" d="M1082.7,760c0.4,1.4-0.5,2.7-2,3.1c-1.5,0.3-3-0.5-3.3-1.9c-0.4-1.4,0.5-2.7,2-3.1
			C1080.8,757.8,1082.3,758.7,1082.7,760z"/>
		<g>
			<path class="st122" d="M1081.4,752.4L1081.4,752.4c-0.1-0.1-0.1-0.1-0.1-0.1c0,0,0,0,0,0l-0.1-0.1c0,0,0,0,0,0c0,0,0,0,0,0
				l-0.1-0.1c0,0,0,0,0,0c0,0,0,0,0,0l-0.1-0.1c0,0,0,0,0,0c0,0,0,0,0,0l-0.1-0.1c0,0,0,0,0,0c0,0,0,0,0,0l-0.1-0.1c0,0,0,0,0,0
				c0,0,0,0,0,0l-0.1-0.1c0,0,0,0,0,0c0,0,0,0,0,0l-0.1-0.1l0,0c-0.1-0.1-0.3-0.1-0.5,0c0,0,0,0,0,0l-0.1,0.1c0,0,0,0,0,0
				c0,0,0,0,0,0l-0.1,0.1c0,0,0,0,0,0c0,0,0,0,0,0l-0.1,0.1c0,0,0,0,0,0c0,0,0,0,0,0l-0.1,0.1c0,0,0,0,0,0c0,0,0,0,0,0l-0.1,0.1
				c0,0,0,0,0,0c0,0,0,0,0,0l-0.1,0.1c0,0,0,0,0,0c0,0,0,0,0,0l-0.1,0.1c0,0,0,0,0,0c0,0,0,0,0,0l-0.1,0.1c-0.1,0.1-0.2,0.2-0.2,0.4
				c0,0.2,0,0.3,0,0.5c0.1,0.2,0.2,0.3,0.4,0.3c0.1,0,0.2,0,0.2-0.1l0.1-0.1c0,0,0,0,0,0c0,0,0,0,0,0l0.1-0.1c0,0,0,0,0,0
				c0,0,0,0,0,0l0.1-0.1c0,0,0,0,0,0c0,0,0,0,0,0l0.1-0.1c0,0,0,0,0,0c0,0,0,0,0,0l0.1-0.1v0c0,0,0,0.1,0,0.1c0,0,0,0.1,0,0.1v0.2
				c0,0,0,0.1,0,0.1c0,0,0,0.1,0,0.1v0.2c0,0,0,0.1,0,0.1c0,0,0,0.1,0,0.1v0.2c0,0,0,0.1,0,0.1c0,0,0,0.1,0,0.1v0.2c0,0,0,0.1,0,0.1
				c0,0,0,0.1,0,0.1v0.2c0,0,0,0.1,0,0.1c0,0,0,0.1,0,0.1v0.2c0,0,0,0.1,0,0.1c0,0,0,0.1,0,0.1v0.2c0,0,0,0.1,0,0.1c0,0,0,0.1,0,0.1
				v0.2c0,0,0,0.1,0,0.1c0,0,0,0.1,0,0.1v0.2c0,0,0,0.1,0,0.1c0,0,0,0.1,0,0.1v0.2c0,0.3,0.2,0.6,0.4,0.6s0.4-0.3,0.4-0.6v-0.2
				c0,0,0-0.1,0-0.1c0,0,0-0.1,0-0.1v-0.2c0,0,0-0.1,0-0.1c0,0,0-0.1,0-0.1v-0.2c0,0,0-0.1,0-0.1c0,0,0-0.1,0-0.1v-0.2
				c0,0,0-0.1,0-0.1c0,0,0-0.1,0-0.1v-0.2c0,0,0-0.1,0-0.1c0,0,0-0.1,0-0.1v-0.2c0,0,0-0.1,0-0.1c0,0,0-0.1,0-0.1v-0.2
				c0,0,0-0.1,0-0.1c0,0,0-0.1,0-0.1v-0.2c0,0,0-0.1,0-0.1c0,0,0-0.1,0-0.1v-0.2c0,0,0-0.1,0-0.1c0,0,0-0.1,0-0.1V753
				c0,0,0-0.1,0-0.1c0,0,0-0.1,0-0.1v0l0,0c0,0,0,0,0,0c0,0,0,0,0,0l0.1,0.1c0,0,0,0,0,0c0,0,0,0,0,0l0.1,0.1c0,0,0,0,0,0
				c0,0,0,0,0,0l0.1,0.1c0,0,0,0,0,0c0,0,0,0,0,0l0.1,0.1c0.1,0.1,0.1,0.1,0.2,0.1c0.1,0,0.3-0.1,0.4-0.3
				C1081.6,753,1081.6,752.6,1081.4,752.4z"/>
			<path class="st122" d="M1074.8,760h-3.1l1-0.8c0.2-0.2,0.2-0.5,0.1-0.8c-0.1-0.3-0.3-0.4-0.5-0.2l-2.1,1.8
				c-0.1,0.1-0.2,0.3-0.2,0.5c0,0.2,0.1,0.4,0.2,0.5l2.1,2.1c0.1,0.1,0.1,0.1,0.2,0.1c0.1,0,0.2-0.1,0.3-0.2
				c0.1-0.3,0.1-0.6-0.1-0.8l-1-1h3.1c0.2,0,0.4-0.2,0.4-0.6S1075,760,1074.8,760z"/>
			<path class="st122" d="M1076.6,756.6c0-0.2-0.1-0.3-0.2-0.4l-1.6-1.4l0.6-0.1c0.2,0,0.4-0.3,0.4-0.6c0-0.2-0.1-0.4-0.2-0.5
				c-0.1-0.1-0.2-0.1-0.3-0.1c-2.2,0.1-2.2,0.1-2.3,0.2c0,0,0,0,0,0c0,0,0,0,0,0c0,0,0,0,0,0.1c0,0,0,0.1,0,0.1c0,0,0,0,0,0
				c0,0,0,0.1,0,0.1c0,0,0,0,0,0c0,0,0,0.1,0,0.1c0,0,0,0,0.1,2.3c0,0.4,0.2,0.6,0.4,0.6c0,0,0,0,0,0c0.2,0,0.4-0.3,0.4-0.7l0-0.9
				l2.1,1.9c0.1,0.1,0.1,0.1,0.2,0.1c0.2,0,0.3-0.1,0.4-0.3C1076.6,756.9,1076.7,756.8,1076.6,756.6z"/>
			<path class="st122" d="M1084.7,760.2h3.1l-1-0.8c-0.2-0.2-0.2-0.5-0.1-0.8c0.1-0.3,0.3-0.4,0.5-0.2l2.1,1.8
				c0.1,0.1,0.2,0.3,0.2,0.5c0,0.2-0.1,0.4-0.2,0.5l-2.1,2.1c-0.1,0.1-0.1,0.1-0.2,0.1c-0.1,0-0.2-0.1-0.3-0.2
				c-0.1-0.3-0.1-0.6,0.1-0.8l1-1h-3.1c-0.2,0-0.4-0.2-0.4-0.6C1084.3,760.5,1084.5,760.2,1084.7,760.2z"/>
			<path class="st122" d="M1082.9,756.8c0-0.2,0.1-0.3,0.2-0.4l1.6-1.4l-0.6-0.1c-0.2,0-0.4-0.3-0.4-0.6c0-0.2,0.1-0.4,0.2-0.5
				c0.1-0.1,0.2-0.1,0.3-0.1c2.2,0.1,2.2,0.1,2.3,0.2c0,0,0,0,0,0c0,0,0,0,0,0c0,0,0,0,0,0.1c0,0,0,0.1,0,0.1c0,0,0,0,0,0
				c0,0,0,0.1,0,0.1c0,0,0,0,0,0c0,0,0,0.1,0,0.1c0,0,0,0-0.1,2.3c0,0.4-0.2,0.6-0.4,0.6c0,0,0,0,0,0c-0.2,0-0.4-0.3-0.4-0.7l0-0.9
				l-2.1,1.9c-0.1,0.1-0.1,0.1-0.2,0.1c-0.2,0-0.3-0.1-0.4-0.3C1082.8,757.2,1082.8,757,1082.9,756.8z"/>
		</g>
		<g>
			<path class="st122" d="M1078.1,769.1L1078.1,769.1c0.1,0.1,0.1,0.1,0.1,0.1c0,0,0,0,0,0l0.1,0.1c0,0,0,0,0,0c0,0,0,0,0,0l0.1,0.1
				c0,0,0,0,0,0c0,0,0,0,0,0l0.1,0.1c0,0,0,0,0,0c0,0,0,0,0,0l0.1,0.1c0,0,0,0,0,0c0,0,0,0,0,0l0.1,0.1c0,0,0,0,0,0c0,0,0,0,0,0
				l0.1,0.1c0,0,0,0,0,0c0,0,0,0,0,0l0.1,0.1l0,0c0.1,0.1,0.3,0.1,0.5,0c0,0,0,0,0,0l0.1-0.1c0,0,0,0,0,0c0,0,0,0,0,0l0.1-0.1
				c0,0,0,0,0,0c0,0,0,0,0,0l0.1-0.1c0,0,0,0,0,0c0,0,0,0,0,0l0.1-0.1c0,0,0,0,0,0c0,0,0,0,0,0l0.1-0.1c0,0,0,0,0,0c0,0,0,0,0,0
				l0.1-0.1c0,0,0,0,0,0c0,0,0,0,0,0l0.1-0.1c0,0,0,0,0,0c0,0,0,0,0,0l0.1-0.1c0.1-0.1,0.2-0.2,0.2-0.4c0-0.2,0-0.3,0-0.5
				c-0.1-0.2-0.2-0.3-0.4-0.3c-0.1,0-0.2,0-0.2,0.1l-0.1,0.1c0,0,0,0,0,0c0,0,0,0,0,0l-0.1,0.1c0,0,0,0,0,0c0,0,0,0,0,0l-0.1,0.1
				c0,0,0,0,0,0c0,0,0,0,0,0l-0.1,0.1c0,0,0,0,0,0c0,0,0,0,0,0l-0.1,0.1v0c0,0,0-0.1,0-0.1c0,0,0-0.1,0-0.1v-0.2c0,0,0-0.1,0-0.1
				c0,0,0-0.1,0-0.1V768c0,0,0-0.1,0-0.1c0,0,0-0.1,0-0.1v-0.2c0,0,0-0.1,0-0.1c0,0,0-0.1,0-0.1v-0.2c0,0,0-0.1,0-0.1
				c0,0,0-0.1,0-0.1V767c0,0,0-0.1,0-0.1c0,0,0-0.1,0-0.1v-0.2c0,0,0-0.1,0-0.1c0,0,0-0.1,0-0.1v-0.2c0,0,0-0.1,0-0.1
				c0,0,0-0.1,0-0.1v-0.2c0,0,0-0.1,0-0.1c0,0,0-0.1,0-0.1v-0.2c0,0,0-0.1,0-0.1c0,0,0-0.1,0-0.1v-0.2c0-0.3-0.2-0.6-0.4-0.6
				s-0.4,0.3-0.4,0.6v0.2c0,0,0,0.1,0,0.1c0,0,0,0.1,0,0.1v0.2c0,0,0,0.1,0,0.1c0,0,0,0.1,0,0.1v0.2c0,0,0,0.1,0,0.1
				c0,0,0,0.1,0,0.1v0.2c0,0,0,0.1,0,0.1c0,0,0,0.1,0,0.1v0.2c0,0,0,0.1,0,0.1c0,0,0,0.1,0,0.1v0.2c0,0,0,0.1,0,0.1c0,0,0,0.1,0,0.1
				v0.2c0,0,0,0.1,0,0.1c0,0,0,0.1,0,0.1v0.2c0,0,0,0.1,0,0.1c0,0,0,0.1,0,0.1v0.2c0,0,0,0.1,0,0.1c0,0,0,0.1,0,0.1v0.2
				c0,0,0,0.1,0,0.1c0,0,0,0.1,0,0.1v0l0,0c0,0,0,0,0,0c0,0,0,0,0,0l-0.1-0.1c0,0,0,0,0,0c0,0,0,0,0,0l-0.1-0.1c0,0,0,0,0,0
				c0,0,0,0,0,0l-0.1-0.1c0,0,0,0,0,0c0,0,0,0,0,0l-0.1-0.1c-0.1-0.1-0.1-0.1-0.2-0.1c-0.1,0-0.3,0.1-0.4,0.3
				C1077.8,768.5,1077.9,768.9,1078.1,769.1z"/>
			<path class="st122" d="M1082.9,764.9c0,0.2,0.1,0.3,0.2,0.4l1.6,1.4l-0.6,0.1c-0.2,0-0.4,0.3-0.4,0.6c0,0.2,0.1,0.4,0.2,0.5
				c0.1,0.1,0.2,0.1,0.3,0.1c2.2-0.1,2.2-0.1,2.3-0.2c0,0,0,0,0,0c0,0,0,0,0,0c0,0,0,0,0-0.1c0,0,0-0.1,0-0.1c0,0,0,0,0,0
				c0,0,0-0.1,0-0.1c0,0,0,0,0,0c0,0,0-0.1,0-0.1c0,0,0,0-0.1-2.3c0-0.4-0.2-0.6-0.4-0.6c0,0,0,0,0,0c-0.2,0-0.4,0.3-0.4,0.7l0,0.9
				l-2.1-1.9c-0.1-0.1-0.1-0.1-0.2-0.1c-0.2,0-0.3,0.1-0.4,0.3C1082.8,764.5,1082.8,764.7,1082.9,764.9z"/>
			<path class="st122" d="M1076.6,764.7c0,0.2-0.1,0.3-0.2,0.4l-1.6,1.4l0.6,0.1c0.2,0,0.4,0.3,0.4,0.6c0,0.2-0.1,0.4-0.2,0.5
				c-0.1,0.1-0.2,0.1-0.3,0.1c-2.2-0.1-2.2-0.1-2.3-0.2c0,0,0,0,0,0c0,0,0,0,0,0c0,0,0,0,0-0.1c0,0,0-0.1,0-0.1c0,0,0,0,0,0
				c0,0,0-0.1,0-0.1c0,0,0,0,0,0c0,0,0-0.1,0-0.1c0,0,0,0,0.1-2.3c0-0.4,0.2-0.6,0.4-0.6c0,0,0,0,0,0c0.2,0,0.4,0.3,0.4,0.7l0,0.9
				l2.1-1.9c0.1-0.1,0.1-0.1,0.2-0.1c0.2,0,0.3,0.1,0.4,0.3C1076.6,764.3,1076.7,764.5,1076.6,764.7z"/>
		</g>
	</g>
</g>
<ellipse class="st119" cx="559.9" cy="1180.1" rx="44.5" ry="26.7"/>
<g>
	<rect x="890.8" y="941.6" class="st11" width="92.9" height="19.4"/>
	<text transform="matrix(1 0 0 1 890.8015 953.4399)" class="st123 st120 st124">Device</text>
	<g>
		<path class="st93" d="M878.4,987c0,0-4.5-21.6,26.4-25.2c0,0,1.3-0.2,1.5-0.2c55.4-6.3,161.4-0.9,161.4-0.9l0,0
			c35.5,2.2,33.8,26.3,33.8,26.3v45.6c0,0,0,24.4-30.9,28h0c0,0,0.7,0-1.1,0.1v31.9l-34.6-31.5c-40.2,1.4-124.5-2.1-124.5-2.1v-0.2
			c-35.5-2.2-32-26.1-32-26.1V987z"/>
	</g>
	<rect x="883.6" y="985.9" class="st11" width="210.8" height="50.3"/>
	<text transform="matrix(1 0 0 1 939.2058 1005.0562)"><tspan x="0" y="0" class="st3 st116 st125">Err, that </tspan><tspan x="-22.3" y="29.1" class="st3 st116 st125">didn’t work!</tspan></text>
	<g>
		<path class="st122" d="M1083.4,948.2c0.4,1.4-0.5,2.7-2,3.1c-1.5,0.3-3-0.5-3.3-1.9c-0.4-1.4,0.5-2.7,2-3.1
			C1081.5,946,1083,946.8,1083.4,948.2z"/>
		<g>
			<path class="st122" d="M1082.1,940.6L1082.1,940.6c-0.1-0.1-0.1-0.1-0.1-0.1c0,0,0,0,0,0l-0.1-0.1c0,0,0,0,0,0c0,0,0,0,0,0
				l-0.1-0.1c0,0,0,0,0,0c0,0,0,0,0,0l-0.1-0.1c0,0,0,0,0,0c0,0,0,0,0,0l-0.1-0.1c0,0,0,0,0,0c0,0,0,0,0,0l-0.1-0.1c0,0,0,0,0,0
				c0,0,0,0,0,0l-0.1-0.1c0,0,0,0,0,0c0,0,0,0,0,0l-0.1-0.1l0,0c-0.1-0.1-0.3-0.1-0.5,0c0,0,0,0,0,0l-0.1,0.1c0,0,0,0,0,0
				c0,0,0,0,0,0l-0.1,0.1c0,0,0,0,0,0c0,0,0,0,0,0l-0.1,0.1c0,0,0,0,0,0c0,0,0,0,0,0l-0.1,0.1c0,0,0,0,0,0c0,0,0,0,0,0l-0.1,0.1
				c0,0,0,0,0,0c0,0,0,0,0,0l-0.1,0.1c0,0,0,0,0,0c0,0,0,0,0,0l-0.1,0.1c0,0,0,0,0,0c0,0,0,0,0,0l-0.1,0.1c-0.1,0.1-0.2,0.2-0.2,0.4
				c0,0.2,0,0.3,0,0.5c0.1,0.2,0.2,0.3,0.4,0.3c0.1,0,0.2,0,0.2-0.1l0.1-0.1c0,0,0,0,0,0c0,0,0,0,0,0l0.1-0.1c0,0,0,0,0,0
				c0,0,0,0,0,0l0.1-0.1c0,0,0,0,0,0c0,0,0,0,0,0l0.1-0.1c0,0,0,0,0,0c0,0,0,0,0,0l0.1-0.1v0c0,0,0,0.1,0,0.1c0,0,0,0.1,0,0.1v0.2
				c0,0,0,0.1,0,0.1c0,0,0,0.1,0,0.1v0.2c0,0,0,0.1,0,0.1c0,0,0,0.1,0,0.1v0.2c0,0,0,0.1,0,0.1c0,0,0,0.1,0,0.1v0.2c0,0,0,0.1,0,0.1
				c0,0,0,0.1,0,0.1v0.2c0,0,0,0.1,0,0.1c0,0,0,0.1,0,0.1v0.2c0,0,0,0.1,0,0.1c0,0,0,0.1,0,0.1v0.2c0,0,0,0.1,0,0.1c0,0,0,0.1,0,0.1
				v0.2c0,0,0,0.1,0,0.1c0,0,0,0.1,0,0.1v0.2c0,0,0,0.1,0,0.1c0,0,0,0.1,0,0.1v0.2c0,0.3,0.2,0.6,0.4,0.6c0.2,0,0.4-0.3,0.4-0.6V944
				c0,0,0-0.1,0-0.1c0,0,0-0.1,0-0.1v-0.2c0,0,0-0.1,0-0.1c0,0,0-0.1,0-0.1v-0.2c0,0,0-0.1,0-0.1c0,0,0-0.1,0-0.1v-0.2
				c0,0,0-0.1,0-0.1c0,0,0-0.1,0-0.1v-0.2c0,0,0-0.1,0-0.1c0,0,0-0.1,0-0.1v-0.2c0,0,0-0.1,0-0.1c0,0,0-0.1,0-0.1v-0.2
				c0,0,0-0.1,0-0.1c0,0,0-0.1,0-0.1v-0.2c0,0,0-0.1,0-0.1c0,0,0-0.1,0-0.1v-0.2c0,0,0-0.1,0-0.1c0,0,0-0.1,0-0.1v-0.2
				c0,0,0-0.1,0-0.1c0,0,0-0.1,0-0.1v0l0,0c0,0,0,0,0,0c0,0,0,0,0,0l0.1,0.1c0,0,0,0,0,0c0,0,0,0,0,0l0.1,0.1c0,0,0,0,0,0
				c0,0,0,0,0,0l0.1,0.1c0,0,0,0,0,0c0,0,0,0,0,0l0.1,0.1c0.1,0.1,0.1,0.1,0.2,0.1c0.1,0,0.3-0.1,0.4-0.3
				C1082.3,941.1,1082.3,940.7,1082.1,940.6z"/>
			<path class="st122" d="M1075.5,948.1h-3.1l1-0.8c0.2-0.2,0.2-0.5,0.1-0.8c-0.1-0.3-0.3-0.4-0.5-0.2l-2.1,1.8
				c-0.1,0.1-0.2,0.3-0.2,0.5c0,0.2,0.1,0.4,0.2,0.5l2.1,2.1c0.1,0.1,0.1,0.1,0.2,0.1c0.1,0,0.2-0.1,0.3-0.2
				c0.1-0.3,0.1-0.6-0.1-0.8l-1-1h3.1c0.2,0,0.4-0.2,0.4-0.6S1075.7,948.1,1075.5,948.1z"/>
			<path class="st122" d="M1077.3,944.7c0-0.2-0.1-0.3-0.2-0.4l-1.6-1.4l0.6-0.1c0.2,0,0.4-0.3,0.4-0.6c0-0.2-0.1-0.4-0.2-0.5
				c-0.1-0.1-0.2-0.1-0.3-0.1c-2.2,0.1-2.2,0.1-2.3,0.2c0,0,0,0,0,0c0,0,0,0,0,0c0,0,0,0,0,0.1c0,0,0,0.1,0,0.1c0,0,0,0,0,0
				c0,0,0,0.1,0,0.1c0,0,0,0,0,0c0,0,0,0.1,0,0.1c0,0,0,0,0.1,2.3c0,0.4,0.2,0.6,0.4,0.6c0,0,0,0,0,0c0.2,0,0.4-0.3,0.4-0.7l0-0.9
				l2.1,1.9c0.1,0.1,0.1,0.1,0.2,0.1c0.2,0,0.3-0.1,0.4-0.3C1077.3,945.1,1077.4,944.9,1077.3,944.7z"/>
			<path class="st122" d="M1085.4,948.4h3.1l-1-0.8c-0.2-0.2-0.2-0.5-0.1-0.8c0.1-0.3,0.3-0.4,0.5-0.2l2.1,1.8
				c0.1,0.1,0.2,0.3,0.2,0.5c0,0.2-0.1,0.4-0.2,0.5l-2.1,2.1c-0.1,0.1-0.1,0.1-0.2,0.1c-0.1,0-0.2-0.1-0.3-0.2
				c-0.1-0.3-0.1-0.6,0.1-0.8l1-1h-3.1c-0.2,0-0.4-0.2-0.4-0.6C1085,948.6,1085.2,948.4,1085.4,948.4z"/>
			<path class="st122" d="M1083.6,945c0-0.2,0.1-0.3,0.2-0.4l1.6-1.4l-0.6-0.1c-0.2,0-0.4-0.3-0.4-0.6c0-0.2,0.1-0.4,0.2-0.5
				c0.1-0.1,0.2-0.1,0.3-0.1c2.2,0.1,2.2,0.1,2.3,0.2c0,0,0,0,0,0c0,0,0,0,0,0c0,0,0,0,0,0.1c0,0,0,0.1,0,0.1c0,0,0,0,0,0
				c0,0,0,0.1,0,0.1c0,0,0,0,0,0c0,0,0,0.1,0,0.1c0,0,0,0-0.1,2.3c0,0.4-0.2,0.6-0.4,0.6c0,0,0,0,0,0c-0.2,0-0.4-0.3-0.4-0.7l0-0.9
				l-2.1,1.9c-0.1,0.1-0.1,0.1-0.2,0.1c-0.2,0-0.3-0.1-0.4-0.3C1083.5,945.3,1083.5,945.1,1083.6,945z"/>
		</g>
		<g>
			<path class="st122" d="M1078.8,957.2L1078.8,957.2c0.1,0.1,0.1,0.1,0.1,0.1c0,0,0,0,0,0l0.1,0.1c0,0,0,0,0,0c0,0,0,0,0,0l0.1,0.1
				c0,0,0,0,0,0c0,0,0,0,0,0l0.1,0.1c0,0,0,0,0,0c0,0,0,0,0,0l0.1,0.1c0,0,0,0,0,0c0,0,0,0,0,0l0.1,0.1c0,0,0,0,0,0c0,0,0,0,0,0
				l0.1,0.1c0,0,0,0,0,0c0,0,0,0,0,0l0.1,0.1l0,0c0.1,0.1,0.3,0.1,0.5,0c0,0,0,0,0,0l0.1-0.1c0,0,0,0,0,0c0,0,0,0,0,0l0.1-0.1
				c0,0,0,0,0,0c0,0,0,0,0,0l0.1-0.1c0,0,0,0,0,0c0,0,0,0,0,0l0.1-0.1c0,0,0,0,0,0c0,0,0,0,0,0l0.1-0.1c0,0,0,0,0,0c0,0,0,0,0,0
				l0.1-0.1c0,0,0,0,0,0c0,0,0,0,0,0l0.1-0.1c0,0,0,0,0,0c0,0,0,0,0,0l0.1-0.1c0.1-0.1,0.2-0.2,0.2-0.4c0-0.2,0-0.3,0-0.5
				c-0.1-0.2-0.2-0.3-0.4-0.3c-0.1,0-0.2,0-0.2,0.1l-0.1,0.1c0,0,0,0,0,0c0,0,0,0,0,0l-0.1,0.1c0,0,0,0,0,0c0,0,0,0,0,0l-0.1,0.1
				c0,0,0,0,0,0c0,0,0,0,0,0l-0.1,0.1c0,0,0,0,0,0c0,0,0,0,0,0l-0.1,0.1v0c0,0,0-0.1,0-0.1c0,0,0-0.1,0-0.1v-0.2c0,0,0-0.1,0-0.1
				c0,0,0-0.1,0-0.1v-0.2c0,0,0-0.1,0-0.1c0,0,0-0.1,0-0.1v-0.2c0,0,0-0.1,0-0.1c0,0,0-0.1,0-0.1v-0.2c0,0,0-0.1,0-0.1
				c0,0,0-0.1,0-0.1v-0.2c0,0,0-0.1,0-0.1c0,0,0-0.1,0-0.1v-0.2c0,0,0-0.1,0-0.1c0,0,0-0.1,0-0.1v-0.2c0,0,0-0.1,0-0.1
				c0,0,0-0.1,0-0.1v-0.2c0,0,0-0.1,0-0.1c0,0,0-0.1,0-0.1v-0.2c0,0,0-0.1,0-0.1c0,0,0-0.1,0-0.1v-0.2c0-0.3-0.2-0.6-0.4-0.6
				c-0.2,0-0.4,0.3-0.4,0.6v0.2c0,0,0,0.1,0,0.1c0,0,0,0.1,0,0.1v0.2c0,0,0,0.1,0,0.1c0,0,0,0.1,0,0.1v0.2c0,0,0,0.1,0,0.1
				c0,0,0,0.1,0,0.1v0.2c0,0,0,0.1,0,0.1c0,0,0,0.1,0,0.1v0.2c0,0,0,0.1,0,0.1c0,0,0,0.1,0,0.1v0.2c0,0,0,0.1,0,0.1c0,0,0,0.1,0,0.1
				v0.2c0,0,0,0.1,0,0.1c0,0,0,0.1,0,0.1v0.2c0,0,0,0.1,0,0.1c0,0,0,0.1,0,0.1v0.2c0,0,0,0.1,0,0.1c0,0,0,0.1,0,0.1v0.2
				c0,0,0,0.1,0,0.1c0,0,0,0.1,0,0.1v0l0,0c0,0,0,0,0,0c0,0,0,0,0,0l-0.1-0.1c0,0,0,0,0,0c0,0,0,0,0,0l-0.1-0.1c0,0,0,0,0,0
				c0,0,0,0,0,0l-0.1-0.1c0,0,0,0,0,0c0,0,0,0,0,0l-0.1-0.1c-0.1-0.1-0.1-0.1-0.2-0.1c-0.1,0-0.3,0.1-0.4,0.3
				C1078.5,956.7,1078.6,957.1,1078.8,957.2z"/>
			<path class="st122" d="M1083.6,953c0,0.2,0.1,0.3,0.2,0.4l1.6,1.4l-0.6,0.1c-0.2,0-0.4,0.3-0.4,0.6c0,0.2,0.1,0.4,0.2,0.5
				c0.1,0.1,0.2,0.1,0.3,0.1c2.2-0.1,2.2-0.1,2.3-0.2c0,0,0,0,0,0c0,0,0,0,0,0c0,0,0,0,0-0.1c0,0,0-0.1,0-0.1c0,0,0,0,0,0
				c0,0,0-0.1,0-0.1c0,0,0,0,0,0c0,0,0-0.1,0-0.1c0,0,0,0-0.1-2.3c0-0.4-0.2-0.6-0.4-0.6c0,0,0,0,0,0c-0.2,0-0.4,0.3-0.4,0.7l0,0.9
				l-2.1-1.9c-0.1-0.1-0.1-0.1-0.2-0.1c-0.2,0-0.3,0.1-0.4,0.3C1083.5,952.7,1083.5,952.9,1083.6,953z"/>
			<path class="st122" d="M1077.3,952.8c0,0.2-0.1,0.3-0.2,0.4l-1.6,1.4l0.6,0.1c0.2,0,0.4,0.3,0.4,0.6c0,0.2-0.1,0.4-0.2,0.5
				c-0.1,0.1-0.2,0.1-0.3,0.1c-2.2-0.1-2.2-0.1-2.3-0.2c0,0,0,0,0,0c0,0,0,0,0,0c0,0,0,0,0-0.1c0,0,0-0.1,0-0.1c0,0,0,0,0,0
				c0,0,0-0.1,0-0.1c0,0,0,0,0,0c0,0,0-0.1,0-0.1c0,0,0,0,0.1-2.3c0-0.4,0.2-0.6,0.4-0.6c0,0,0,0,0,0c0.2,0,0.4,0.3,0.4,0.7l0,0.9
				l2.1-1.9c0.1-0.1,0.1-0.1,0.2-0.1c0.2,0,0.3,0.1,0.4,0.3C1077.3,952.5,1077.4,952.6,1077.3,952.8z"/>
		</g>
	</g>
</g>
<line class="st134" x1="1154.1" y1="1014.4" x2="613.1" y2="1014.4"/>
<g>
	<rect x="890.1" y="439.2" class="st11" width="92.9" height="19.4"/>
	<text transform="matrix(1 0 0 1 890.11 451.0442)" class="st123 st120 st124">Device</text>
	<g>
		<path class="st93" d="M877.7,484.6c0,0-4.5-21.6,26.4-25.2c0,0,1.3-0.2,1.5-0.2c55.4-6.3,161.4-0.9,161.4-0.9l0,0
			c35.5,2.2,33.8,26.3,33.8,26.3v45.6c0,0,0,24.4-30.9,28h0c0,0,0.7,0-1.1,0.1v31.9l-34.6-31.5c-40.2,1.4-124.5-2.1-124.5-2.1v-0.2
			c-35.5-2.2-32-26.1-32-26.1V484.6z"/>
	</g>
	<rect x="890.1" y="483.5" class="st11" width="199.3" height="50.3"/>
	<text transform="matrix(1 0 0 1 904.1266 502.6604)"><tspan x="0" y="0" class="st3 st116 st125">Here’s a list of </tspan><tspan x="-2.9" y="29.1" class="st3 st116 st125">things I can do</tspan></text>
	<g>
		<path class="st122" d="M1082.7,445.8c0.4,1.4-0.5,2.7-2,3.1c-1.5,0.3-3-0.5-3.3-1.9c-0.4-1.4,0.5-2.7,2-3.1
			C1080.8,443.6,1082.3,444.4,1082.7,445.8z"/>
		<g>
			<path class="st122" d="M1081.4,438.2L1081.4,438.2c-0.1-0.1-0.1-0.1-0.1-0.1c0,0,0,0,0,0l-0.1-0.1c0,0,0,0,0,0c0,0,0,0,0,0
				l-0.1-0.1c0,0,0,0,0,0c0,0,0,0,0,0l-0.1-0.1c0,0,0,0,0,0c0,0,0,0,0,0l-0.1-0.1c0,0,0,0,0,0c0,0,0,0,0,0l-0.1-0.1c0,0,0,0,0,0
				c0,0,0,0,0,0l-0.1-0.1c0,0,0,0,0,0c0,0,0,0,0,0l-0.1-0.1l0,0c-0.1-0.1-0.3-0.1-0.5,0c0,0,0,0,0,0l-0.1,0.1c0,0,0,0,0,0
				c0,0,0,0,0,0l-0.1,0.1c0,0,0,0,0,0c0,0,0,0,0,0l-0.1,0.1c0,0,0,0,0,0c0,0,0,0,0,0l-0.1,0.1c0,0,0,0,0,0c0,0,0,0,0,0l-0.1,0.1
				c0,0,0,0,0,0c0,0,0,0,0,0l-0.1,0.1c0,0,0,0,0,0c0,0,0,0,0,0l-0.1,0.1c0,0,0,0,0,0c0,0,0,0,0,0l-0.1,0.1c-0.1,0.1-0.2,0.2-0.2,0.4
				c0,0.2,0,0.3,0,0.5c0.1,0.2,0.2,0.3,0.4,0.3c0.1,0,0.2,0,0.2-0.1l0.1-0.1c0,0,0,0,0,0c0,0,0,0,0,0l0.1-0.1c0,0,0,0,0,0
				c0,0,0,0,0,0l0.1-0.1c0,0,0,0,0,0c0,0,0,0,0,0l0.1-0.1c0,0,0,0,0,0c0,0,0,0,0,0l0.1-0.1v0c0,0,0,0.1,0,0.1c0,0,0,0.1,0,0.1v0.2
				c0,0,0,0.1,0,0.1c0,0,0,0.1,0,0.1v0.2c0,0,0,0.1,0,0.1c0,0,0,0.1,0,0.1v0.2c0,0,0,0.1,0,0.1c0,0,0,0.1,0,0.1v0.2c0,0,0,0.1,0,0.1
				c0,0,0,0.1,0,0.1v0.2c0,0,0,0.1,0,0.1c0,0,0,0.1,0,0.1v0.2c0,0,0,0.1,0,0.1c0,0,0,0.1,0,0.1v0.2c0,0,0,0.1,0,0.1c0,0,0,0.1,0,0.1
				v0.2c0,0,0,0.1,0,0.1c0,0,0,0.1,0,0.1v0.2c0,0,0,0.1,0,0.1c0,0,0,0.1,0,0.1v0.2c0,0.3,0.2,0.6,0.4,0.6s0.4-0.3,0.4-0.6v-0.2
				c0,0,0-0.1,0-0.1c0,0,0-0.1,0-0.1v-0.2c0,0,0-0.1,0-0.1c0,0,0-0.1,0-0.1V441c0,0,0-0.1,0-0.1c0,0,0-0.1,0-0.1v-0.2
				c0,0,0-0.1,0-0.1c0,0,0-0.1,0-0.1v-0.2c0,0,0-0.1,0-0.1c0,0,0-0.1,0-0.1V440c0,0,0-0.1,0-0.1c0,0,0-0.1,0-0.1v-0.2
				c0,0,0-0.1,0-0.1c0,0,0-0.1,0-0.1v-0.2c0,0,0-0.1,0-0.1c0,0,0-0.1,0-0.1v-0.2c0,0,0-0.1,0-0.1c0,0,0-0.1,0-0.1v-0.2
				c0,0,0-0.1,0-0.1c0,0,0-0.1,0-0.1v0l0,0c0,0,0,0,0,0c0,0,0,0,0,0l0.1,0.1c0,0,0,0,0,0c0,0,0,0,0,0l0.1,0.1c0,0,0,0,0,0
				c0,0,0,0,0,0l0.1,0.1c0,0,0,0,0,0c0,0,0,0,0,0l0.1,0.1c0.1,0.1,0.1,0.1,0.2,0.1c0.1,0,0.3-0.1,0.4-0.3
				C1081.6,438.7,1081.6,438.3,1081.4,438.2z"/>
			<path class="st122" d="M1074.8,445.8h-3.1l1-0.8c0.2-0.2,0.2-0.5,0.1-0.8c-0.1-0.3-0.3-0.4-0.5-0.2l-2.1,1.8
				c-0.1,0.1-0.2,0.3-0.2,0.5c0,0.2,0.1,0.4,0.2,0.5l2.1,2.1c0.1,0.1,0.1,0.1,0.2,0.1c0.1,0,0.2-0.1,0.3-0.2
				c0.1-0.3,0.1-0.6-0.1-0.8l-1-1h3.1c0.2,0,0.4-0.2,0.4-0.6C1075.2,446,1075,445.8,1074.8,445.8z"/>
			<path class="st122" d="M1076.6,442.3c0-0.2-0.1-0.3-0.2-0.4l-1.6-1.4l0.6-0.1c0.2,0,0.4-0.3,0.4-0.6c0-0.2-0.1-0.4-0.2-0.5
				c-0.1-0.1-0.2-0.1-0.3-0.1c-2.2,0.1-2.2,0.1-2.3,0.2c0,0,0,0,0,0c0,0,0,0,0,0c0,0,0,0,0,0.1c0,0,0,0.1,0,0.1c0,0,0,0,0,0
				c0,0,0,0.1,0,0.1c0,0,0,0,0,0c0,0,0,0.1,0,0.1c0,0,0,0,0.1,2.3c0,0.4,0.2,0.6,0.4,0.6c0,0,0,0,0,0c0.2,0,0.4-0.3,0.4-0.7l0-0.9
				l2.1,1.9c0.1,0.1,0.1,0.1,0.2,0.1c0.2,0,0.3-0.1,0.4-0.3C1076.6,442.7,1076.7,442.5,1076.6,442.3z"/>
			<path class="st122" d="M1084.7,446h3.1l-1-0.8c-0.2-0.2-0.2-0.5-0.1-0.8c0.1-0.3,0.3-0.4,0.5-0.2l2.1,1.8
				c0.1,0.1,0.2,0.3,0.2,0.5c0,0.2-0.1,0.4-0.2,0.5l-2.1,2.1c-0.1,0.1-0.1,0.1-0.2,0.1c-0.1,0-0.2-0.1-0.3-0.2
				c-0.1-0.3-0.1-0.6,0.1-0.8l1-1h-3.1c-0.2,0-0.4-0.2-0.4-0.6S1084.5,446,1084.7,446z"/>
			<path class="st122" d="M1082.9,442.6c0-0.2,0.1-0.3,0.2-0.4l1.6-1.4l-0.6-0.1c-0.2,0-0.4-0.3-0.4-0.6c0-0.2,0.1-0.4,0.2-0.5
				c0.1-0.1,0.2-0.1,0.3-0.1c2.2,0.1,2.2,0.1,2.3,0.2c0,0,0,0,0,0c0,0,0,0,0,0c0,0,0,0,0,0.1c0,0,0,0.1,0,0.1c0,0,0,0,0,0
				c0,0,0,0.1,0,0.1c0,0,0,0,0,0c0,0,0,0.1,0,0.1c0,0,0,0-0.1,2.3c0,0.4-0.2,0.6-0.4,0.6c0,0,0,0,0,0c-0.2,0-0.4-0.3-0.4-0.7l0-0.9
				l-2.1,1.9c-0.1,0.1-0.1,0.1-0.2,0.1c-0.2,0-0.3-0.1-0.4-0.3C1082.8,442.9,1082.8,442.7,1082.9,442.6z"/>
		</g>
		<g>
			<path class="st122" d="M1078.1,454.8L1078.1,454.8c0.1,0.1,0.1,0.1,0.1,0.1c0,0,0,0,0,0l0.1,0.1c0,0,0,0,0,0c0,0,0,0,0,0l0.1,0.1
				c0,0,0,0,0,0c0,0,0,0,0,0l0.1,0.1c0,0,0,0,0,0c0,0,0,0,0,0l0.1,0.1c0,0,0,0,0,0c0,0,0,0,0,0l0.1,0.1c0,0,0,0,0,0c0,0,0,0,0,0
				l0.1,0.1c0,0,0,0,0,0c0,0,0,0,0,0l0.1,0.1l0,0c0.1,0.1,0.3,0.1,0.5,0c0,0,0,0,0,0l0.1-0.1c0,0,0,0,0,0c0,0,0,0,0,0l0.1-0.1
				c0,0,0,0,0,0c0,0,0,0,0,0l0.1-0.1c0,0,0,0,0,0c0,0,0,0,0,0l0.1-0.1c0,0,0,0,0,0c0,0,0,0,0,0l0.1-0.1c0,0,0,0,0,0c0,0,0,0,0,0
				l0.1-0.1c0,0,0,0,0,0c0,0,0,0,0,0l0.1-0.1c0,0,0,0,0,0c0,0,0,0,0,0l0.1-0.1c0.1-0.1,0.2-0.2,0.2-0.4c0-0.2,0-0.3,0-0.5
				c-0.1-0.2-0.2-0.3-0.4-0.3c-0.1,0-0.2,0-0.2,0.1l-0.1,0.1c0,0,0,0,0,0c0,0,0,0,0,0l-0.1,0.1c0,0,0,0,0,0c0,0,0,0,0,0l-0.1,0.1
				c0,0,0,0,0,0c0,0,0,0,0,0l-0.1,0.1c0,0,0,0,0,0c0,0,0,0,0,0l-0.1,0.1v0c0,0,0-0.1,0-0.1c0,0,0-0.1,0-0.1v-0.2c0,0,0-0.1,0-0.1
				c0,0,0-0.1,0-0.1v-0.2c0,0,0-0.1,0-0.1c0,0,0-0.1,0-0.1v-0.2c0,0,0-0.1,0-0.1c0,0,0-0.1,0-0.1v-0.2c0,0,0-0.1,0-0.1
				c0,0,0-0.1,0-0.1v-0.2c0,0,0-0.1,0-0.1c0,0,0-0.1,0-0.1v-0.2c0,0,0-0.1,0-0.1c0,0,0-0.1,0-0.1v-0.2c0,0,0-0.1,0-0.1
				c0,0,0-0.1,0-0.1v-0.2c0,0,0-0.1,0-0.1c0,0,0-0.1,0-0.1v-0.2c0,0,0-0.1,0-0.1c0,0,0-0.1,0-0.1v-0.2c0-0.3-0.2-0.6-0.4-0.6
				s-0.4,0.3-0.4,0.6v0.2c0,0,0,0.1,0,0.1c0,0,0,0.1,0,0.1v0.2c0,0,0,0.1,0,0.1c0,0,0,0.1,0,0.1v0.2c0,0,0,0.1,0,0.1
				c0,0,0,0.1,0,0.1v0.2c0,0,0,0.1,0,0.1c0,0,0,0.1,0,0.1v0.2c0,0,0,0.1,0,0.1c0,0,0,0.1,0,0.1v0.2c0,0,0,0.1,0,0.1c0,0,0,0.1,0,0.1
				v0.2c0,0,0,0.1,0,0.1c0,0,0,0.1,0,0.1v0.2c0,0,0,0.1,0,0.1c0,0,0,0.1,0,0.1v0.2c0,0,0,0.1,0,0.1c0,0,0,0.1,0,0.1v0.2
				c0,0,0,0.1,0,0.1c0,0,0,0.1,0,0.1v0l0,0c0,0,0,0,0,0c0,0,0,0,0,0l-0.1-0.1c0,0,0,0,0,0c0,0,0,0,0,0l-0.1-0.1c0,0,0,0,0,0
				c0,0,0,0,0,0l-0.1-0.1c0,0,0,0,0,0c0,0,0,0,0,0l-0.1-0.1c-0.1-0.1-0.1-0.1-0.2-0.1c-0.1,0-0.3,0.1-0.4,0.3
				C1077.8,454.3,1077.9,454.7,1078.1,454.8z"/>
			<path class="st122" d="M1082.9,450.7c0,0.2,0.1,0.3,0.2,0.4l1.6,1.4l-0.6,0.1c-0.2,0-0.4,0.3-0.4,0.6c0,0.2,0.1,0.4,0.2,0.5
				c0.1,0.1,0.2,0.1,0.3,0.1c2.2-0.1,2.2-0.1,2.3-0.2c0,0,0,0,0,0c0,0,0,0,0,0c0,0,0,0,0-0.1c0,0,0-0.1,0-0.1c0,0,0,0,0,0
				c0,0,0-0.1,0-0.1c0,0,0,0,0,0c0,0,0-0.1,0-0.1c0,0,0,0-0.1-2.3c0-0.4-0.2-0.6-0.4-0.6c0,0,0,0,0,0c-0.2,0-0.4,0.3-0.4,0.7l0,0.9
				l-2.1-1.9c-0.1-0.1-0.1-0.1-0.2-0.1c-0.2,0-0.3,0.1-0.4,0.3C1082.8,450.3,1082.8,450.5,1082.9,450.7z"/>
			<path class="st122" d="M1076.6,450.4c0,0.2-0.1,0.3-0.2,0.4l-1.6,1.4l0.6,0.1c0.2,0,0.4,0.3,0.4,0.6c0,0.2-0.1,0.4-0.2,0.5
				c-0.1,0.1-0.2,0.1-0.3,0.1c-2.2-0.1-2.2-0.1-2.3-0.2c0,0,0,0,0,0c0,0,0,0,0,0c0,0,0,0,0-0.1c0,0,0-0.1,0-0.1c0,0,0,0,0,0
				c0,0,0-0.1,0-0.1c0,0,0,0,0,0c0,0,0-0.1,0-0.1c0,0,0,0,0.1-2.3c0-0.4,0.2-0.6,0.4-0.6c0,0,0,0,0,0c0.2,0,0.4,0.3,0.4,0.7l0,0.9
				l2.1-1.9c0.1-0.1,0.1-0.1,0.2-0.1c0.2,0,0.3,0.1,0.4,0.3C1076.6,450.1,1076.7,450.2,1076.6,450.4z"/>
		</g>
	</g>
</g>
<g>
	<g id="Upp67m.tif">
		<g>
			<path class="st122" d="M809.8,309.3c-0.5,0.5-0.9,0.9-1.4,1.4c-2.4-2.3-5.2-3.5-8.5-3.5c-3.3,0-6.1,1.2-8.5,3.5
				c-0.5-0.5-0.9-0.9-1.4-1.4c0,0,0,0,0,0c0,0,0,0,0.1-0.1c0.7-0.7,1.5-1.3,2.3-1.9c2.1-1.3,4.4-2.1,6.9-2.2c0.9,0,1.8,0,2.7,0.1
				c0.7,0.1,1.4,0.3,2,0.5c2,0.6,3.8,1.7,5.4,3.1C809.5,309.1,809.7,309.2,809.8,309.3C809.8,309.3,809.8,309.3,809.8,309.3z"/>
			<path class="st122" d="M799.7,320.8c-0.1,0-0.3-0.1-0.4-0.1c-0.6-0.2-0.9-0.6-1-1.3c-0.1-0.8,0.4-1.5,1.1-1.7
				c0.9-0.3,1.8,0.2,2,1.1c0.2,0.9-0.4,1.8-1.3,1.9c0,0,0,0,0,0C800,320.8,799.9,320.8,799.7,320.8z"/>
			<path class="st122" d="M794.2,313.5c-0.5-0.5-0.9-0.9-1.4-1.4c3.7-3.8,10.1-4.1,14.2,0c-0.5,0.5-0.9,0.9-1.4,1.4
				c-1.6-1.5-3.5-2.4-5.7-2.4C797.7,311.1,795.8,311.9,794.2,313.5z"/>
			<path class="st122" d="M804.2,314.9c-0.5,0.5-0.9,0.9-1.4,1.4c-0.8-0.8-1.8-1.2-2.9-1.2c-1.1,0-2.1,0.4-2.9,1.2
				c-0.5-0.5-0.9-0.9-1.4-1.4C797.9,312.5,801.9,312.4,804.2,314.9z"/>
		</g>
	</g>
	<rect x="656.6" y="307.2" class="st11" width="92.9" height="19.4"/>
	<text transform="matrix(1 0 0 1 656.606 318.9681)" class="st123 st120 st124">Phone</text>
	<g>
		<path class="st17" d="M814.6,352.5c0,0,4.5-21.6-26.4-25.2c0,0-1.3-0.2-1.5-0.2c-55.4-6.3-108.9-0.9-108.9-0.9l0,0
			c-35.5,2.2-33.8,26.3-33.8,26.3v45.6c0,0,0,24.4,30.9,28h0c0,0-0.7,0,1.1,0.1v31.9l34.6-31.5c40.2,1.4,72.1-2.1,72.1-2.1v-0.2
			c35.5-2.2,32-26.1,32-26.1V352.5z"/>
	</g>
	<rect x="660.1" y="351.4" class="st11" width="140.7" height="50.3"/>
	<text transform="matrix(1 0 0 1 673.3922 370.5844)"><tspan x="0" y="0" class="st3 st116 st125">What can </tspan><tspan x="10" y="27.2" class="st3 st116 st125">you do? </tspan></text>
</g>
<polyline class="st135" points="619.2,997.3 599.7,1014.6 619.2,1031.5 "/>
<path class="st133" d="M29.1,580.7c0,0-4.8,11.5-4.2,16.9s0.1,11.7,0,18.6c-0.1,6.9-1.1,12.9-1.1,12.9l5.4,2.9c0,0-3.8,3.2-1.9,9
	s12.3,13.8,12.3,13.8s-3.2-22-2.7-30.9C37.1,615.1,29.1,580.7,29.1,580.7z"/>
<path class="st133" d="M177.7,664.9c0,0,18.3,36.4,29.1,36.5c0,0-2.9,8.8-11.6,4.5c-8.6-4.3-24.5-34.5-24.5-34.5
	S161,664.2,177.7,664.9z"/>
<path class="st133" d="M144.7,633.7c0,0-6,21.1,0,26.1c6,5,4.1,8.6,0,11.5c-4.1,2.9,3.8,14.2,3.8,20c0,5.8,2.2,21.7,0,28.9
	c-2.2,7.2,0.6,15.1,2.8,23c2.2,7.9,2.8,29.1,0,29.7c-2.8,0.5-3.7,5.6-3.7,5.6s4.5,0.7,5.6,5.7c1.1,5-1.8,23.3,0,38.6
	c1.8,15.3,6.1,85.1,5.4,97.3c-0.7,12.2-5.8,96.5-5,119.5c0.7,23,0,73.8-2.2,74.8c0,0,20.3-1.6,21.2-18.7c0.9-17.1,2.7-33.6,3.8-40.9
	c1-7.3,6.1-171.3,5.4-199.4c-0.7-28.1-7-76.9-7-76.9s7.9,0.3,7.1-15.3c-0.8-15.6-13.8-64.8-10.9-87c0,0-0.4-4.6-8.8-10.9
	S144.7,633.7,144.7,633.7z"/>
<path class="st133" d="M161.8,1111.3c0,0,32.4,7.1,44.9-7.7c12.5-14.8,7-27.9-32.3-29.4C174.5,1074.2,177.7,1097.1,161.8,1111.3z"/>
<path class="st133" d="M87.8,846.5c0,0-6.6,18.3-6.6,32.1c0,13.8,5.4,59.7,0,79.9s-8.4,101.6-8.4,101.6s-16.9,24.2-17.8,35.6
	c-0.9,11.4,38.5-20.5,38.5-20.5l5.3-15.1L95.7,949"/>
<g>
	<g>
		<g>
			<path class="st160" d="M1406.2,174c0.2,0.6,0.7,1.2,1.4,1.6l11.7,7.2l2.2-9.3l-1-0.6l1-4.3l-5.1-3.1c-1.5-0.9-3.6-1.2-5.7-0.9
				c-2.8,0.4-4.7,2-4.6,3.7C1406,168.5,1406.2,174,1406.2,174z"/>
			<path class="st161" d="M1407.5,170.6c-0.6-0.4-1.1-1-1.4-1.6c-0.8-2,1.2-4,4.5-4.5c2.1-0.3,4.2,0.1,5.7,0.9l5.1,3.1l-2.2,9.3
				L1407.5,170.6z"/>
		</g>
		<g>
			<path class="st162" d="M1395.6,181.7c0.2,0.6,0.7,1.2,1.4,1.6l11.7,7.2l2.2-9.3l-1-0.6l1-4.3l-5.1-3.1c-1.5-0.9-3.6-1.2-5.7-0.9
				c-2.8,0.4-4.7,2-4.6,3.7C1395.4,176.2,1395.6,181.7,1395.6,181.7z"/>
			<path class="st161" d="M1396.9,178.3c-0.6-0.4-1.1-1-1.4-1.6c-0.8-2,1.2-4,4.5-4.5c2.1-0.3,4.2,0.1,5.7,0.9l5.1,3.1l-2.2,9.3
				L1396.9,178.3z"/>
		</g>
		<polygon class="st59" points="1404,192.3 1404,180.2 1410.8,166.3 1502.3,112.8 1592.7,170.1 1599.7,185.1 1599.7,197.6 
			1507.1,254.9 		"/>
		<polyline class="st163" points="1410.8,166.3 1507.1,222.8 1592.7,170.1 		"/>
		<polyline class="st163" points="1404,180.2 1507.1,240.8 1599.7,185.1 		"/>
		<path class="st163" d="M1512.7,199.1c1.5,3.7-2.2,7.5-8.3,8.4c-6.1,0.9-12.2-1.4-13.7-5.1c-1.5-3.7,2.2-7.5,8.3-8.4
			C1505.1,193.1,1511.2,195.4,1512.7,199.1z"/>
		<g>
			<path class="st162" d="M1614,206.2c-0.3-0.7-0.8-1.3-1.6-1.8l-6.5-3.8c-1.6-1.6-1.6-4.4-1.6-4.4v-3c0-3.3-1.7-4.9-2.8-5.6
				c-0.1-0.1-6.8-4.8-6.8-4.8l-9.6,5.5v4c0,0,7.5,5.6,7.6,5.7c1.1,0.7,2.8,2.4,2.8,5.6v3c0,0,0,2.9,1.6,4.4l6.4,3.8
				c1.5,0.6,3.5,0.9,5.4,0.6c2.7-0.4,4.6-1.7,5.1-3.3C1614.2,211.4,1614.4,207.3,1614,206.2z"/>
			<path class="st161" d="M1613.8,205.9c0.9,2.3-1.2,4.2-4.8,4.8c-1.9,0.3-3.9,0-5.4-0.6l-3.4-1.9c-1.6-1.6-1.6-4.4-1.6-4.4v-3
				c0-3.3-1.7-4.9-2.8-5.6c-0.1-0.1-10.7-6.6-10.7-6.6"/>
		</g>
		<g>
			<path class="st162" d="M1601.4,213.6c-0.3-0.7-0.8-1.3-1.6-1.8l-6.5-3.8c-1.6-1.6-1.6-4.4-1.6-4.4v-3c0-3.3-1.7-4.9-2.8-5.6
				c-0.1-0.1-6.8-4.8-6.8-4.8l-9.6,5.5v4c0,0,7.5,5.6,7.6,5.7c1.1,0.7,2.8,2.4,2.8,5.6v3c0,0,0,2.9,1.6,4.4l6.4,3.8
				c1.5,0.6,3.5,0.9,5.4,0.6c2.7-0.4,4.6-1.7,5.1-3.3C1601.7,218.8,1601.9,214.6,1601.4,213.6z"/>
			<path class="st161" d="M1601.3,213.2c0.9,2.3-1.2,4.2-4.8,4.8c-1.9,0.3-3.9,0-5.4-0.6l-3.4-1.9c-1.6-1.6-1.6-4.4-1.6-4.4v-3
				c0-3.3-1.7-4.9-2.8-5.6c-0.1-0.1-10.7-6.6-10.7-6.6"/>
		</g>
		<g>
			<path class="st162" d="M1589.4,220.7c-0.3-0.7-0.8-1.3-1.6-1.8l-6.5-3.8c-1.6-1.6-1.6-4.4-1.6-4.4v-3c0-3.3-1.7-4.9-2.8-5.6
				c-0.1-0.1-6.8-4.8-6.8-4.8l-9.6,5.5v4c0,0,7.5,5.6,7.6,5.7c1.1,0.7,2.8,2.4,2.8,5.6v3c0,0,0,2.9,1.6,4.4l6.4,3.8
				c1.5,0.6,3.5,0.9,5.4,0.6c2.7-0.4,4.6-1.7,5.1-3.3C1589.7,225.9,1589.8,221.7,1589.4,220.7z"/>
			<path class="st161" d="M1589.2,220.3c0.9,2.3-1.2,4.2-4.8,4.8c-1.9,0.3-3.9,0-5.4-0.6l-3.4-1.9c-1.6-1.6-1.6-4.4-1.6-4.4v-3
				c0-3.3-1.7-4.9-2.8-5.6c-0.1-0.1-10.7-6.6-10.7-6.6"/>
		</g>
		<g>
			<path class="st162" d="M1576.9,228c-0.3-0.7-0.8-1.3-1.6-1.8l-6.5-3.8c-1.6-1.6-1.6-4.4-1.6-4.4v-3c0-3.3-1.7-4.9-2.8-5.6
				c-0.1-0.1-6.8-4.8-6.8-4.8l-9.6,5.5v4c0,0,7.5,5.6,7.6,5.7c1.1,0.7,2.8,2.4,2.8,5.6v3c0,0,0,2.9,1.6,4.4l6.4,3.8
				c1.5,0.6,3.5,0.9,5.4,0.6c2.7-0.4,4.6-1.7,5.1-3.3C1577.1,233.3,1577.3,229.1,1576.9,228z"/>
			<path class="st161" d="M1576.7,227.7c0.9,2.3-1.2,4.2-4.8,4.8c-1.9,0.3-3.9,0-5.4-0.6l-3.4-1.9c-1.6-1.6-1.6-4.4-1.6-4.4v-3
				c0-3.3-1.7-4.9-2.8-5.6c-0.1-0.1-10.7-6.6-10.7-6.6"/>
		</g>
		<g>
			<path class="st162" d="M1564.3,236.1c-0.3-0.7-0.8-1.3-1.6-1.8l-6.5-3.8c-1.6-1.6-1.6-4.4-1.6-4.4v-3c0-3.3-1.7-4.9-2.8-5.6
				c-0.1-0.1-6.8-4.8-6.8-4.8l-9.6,5.5v4c0,0,7.5,5.6,7.6,5.7c1.1,0.7,2.8,2.4,2.8,5.6v3c0,0,0,2.9,1.6,4.4l6.4,3.8
				c1.5,0.6,3.5,0.9,5.4,0.6c2.7-0.4,4.6-1.7,5.1-3.3C1564.6,241.3,1564.8,237.1,1564.3,236.1z"/>
			<path class="st161" d="M1564.2,235.7c0.9,2.3-1.2,4.2-4.8,4.8c-1.9,0.3-3.9,0-5.4-0.6l-3.4-1.9c-1.6-1.6-1.6-4.4-1.6-4.4v-3
				c0-3.3-1.7-4.9-2.8-5.6c-0.1-0.1-10.7-6.6-10.7-6.6"/>
		</g>
		<g>
			<path class="st162" d="M1551.8,243.4c-0.3-0.7-0.8-1.3-1.6-1.8l-6.5-3.8c-1.6-1.6-1.6-4.4-1.6-4.4v-3c0-3.3-1.7-4.9-2.8-5.6
				c-0.1-0.1-6.8-4.8-6.8-4.8l-9.6,5.5v4c0,0,7.5,5.6,7.6,5.7c1.1,0.7,2.8,2.4,2.8,5.6v3c0,0,0,2.9,1.6,4.4l6.4,3.8
				c1.5,0.6,3.5,0.9,5.4,0.6c2.7-0.4,4.6-1.7,5.1-3.3C1552.1,248.7,1552.2,244.5,1551.8,243.4z"/>
			<path class="st161" d="M1551.7,243.1c0.9,2.3-1.2,4.2-4.8,4.8c-1.9,0.3-3.9,0-5.4-0.6l-3.4-1.9c-1.6-1.6-1.6-4.4-1.6-4.4v-3
				c0-3.3-1.7-4.9-2.8-5.6c-0.1-0.1-10.7-6.6-10.7-6.6"/>
		</g>
		<g>
			<path class="st162" d="M1538.3,251.1c-0.3-0.7-0.8-1.3-1.6-1.8l-6.5-3.8c-1.6-1.6-1.6-4.4-1.6-4.4v-3c0-3.3-1.7-4.9-2.8-5.6
				c-0.1-0.1-6.8-4.8-6.8-4.8l-9.6,5.5v4c0,0,7.5,5.6,7.6,5.7c1.1,0.7,2.8,2.4,2.8,5.6v3c0,0,0,2.9,1.6,4.4l6.4,3.8
				c1.5,0.6,3.5,0.9,5.4,0.6c2.7-0.4,4.6-1.7,5.1-3.3C1538.6,256.4,1538.7,252.2,1538.3,251.1z"/>
			<path class="st161" d="M1538.2,250.8c0.9,2.3-1.2,4.2-4.8,4.8c-1.9,0.3-3.9,0-5.4-0.6l-3.4-1.9c-1.6-1.6-1.6-4.4-1.6-4.4v-3
				c0-3.3-1.7-4.9-2.8-5.6c-0.1-0.1-10.7-6.6-10.7-6.6"/>
		</g>
	</g>
</g>
<g id="SmartPhone">
	<g id="XMLID_619_">
		<g id="XMLID_640_">
			<path class="st3" d="M240.8,285.6c-1.2,0-2.3-0.3-3.3-0.8l-10.9-6.7l-0.4-0.2l-0.1-0.1c-2.5-1.6-3.8-4.5-3.8-8.1l0.2-130.8
				c0-3.2,1.1-6.7,3-9.9c1.9-3.3,4.5-5.9,7.2-7.5l55-31.4c1.8-1,3.6-1.6,5.4-1.6c1.3,0,2.5,0.3,3.6,0.8l0.2,0.1l0.2,0.2l11.1,6.3
				c2.7,1.6,4.1,4.2,4.1,7.5l-0.1,131.3c0,3.2-1,6.6-2.9,9.8c-1.8,3.2-4.4,5.8-7.2,7.4l-55.4,31.8
				C244.8,285,242.7,285.6,240.8,285.6z"/>
			<g>
				<path class="st14" d="M293.2,91c0.9,0,1.7,0.2,2.4,0.6l0.2,0.1l11.2,6.4c1.7,1,2.9,2.6,2.9,5.4l-0.1,131.3
					c0,2.8-0.9,5.7-2.5,8.5c-1.6,2.8-3.8,5.1-6.3,6.5l-55.4,31.9c-1.5,0.9-3.2,1.5-4.7,1.5c-0.7,0-1.4-0.1-2-0.5l-10.9-6.7l-0.3-0.2
					c-1.7-1.1-2.7-3.2-2.7-6l0.2-130.8c0-2.7,0.9-5.8,2.6-8.7c1.7-2.9,3.9-5.2,6.3-6.6l55-31.4C290.5,91.5,291.9,91,293.2,91
					 M293.2,86c-2.2,0-4.4,0.6-6.6,1.9l-55,31.4c-3.1,1.8-6,4.8-8.1,8.4c-2.1,3.6-3.3,7.6-3.3,11.2l-0.2,130.8c0,4.5,1.8,8.1,5,10.2
					l0.2,0.1l0.2,0.1l0.1,0.1l10.7,6.6l0,0l0,0c1.3,0.8,2.8,1.2,4.5,1.2c2.3,0,4.8-0.8,7.2-2.1l55.4-31.9c3.2-1.8,6-4.7,8.1-8.3
					c2.1-3.6,3.2-7.4,3.2-11l0.1-131.3c0-4.2-1.9-7.7-5.3-9.7l0,0l0,0l-11-6.3l-0.3-0.2l-0.3-0.2C296.4,86.4,294.8,86,293.2,86
					L293.2,86z"/>
			</g>
		</g>
		<path id="XMLID_636_" class="st164" d="M246.1,145.4c-0.6,1.1-1,2.2-1,3.3l-0.2,108.8c0,2.1,1.5,3,3.4,1.9l52.3-29.1
			c0.9-0.5,1.8-1.5,2.4-2.5s1-2.2,1-3.3l0.2-108.8c0-2.1-1.5-3-3.4-1.9l-52.3,29.1C247.6,143.4,246.7,144.3,246.1,145.4L246.1,145.4
			z"/>
		<path id="XMLID_623_" class="st165" d="M267.1,259.7c0,1.2,0.4,2.1,1,2.4c0.7,0.4,1.6,0.3,2.7-0.3l10-5.7c1.2-0.7,2.3-1.9,3.2-3.3
			l0,0c0.9-1.5,1.3-3,1.3-4.4c0-1.2-0.4-2.1-1-2.4c-0.7-0.4-1.6-0.3-2.7,0.3l-10,5.7c-1.2,0.7-2.3,1.9-3.2,3.3
			C267.6,256.8,267.1,258.4,267.1,259.7z"/>
		<path id="XMLID_621_" class="st165" d="M265.9,127.5c0,0.3,0.1,0.5,0.1,0.5c0.1,0,0.2,0,0.5-0.1l16-9.1c0.4-0.2,0.8-0.6,1.1-1.1
			l0,0c0.3-0.5,0.4-1,0.4-1.4c0-0.3-0.1-0.5-0.1-0.5c-0.1,0-0.2,0-0.5,0.1l-16,9.1c-0.4,0.2-0.7,0.6-1,1.1
			C266.1,126.6,265.9,127.1,265.9,127.5z"/>
		<path id="XMLID_9_" class="st166" d="M311.6,103.5c-0.6-4.3-5.7-4-5.7-4c-1.3,0-2.7,0.4-4.2,1.2l-55,31.4
			c-4.9,2.8-8.9,9.6-8.9,15.3l0.3,127.9c0,0-0.8,8.9,5.9,7.8"/>
	</g>
</g>
</svg>
