<?xml version="1.0" encoding="utf-8"?>
<!-- Generator: Adobe Illustrator 19.1.0, SVG Export Plug-In . SVG Version: 6.00 Build 0)  -->
<!DOCTYPE svg PUBLIC "-//W3C//DTD SVG 1.1//EN" "http://www.w3.org/Graphics/SVG/1.1/DTD/svg11.dtd">
<svg version="1.1" id="Layer_1" xmlns="http://www.w3.org/2000/svg" xmlns:xlink="http://www.w3.org/1999/xlink" x="0px" y="0px"
	 viewBox="0 0 1607.2 775.2" style="enable-background:new 0 0 1607.2 775.2;" xml:space="preserve">
<style type="text/css">
	.st0{fill-rule:evenodd;clip-rule:evenodd;fill:#128CAB;}
	.st1{fill-rule:evenodd;clip-rule:evenodd;fill:#17869D;}
	.st2{fill-rule:evenodd;clip-rule:evenodd;fill:#107488;}
	.st3{fill:#FFFFFF;}
	.st4{fill-rule:evenodd;clip-rule:evenodd;fill:none;stroke:#FFFFFF;stroke-width:2;stroke-miterlimit:10;}
	.st5{fill:#128CAB;}
	.st6{fill:#17869D;}
	.st7{fill-rule:evenodd;clip-rule:evenodd;fill:none;stroke:#62B3CC;stroke-miterlimit:10;}
	.st8{fill:none;stroke:#62B3CC;stroke-miterlimit:10;}
	.st9{fill:none;stroke:#FFFFFF;stroke-width:2;stroke-miterlimit:10;}
	.st10{fill:#A7D6DD;}
	.st11{opacity:0.2;}
	.st12{fill:#CCCCCC;}
	.st13{fill:#808285;}
	.st14{fill:#6B428A;}
	.st15{fill:#9C80B9;}
	.st16{fill:none;stroke:#6B428A;stroke-width:1.1076;stroke-miterlimit:10;}
	.st17{fill:none;stroke:#6B428A;stroke-width:1.1076;stroke-miterlimit:10;stroke-dasharray:1.1101,1.1101;}
	.st18{fill:none;stroke:#6B428A;stroke-miterlimit:10;}
	.st19{fill:none;stroke:#6B428A;stroke-miterlimit:10;stroke-dasharray:1.0095,1.0095;}
	.st20{fill:none;stroke:#F8BD30;stroke-width:12.0543;stroke-miterlimit:10;}
	.st21{display:none;opacity:0.1;fill:url(#);}
	.st22{fill:none;stroke:#CCCCCC;stroke-width:1.5068;stroke-miterlimit:10;}
	.st23{fill:none;stroke:#CCCCCC;stroke-width:0.7534;stroke-miterlimit:10;}
	.st24{fill:#FFFFFF;stroke:#CCCCCC;stroke-width:1.5068;stroke-miterlimit:10;}
	.st25{opacity:0.2;fill:#BAB9B8;}
	.st26{opacity:0.4;}
	.st27{opacity:0.3;fill:url(#);}
	.st28{fill:none;stroke:#6B428A;stroke-width:7.5525;stroke-miterlimit:10;}
	.st29{opacity:0.9;fill:#9C80B9;}
	.st30{opacity:0.8;}
	.st31{opacity:0.1;fill:url(#);}
	.st32{fill:none;stroke:#CCCCCC;stroke-width:3.7714;stroke-miterlimit:10;}
	.st33{fill:none;stroke:#BAB9B8;stroke-width:1.6019;stroke-miterlimit:10;}
	.st34{opacity:0.3;fill:#BAB9B8;}
	.st35{fill:#BCBEC0;}
	.st36{fill:#BAB9B8;}
	.st37{fill:none;stroke:#BAB9B8;stroke-width:1.5105;stroke-miterlimit:10;}
	.st38{fill:#FFFFFF;stroke:#BAB9B8;stroke-width:3.021;stroke-miterlimit:10;}
	.st39{fill:none;stroke:#BAB9B8;stroke-width:3.021;stroke-miterlimit:10;}
	.st40{clip-path:url(#SVGID_1_);}
	.st41{fill:#FFFFFF;stroke:#BAB9B8;stroke-width:3.0093;stroke-miterlimit:10;}
	.st42{fill:none;stroke:#BAB9B8;stroke-width:1.3488;stroke-miterlimit:10;}
	.st43{opacity:0.5;fill:#BAB9B8;}
	.st44{clip-path:url(#SVGID_2_);}
	.st45{fill:none;stroke:#BAB9B8;stroke-width:0.3009;stroke-miterlimit:10;}
	.st46{opacity:0.4;fill:#C9C9C9;}
	.st47{fill:#FFFFFF;stroke:#BAB9B8;stroke-width:3.001;stroke-miterlimit:10;}
	.st48{fill:none;stroke:#BAB9B8;stroke-width:0.3001;stroke-miterlimit:10;}
	.st49{fill:#B9B9B8;}
	.st50{fill:none;stroke:#B9B9B7;stroke-width:1.2004;stroke-miterlimit:10;}
	.st51{opacity:0.1;fill:#6B428A;}
	.st52{fill:#FFFFFF;stroke:#CCCCCC;stroke-width:3.0991;stroke-miterlimit:10;}
	.st53{fill:none;stroke:#CCCCCC;stroke-width:0.8486;stroke-miterlimit:10;}
	.st54{fill:#FFFFFF;stroke:#CCCCCC;stroke-width:4;stroke-miterlimit:10;}
	.st55{fill:#FFFFFF;stroke:#CCCCCC;stroke-width:5;stroke-miterlimit:10;}
	.st56{fill:none;stroke:#CCCCCC;stroke-width:1.6973;stroke-miterlimit:10;}
	.st57{fill:#D93850;}
	.st58{fill:none;stroke:#6B428A;stroke-width:2.2657;stroke-miterlimit:10;}
	.st59{fill:#467697;stroke:#6B428A;stroke-width:2.2399;stroke-miterlimit:10;}
	.st60{fill:none;stroke:#6B428A;stroke-width:0.8194;stroke-miterlimit:10;}
	.st61{fill:none;stroke:#6B428A;stroke-width:0.5784;stroke-miterlimit:10;}
	.st62{fill:none;stroke:#6B428A;stroke-width:3.021;stroke-miterlimit:10;}
	.st63{opacity:0.4;fill:url(#);}
	.st64{fill:none;stroke:#128CAB;stroke-width:7.5525;stroke-miterlimit:10;}
	.st65{opacity:0.9;fill:#62B3CC;}
	.st66{clip-path:url(#SVGID_3_);}
	.st67{clip-path:url(#SVGID_5_);}
	.st68{opacity:0.1;fill:#128CAB;}
	.st69{fill:none;stroke:#128CAB;stroke-width:2.2657;stroke-miterlimit:10;}
	.st70{fill:#467697;stroke:#128CAB;stroke-width:2.2399;stroke-miterlimit:10;}
	.st71{fill:none;stroke:#128CAB;stroke-width:0.8194;stroke-miterlimit:10;}
	.st72{fill:none;stroke:#128CAB;stroke-width:0.5784;stroke-miterlimit:10;}
	.st73{fill:none;stroke:#128CAB;stroke-width:3.021;stroke-miterlimit:10;}
	.st74{opacity:0.5;fill:#CCCCCC;}
	.st75{opacity:0.5;fill:#6B428A;}
	.st76{opacity:0.5;fill:#9C80B9;}
	.st77{fill:none;stroke:#CCCCCC;stroke-width:3.0136;stroke-miterlimit:10;}
	.st78{fill:#FFFFFF;stroke:#BAB9B8;stroke-width:3.0136;stroke-miterlimit:10;}
	.st79{fill:none;stroke:#BAB9B8;stroke-width:0.8252;stroke-miterlimit:10;}
	.st80{fill:#FFFFFF;stroke:#BAB9B8;stroke-width:3.767;stroke-miterlimit:10;}
	.st81{fill:none;stroke:#BAB9B8;stroke-width:1.6505;stroke-miterlimit:10;}
	.st82{fill:#FFFFFF;stroke:#CCCCCC;stroke-width:8;stroke-miterlimit:10;}
	.st83{opacity:0.6;}
	.st84{fill:none;stroke:#F8BD30;stroke-width:12.0543;stroke-linecap:round;stroke-miterlimit:10;}
	.st85{fill:none;stroke:#CCCCCC;stroke-width:4.5203;stroke-miterlimit:10;}
	.st86{fill:#F8BD30;}
	.st87{fill:none;stroke:#F8BD30;stroke-width:12.0543;stroke-linecap:round;stroke-linejoin:round;stroke-miterlimit:10;}
	.st88{fill:none;stroke:#F8BD30;stroke-width:12.1703;stroke-miterlimit:10;}
	.st89{fill:none;stroke:#CCCCCC;stroke-width:1.5213;stroke-miterlimit:10;}
	.st90{fill:none;stroke:#CCCCCC;stroke-width:0.7606;stroke-miterlimit:10;}
	.st91{fill:#FFFFFF;stroke:#CCCCCC;stroke-width:1.5213;stroke-miterlimit:10;}
	.st92{opacity:0.5;fill:#107488;}
	.st93{opacity:0.5;fill:#128CAB;}
	.st94{fill:#107488;}
	.st95{fill:none;stroke:#CCCCCC;stroke-width:3.0426;stroke-miterlimit:10;}
	.st96{fill:#FFFFFF;stroke:#BAB9B8;stroke-width:3.0426;stroke-miterlimit:10;}
	.st97{fill:none;stroke:#BAB9B8;stroke-width:0.8332;stroke-miterlimit:10;}
	.st98{fill:#FFFFFF;stroke:#BAB9B8;stroke-width:3.8032;stroke-miterlimit:10;}
	.st99{fill:none;stroke:#BAB9B8;stroke-width:1.6664;stroke-miterlimit:10;}
	.st100{fill:none;stroke:#F8BD30;stroke-width:12.1703;stroke-linecap:round;stroke-miterlimit:10;}
	.st101{fill:none;stroke:#CCCCCC;stroke-width:4.5639;stroke-miterlimit:10;}
	.st102{fill:none;stroke:#F8BD30;stroke-width:12.1703;stroke-linecap:round;stroke-linejoin:round;stroke-miterlimit:10;}
	.st103{opacity:0.3;}
	.st104{fill:none;stroke:#9C80B9;stroke-width:6.3783;stroke-linecap:round;stroke-miterlimit:10;}
	.st105{fill:none;stroke:#9C80B9;stroke-width:6.3783;stroke-linecap:round;stroke-miterlimit:10;stroke-dasharray:6.3047,25.2187;}
	.st106{fill:none;stroke:#F8BD30;stroke-width:6.4739;stroke-linecap:round;stroke-miterlimit:10;}
	.st107{fill:none;stroke:#F8BD30;stroke-width:6.4739;stroke-linecap:round;stroke-miterlimit:10;stroke-dasharray:6.4958,25.9834;}
	.st108{fill:#414042;}
	
		.st109{fill:none;stroke:#CCCCCC;stroke-width:10.7899;stroke-linecap:round;stroke-miterlimit:10;stroke-dasharray:6.4739,25.8957;}
	.st110{fill:none;stroke:#E6E7E8;stroke-width:10.7899;stroke-linecap:round;stroke-miterlimit:10;}
	.st111{fill:#BBBDBF;}
	.st112{fill:#939598;}
	.st113{opacity:0.5;fill:#FFFFFF;}
	.st114{fill:#FFFFFF;stroke:#CCCCCC;stroke-width:7.8459;stroke-miterlimit:10;}
	.st115{fill:none;stroke:#CCCCCC;stroke-width:4.7075;stroke-miterlimit:10;}
	.st116{fill:#FFFFFF;stroke:#CCCCCC;stroke-width:4.7075;stroke-miterlimit:10;}
	.st117{fill:#467697;stroke:#CCCCCC;stroke-width:4.2896;stroke-miterlimit:10;}
	.st118{fill:none;stroke:#CCCCCC;stroke-width:1.5692;stroke-miterlimit:10;}
	.st119{fill:none;stroke:#CCCCCC;stroke-width:1.1076;stroke-miterlimit:10;}
	.st120{opacity:0.3;fill:#CCCCCC;}
	
		.st121{fill:none;stroke:#F8BD30;stroke-width:10.7899;stroke-linecap:round;stroke-miterlimit:10;stroke-dasharray:6.4739,25.8957;}
	.st122{fill:none;stroke:#F8BD30;stroke-width:10.7899;stroke-linecap:round;stroke-miterlimit:10;}
	.st123{fill:none;stroke:#CCCCCC;stroke-width:5.9068;stroke-miterlimit:10;}
	.st124{fill:none;stroke:#CCCCCC;stroke-width:2.624;stroke-miterlimit:10;}
	.st125{fill:none;stroke:#CCCCCC;stroke-width:1.654;stroke-miterlimit:10;}
	.st126{fill:#FFFFFF;stroke:#CCCCCC;stroke-width:8.8602;stroke-miterlimit:10;}
	.st127{fill:none;stroke:#CCCCCC;stroke-width:2.9534;stroke-linecap:round;stroke-linejoin:round;stroke-miterlimit:10;}
	.st128{fill:#FFFFFF;stroke:#CCCCCC;stroke-width:2.9534;stroke-linecap:round;stroke-linejoin:round;stroke-miterlimit:10;}
	.st129{fill:#FFFFFF;stroke:#CCCCCC;stroke-width:5.9068;stroke-linecap:round;stroke-linejoin:round;stroke-miterlimit:10;}
	.st130{fill:none;}
	.st131{font-family:'OpenSans';}
	.st132{font-size:23.6271px;}
	.st133{font-family:'OpenSans-Semibold';}
	.st134{font-size:38.3941px;}
	.st135{font-size:47.2543px;}
	.st136{fill:none;stroke:#CCCCCC;stroke-width:5.9421;stroke-miterlimit:10;}
	.st137{fill:none;stroke:#CCCCCC;stroke-width:2;stroke-miterlimit:10;}
	.st138{fill:#FFFFFF;stroke:#CCCCCC;stroke-width:2;stroke-miterlimit:10;}
	.st139{fill:none;stroke:#6B428A;stroke-miterlimit:10;stroke-dasharray:1.0138,1.0138;}
	.st140{fill:#D1D3D4;}
	.st141{fill:#E6E7E8;}
	.st142{fill:none;stroke:#9C80B9;stroke-width:2;stroke-miterlimit:10;}
	.st143{fill:none;stroke:#D1D3D4;stroke-miterlimit:10;}
	.st144{fill:none;stroke:#D1D3D4;stroke-miterlimit:10;stroke-dasharray:1.0095,1.0095;}
	.st145{fill:none;stroke:#D1D3D4;stroke-miterlimit:10;stroke-dasharray:1.0138,1.0138;}
	.st146{fill:none;stroke:#6B428A;stroke-miterlimit:10;stroke-dasharray:1.0006,1.0006;}
	.st147{fill:none;stroke:#6B428A;stroke-miterlimit:10;stroke-dasharray:1.0045,1.0045;}
	.st148{fill:none;stroke:#D1D3D4;stroke-miterlimit:10;stroke-dasharray:1.0025,1.0025;}
	.st149{fill:none;stroke:#D1D3D4;stroke-miterlimit:10;stroke-dasharray:1.017,1.017;}
	.st150{fill:none;stroke:#D1D3D4;stroke-width:1.1076;stroke-miterlimit:10;}
	.st151{fill:none;stroke:#D1D3D4;stroke-width:1.1076;stroke-miterlimit:10;stroke-dasharray:1.1101,1.1101;}
	.st152{fill:none;stroke:#128CAB;stroke-width:2;stroke-miterlimit:10;}
	.st153{fill:#FFFFFF;stroke:#CCCCCC;stroke-width:2.4962;stroke-miterlimit:10;}
	.st154{fill:none;stroke:#CCCCCC;stroke-width:0.6836;stroke-miterlimit:10;}
	.st155{fill:#FFFFFF;stroke:#CCCCCC;stroke-width:3;stroke-miterlimit:10;}
	.st156{fill:none;stroke:#CCCCCC;stroke-width:1.3671;stroke-miterlimit:10;}
	.st157{fill:none;stroke:#CCCCCC;stroke-width:1.1197;stroke-miterlimit:10;}
	.st158{fill:#E6E6E5;}
	.st159{fill:none;stroke:#CCCCCC;stroke-width:1.6109;stroke-miterlimit:10;}
</style>
<symbol  id="New_Symbol_2_2_" viewBox="-7.1 -36 14.2 72">
	<path class="st0" d="M-6.1-31.5c0,3.4,0,62.8,0,63.3c0.4,2.3,3.8,3.2,5.9,3.2c2.1,0,5.6-0.8,6.2-3l0.1-0.5v-63c0-0.2,0-0.3-0.1-0.5
		c-0.2-0.9-1-1.6-1.9-2.1C3-34.7,1.6-35,0.2-35h0l0,0l0,0c0,0-0.1,0-0.1,0c-1.3,0-2.7,0.3-3.8,0.8c-1,0.5-1.9,1.1-2.2,2.1l0,0l0,0
		C-6.1-31.9-6.1-31.7-6.1-31.5z"/>
	<path class="st1" d="M0,28.8V-35c0,0,5.4-1,6.1,3.5s0,63,0,63S3.9,27.9,0,28.8z"/>
	<g>
		<path class="st2" d="M0,28.3c-0.9,0-2.7,0.1-4.1,1c-0.6,0.3-1.6,1.1-1.6,2.2c0,1.1,1,1.8,1.6,2.2c1.5,0.9,3.2,1,4.2,1
			c0.9,0,2.7-0.1,4.2-1c0.6-0.3,1.6-1.1,1.6-2.2c0-1.1-1-1.8-1.6-2.2C2.7,28.4,0.9,28.3,0,28.3z"/>
		<path class="st3" d="M0,34.2c1.3,0,2.8-0.3,3.9-0.9c0.6-0.4,1.4-1,1.4-1.8c0-0.8-0.8-1.4-1.4-1.8c-1.1-0.7-2.6-0.9-3.9-0.9
			c-1.3,0-2.8,0.3-3.9,0.9c-0.6,0.4-1.4,1-1.4,1.8c0,0.8,0.7,1.4,1.4,1.8C-2.8,33.9-1.3,34.2,0,34.2 M0,35.2c-1,0-2.8-0.1-4.4-1.1
			c-1.2-0.7-1.9-1.6-1.9-2.6c0-1,0.7-1.9,1.9-2.6c1.6-0.9,3.4-1.1,4.4-1.1c1,0,2.8,0.1,4.4,1.1c1.2,0.7,1.9,1.6,1.9,2.6
			c0,1.4-1.2,2.2-1.9,2.6C2.8,35,1,35.2,0,35.2L0,35.2z"/>
	</g>
	<path class="st4" d="M-6.1-31.5c0,3.4,0,62.8,0,63.3c0.4,2.3,3.8,3.2,5.9,3.2c2.1,0,5.6-0.8,6.2-3l0.1-0.5v-63c0-0.2,0-0.3-0.1-0.5
		c-0.2-0.9-1-1.6-1.9-2.1C3-34.7,1.6-35,0.2-35h0l0,0l0,0c0,0-0.1,0-0.1,0c-1.3,0-2.7,0.3-3.8,0.8c-1,0.5-1.9,1.1-2.2,2.1l0,0l0,0
		C-6.1-31.9-6.1-31.7-6.1-31.5z"/>
</symbol>
<symbol  id="New_Symbol_3_1_" viewBox="-22.3 -17.6 44.6 35.3">
	<polygon class="st5" points="-5.8,16.5 21.3,1.6 21.3,-8.4 6,-16.5 -21.3,-1 -21.3,8.4 	"/>
	<polygon class="st6" points="6,-16.5 21.3,-8.4 21.3,1.6 6,-6.8 	"/>
	<polyline class="st7" points="-21.3,8.4 6,-6.8 21.3,1.6 	"/>
	<line class="st8" x1="6" y1="-16.5" x2="6" y2="-6.8"/>
	<polygon class="st9" points="-5.8,16.5 21.3,1.6 21.3,-8.4 6,-16.5 -21.3,-1 -21.3,8.4 	"/>
</symbol>
<symbol  id="New_Symbol_4_1_" viewBox="-45.2 -45.3 90.5 90.6">
	<polygon class="st5" points="-44.2,-17.1 -44.1,17.5 1.8,44.2 44.2,18.7 44.2,-17.4 0.6,-44.1 	"/>
	<polygon class="st6" points="44.2,-17.4 0.7,-44.1 0.7,-8.4 44.2,18.4 	"/>
	<polyline class="st8" points="44.2,18.7 0.6,-8.9 -44.2,17.6 	"/>
	<line class="st8" x1="0.7" y1="-44.4" x2="0.7" y2="-8.4"/>
	<g>
		<polygon class="st10" points="23.9,-3 21.3,-4.6 21.3,-11.1 23.9,-9.5 		"/>
		<polygon class="st10" points="26.9,-1.2 24.3,-2.8 24.3,-9.3 26.9,-7.7 		"/>
	</g>
	<g>
		<polygon class="st10" points="33.2,-3.8 35.8,-2.2 35.8,4.2 33.2,2.6 		"/>
		<polygon class="st10" points="36.1,4.4 36.1,-2 38.8,-0.4 38.8,6 		"/>
	</g>
	<polygon class="st6" points="-35.4,-15.4 -33,-16.8 -33,4.9 -35.4,6.3 	"/>
	<polygon class="st6" points="-20.3,-2.4 -22.7,-1 -22.7,-22.7 -20.3,-24.1 	"/>
	<polygon class="st6" points="-31.1,-17.8 -28.8,-19.2 -28.8,2.5 -31.1,3.9 	"/>
	<polygon class="st6" points="-26.9,-20.3 -24.6,-21.6 -24.6,0.1 -26.9,1.4 	"/>
	<polygon class="st6" points="-18.4,-25.7 -16,-27.1 -16,-5.4 -18.4,-4 	"/>
	<polygon class="st6" points="-14.1,-28.2 -11.8,-29.5 -11.8,-7.8 -14.1,-6.4 	"/>
	<polygon class="st6" points="-9.9,-30.6 -7.5,-31.9 -7.5,-10.2 -9.9,-8.9 	"/>
	<g>
		<polygon class="st10" points="12.1,-9.5 9.5,-11.1 9.5,-17.5 12.1,-15.9 		"/>
		<polygon class="st10" points="15.1,-7.6 12.5,-9.2 12.5,-15.7 15.1,-14.1 		"/>
	</g>
	<g>
		<polygon class="st10" points="24.1,-16.7 21.4,-18.3 21.4,-24.8 24.1,-23.2 		"/>
		<polygon class="st10" points="27,-14.9 24.4,-16.5 24.4,-23 27,-21.4 		"/>
	</g>
	<g>
		<polygon class="st10" points="33.3,-17.5 35.9,-15.9 35.9,-9.5 33.3,-11.1 		"/>
		<polygon class="st10" points="36.3,-9.3 36.3,-15.7 38.9,-14.1 38.9,-7.7 		"/>
	</g>
	<g>
		<polygon class="st10" points="12.3,-23.2 9.6,-24.7 9.6,-31.2 12.3,-29.6 		"/>
		<polygon class="st10" points="15.2,-21.3 12.6,-22.9 12.6,-29.4 15.2,-27.8 		"/>
	</g>
	<polygon class="st9" points="-44.2,-17.1 -44.1,17.5 1.8,44.2 44.2,18.7 44.2,-17.4 0.6,-44.1 	"/>
</symbol>
<g id="New_Symbol_8">
	<g id="New_Symbol_4">
	</g>
	<g id="New_Symbol_3">
	</g>
	<g id="New_Symbol_2">
	</g>
	<g id="New_Symbol_2_1_">
	</g>
</g>
<path class="st5" d="M1293.7,395.4h56.8l-56.8-62.3l0-20.7c0,0,3-34.9-46.4-41v0c0,0,0,0-0.1,0c-0.3,0-0.6-0.1-0.9-0.1
	c-88.1-10.1-275.5-0.8-275.5-0.8v0.3c-56.7,3.5-53.4,41.6-53.4,41.6l0,87.6c0,0-3,34.9,46.4,41v0c0,0,0,0,0.1,0
	c0.3,0,0.6,0.1,0.9,0.1c88.1,10.1,275.5,0.5,275.5,0.5c56.7-3.5,53.4-41.6,53.4-41.6V395.4z"/>
<g>
	<rect x="962.7" y="239" class="st130" width="141.2" height="29.5"/>
	<text transform="matrix(1 0 0 1 962.7322 256.9083)" class="st35 st131 st132">Envoy</text>
</g>
<g>
	<g>
		<rect x="963.2" y="315.6" class="st130" width="295.2" height="103.5"/>
		<text transform="matrix(1 0 0 1 963.209 344.7643)"><tspan x="0" y="0" class="st3 st133 st134">Sure,</tspan><tspan x="0" y="44.3" class="st3 st133 st134">Here you go... </tspan></text>
	</g>
</g>
<g>
	<path class="st86" d="M522,258.7h-56.8l56.8-62.3l0-20.7c0,0-3-34.9,46.4-41v0c0,0,0,0,0.1,0c0.3,0,0.6-0.1,0.9-0.1
		c88.1-10.1,275.5-0.8,275.5-0.8v0.3c56.7,3.5,53.4,41.6,53.4,41.6l0,87.6c0,0,3,34.9-46.4,41v0c0,0,0,0-0.1,0
		c-0.3,0-0.6,0.1-0.9,0.1c-88.1,10.1-275.5,0.5-275.5,0.5c-56.7-3.5-53.4-41.6-53.4-41.6V258.7z"/>
	<g id="Upp67m.tif_3_">
		<g>
			<path class="st35" d="M863.9,102.4c-0.7,0.7-1.4,1.4-2.1,2.1c-3.6-3.5-7.9-5.4-12.9-5.4c-5,0-9.3,1.9-12.9,5.4
				c-0.7-0.7-1.4-1.4-2.1-2.1v0c0,0,0.1-0.1,0.1-0.1c1.1-1.1,2.3-2,3.5-2.8c3.2-2,6.7-3.1,10.5-3.3c1.4-0.1,2.7,0,4,0.2
				c1.1,0.2,2.1,0.4,3.1,0.7c3.1,1,5.8,2.6,8.2,4.8C863.5,102,863.7,102.2,863.9,102.4L863.9,102.4z"/>
			<path class="st35" d="M848.6,119.8c-0.2-0.1-0.4-0.1-0.6-0.2c-0.9-0.3-1.4-1-1.5-1.9c-0.2-1.2,0.5-2.3,1.7-2.6
				c1.3-0.4,2.7,0.4,3,1.7c0.3,1.4-0.6,2.8-2,2.9c0,0,0,0-0.1,0C849,119.8,848.8,119.8,848.6,119.8z"/>
			<path class="st35" d="M840.2,108.7c-0.7-0.7-1.4-1.4-2.1-2.1c5.6-5.8,15.4-6.2,21.6,0c-0.7,0.7-1.4,1.4-2.1,2.1
				c-2.4-2.3-5.3-3.6-8.7-3.6C845.5,105.1,842.6,106.4,840.2,108.7z"/>
			<path class="st35" d="M855.4,110.8c-0.7,0.7-1.4,1.4-2.1,2.1c-1.2-1.2-2.7-1.8-4.4-1.8c-1.7,0-3.2,0.6-4.4,1.8
				c-0.7-0.7-1.4-1.4-2.1-2.1C845.8,107.2,851.8,107.1,855.4,110.8z"/>
		</g>
	</g>
	<rect x="543.4" y="96.1" class="st130" width="141.2" height="29.5"/>
	<text transform="matrix(1 0 0 1 543.4373 114.1039)" class="st35 st131 st132">Nespresso</text>
	<rect x="568.9" y="177.5" class="st130" width="295.2" height="103.5"/>
	<text transform="matrix(1 0 0 1 585.1777 206.6686)"><tspan x="0" y="0" class="st3 st133 st134">Can I use your </tspan><tspan x="18.7" y="44.3" class="st3 st133 st134">WiFi please? </tspan></text>
</g>
<g>
	<g>
		<path class="st123" d="M1548.9,247.6L1548.9,247.6c4.1,7.1,6.3,14.7,6.2,21.4l-1.9,321.5c0,7.1-2.6,12.4-7.1,15
			c-4.6,2.6-10.5,2.1-16.7-1.5L1395,525.8c-5.8-3.4-11.3-9.2-15.3-16.3c-4.1-7.1-6.3-14.7-6.3-21.4l1.9-321.5c0-7.1,2.6-12.4,7.1-15
			c4.6-2.6,10.5-2.1,16.7,1.5l134.5,78.2C1539.4,234.8,1544.9,240.5,1548.9,247.6z"/>
		<path class="st124" d="M1389.7,469.2c1.5,2.6,3.6,4.9,5.8,6.2l135.3,78.6c4.5,2.7,8.3,0.5,8.3-4.7l1.5-266.9
			c0-2.6-0.9-5.5-2.4-8.1c-1.5-2.6-3.5-4.9-5.8-6.2l-135.3-78.6c-4.5-2.6-8.3-0.5-8.3,4.7l-1.5,266.9
			C1387.3,463.7,1388.3,466.6,1389.7,469.2L1389.7,469.2z"/>
		<path class="st125" d="M1447.9,535.3c2.1,3.6,4.8,6.6,7.7,8.2l24.4,14.2c2.6,1.5,4.9,1.8,6.6,0.9c1.6-0.9,2.5-3,2.5-6
			c0-3.3-1.1-7.1-3.2-10.8l0,0c-2.1-3.6-4.8-6.6-7.7-8.3l-24.4-14.2c-2.6-1.5-4.9-1.8-6.6-0.9c-1.6,0.9-2.5,3-2.5,6
			C1444.7,527.8,1445.8,531.7,1447.9,535.3z"/>
		<path class="st125" d="M1442.3,201.4c0.7,1.2,1.6,2.2,2.5,2.7l39.1,22.7c0.8,0.4,1.2,0.4,1.3,0.3c0.1-0.1,0.4-0.4,0.4-1.3
			c0-1-0.4-2.3-1.1-3.5l0,0c-0.7-1.2-1.6-2.2-2.6-2.7l-39.1-22.7c-0.7-0.4-1.2-0.4-1.3-0.3c-0.2,0.1-0.4,0.5-0.4,1.3
			C1441.3,198.9,1441.7,200.2,1442.3,201.4z"/>
		<path class="st123" d="M1543.2,608.6l31.8-18.2c4.2-2.4,6.6-7.2,6.6-13.9l1.9-320.8c0-6.9-2.3-14.2-6.2-21.1
			c-3.9-6.8-9.3-12.5-15.3-16l-135.4-79.5c-5.6-3.3-12.7-5.7-16.8-3.3l-32.7,18.7"/>
	</g>
</g>
<g>
	<rect x="531" y="386.4" class="st130" width="141.2" height="29.5"/>
	<text transform="matrix(1 0 0 1 531.0469 404.3976)" class="st35 st131 st132">Nespresso</text>
	<g>
		<path class="st86" d="M515.9,466.8h-56.8l56.8,62.3l0,20.7c0,0-3,34.9,46.4,41v0c0,0,0,0,0.1,0c0.3,0,0.6,0.1,0.9,0.1
			c88.1,10.1,275.5,0.8,275.5,0.8v-0.3c56.7-3.5,53.4-41.6,53.4-41.6l0-87.6c0,0,3-34.9-46.4-41v0c0,0,0,0-0.1,0
			c-0.3,0-0.6-0.1-0.9-0.1c-88.1-10.1-275.5-0.5-275.5-0.5c-56.7,3.5-53.4,41.6-53.4,41.6V466.8z"/>
		<g>
			<rect x="523.5" y="480.1" class="st130" width="374.9" height="51.7"/>
			<text transform="matrix(1 0 0 1 608.7163 515.9926)" class="st3 st133 st135">Thanks :)</text>
		</g>
	</g>
	<path class="st35" d="M868.5,409.5l-4.1-4.1c2.4-3.3,2.4-7.7,0-11l4.1-4.1c0.5-0.5,0.5-1.4,0-1.9c-0.5-0.5-1.4-0.5-1.9,0l-4.1,4.1
		c-3.3-2.4-7.7-2.4-11,0l-4.1-4.1c-0.5-0.5-1.4-0.5-1.9,0s-0.5,1.4,0,1.9l4.1,4.1c-2.4,3.3-2.4,7.7,0,11l-4.1,4.1
		c-0.5,0.5-0.5,1.4,0,1.9s1.4,0.5,1.9,0l4.1-4.1c3.3,2.4,7.7,2.4,11,0l4.1,4.1c0.5,0.5,1.4,0.5,1.9,0C869,410.9,869,410,868.5,409.5
		z M862.4,403.5l-3.6-3.6l3.6-3.6C863.8,398.5,863.8,401.3,862.4,403.5z M860.5,394.4L857,398l-3.6-3.6
		C855.6,393,858.4,393,860.5,394.4z M851.5,396.3l3.6,3.6l-3.6,3.6C850.1,401.3,850.1,398.5,851.5,396.3z M853.4,405.4l3.6-3.6
		l3.6,3.6C858.4,406.8,855.6,406.8,853.4,405.4z"/>
</g>
<g>
	<g>
		<path class="st126" d="M438.9,570.5c-0.1-0.4-8.1-31.9-9.5-38.3c-2.6-12-12.1-23.5-28.3-32.6l-58.9-34V288.2l-0.8-80.4
			c0.4-17.4-5.6-31.1-16.6-37.7c-0.9-0.5-88.9-55.6-100.9-61.7c-4-2.1-8.7-3.2-13.9-3.3c-20.1-0.3-42.8,15.6-58.4,38.7
			c-7.2-0.5-14.6-0.2-22,0.9c-2,0.3-4,0.7-5.9,1.1c-0.6,0.1-1.2,0.3-1.8,0.4c-1.3,0.3-2.6,0.6-3.8,1c-0.7,0.2-1.4,0.4-2,0.6
			c-1.1,0.3-2.2,0.7-3.3,1.1c-0.7,0.2-1.3,0.5-2,0.7c-1,0.4-2.1,0.8-3,1.3c-0.6,0.3-1.2,0.5-1.8,0.8c-1,0.5-2,1-3,1.5
			c-0.5,0.3-1,0.5-1.5,0.8c-1.4,0.8-2.8,1.6-4,2.5c-0.1,0.1-0.2,0.2-0.3,0.3c-1.2,0.8-2.3,1.6-3.3,2.5c-0.4,0.3-0.8,0.7-1.2,1
			c-0.7,0.6-1.4,1.2-2.1,1.9c-0.4,0.4-0.8,0.8-1.2,1.2c-0.6,0.6-1.1,1.2-1.6,1.9c-0.4,0.4-0.7,0.9-1.1,1.4c-0.5,0.6-0.9,1.3-1.3,1.9
			c-0.3,0.5-0.6,0.9-0.9,1.4c-0.4,0.7-0.7,1.4-1.1,2.1c-0.2,0.4-0.4,0.9-0.6,1.3c-0.4,1-0.8,2-1.1,3.1c-0.1,0.4-0.2,0.7-0.3,1.1
			c-0.2,0.9-0.4,1.9-0.5,2.8c-0.1,0.5-0.1,1-0.1,1.5c0,0.5-0.1,1.1-0.1,1.6c0,2.4-0.2,159.1,0,220.9l-36,21.3
			c-3.7,2.1-5.9,4.4-6.8,6.8c-0.3,0.8-8.8,31.7-9.8,34.3c-0.3,0.9-0.5,1.7-0.5,2.6c0,6.4,8.3,12,16.3,16.6l222.7,134.7
			c39.5,22.7,104.2,22.7,143.1,0C433.7,607,443.5,588.3,438.9,570.5z"/>
		<g>
			<path class="st127" d="M264.7,578.8c37.7,21.7,99.4,21.7,136.5,0c38.8-21.7,38.8-57.5,0-79.2l-216-128.7
				c-6.5-3.7-15.1-5.8-24.2-5.8c-9.1,0-17.7,2.1-24.2,5.8l-92.3,54.6c-4.9,2.8-7.3,5.9-7.2,9.3c0,6.1,7.9,11.4,15.6,15.9
				L264.7,578.8z"/>
		</g>
	</g>
	<g>
		<path class="st12" d="M347.3,495.9c-1.8,0-3.4,1.1-3.6,2.3c-0.2,1.2,1.1,2.2,2.8,2.2c1.8,0,3.4-1.1,3.6-2.3
			C350.4,496.9,349.1,495.9,347.3,495.9z"/>
		<path class="st12" d="M356,500.4c-1.8,0-3.4,1.1-3.6,2.3c-0.2,1.2,1.1,2.2,2.8,2.2c1.8,0,3.4-1.1,3.6-2.3
			C359,501.3,357.7,500.3,356,500.4z"/>
		<path class="st12" d="M364.6,504.8c-1.8,0-3.4,1.1-3.6,2.3c-0.2,1.2,1.1,2.2,2.8,2.2c1.8,0,3.4-1.1,3.6-2.3
			C367.6,505.7,366.4,504.8,364.6,504.8z"/>
		<path class="st12" d="M373.2,509.2c-1.8,0-3.4,1.1-3.6,2.3c-0.2,1.2,1.1,2.2,2.8,2.2c1.8,0,3.4-1.1,3.6-2.3
			C376.3,510.2,375,509.2,373.2,509.2z"/>
		<path class="st12" d="M381.8,513.6c-1.8,0-3.4,1.1-3.6,2.3c-0.2,1.2,1.1,2.2,2.8,2.2c1.8,0,3.4-1.1,3.6-2.3
			C384.9,514.6,383.6,513.6,381.8,513.6z"/>
		<path class="st12" d="M390.5,518.1c-1.8,0-3.4,1.1-3.6,2.3c-0.2,1.2,1.1,2.2,2.8,2.2c1.8,0,3.4-1.1,3.6-2.3
			C393.5,519,392.2,518,390.5,518.1L390.5,518.1z"/>
		<path class="st12" d="M399.1,522.5c-1.8,0-3.4,1.1-3.6,2.3c-0.2,1.2,1.1,2.2,2.8,2.2c1.8,0,3.4-1.1,3.6-2.3
			C402.1,523.4,400.9,522.5,399.1,522.5z"/>
		<path class="st12" d="M338.7,501.2c-1.8,0-3.4,1.1-3.6,2.3c-0.2,1.2,1.1,2.2,2.8,2.2c1.8,0,3.4-1.1,3.6-2.3
			C341.7,502.2,340.4,501.2,338.7,501.2L338.7,501.2z"/>
		<path class="st12" d="M347.3,505.6c-1.8,0-3.4,1.1-3.6,2.3c-0.2,1.2,1.1,2.2,2.8,2.2c1.8,0,3.4-1.1,3.6-2.3
			C350.3,506.6,349.1,505.6,347.3,505.6z"/>
		<path class="st12" d="M355.9,510.1c-1.8,0-3.4,1.1-3.6,2.3c-0.2,1.2,1.1,2.2,2.8,2.2c1.8,0,3.4-1.1,3.6-2.3
			C359,511,357.7,510,355.9,510.1z"/>
		<path class="st12" d="M364.5,514.5c-1.8,0-3.4,1.1-3.6,2.3c-0.2,1.2,1.1,2.2,2.8,2.2c1.8,0,3.4-1.1,3.6-2.3
			C367.6,515.4,366.3,514.5,364.5,514.5z"/>
		<path class="st12" d="M373.2,518.9c-1.8,0-3.4,1.1-3.6,2.3c-0.2,1.2,1.1,2.2,2.8,2.2s3.4-1.1,3.6-2.3
			C376.2,519.9,374.9,518.9,373.2,518.9z"/>
		<path class="st12" d="M381.8,523.3c-1.8,0-3.4,1.1-3.6,2.3c-0.2,1.2,1.1,2.2,2.8,2.2c1.8,0,3.4-1.1,3.6-2.3
			C384.8,524.3,383.6,523.3,381.8,523.3L381.8,523.3z"/>
		<path class="st12" d="M390.4,527.8c-1.8,0-3.4,1.1-3.6,2.3c-0.2,1.2,1.1,2.2,2.8,2.2c1.8,0,3.4-1.1,3.6-2.3
			C393.5,528.7,392.2,527.7,390.4,527.8L390.4,527.8z"/>
		<path class="st12" d="M399.1,532.2c-1.8,0-3.4,1.1-3.6,2.3c-0.2,1.2,1.1,2.2,2.8,2.2c1.8,0,3.4-1.1,3.6-2.3
			C402.1,533.1,400.8,532.1,399.1,532.2z"/>
		<path class="st12" d="M330,506.5c-1.8,0-3.4,1.1-3.6,2.3c-0.2,1.2,1.1,2.2,2.8,2.2c1.8,0,3.4-1.1,3.6-2.3
			C333,507.4,331.8,506.5,330,506.5z"/>
		<path class="st12" d="M338.6,510.9c-1.8,0-3.4,1.1-3.6,2.3c-0.2,1.2,1.1,2.2,2.8,2.2c1.8,0,3.4-1.1,3.6-2.3
			C341.7,511.9,340.4,510.9,338.6,510.9z"/>
		<path class="st12" d="M347.2,515.3c-1.8,0-3.4,1.1-3.6,2.3c-0.2,1.2,1.1,2.2,2.8,2.2c1.8,0,3.4-1.1,3.6-2.3
			C350.3,516.3,349,515.3,347.2,515.3z"/>
		<path class="st12" d="M355.9,519.8c-1.8,0-3.4,1.1-3.6,2.3c-0.2,1.2,1.1,2.2,2.8,2.2c1.8,0,3.4-1.1,3.6-2.3
			C358.9,520.7,357.6,519.7,355.9,519.8z"/>
		<path class="st12" d="M364.5,524.2c-1.8,0-3.4,1.1-3.6,2.3c-0.2,1.2,1.1,2.2,2.8,2.2c1.8,0,3.4-1.1,3.6-2.3
			C367.5,525.1,366.3,524.1,364.5,524.2z"/>
		<path class="st12" d="M373.1,528.6c-1.8,0-3.4,1.1-3.6,2.3c-0.2,1.2,1.1,2.2,2.8,2.2c1.8,0,3.4-1.1,3.6-2.3
			C376.2,529.5,374.9,528.6,373.1,528.6z"/>
		<path class="st12" d="M381.7,533c-1.8,0-3.4,1.1-3.6,2.3c-0.2,1.2,1.1,2.2,2.8,2.2c1.8,0,3.4-1.1,3.6-2.3
			C384.8,534,383.5,533,381.7,533z"/>
		<path class="st12" d="M390.4,537.4c-1.8,0-3.4,1.1-3.6,2.3c-0.2,1.2,1.1,2.2,2.8,2.2c1.8,0,3.4-1.1,3.6-2.3
			C393.4,538.4,392.2,537.4,390.4,537.4L390.4,537.4z"/>
		<path class="st12" d="M399,541.9c-1.8,0-3.4,1.1-3.6,2.3c-0.2,1.2,1.1,2.2,2.8,2.2c1.8,0,3.4-1.1,3.6-2.3
			C402.1,542.8,400.8,541.8,399,541.9z"/>
		<path class="st12" d="M321.3,511.8c-1.8,0-3.4,1.1-3.6,2.3c-0.2,1.2,1.1,2.2,2.8,2.2c1.8,0,3.4-1.1,3.6-2.3
			C324.4,512.7,323.1,511.7,321.3,511.8z"/>
		<path class="st12" d="M329.9,516.2c-1.8,0-3.4,1.1-3.6,2.3c-0.2,1.2,1.1,2.2,2.8,2.2c1.8,0,3.4-1.1,3.6-2.3
			C333,517.1,331.7,516.1,329.9,516.2z"/>
		<path class="st12" d="M338.6,520.6c-1.8,0-3.4,1.1-3.6,2.3c-0.2,1.2,1.1,2.2,2.8,2.2c1.8,0,3.4-1.1,3.6-2.3
			C341.6,521.5,340.3,520.6,338.6,520.6L338.6,520.6z"/>
		<path class="st12" d="M373,567.5c-1.8,0-3.4,1.1-3.6,2.3c-0.2,1.2,1.1,2.2,2.8,2.2c1.8,0,3.4-1.1,3.6-2.3
			C376.1,568.4,374.8,567.4,373,567.5L373,567.5z"/>
		<path class="st12" d="M347.2,525c-1.8,0-3.4,1.1-3.6,2.3c-0.2,1.2,1.1,2.2,2.8,2.2c1.8,0,3.4-1.1,3.6-2.3
			C350.2,526,349,525,347.2,525z"/>
		<path class="st12" d="M355.8,529.5c-1.8,0-3.4,1.1-3.6,2.3c-0.2,1.2,1.1,2.2,2.8,2.2c1.8,0,3.4-1.1,3.6-2.3
			C358.9,530.4,357.6,529.4,355.8,529.5z"/>
		<path class="st12" d="M364.4,533.9c-1.8,0-3.4,1.1-3.6,2.3c-0.2,1.2,1.1,2.2,2.8,2.2c1.8,0,3.4-1.1,3.6-2.3
			C367.5,534.8,366.2,533.8,364.4,533.9z"/>
		<path class="st12" d="M373.1,538.3c-1.8,0-3.4,1.1-3.6,2.3c-0.2,1.2,1.1,2.2,2.8,2.2c1.8,0,3.4-1.1,3.6-2.3
			C376.1,539.2,374.8,538.3,373.1,538.3z"/>
		<path class="st12" d="M381.7,542.7c-1.8,0-3.4,1.1-3.6,2.3c-0.2,1.2,1.1,2.2,2.8,2.2c1.8,0,3.4-1.1,3.6-2.3
			C384.8,543.7,383.5,542.7,381.7,542.7z"/>
		<path class="st12" d="M390.3,547.1c-1.8,0-3.4,1.1-3.6,2.3s1.1,2.2,2.8,2.2c1.8,0,3.4-1.1,3.6-2.3
			C393.4,548.1,392.1,547.1,390.3,547.1L390.3,547.1z"/>
		<path class="st12" d="M312.6,517c-1.8,0-3.4,1.1-3.6,2.3c-0.2,1.2,1.1,2.2,2.8,2.2c1.8,0,3.4-1.1,3.6-2.3
			C315.7,518,314.4,517,312.6,517z"/>
		<path class="st12" d="M321.3,521.5c-1.8,0-3.4,1.1-3.6,2.3c-0.2,1.2,1.1,2.2,2.8,2.2c1.8,0,3.4-1.1,3.6-2.3
			C324.3,522.4,323,521.4,321.3,521.5z"/>
		<path class="st12" d="M329.9,525.9c-1.8,0-3.4,1.1-3.6,2.3c-0.2,1.2,1.1,2.2,2.8,2.2c1.8,0,3.4-1.1,3.6-2.3
			C332.9,526.8,331.7,525.8,329.9,525.9z"/>
		<path class="st12" d="M390.3,556.8c-1.8,0-3.4,1.1-3.6,2.3c-0.2,1.2,1.1,2.2,2.8,2.2c1.8,0,3.4-1.1,3.6-2.3
			C393.3,557.8,392.1,556.8,390.3,556.8L390.3,556.8z"/>
		<path class="st12" d="M338.5,530.3c-1.8,0-3.4,1.1-3.6,2.3c-0.2,1.2,1.1,2.2,2.8,2.2c1.8,0,3.4-1.1,3.6-2.3
			C341.6,531.2,340.3,530.3,338.5,530.3z"/>
		<path class="st12" d="M347.1,534.7c-1.8,0-3.4,1.1-3.6,2.3c-0.2,1.2,1.1,2.2,2.8,2.2c1.8,0,3.4-1.1,3.6-2.3
			C350.2,535.7,348.9,534.7,347.1,534.7z"/>
		<path class="st12" d="M355.8,539.1c-1.8,0-3.4,1.1-3.6,2.3c-0.2,1.2,1.1,2.2,2.8,2.2c1.8,0,3.4-1.1,3.6-2.3
			C358.8,540.1,357.5,539.1,355.8,539.1z"/>
		<path class="st12" d="M364.4,543.6c-1.8,0-3.4,1.1-3.6,2.3c-0.2,1.2,1.1,2.2,2.8,2.2c1.8,0,3.4-1.1,3.6-2.3
			C367.5,544.5,366.2,543.5,364.4,543.6z"/>
		<path class="st12" d="M373,548c-1.8,0-3.4,1.1-3.6,2.3c-0.2,1.2,1.1,2.2,2.8,2.2c1.8,0,3.4-1.1,3.6-2.3
			C376.1,548.9,374.8,548,373,548z"/>
		<path class="st12" d="M381.7,552.4c-1.8,0-3.4,1.1-3.6,2.3c-0.2,1.2,1.1,2.2,2.8,2.2c1.8,0,3.4-1.1,3.6-2.3
			C384.7,553.4,383.4,552.4,381.7,552.4z"/>
		<path class="st12" d="M304,522.3c-1.8,0-3.4,1.1-3.6,2.3c-0.2,1.2,1.1,2.2,2.8,2.2c1.8,0,3.4-1.1,3.6-2.3
			C307,523.2,305.7,522.3,304,522.3z"/>
		<path class="st12" d="M312.6,526.7c-1.8,0-3.4,1.1-3.6,2.3c-0.2,1.2,1.1,2.2,2.8,2.2c1.8,0,3.4-1.1,3.6-2.3
			C315.6,527.7,314.4,526.7,312.6,526.7z"/>
		<path class="st12" d="M321.2,531.1c-1.8,0-3.4,1.1-3.6,2.3c-0.2,1.2,1.1,2.2,2.8,2.2c1.8,0,3.4-1.1,3.6-2.3
			C324.3,532.1,323,531.1,321.2,531.1z"/>
		<path class="st12" d="M381.6,562.1c-1.8,0-3.4,1.1-3.6,2.3c-0.2,1.2,1.1,2.2,2.8,2.2c1.8,0,3.4-1.1,3.6-2.3
			C384.7,563.1,383.4,562.1,381.6,562.1z"/>
		<path class="st12" d="M329.8,535.6c-1.8,0-3.4,1.1-3.6,2.3c-0.2,1.2,1.1,2.2,2.8,2.2c1.8,0,3.4-1.1,3.6-2.3
			C332.9,536.5,331.6,535.5,329.8,535.6z"/>
		<path class="st12" d="M338.5,540c-1.8,0-3.4,1.1-3.6,2.3c-0.2,1.2,1.1,2.2,2.8,2.2s3.4-1.1,3.6-2.3
			C341.5,540.9,340.2,540,338.5,540z"/>
		<path class="st12" d="M347.1,544.4c-1.8,0-3.4,1.1-3.6,2.3c-0.2,1.2,1.1,2.2,2.8,2.2c1.8,0,3.4-1.1,3.6-2.3
			C350.1,545.4,348.9,544.4,347.1,544.4z"/>
		<path class="st12" d="M355.7,548.8c-1.8,0-3.4,1.1-3.6,2.3c-0.2,1.2,1.1,2.2,2.8,2.2c1.8,0,3.4-1.1,3.6-2.3
			C358.8,549.8,357.5,548.8,355.7,548.8z"/>
		<path class="st12" d="M364.4,553.3c-1.8,0-3.4,1.1-3.6,2.3c-0.2,1.2,1.1,2.2,2.8,2.2c1.8,0,3.4-1.1,3.6-2.3
			C367.4,554.2,366.1,553.2,364.4,553.3z"/>
		<path class="st12" d="M373,557.7c-1.8,0-3.4,1.1-3.6,2.3c-0.2,1.2,1.1,2.2,2.8,2.2c1.8,0,3.4-1.1,3.6-2.3
			C376,558.6,374.8,557.7,373,557.7z"/>
		<path class="st12" d="M295.3,527.6c-1.8,0-3.4,1.1-3.6,2.3c-0.2,1.2,1.1,2.2,2.8,2.2c1.8,0,3.4-1.1,3.6-2.3
			C298.3,528.5,297.1,527.5,295.3,527.6z"/>
		<path class="st12" d="M303.9,532c-1.8,0-3.4,1.1-3.6,2.3c-0.2,1.2,1.1,2.2,2.8,2.2c1.8,0,3.4-1.1,3.6-2.3
			C307,532.9,305.7,532,303.9,532L303.9,532z"/>
		<path class="st12" d="M312.5,536.4c-1.8,0-3.4,1.1-3.6,2.3c-0.2,1.2,1.1,2.2,2.8,2.2c1.8,0,3.4-1.1,3.6-2.3
			C315.6,537.4,314.3,536.4,312.5,536.4z"/>
		<path class="st12" d="M321.2,540.8c-1.8,0-3.4,1.1-3.6,2.3c-0.2,1.2,1.1,2.2,2.8,2.2c1.8,0,3.4-1.1,3.6-2.3
			C324.2,541.8,322.9,540.8,321.2,540.8z"/>
		<path class="st12" d="M329.8,545.3c-1.8,0-3.4,1.1-3.6,2.3c-0.2,1.2,1.1,2.2,2.8,2.2c1.8,0,3.4-1.1,3.6-2.3
			C332.8,546.2,331.6,545.2,329.8,545.3z"/>
		<path class="st12" d="M338.4,549.7c-1.8,0-3.4,1.1-3.6,2.3c-0.2,1.2,1.1,2.2,2.8,2.2c1.8,0,3.4-1.1,3.6-2.3
			C341.5,550.6,340.2,549.7,338.4,549.7z"/>
		<path class="st12" d="M347.1,554.1c-1.8,0-3.4,1.1-3.6,2.3c-0.2,1.2,1.1,2.2,2.8,2.2c1.8,0,3.4-1.1,3.6-2.3
			C350.1,555.1,348.8,554.1,347.1,554.1z"/>
		<path class="st12" d="M355.7,558.5c-1.8,0-3.4,1.1-3.6,2.3c-0.2,1.2,1.1,2.2,2.8,2.2c1.8,0,3.4-1.1,3.6-2.3
			C358.7,559.5,357.5,558.5,355.7,558.5z"/>
		<path class="st12" d="M364.3,563c-1.8,0-3.4,1.1-3.6,2.3c-0.2,1.2,1.1,2.2,2.8,2.2c1.8,0,3.4-1.1,3.6-2.3
			C367.4,563.9,366.1,562.9,364.3,563z"/>
		<path class="st12" d="M286.6,532.8c-1.8,0-3.4,1.1-3.6,2.3c-0.2,1.2,1.1,2.2,2.8,2.2c1.8,0,3.4-1.1,3.6-2.3
			C289.7,533.8,288.4,532.8,286.6,532.8z"/>
		<path class="st12" d="M295.2,537.3c-1.8,0-3.4,1.1-3.6,2.3c-0.2,1.2,1.1,2.2,2.8,2.2c1.8,0,3.4-1.1,3.6-2.3
			C298.3,538.2,297,537.2,295.2,537.3z"/>
		<path class="st12" d="M303.9,541.7c-1.8,0-3.4,1.1-3.6,2.3c-0.2,1.2,1.1,2.2,2.8,2.2c1.8,0,3.4-1.1,3.6-2.3
			C306.9,542.6,305.6,541.7,303.9,541.7z"/>
		<path class="st12" d="M312.5,546.1c-1.8,0-3.4,1.1-3.6,2.3c-0.2,1.2,1.1,2.2,2.8,2.2c1.8,0,3.4-1.1,3.6-2.3
			C315.5,547.1,314.3,546.1,312.5,546.1z"/>
		<path class="st12" d="M321.1,550.5c-1.8,0-3.4,1.1-3.6,2.3c-0.2,1.2,1.1,2.2,2.8,2.2c1.8,0,3.4-1.1,3.6-2.3
			C324.2,551.5,322.9,550.5,321.1,550.5z"/>
		<path class="st12" d="M329.8,555c-1.8,0-3.4,1.1-3.6,2.3c-0.2,1.2,1.1,2.2,2.8,2.2c1.8,0,3.4-1.1,3.6-2.3S331.5,554.9,329.8,555z"
			/>
		<path class="st12" d="M338.4,559.4c-1.8,0-3.4,1.1-3.6,2.3c-0.2,1.2,1.1,2.2,2.8,2.2c1.8,0,3.4-1.1,3.6-2.3
			C341.4,560.3,340.2,559.4,338.4,559.4z"/>
		<path class="st12" d="M347,563.8c-1.8,0-3.4,1.1-3.6,2.3c-0.2,1.2,1.1,2.2,2.8,2.2c1.8,0,3.4-1.1,3.6-2.3
			C350.1,564.8,348.8,563.8,347,563.8L347,563.8z"/>
		<path class="st12" d="M355.6,568.2c-1.8,0-3.4,1.1-3.6,2.3c-0.2,1.2,1.1,2.2,2.8,2.2c1.8,0,3.4-1.1,3.6-2.3
			C358.7,569.2,357.4,568.2,355.6,568.2z"/>
		<path class="st12" d="M277.9,538.1c-1.8,0-3.4,1.1-3.6,2.3c-0.2,1.2,1.1,2.2,2.8,2.2c1.8,0,3.4-1.1,3.6-2.3
			C281,539.1,279.7,538.1,277.9,538.1z"/>
		<path class="st12" d="M286.6,542.5c-1.8,0-3.4,1.1-3.6,2.3c-0.2,1.2,1.1,2.2,2.8,2.2c1.8,0,3.4-1.1,3.6-2.3
			C289.6,543.5,288.3,542.5,286.6,542.5z"/>
		<path class="st12" d="M295.2,547c-1.8,0-3.4,1.1-3.6,2.3c-0.2,1.2,1.1,2.2,2.8,2.2c1.8,0,3.4-1.1,3.6-2.3
			C298.2,547.9,297,546.9,295.2,547z"/>
		<path class="st12" d="M303.8,551.4c-1.8,0-3.4,1.1-3.6,2.3c-0.2,1.2,1.1,2.2,2.8,2.2c1.8,0,3.4-1.1,3.6-2.3
			C306.9,552.3,305.6,551.4,303.8,551.4z"/>
		<path class="st12" d="M312.5,555.8c-1.8,0-3.4,1.1-3.6,2.3c-0.2,1.2,1.1,2.2,2.8,2.2c1.8,0,3.4-1.1,3.6-2.3
			C315.5,556.8,314.2,555.8,312.5,555.8z"/>
		<path class="st12" d="M321.1,560.2c-1.8,0-3.4,1.1-3.6,2.3c-0.2,1.2,1.1,2.2,2.8,2.2c1.8,0,3.4-1.1,3.6-2.3
			C324.1,561.2,322.9,560.2,321.1,560.2z"/>
		<path class="st12" d="M329.7,564.7c-1.8,0-3.4,1.1-3.6,2.3c-0.2,1.2,1.1,2.2,2.8,2.2c1.8,0,3.4-1.1,3.6-2.3
			C332.8,565.6,331.5,564.6,329.7,564.7z"/>
		<path class="st12" d="M338.3,569.1c-1.8,0-3.4,1.1-3.6,2.3c-0.2,1.2,1.1,2.2,2.8,2.2c1.8,0,3.4-1.1,3.6-2.3
			C341.4,570,340.1,569,338.3,569.1z"/>
		<path class="st12" d="M347,573.5c-1.8,0-3.4,1.1-3.6,2.3c-0.2,1.2,1.1,2.2,2.8,2.2c1.8,0,3.4-1.1,3.6-2.3
			C350,574.4,348.7,573.5,347,573.5z"/>
		<path class="st12" d="M269.3,543.4c-1.8,0-3.4,1.1-3.6,2.3c-0.2,1.2,1.1,2.2,2.8,2.2c1.8,0,3.4-1.1,3.6-2.3
			C272.3,544.3,271,543.4,269.3,543.4z"/>
		<path class="st12" d="M277.9,547.8c-1.8,0-3.4,1.1-3.6,2.3c-0.2,1.2,1.1,2.2,2.8,2.2c1.8,0,3.4-1.1,3.6-2.3
			C280.9,548.8,279.7,547.8,277.9,547.8z"/>
		<path class="st12" d="M286.5,552.2c-1.8,0-3.4,1.1-3.6,2.3c-0.2,1.2,1.1,2.2,2.8,2.2c1.8,0,3.4-1.1,3.6-2.3
			C289.6,553.2,288.3,552.2,286.5,552.2L286.5,552.2z"/>
		<path class="st12" d="M295.2,556.7c-1.8,0-3.4,1.1-3.6,2.3c-0.2,1.2,1.1,2.2,2.8,2.2c1.8,0,3.4-1.1,3.6-2.3
			C298.2,557.6,296.9,556.6,295.2,556.7z"/>
		<path class="st12" d="M303.8,561.1c-1.8,0-3.4,1.1-3.6,2.3c-0.2,1.2,1.1,2.2,2.8,2.2s3.4-1.1,3.6-2.3
			C306.8,562,305.6,561,303.8,561.1z"/>
		<path class="st12" d="M312.4,565.5c-1.8,0-3.4,1.1-3.6,2.3c-0.2,1.2,1.1,2.2,2.8,2.2c1.8,0,3.4-1.1,3.6-2.3
			C315.5,566.4,314.2,565.5,312.4,565.5z"/>
		<path class="st12" d="M321,569.9c-1.8,0-3.4,1.1-3.6,2.3c-0.2,1.2,1.1,2.2,2.8,2.2c1.8,0,3.4-1.1,3.6-2.3
			C324.1,570.9,322.8,569.9,321,569.9z"/>
		<path class="st12" d="M329.7,574.4c-1.8,0-3.4,1.1-3.6,2.3c-0.2,1.2,1.1,2.2,2.8,2.2c1.8,0,3.4-1.1,3.6-2.3
			C332.7,575.3,331.4,574.3,329.7,574.4z"/>
		<path class="st12" d="M260.6,548.7c-1.8,0-3.4,1.1-3.6,2.3c-0.2,1.2,1.1,2.2,2.8,2.2c1.8,0,3.4-1.1,3.6-2.3
			C263.6,549.6,262.4,548.6,260.6,548.7z"/>
		<path class="st12" d="M269.2,553.1c-1.8,0-3.4,1.1-3.6,2.3c-0.2,1.2,1.1,2.2,2.8,2.2c1.8,0,3.4-1.1,3.6-2.3
			C272.3,554,271,553.1,269.2,553.1z"/>
		<path class="st12" d="M277.9,557.5c-1.8,0-3.4,1.1-3.6,2.3c-0.2,1.2,1.1,2.2,2.8,2.2c1.8,0,3.4-1.1,3.6-2.3
			C280.9,558.5,279.6,557.5,277.9,557.5z"/>
		<path class="st12" d="M286.5,561.9c-1.8,0-3.4,1.1-3.6,2.3c-0.2,1.2,1.1,2.2,2.8,2.2c1.8,0,3.4-1.1,3.6-2.3
			C289.5,562.9,288.3,561.9,286.5,561.9z"/>
		<path class="st12" d="M295.1,566.4c-1.8,0-3.4,1.1-3.6,2.3c-0.2,1.2,1.1,2.2,2.8,2.2c1.8,0,3.4-1.1,3.6-2.3
			C298.2,567.3,296.9,566.3,295.1,566.4z"/>
		<path class="st12" d="M303.7,570.8c-1.8,0-3.4,1.1-3.6,2.3c-0.2,1.2,1.1,2.2,2.8,2.2c1.8,0,3.4-1.1,3.6-2.3
			C306.8,571.7,305.5,570.7,303.7,570.8z"/>
		<path class="st12" d="M312.4,575.2c-1.8,0-3.4,1.1-3.6,2.3c-0.2,1.2,1.1,2.2,2.8,2.2c1.8,0,3.4-1.1,3.6-2.3
			C315.4,576.1,314.1,575.2,312.4,575.2z"/>
	</g>
	<g>
		<g>
			<path class="st3" d="M144.8,476c-29.8,0-55.7-12.8-63-31.2c-1-2.6-1.7-5.2-1.9-7.8c-0.3-2.5-0.2-82.7-0.2-211.2
				c0-23.5,0-40.4,0-41.2c-0.3-19.7,20.3-36.5,50.1-41.1c5-0.8,10.2-1.1,15.3-1.1c29.8,0,55.7,12.8,63,31.2c1,2.4,1.6,4.9,1.9,7.4
				c0.3,2.9,0.4,98.9,0.4,128.2c0,12.8,0,125-0.3,128c-1.9,18.4-22,33.6-49.9,37.9C155.1,475.6,149.9,476,144.8,476
				C144.8,476,144.8,476,144.8,476z"/>
			<g>
				<path class="st12" d="M145.1,146.7c27.3,0,52.1,11.4,58.9,28.4c0.8,2.1,1.4,4.2,1.6,6.2c0.5,3.9,0.4,251.6,0,255.2
					c-1.6,15.9-19.7,29.9-46.2,33.9c-4.9,0.7-9.8,1.1-14.6,1.1c-27.3,0-52.1-11.4-58.9-28.4c-0.9-2.2-1.4-4.4-1.6-6.6
					c-0.4-3.8-0.1-249.3-0.1-252.1c-0.3-16.9,18.4-32.4,46.3-36.6C135.3,147.1,140.2,146.7,145.1,146.7 M145.1,137.8
					c-5.3,0-10.7,0.4-16,1.2c-32,4.9-54.2,23.6-53.8,45.5c0,0.9,0,17.8,0,41.1c-0.1,175.3,0,209.7,0.2,211.8c0.3,3,1.1,6.1,2.2,9
					c4.2,10.4,13.2,19.1,26.2,25.3c11.8,5.6,26.3,8.7,41,8.7c5.3,0,10.7-0.4,16-1.2c30-4.5,51.6-21.3,53.7-41.8
					c0.5-5.1,0.5-252.6-0.1-257.1c-0.3-2.9-1.1-5.7-2.2-8.5c-4.2-10.4-13.2-19.1-26.2-25.3C174.2,140.9,159.7,137.8,145.1,137.8
					L145.1,137.8z"/>
			</g>
		</g>
		<path class="st127" d="M208,211.8c0,17.4-19.3,33.2-48,37.6c-33.8,5.1-68-7.6-76.3-28.3c-1.2-3.1-1.8-6.2-1.8-9.3"/>
		<path class="st128" d="M204,175.1c8,20-11.9,40.3-44.5,45.2c-32.6,4.9-65.5-7.3-73.6-27.3s11.9-40.3,44.5-45.2
			C163,142.9,196,155.1,204,175.1z"/>
	</g>
	<path class="st127" d="M395.2,510.2l-0.1-0.1l-0.1-0.1L352,484.1l-114.5,68.7l31.2,19.2c16.5,9.5,39.6,14.9,63.4,14.9
		c23.8,0,46.8-5.4,62.9-14.9l0.1,0l0.1,0c15.2-8.5,24-19.8,24-30.9C419.1,529.9,410.4,518.7,395.2,510.2z"/>
	<path class="st126" d="M341.4,207.7c0.4-17.4-5.6-31.1-16.6-37.7c-0.9-0.5-88.9-55.6-100.9-61.7c-4-2.1-8.7-3.2-13.9-3.3
		c-27.5-0.5-59.9,29.4-72.3,66.7c-3.5,10.5-5,20.4-4.9,29.3L132.2,485l99.2,60.8l110.8-68.4V288.2L341.4,207.7z"/>
	<path class="st127" d="M342.2,477.4V288.2l-0.8-80.4c0.5-24.3-11.5-41.6-32.1-42c-27.5-0.5-59.9,29.4-72.3,66.7
		c-3.5,10.5-5,20.4-4.9,29.3l-0.7,284.2L342.2,477.4z"/>
	<path class="st128" d="M330.1,450.7c0.9-1.6,1.5-3.3,1.4-4.9l-0.9-160.9c0-3.2-2.3-4.4-5-2.8L244,329.5c-1.4,0.8-2.6,2.2-3.5,3.7
		c-0.9,1.6-1.4,3.3-1.4,4.9L240,499c0,3.2,2.3,4.4,5,2.8l81.6-47.4C327.9,453.6,329.2,452.3,330.1,450.7L330.1,450.7z"/>
	<path class="st126" d="M394.7,435.6c0-9-7.1-18.2-19.5-25.1l-0.1-0.1l-0.1-0.1l-41.9-25.3L239.9,441v22.3l32.4,19.8
		c13.4,7.7,32.2,12.1,51.6,12.1c19.4,0,38-4.4,51.2-12.1l0.1,0l0.1,0c12.4-6.9,19.5-16.1,19.5-25.1
		C394.7,454.1,394.7,439.3,394.7,435.6z"/>
	<path class="st127" d="M238.7,441l32.4,19.8c13.4,7.7,32.2,12.1,51.6,12.1c19.4,0,38-4.4,51.2-12.1l0.1,0l0.1,0
		c12.4-6.9,19.5-16.1,19.5-25.1c0-9-7.1-18.2-19.5-25.1l-0.1-0.1l-0.1-0.1"/>
	<g>
		<path class="st129" d="M313.3,186c-3.2-1.7-6.9-2.7-11.1-2.7c-21.6-0.4-47,23.1-56.8,52.4c-9.4,28.1-0.9,51.3,18.8,53.5
			c0.8,0.1,13.3,1.6,16.5,1.6c19.7,0.3,42.9-21.1,51.8-47.8c5.8-17.4,4.1-32.7-3.2-41.4C327.7,199.6,317.7,188.3,313.3,186z"/>
		<path class="st127" d="M334.3,242.9c-8.9,26.7-32.1,48.1-51.8,47.8c-19.7-0.3-28.5-22.2-19.6-48.9c8.9-26.7,32.1-48.1,51.8-47.8
			C334.5,194.3,343.2,216.2,334.3,242.9z"/>
		<path class="st129" d="M323.1,301.5c-8.6,0-15.9-6.7-16.6-15.4c-2.4-31-6.5-36.5-8-37.9c-7.4-3.3-11.5-11.5-9.3-19.5
			c2.4-8.9,11.5-14.2,20.4-11.8c26.6,7.1,29,52.1,30.2,66.7c0.7,9.2-6.2,17.2-15.4,17.9C324,301.5,323.5,301.5,323.1,301.5z"/>
	</g>
	<path class="st126" d="M358.9,357.1c-5.3-13.3-27.2-21.4-48.8-18.1c-21.7,3.3-34.9,16.7-29.6,30c0.1,0.1,0.1,0.2,0.2,0.4
		c0.6,4.1,9.1,59,9.2,59.4c0.1,1,0.4,2.1,0.8,3.2c3.9,9.8,20,15.7,35.8,13.3c12.8-1.9,21.5-8.7,22.5-16.3c0.1-0.4,8.2-50.7,9.6-59.2
		C360.4,365.7,360.6,361.4,358.9,357.1z"/>
	<path class="st127" d="M357.9,357.3c5.2,12.9-7.7,25.9-28.7,29.1c-21,3.2-42.2-4.7-47.3-17.6s7.7-25.9,28.7-29.1
		C331.5,336.5,352.7,344.4,357.9,357.3z"/>
	<path class="st12" d="M311.5,355.5c-11.8,1.8-20.6,7.2-24.2,13.8c5.3,10.5,23,16.8,40.6,14.1c11.8-1.8,20.6-7.1,24.2-13.7
		C346.9,359.1,329.2,352.8,311.5,355.5z"/>
</g>
</svg>
